<svg xmlns="http://www.w3.org/2000/svg"><defs><font id="BahijMitraRegular" horiz-adv-x="717"><font-face font-family="BahijMitraRegular" font-weight="400" units-per-em="2048" panose-1="2 4 5 3 5 2 1 2 2 3" ascent="1368" descent="-680" x-height="691" cap-height="987" bbox="-246 -1695 4337 2092" underline-thickness="40" underline-position="-130" unicode-range="U+0020-FEFC"/><glyph glyph-name="uniFB01" unicode="fi" horiz-adv-x="877" d="M617 358q0 180-12 330 30-8 71-8 42 0 74 8-9-158-9-378 0-52 10-317-27 9-70 9t-75-9q11 191 11 365zm143 566q0-32-23-55t-56-23q-32 0-55 23t-23 55q0 33 23 56t55 23q33 0 56-23t23-56zm-282 127l-8-119-11-5q-48 17-81 17-109 0-109-128 0-77 20-148 50 0 153 3-2-32-2-36 0-10 2-27-101 2-151 2l2-233q0-143 10-384-65 9-76 9-10 0-78-9 14 144 14 381 0 99-4 236-40 0-121-2 3 22 3 30 0 7-3 33 81-3 122-3 6 163 91 278 83 110 189 110 21 0 38-5z"/><glyph glyph-name="uniFB02" unicode="fl" horiz-adv-x="877" d="M611 546q0 340-9 507 49-8 75-8 23 0 75 8-10-292-10-539 0-253 12-521-37 10-77 10-37 0-74-10 8 151 8 553zm-133 505l-8-119-11-5q-48 17-81 17-109 0-109-128 0-77 20-148 50 0 153 3-2-32-2-36 0-10 2-27-101 2-151 2l2-233q0-143 10-384-65 9-76 9-10 0-78-9 14 144 14 381 0 99-4 236-40 0-121-2 3 22 3 30 0 7-3 33 81-3 122-3 6 163 91 278 83 110 189 110 21 0 38-5z"/><glyph glyph-name="uniFC31" unicode="ﻓﻰ" horiz-adv-x="1822" arabic-form="isolated" d="M1632 506q0 55-62 111-66 58-146 58-63-51-63-169 39-40 127-40 92 0 144 40zM1024 0Q873 0 819-73q34-24 112-41 100-22 135.5-43t35.5-62q0-19-12-88-14-73-25-102-116-55-291-93-187-41-350-41-161 0-258 75Q63-389 63-248q0 165 142 412 32 0 62-30-37-62-63-153-23-84-23-140 0-106 73.5-167.5T461-388q152 0 334 27 161 24 242 51-10 53-136 77-99 18-162 60 16 100 45 212 98 105 258 105h151q141 0 269 24 114 21 149 47 33 63 37 160-64-52-185-52-102 0-171 52-12 67-12 114 0 212 167 343 274-63 274-426 0-163-55-301-52-38-193-71-147-34-278-34h-171zm559 1123l-112-112-125 105 114 114z"/><glyph glyph-name="uniFC32" unicode="ﻓﻲ" horiz-adv-x="1822" arabic-form="isolated" d="M1632 506q0 55-62 111-66 58-146 58-63-51-63-169 39-40 127-40 92 0 144 40zM762-776L650-888 525-783l114 113zM1024 0Q873 0 819-73q34-24 112-41 100-22 135.5-43t35.5-62q0-19-12-88-14-73-25-102-116-55-291-93-187-41-350-41-161 0-258 75Q63-389 63-248q0 165 142 412 32 0 62-30-37-62-63-153-23-84-23-140 0-106 73.5-167.5T461-388q152 0 334 27 161 24 242 51-10 53-136 77-99 18-162 60 16 100 45 212 98 105 258 105h151q141 0 269 24 114 21 149 47 33 63 37 160-64-52-185-52-102 0-171 52-12 67-12 114 0 212 167 343 274-63 274-426 0-163-55-301-52-38-193-71-147-34-278-34h-171zm559 1123l-112-112-125 105 114 114zM513-796L401-908 276-804l114 113z"/><glyph glyph-name="uniFC43" unicode="ﻟﻰ" horiz-adv-x="1599" arabic-form="isolated" d="M1024 0Q873 0 819-73q34-24 112-41 100-22 135.5-43t35.5-62q0-19-12-88-14-73-25-102-116-55-291-93-187-41-350-41-161 0-258 75Q63-389 63-248q0 165 142 412 32 0 62-30-37-62-63-153-23-84-23-140 0-106 73.5-167.5T461-388q152 0 334 27 161 24 242 51-10 53-136 77-99 18-162 60 16 100 45 212 98 105 258 105h173q87 0 144 63 0 346-25 625-23 252-54 325h-4l103 128q17-52 56-143 42-92 62-120-47 10-78 32 32-418 32-796 0-72-71-156Q1296 2 1177 0h-153z"/><glyph glyph-name="uniFC44" unicode="ﻟﻲ" horiz-adv-x="1599" arabic-form="isolated" d="M762-776L650-888 525-783l114 113zm-249-20L401-908 276-804l114 113zM1024 0Q873 0 819-73q34-24 112-41 100-22 135.5-43t35.5-62q0-19-12-88-14-73-25-102-116-55-291-93-187-41-350-41-161 0-258 75Q63-389 63-248q0 165 142 412 32 0 62-30-37-62-63-153-23-84-23-140 0-106 73.5-167.5T461-388q152 0 334 27 161 24 242 51-10 53-136 77-99 18-162 60 16 100 45 212 98 105 258 105h173q87 0 144 63 0 346-25 625-23 252-54 325h-4l103 128q17-52 56-143 42-92 62-120-47 10-78 32 32-418 32-796 0-72-71-156Q1296 2 1177 0h-153z"/><glyph glyph-name="uniFC64" unicode="ﺌﺮ" horiz-adv-x="1239" arabic-form="final" d="M1085 652q-25-4-62-15.5t-77-26-79-31.5-68-33v65q18 10 42.5 20.5T896 650v3q-81 29-81 104 85 129 169 129 55 0 90-59l-54-42q-19 19-36 27t-31 8q-38 0-80-57 30-65 104-68 26 7 58.5 17t71.5 17zM677 0q-52 0-111 52-21-166-93-298-70-128-225-288-67 0-142 20T0-468q218 103 355 253Q466-94 483 0q-17 126-141 244l62 187 94-146q91-141 179-141h43q217 0 217 194v32q10 7 30 7 21 0 34-10v-31q0-116 48-156 43-36 171-36h21q25 0 25-30V25q0-25-25-25h-21q-119 0-187 43-58 36-63 91h-8q-13-58-76-98Q827 0 763 0h-86z"/><glyph glyph-name="uniFC67" unicode="ﺌﻦ" horiz-adv-x="1711" arabic-form="final" d="M725 589L613 477 488 582l113 114zm824 63q-26-4-62.5-15.5t-77-26-79-31.5-67.5-33v65q18 10 42.5 20.5T1360 650v3q-81 29-81 104 85 129 169 129 54 0 90-59l-54-42q-19 19-36.5 27t-30.5 8q-38 0-80-57 30-65 103-68 27 7 59.5 17t71.5 17zM1146 0q-53 0-93 43l-3-4q26-68 26-153-15-92-62-207-86-85-245-150-177-72-346-72-160 0-257 76Q63-387 63-246q0 165 141 412 32 0 62-29-37-63-63-154-22-84-22-140 0-106 73-169t206-62q315 2 543 210-24 233-147 422l63 187q129-287 227-287h47q217 0 217 194v32q10 7 30 7 21 0 34-10v-31q0-116 48-156 43-36 171-36h21q25 0 25-30V25q0-25-25-25h-21q-119 0-187 43-58 36-63 91h-8q-13-58-77-98-58-36-123-36h-89z"/><glyph glyph-name="uniFC6A" unicode="ﺒﺮ" horiz-adv-x="1127" arabic-form="final" d="M677 0q-52 0-111 52-21-166-93-298-70-128-225-288-67 0-142 20T0-468q218 103 355 253Q466-94 483 0q-17 126-141 244l62 187 94-146q91-141 179-141h43q79 0 127 55 47 52 47 134v31q10 8 29 8 22 0 35-10v-32q0-110 40-151 34-35 117-35h21q26 0 26-30V25q0-25-26-25h-21q-77 0-132 43-52 39-56 91h-8q-13-58-76-98Q784 0 720 0h-43zm360-282L926-394 800-289l114 113z"/><glyph glyph-name="uniFC70" unicode="ﺘﺮ" horiz-adv-x="1238" arabic-form="final" d="M1203 721l-112-112-124 103 113 114zm-248-21L843 588 718 692l114 114zM677 0q-52 0-111 52-21-166-93-298-70-128-225-288-67 0-142 20T0-468q218 103 355 253Q466-94 483 0q-17 126-141 244l62 187 94-146q91-141 179-141h43q217 0 217 189v31q10 8 30 8 21 0 34-10v-32q0-112 48-151 43-35 171-35h21q25 0 25-30V25q0-25-25-25h-21q-119 0-187 43-58 36-63 91h-8q-13-58-76-98Q827 0 763 0h-86z"/><glyph glyph-name="uniFC86" unicode="ﻠﻰ" horiz-adv-x="1607" arabic-form="final" d="M1024 0Q873 0 819-73q34-24 112-41 100-22 135.5-43t35.5-62q0-19-12-88-14-73-25-102-116-55-291-93-187-41-350-41-161 0-258 75Q63-389 63-248q0 165 142 412 32 0 62-30-37-62-63-153-23-84-23-140 0-106 73.5-167.5T461-388q152 0 334 27 161 24 242 51-10 53-136 77-99 18-162 60 16 100 45 212 98 105 258 105h172q107 0 162 71l-64 897 107 173q9-594 41-996 11-145 128-145h21q26 0 26-30V25q0-25-26-25h-21q-51 0-99 34-53 36-74 98Q1329 0 1212 0h-188z"/><glyph glyph-name="uniFC87" unicode="ﻠﻲ" horiz-adv-x="1607" arabic-form="final" d="M762-776L650-888 525-783l114 113zm-249-20L401-908 276-804l114 113zM1024 0Q873 0 819-73q34-24 112-41 100-22 135.5-43t35.5-62q0-19-12-88-14-73-25-102-116-55-291-93-187-41-350-41-161 0-258 75Q63-389 63-248q0 165 142 412 32 0 62-30-37-62-63-153-23-84-23-140 0-106 73.5-167.5T461-388q152 0 334 27 161 24 242 51-10 53-136 77-99 18-162 60 16 100 45 212 98 105 258 105h172q107 0 162 71l-64 897 107 173q9-594 41-996 11-145 128-145h21q26 0 26-30V25q0-25-26-25h-21q-51 0-99 34-53 36-74 98Q1329 0 1212 0h-188z"/><glyph glyph-name="uniFCCC" unicode="ﻟﻤ" horiz-adv-x="632" d="M560 118q0-98-24-154-84 31-176 79-88 46-147 58Q109 0 9 0h-20q-26 0-26 25v89q0 30 26 30h38q33 0 98 29 68 31 96 62-19 242-19 283 0 136-20 338-22 225-50 301l102 128q59-176 117-265-47 14-76 34 11-169 26-543 4-168 24-269 83-79 235-124z"/><glyph glyph-name="uniFCFB" unicode="ﺳﻰ" horiz-adv-x="2255" arabic-form="isolated" d="M1024 0Q873 0 819-73q34-24 112-41 100-22 135.5-43t35.5-62q0-19-12-88-14-73-25-102-116-55-291-93-187-41-350-41-161 0-258 75Q63-389 63-248q0 165 142 412 32 0 62-30-37-62-63-153-23-84-23-140 0-106 73.5-167.5T461-388q152 0 334 27 161 24 242 51-10 53-136 77-99 18-162 60 16 100 45 212 98 105 258 105h151q196 0 196 223 14 7 28 7 21 0 43-12-6-59-6-106 0-45 30-78.5t73-33.5q78 0 121 63 43 60 43 160 14 7 28 7 20 0 43-12-5-59-5-106 0-46 30.5-79t76.5-33q137 0 185 102-15 79-91 151l77 182q90-143 105-294-24-116-93-197-74-88-162-88-142 0-166 134h-4Q1704 0 1570 0q-58 0-102 35-47 36-58 99h-4q-19-59-75-97-58-37-138-37h-169z"/><glyph glyph-name="uniFCFC" unicode="ﺳﻲ" horiz-adv-x="2255" arabic-form="isolated" d="M762-776L650-888 525-783l114 113zm-249-20L401-908 276-804l114 113zM1024 0Q873 0 819-73q34-24 112-41 100-22 135.5-43t35.5-62q0-19-12-88-14-73-25-102-116-55-291-93-187-41-350-41-161 0-258 75Q63-389 63-248q0 165 142 412 32 0 62-30-37-62-63-153-23-84-23-140 0-106 73.5-167.5T461-388q152 0 334 27 161 24 242 51-10 53-136 77-99 18-162 60 16 100 45 212 98 105 258 105h151q196 0 196 223 14 7 28 7 21 0 43-12-6-59-6-106 0-45 30-78.5t73-33.5q78 0 121 63 43 60 43 160 14 7 28 7 20 0 43-12-5-59-5-106 0-46 30.5-79t76.5-33q137 0 185 102-15 79-91 151l77 182q90-143 105-294-24-116-93-197-74-88-162-88-142 0-166 134h-4Q1704 0 1570 0q-58 0-102 35-47 36-58 99h-4q-19-59-75-97-58-37-138-37h-169z"/><glyph glyph-name="uniFCFD" unicode="ﺷﻰ" horiz-adv-x="2255" arabic-form="isolated" d="M1861 1017l-98-100-99 100 99 99zm118-202l-98-99-100 99 100 99zm-235 0l-99-99-101 99 101 99zM1024 0Q873 0 819-73q34-24 112-41 100-22 135.5-43t35.5-62q0-19-12-88-14-73-25-102-116-55-291-93-187-41-350-41-161 0-258 75Q63-389 63-248q0 165 142 412 32 0 62-30-37-62-63-153-23-84-23-140 0-106 73.5-167.5T461-388q152 0 334 27 161 24 242 51-10 53-136 77-99 18-162 60 16 100 45 212 98 105 258 105h151q196 0 196 223 14 7 28 7 21 0 43-12-6-59-6-106 0-45 30-78.5t73-33.5q78 0 121 63 43 60 43 160 14 7 28 7 20 0 43-12-5-59-5-106 0-46 30.5-79t76.5-33q137 0 185 102-15 79-91 151l77 182q90-143 105-294-24-116-93-197-74-88-162-88-142 0-166 134h-4Q1704 0 1570 0q-58 0-102 35-47 36-58 99h-4q-19-59-75-97-58-37-138-37h-169z"/><glyph glyph-name="uniFCFE" unicode="ﺷﻲ" horiz-adv-x="2255" arabic-form="isolated" d="M762-776L650-888 525-783l114 113zm-249-20L401-908 276-804l114 113zm1348 1813l-98-100-99 100 99 99zm118-202l-98-99-100 99 100 99zm-235 0l-99-99-101 99 101 99zM1024 0Q873 0 819-73q34-24 112-41 100-22 135.5-43t35.5-62q0-19-12-88-14-73-25-102-116-55-291-93-187-41-350-41-161 0-258 75Q63-389 63-248q0 165 142 412 32 0 62-30-37-62-63-153-23-84-23-140 0-106 73.5-167.5T461-388q152 0 334 27 161 24 242 51-10 53-136 77-99 18-162 60 16 100 45 212 98 105 258 105h151q196 0 196 223 14 7 28 7 21 0 43-12-6-59-6-106 0-45 30-78.5t73-33.5q78 0 121 63 43 60 43 160 14 7 28 7 20 0 43-12-5-59-5-106 0-46 30.5-79t76.5-33q137 0 185 102-15 79-91 151l77 182q90-143 105-294-24-116-93-197-74-88-162-88-142 0-166 134h-4Q1704 0 1570 0q-58 0-102 35-47 36-58 99h-4q-19-59-75-97-58-37-138-37h-169z"/><glyph glyph-name="uniFD05" unicode="ﺻﻰ" horiz-adv-x="2508" arabic-form="isolated" d="M2309 256q0 65-59.5 121T2115 433q-185 0-440-289h187q136 0 268 34 125 32 179 78zM1024 0Q873 0 819-73q34-24 112-41 100-22 135.5-43t35.5-62q0-19-12-88-14-73-25-102-116-55-291-93-187-41-350-41-161 0-258 75Q63-389 63-248q0 165 142 412 32 0 62-30-37-62-63-153-23-84-23-140 0-106 73.5-167.5T461-388q152 0 334 27 161 24 242 51-10 53-136 77-99 18-162 60 16 100 45 212 98 105 258 105h151q196 0 196 223 14 7 28 7 21 0 43-12-6-59-6-106 0-46 35-79t97-33q215 250 366 345 108 69 211 69 112 0 190-81 73-75 73-167-114-177-294-246-166-64-467-64-230 0-255 134h-4q-19-59-75-97-58-37-138-37h-169z"/><glyph glyph-name="uniFD06" unicode="ﺻﻲ" horiz-adv-x="2508" arabic-form="isolated" d="M2309 256q0 65-59.5 121T2115 433q-185 0-440-289h187q136 0 268 34 125 32 179 78zM762-776L650-888 525-783l114 113zM1024 0Q873 0 819-73q34-24 112-41 100-22 135.5-43t35.5-62q0-19-12-88-14-73-25-102-116-55-291-93-187-41-350-41-161 0-258 75Q63-389 63-248q0 165 142 412 32 0 62-30-37-62-63-153-23-84-23-140 0-106 73.5-167.5T461-388q152 0 334 27 161 24 242 51-10 53-136 77-99 18-162 60 16 100 45 212 98 105 258 105h151q196 0 196 223 14 7 28 7 21 0 43-12-6-59-6-106 0-46 35-79t97-33q215 250 366 345 108 69 211 69 112 0 190-81 73-75 73-167-114-177-294-246-166-64-467-64-230 0-255 134h-4q-19-59-75-97-58-37-138-37h-169zM513-796L401-908 276-804l114 113z"/><glyph glyph-name="uniFD07" unicode="ﺿﻰ" horiz-adv-x="2508" arabic-form="isolated" d="M2309 256q0 65-59.5 121T2115 433q-185 0-440-289h187q136 0 268 34 125 32 179 78zM1024 0Q873 0 819-73q34-24 112-41 100-22 135.5-43t35.5-62q0-19-12-88-14-73-25-102-116-55-291-93-187-41-350-41-161 0-258 75Q63-389 63-248q0 165 142 412 32 0 62-30-37-62-63-153-23-84-23-140 0-106 73.5-167.5T461-388q152 0 334 27 161 24 242 51-10 53-136 77-99 18-162 60 16 100 45 212 98 105 258 105h151q196 0 196 223 14 7 28 7 21 0 43-12-6-59-6-106 0-46 35-79t97-33q215 250 366 345 108 69 211 69 112 0 190-81 73-75 73-167-114-177-294-246-166-64-467-64-230 0-255 134h-4q-19-59-75-97-58-37-138-37h-169zm1189 931l-111-112-126 105 114 114z"/><glyph glyph-name="uniFD08" unicode="ﺿﻲ" horiz-adv-x="2508" arabic-form="isolated" d="M2309 256q0 65-59.5 121T2115 433q-185 0-440-289h187q136 0 268 34 125 32 179 78zM762-776L650-888 525-783l114 113zM1024 0Q873 0 819-73q34-24 112-41 100-22 135.5-43t35.5-62q0-19-12-88-14-73-25-102-116-55-291-93-187-41-350-41-161 0-258 75Q63-389 63-248q0 165 142 412 32 0 62-30-37-62-63-153-23-84-23-140 0-106 73.5-167.5T461-388q152 0 334 27 161 24 242 51-10 53-136 77-99 18-162 60 16 100 45 212 98 105 258 105h151q196 0 196 223 14 7 28 7 21 0 43-12-6-59-6-106 0-46 35-79t97-33q215 250 366 345 108 69 211 69 112 0 190-81 73-75 73-167-114-177-294-246-166-64-467-64-230 0-255 134h-4q-19-59-75-97-58-37-138-37h-169zm1189 931l-111-112-126 105 114 114zM513-796L401-908 276-804l114 113z"/><glyph glyph-name="uniFD0D" unicode="ﺷﺮ" horiz-adv-x="1765" arabic-form="isolated" d="M1388 1017l-98-100-99 100 99 99zM677 0q-52 0-111 52-21-166-93-298-70-128-225-288-67 0-142 20T0-468q218 103 355 253Q466-94 483 0q-17 126-141 244l62 187 94-146q91-141 179-141h43q196 0 196 223 14 7 28 7 21 0 43-12-6-59-6-106 0-45 30-78.5t73-33.5q78 0 121 63 43 60 43 160 14 7 28 7 20 0 43-12-5-59-5-106 0-46 30.5-79t76.5-33q137 0 185 102-15 79-91 151l77 182q90-143 105-294-24-116-93-197-73-88-162-88-142 0-166 134h-4Q1231 0 1097 0q-58 0-102 35-47 36-58 99h-4q-19-59-75-97Q800 0 720 0h-43zm594 815l-99-99-101 99 101 99zm235 0l-98-99-100 99 100 99z"/><glyph glyph-name="uniFD0E" unicode="ﺳﺮ" horiz-adv-x="1765" arabic-form="isolated" d="M677 0q-52 0-111 52-21-166-93-298-70-128-225-288-67 0-142 20T0-468q218 103 355 253Q466-94 483 0q-17 126-141 244l62 187 94-146q91-141 179-141h43q196 0 196 223 14 7 28 7 21 0 43-12-6-59-6-106 0-45 30-78.5t73-33.5q78 0 121 63 43 60 43 160 14 7 28 7 20 0 43-12-5-59-5-106 0-46 30.5-79t76.5-33q137 0 185 102-15 79-91 151l77 182q90-143 105-294-24-116-93-197-73-88-162-88-142 0-166 134h-4Q1231 0 1097 0q-58 0-102 35-47 36-58 99h-4q-19-59-75-97Q800 0 720 0h-43z"/><glyph glyph-name="uniFD0F" unicode="ﺻﺮ" horiz-adv-x="2033" arabic-form="isolated" d="M1836 256q0 65-59.5 121T1642 433q-185 0-440-289h187q136 0 268 34 125 32 179 78zM677 0q-52 0-111 52-21-166-93-298-70-128-225-288-67 0-142 20T0-468q218 103 355 253Q466-94 483 0q-17 126-141 244l62 187 94-146q91-141 179-141h43q196 0 196 223 14 7 28 7 21 0 43-12-6-59-6-106 0-46 35-79t97-33q215 250 366 345 108 69 211 69 112 0 190-81 73-75 73-167-114-177-294-246-166-64-467-64-230 0-255 134h-4q-19-59-75-97Q800 0 720 0h-43z"/><glyph glyph-name="uniFD10" unicode="ﺿﺮ" horiz-adv-x="2033" arabic-form="isolated" d="M1740 931l-111-112-126 105 114 114zm96-675q0 65-59.5 121T1642 433q-185 0-440-289h187q136 0 268 34 125 32 179 78zM677 0q-52 0-111 52-21-166-93-298-70-128-225-288-67 0-142 20T0-468q218 103 355 253Q466-94 483 0q-17 126-141 244l62 187 94-146q91-141 179-141h43q196 0 196 223 14 7 28 7 21 0 43-12-6-59-6-106 0-46 35-79t97-33q215 250 366 345 108 69 211 69 112 0 190-81 73-75 73-167-114-177-294-246-166-64-467-64-230 0-255 134h-4q-19-59-75-97Q800 0 720 0h-43z"/><glyph glyph-name="uniFD17" unicode="ﺴﻰ" horiz-adv-x="2297" arabic-form="final" d="M1024 0Q873 0 819-73q34-24 112-41 100-22 135.5-43t35.5-62q0-19-12-88-14-73-25-102-116-55-291-93-187-41-350-41-161 0-258 75Q63-389 63-248q0 165 142 412 32 0 62-30-37-62-63-153-23-84-23-140 0-106 73.5-167.5T461-388q152 0 334 27 161 24 242 51-10 53-136 77-99 18-162 60 16 100 45 212 98 105 258 105h140l20-2q196 3 196 223 14 7 28 7 21 0 43-12-6-56-6-104 0-46 34.5-79t92.5-33q78 0 122 63 42 59 42 158 14 7 28 7 21 0 43-12-6-56-6-104 0-46 31-79t78-33q77 0 122 63 42 59 42 158 14 7 28 7 20 0 43-12-6-56-6-104 0-46 33.5-79t88.5-33h20q26 0 26-30V25q0-25-26-25h-20q-54 0-100.5 37.5T2120 134h-4Q2077 0 1948 0q-141 0-166 134h-4Q1737 0 1604 0q-160 0-185 134h-4q-19-59-75-97-58-37-138-37h-178z"/><glyph glyph-name="uniFD18" unicode="ﺴﻲ" horiz-adv-x="2297" arabic-form="final" d="M762-776L650-888 525-783l114 113zm-249-20L401-908 276-804l114 113zM1024 0Q873 0 819-73q34-24 112-41 100-22 135.5-43t35.5-62q0-19-12-88-14-73-25-102-116-55-291-93-187-41-350-41-161 0-258 75Q63-389 63-248q0 165 142 412 32 0 62-30-37-62-63-153-23-84-23-140 0-106 73.5-167.5T461-388q152 0 334 27 161 24 242 51-10 53-136 77-99 18-162 60 16 100 45 212 98 105 258 105h140l20-2q196 3 196 223 14 7 28 7 21 0 43-12-6-56-6-104 0-46 34.5-79t92.5-33q78 0 122 63 42 59 42 158 14 7 28 7 21 0 43-12-6-56-6-104 0-46 31-79t78-33q77 0 122 63 42 59 42 158 14 7 28 7 20 0 43-12-6-56-6-104 0-46 33.5-79t88.5-33h20q26 0 26-30V25q0-25-26-25h-20q-54 0-100.5 37.5T2120 134h-4Q2077 0 1948 0q-141 0-166 134h-4Q1737 0 1604 0q-160 0-185 134h-4q-19-59-75-97-58-37-138-37h-178z"/><glyph glyph-name="uniFD19" unicode="ﺸﻰ" horiz-adv-x="2297" arabic-form="final" d="M1878 938l-99-99-99 99 99 99zM1024 0Q873 0 819-73q34-24 112-41 100-22 135.5-43t35.5-62q0-19-12-88-14-73-25-102-116-55-291-93-187-41-350-41-161 0-258 75Q63-389 63-248q0 165 142 412 32 0 62-30-37-62-63-153-23-84-23-140 0-106 73.5-167.5T461-388q152 0 334 27 161 24 242 51-10 53-136 77-99 18-162 60 16 100 45 212 98 105 258 105h140l20-2q196 3 196 223 14 7 28 7 21 0 43-12-6-56-6-104 0-46 34.5-79t92.5-33q78 0 122 63 42 59 42 158 14 7 28 7 21 0 43-12-6-56-6-104 0-46 31-79t78-33q77 0 122 63 42 59 42 158 14 7 28 7 20 0 43-12-6-56-6-104 0-46 33.5-79t88.5-33h20q26 0 26-30V25q0-25-26-25h-20q-54 0-100.5 37.5T2120 134h-4Q2077 0 1948 0q-141 0-166 134h-4Q1737 0 1604 0q-160 0-185 134h-4q-19-59-75-97-58-37-138-37h-178zm736 737l-98-99-101 99 101 98zm235 0l-98-99-99 99 99 98z"/><glyph glyph-name="uniFD1A" unicode="ﺸﻲ" horiz-adv-x="2297" arabic-form="final" d="M762-776L650-888 525-783l114 113zm-249-20L401-908 276-804l114 113zM1878 938l-99-99-99 99 99 99zM1024 0Q873 0 819-73q34-24 112-41 100-22 135.5-43t35.5-62q0-19-12-88-14-73-25-102-116-55-291-93-187-41-350-41-161 0-258 75Q63-389 63-248q0 165 142 412 32 0 62-30-37-62-63-153-23-84-23-140 0-106 73.5-167.5T461-388q152 0 334 27 161 24 242 51-10 53-136 77-99 18-162 60 16 100 45 212 98 105 258 105h140l20-2q196 3 196 223 14 7 28 7 21 0 43-12-6-56-6-104 0-46 34.5-79t92.5-33q78 0 122 63 42 59 42 158 14 7 28 7 21 0 43-12-6-56-6-104 0-46 31-79t78-33q77 0 122 63 42 59 42 158 14 7 28 7 20 0 43-12-6-56-6-104 0-46 33.5-79t88.5-33h20q26 0 26-30V25q0-25-26-25h-20q-54 0-100.5 37.5T2120 134h-4Q2077 0 1948 0q-141 0-166 134h-4Q1737 0 1604 0q-160 0-185 134h-4q-19-59-75-97-58-37-138-37h-178zm736 737l-98-99-101 99 101 98zm235 0l-98-99-99 99 99 98z"/><glyph glyph-name="uniFD21" unicode="ﺼﻰ" horiz-adv-x="2500" arabic-form="final" d="M2309 256q0 65-59.5 121T2115 433q-185 0-440-289h187q136 0 268 34 125 32 179 78zM1024 0Q873 0 819-73q34-24 112-41 100-22 135.5-43t35.5-62q0-19-12-88-14-73-25-102-116-55-291-93-187-41-350-41-161 0-258 75Q63-389 63-248q0 165 142 412 32 0 62-30-37-62-63-153-23-84-23-140 0-106 73.5-167.5T461-388q152 0 334 27 161 24 242 51-10 53-136 77-99 18-162 60 16 100 45 212 98 105 258 105h151q196 0 196 223 14 7 28 7 21 0 43-12-6-59-6-106 0-46 35-79t97-33q215 250 366 345 108 69 211 69 112 0 190-81 73-75 73-167-26-80-155-159v-7h237q27 0 27-30V25q0-25-27-25h-93q-136 0-368 41-188-41-382-41-230 0-255 134h-4q-19-59-75-97-58-37-138-37h-169z"/><glyph glyph-name="uniFD22" unicode="ﺼﻲ" horiz-adv-x="2500" arabic-form="final" d="M762-776L650-888 525-783l114 113zm-249-20L401-908 276-804l114 113zM2309 256q0 65-59.5 121T2115 433q-185 0-440-289h187q136 0 268 34 125 32 179 78zM1024 0Q873 0 819-73q34-24 112-41 100-22 135.5-43t35.5-62q0-19-12-88-14-73-25-102-116-55-291-93-187-41-350-41-161 0-258 75Q63-389 63-248q0 165 142 412 32 0 62-30-37-62-63-153-23-84-23-140 0-106 73.5-167.5T461-388q152 0 334 27 161 24 242 51-10 53-136 77-99 18-162 60 16 100 45 212 98 105 258 105h151q196 0 196 223 14 7 28 7 21 0 43-12-6-59-6-106 0-46 35-79t97-33q215 250 366 345 108 69 211 69 112 0 190-81 73-75 73-167-26-80-155-159v-7h237q27 0 27-30V25q0-25-27-25h-93q-136 0-368 41-188-41-382-41-230 0-255 134h-4q-19-59-75-97-58-37-138-37h-169z"/><glyph glyph-name="uniFD23" unicode="ﻀﻰ" horiz-adv-x="2500" arabic-form="final" d="M2309 256q0 65-59.5 121T2115 433q-185 0-440-289h187q136 0 268 34 125 32 179 78zm-96 675l-111-112-126 105 114 114zM1024 0Q873 0 819-73q34-24 112-41 100-22 135.5-43t35.5-62q0-19-12-88-14-73-25-102-116-55-291-93-187-41-350-41-161 0-258 75Q63-389 63-248q0 165 142 412 32 0 62-30-37-62-63-153-23-84-23-140 0-106 73.5-167.5T461-388q152 0 334 27 161 24 242 51-10 53-136 77-99 18-162 60 16 100 45 212 98 105 258 105h151q196 0 196 223 14 7 28 7 21 0 43-12-6-59-6-106 0-46 35-79t97-33q215 250 366 345 108 69 211 69 112 0 190-81 73-75 73-167-26-80-155-159v-7h237q27 0 27-30V25q0-25-27-25h-93q-136 0-368 41-188-41-382-41-230 0-255 134h-4q-19-59-75-97-58-37-138-37h-169z"/><glyph glyph-name="uniFD24" unicode="ﻀﻲ" horiz-adv-x="2500" arabic-form="final" d="M762-776L650-888 525-783l114 113zm-249-20L401-908 276-804l114 113zM2309 256q0 65-59.5 121T2115 433q-185 0-440-289h187q136 0 268 34 125 32 179 78zm-96 675l-111-112-126 105 114 114zM1024 0Q873 0 819-73q34-24 112-41 100-22 135.5-43t35.5-62q0-19-12-88-14-73-25-102-116-55-291-93-187-41-350-41-161 0-258 75Q63-389 63-248q0 165 142 412 32 0 62-30-37-62-63-153-23-84-23-140 0-106 73.5-167.5T461-388q152 0 334 27 161 24 242 51-10 53-136 77-99 18-162 60 16 100 45 212 98 105 258 105h151q196 0 196 223 14 7 28 7 21 0 43-12-6-59-6-106 0-46 35-79t97-33q215 250 366 345 108 69 211 69 112 0 190-81 73-75 73-167-26-80-155-159v-7h237q27 0 27-30V25q0-25-27-25h-93q-136 0-368 41-188-41-382-41-230 0-255 134h-4q-19-59-75-97-58-37-138-37h-169z"/><glyph glyph-name="uniFD29" unicode="ﺸﺮ" horiz-adv-x="1811" arabic-form="final" d="M1396 938l-99-99-99 99 99 99zm117-201l-98-99-99 99 99 98zm-235 0l-98-99-101 99 101 98zM702 144l18-2q196 3 196 223 14 7 28 7 21 0 43-12-6-56-6-104 0-46 34.5-79t92.5-33q78 0 122 63 42 59 42 158 14 7 28 7 21 0 43-12-6-56-6-104 0-46 31-79t78-33q77 0 122 63 42 59 42 158 13 7 28 7 20 0 43-12-6-56-6-104 0-46 33.5-79t88.5-33h20q26 0 26-30V25q0-25-26-25h-20q-54 0-100.5 37.5T1638 134h-4Q1595 0 1466 0q-141 0-166 134h-4Q1254 0 1121 0 962 0 937 134h-4q-19-59-75-97Q800 0 720 0h-43q-52 0-111 52-21-166-93-298-70-128-225-288-67 0-142 20T0-468q218 103 355 253Q466-94 483 0q-17 126-141 244l62 187 94-146q91-141 179-141h25z"/><glyph glyph-name="uniFD2A" unicode="ﺴﺮ" horiz-adv-x="1811" arabic-form="final" d="M702 144l18-2q196 3 196 223 14 7 28 7 21 0 43-12-6-56-6-104 0-46 34.5-79t92.5-33q78 0 122 63 42 59 42 158 14 7 28 7 21 0 43-12-6-56-6-104 0-46 31-79t78-33q77 0 122 63 42 59 42 158 13 7 28 7 20 0 43-12-6-56-6-104 0-46 33.5-79t88.5-33h20q26 0 26-30V25q0-25-26-25h-20q-54 0-100.5 37.5T1638 134h-4Q1595 0 1466 0q-141 0-166 134h-4Q1254 0 1121 0 962 0 937 134h-4q-19-59-75-97Q800 0 720 0h-43q-52 0-111 52-21-166-93-298-70-128-225-288-67 0-142 20T0-468q218 103 355 253Q466-94 483 0q-17 126-141 244l62 187 94-146q91-141 179-141h25z"/><glyph glyph-name="uniFD2B" unicode="ﺼﺮ" horiz-adv-x="2029" arabic-form="final" d="M1836 256q0 65-59.5 121T1642 433q-185 0-440-289h187q136 0 268 34 125 32 179 78zM677 0q-52 0-111 52-21-166-93-298-70-128-225-288-67 0-142 20T0-468q218 103 355 253Q466-94 483 0q-17 126-141 244l62 187 94-146q91-141 179-141h43q196 0 196 223 14 7 28 7 21 0 43-12-6-59-6-106 0-46 35-79t97-33q215 250 366 345 108 69 211 69 112 0 190-81 73-75 73-167-26-80-155-159v-7h237q27 0 27-30V25q0-25-27-25h-93q-136 0-368 41-188-41-382-41-230 0-255 134h-4q-19-59-75-97Q800 0 720 0h-43z"/><glyph glyph-name="uniFD2C" unicode="ﻀﺮ" horiz-adv-x="2029" arabic-form="final" d="M1740 931l-111-112-126 105 114 114zm96-675q0 65-59.5 121T1642 433q-185 0-440-289h187q136 0 268 34 125 32 179 78zM677 0q-52 0-111 52-21-166-93-298-70-128-225-288-67 0-142 20T0-468q218 103 355 253Q466-94 483 0q-17 126-141 244l62 187 94-146q91-141 179-141h43q196 0 196 223 14 7 28 7 21 0 43-12-6-59-6-106 0-46 35-79t97-33q215 250 366 345 108 69 211 69 112 0 190-81 73-75 73-167-26-80-155-159v-7h237q27 0 27-30V25q0-25-27-25h-93q-136 0-368 41-188-41-382-41-230 0-255 134h-4q-19-59-75-97Q800 0 720 0h-43z"/><glyph glyph-name="uniFEF5" unicode="ﻟﺂ" horiz-adv-x="1135" arabic-form="isolated" d="M1067 987l-81 47q-48-450-194-700 64-111 64-172 0-66-23-144-59-8-194-20-153-13-196-9 27 56 27 148 117 50 226 191-69 128-236 297-143 145-242 211l-37-35L35 916q0 130 32 207 268-190 417-349 140-148 262-363 94 169 149 783l137 91q0-92 35-298zM785 148q-17 71-46 115-76-86-144-133v-5q109 0 190 23zM406 1366q-84-68-221-68-62 0-79 2-21-35-24-82-45 0-54 4 0 94 36 169 51-13 144-13 118 0 198 54v-66z"/><glyph glyph-name="uniFEF6" unicode="ﻠﺂ" horiz-adv-x="1244" arabic-form="final" d="M1281 25q0-25-26-25h-20q-103 0-155 67-58 74-69 248-26 386-29 523h-3Q869 418 787 274 709 138 510 4 335-30 234-30H24v9Q125-1 322 84q230 99 332 188-32 258-375 581l-32-39-136 123q0 147 38 240 324-312 430-469 105-154 136-366 71 98 143 329 76 245 99 467l107 147q7-432 46-984 11-157 125-157h20q26 0 26-30V25zM442 1420q-84-67-221-67-62 0-79 2-21-36-24-82-45 0-54 3 0 95 36 170 52-13 144-13 118 0 198 54v-67z"/><glyph glyph-name="uniFEF7" unicode="ﻟﺄ" horiz-adv-x="1135" arabic-form="isolated" d="M1066 987l-80 47q-48-450-194-700 64-111 64-172 0-66-23-144-59-8-194-20-153-13-196-9 26 56 26 148 118 50 226 191-68 128-236 297-143 145-241 211l-37-35L35 916q0 130 32 207 268-190 417-349 139-148 261-363 94 169 150 783l136 91q0-92 35-298zM785 148q-18 71-47 115-75-86-144-133v-5q110 0 191 23zM319 1336q-25-5-62-16.5t-77-26-79-31.5-68-33v66q18 10 42.5 20.5T130 1333v3q-81 30-81 104 85 129 169 129 55 0 90-59l-54-41q-19 18-36 26t-31 8q-38 0-80-57 30-65 104-68 26 8 58.5 17.5T341 1412z"/><glyph glyph-name="uniFEF8" unicode="ﻠﺄ" horiz-adv-x="1244" arabic-form="final" d="M1281 25q0-25-26-25h-20q-103 0-155 67-58 74-69 248-26 386-29 523h-3Q869 418 787 274 709 138 510 4 335-30 234-30H24v9Q125-1 322 84q230 99 332 188-32 258-375 581l-32-39-136 123q0 147 38 240 324-312 430-469 105-154 136-366 71 98 143 329 76 245 99 467l107 147q7-432 46-984 11-157 125-157h20q26 0 26-30V25zM328 1363q-25-5-62-16t-77-26-79-31.5-68-33.5v66q18 10 43 20.5t55 17.5v4q-81 29-81 104 84 128 168 128 55 0 90-58l-53-42q-20 18-37 26.5t-31 8.5q-38 0-80-58 30-65 104-67 26 7 58.5 16.5T350 1439z"/><glyph glyph-name="uniFEF9" unicode="ﻟﺈ" horiz-adv-x="1135" arabic-form="isolated" d="M1066 987l-80 47q-48-450-194-700 64-111 64-172 0-66-23-144-59-8-194-20-153-13-196-9 27 56 27 148 117 50 225 191-68 128-235 297-143 145-242 211l-37-35L35 916q0 130 32 207 268-190 417-349 140-148 262-363 93 169 149 783l137 91q0-92 34-298zM785 148q-18 71-47 115-75-86-144-133v-5q110 0 191 23zM492-350q-25-4-62-15.5t-77-26-79-31.5-68-33v65q18 10 43 20.5t55 17.5v4q-81 29-81 104 84 128 168 128 55 0 90-58l-53-42q-19 18-36.5 26.5T360-182q-38 0-80-58 30-64 104-67 26 7 58.5 16.5T514-273z"/><glyph glyph-name="uniFEFA" unicode="ﻠﺈ" horiz-adv-x="1244" arabic-form="final" d="M1281 25q0-25-26-25h-20q-103 0-155 67-58 74-69 248-26 386-29 523h-3Q869 418 787 274 709 138 510 4 335-30 234-30H24v9Q125-1 322 84q230 99 332 188-32 258-375 581l-32-39-136 123q0 147 38 240 324-312 430-469 105-154 136-366 71 98 143 329 76 245 99 467l107 147q7-432 46-984 11-157 125-157h20q26 0 26-30V25zM538-368q-26-5-62.5-16t-77-26-79-31.5T252-475v66q18 10 42.5 20.5T349-371v4q-81 29-81 104 85 128 169 128 54 0 90-58l-54-42q-19 18-36.5 26.5T406-200q-39 0-80-58 30-65 103-67 27 7 59.5 16.5T560-292z"/><glyph glyph-name="uniFEFB" unicode="ﻟﺎ" horiz-adv-x="1135" arabic-form="isolated" d="M1066 987l-80 47q-48-450-194-700 64-111 64-172 0-66-23-144-59-8-194-20-153-13-196-9 27 56 27 148 117 50 225 191-68 128-235 297-143 145-242 211l-37-35L35 916q0 130 32 207 268-190 417-349 140-148 262-363 93 169 149 783l137 91q0-92 34-298zM785 148q-18 71-47 115-75-86-144-133v-5q110 0 191 23z"/><glyph glyph-name="uniFEFC" unicode="ﻠﺎ" horiz-adv-x="1244" arabic-form="final" d="M1281 25q0-25-26-25h-20q-103 0-155 67-58 74-69 248-26 386-29 523h-3Q869 418 787 274 709 138 510 4 335-30 234-30H24v9Q125-1 322 84q230 99 332 188-32 258-375 581l-32-39-136 123q0 147 38 240 324-312 430-469 105-154 136-366 71 98 143 329 76 245 99 467l107 147q7-432 46-984 11-157 125-157h20q26 0 26-30V25z"/><glyph glyph-name="uniFE8B_uniFEE4.liga" unicode="ﺋﻤ" horiz-adv-x="1335" d="M543 87q-2 118-53 188-44 61-102 61-69 0-151-103Q366 108 543 87zM819 0q-35 0-91 32-63 35-112 93Q575 14 511-46 299-20 157 134 77 0 0 0h-11q-26 0-26 25v89q0 30 26 30H9q60 0 185 160 122 157 232 157 39 0 76-17 95-147 188-229 80-71 129-71h75q210 0 258 102-17 79-92 151l76 182q91-143 107-294-23-118-100-201.5T978 0H819zm394 762q-26-5-62.5-16.5t-77-26-79-31.5-67.5-33v66q18 10 42.5 20.5T1024 759v4q-81 29-81 103 85 129 169 129 54 0 90-58l-54-42q-19 18-36 26t-31 8q-38 0-80-57 30-65 104-68 26 8 58.5 17.5T1235 838z"/><glyph glyph-name="uniFE8B_uniFEF0.liga" unicode="ﺋﻰ" horiz-adv-x="1675" d="M1024 0Q873 0 819-73q34-24 112-41 100-22 135.5-43t35.5-62q0-19-12-88-14-73-25-102-116-55-291-93-187-41-350-41-161 0-258 75Q63-389 63-248q0 165 142 412 32 0 62-30-37-62-63-153-23-84-23-140 0-106 73.5-167.5T461-388q152 0 334 27 161 24 242 51-10 53-136 77-99 18-162 60 16 100 45 212 98 105 258 105h188q210 0 258 102-17 79-92 151l76 182q91-143 107-294-23-118-100-201.5T1314 0h-290zm525 762q-26-5-62.5-16.5t-77-26-79-31.5-67.5-33v66q18 10 42.5 20.5T1360 759v4q-81 29-81 103 85 129 169 129 54 0 90-58l-54-42q-19 18-36.5 26t-30.5 8q-38 0-80-57 30-65 103-68 27 8 59.5 17.5T1571 838z"/><glyph glyph-name="uniFE8B_uniFEF2.liga" unicode="ﺋﻲ" horiz-adv-x="1675" d="M762-776L650-888 525-783l114 113zm-249-20L401-908 276-804l114 113zM1024 0Q873 0 819-73q34-24 112-41 100-22 135.5-43t35.5-62q0-19-12-88-14-73-25-102-116-55-291-93-187-41-350-41-161 0-258 75Q63-389 63-248q0 165 142 412 32 0 62-30-37-62-63-153-23-84-23-140 0-106 73.5-167.5T461-388q152 0 334 27 161 24 242 51-10 53-136 77-99 18-162 60 16 100 45 212 98 105 258 105h188q210 0 258 102-17 79-92 151l76 182q91-143 107-294-23-118-100-201.5T1314 0h-290zm525 762q-26-5-62.5-16.5t-77-26-79-31.5-67.5-33v66q18 10 42.5 20.5T1360 759v4q-81 29-81 103 85 129 169 129 54 0 90-58l-54-42q-19 18-36.5 26t-30.5 8q-38 0-80-57 30-65 103-68 27 8 59.5 17.5T1571 838z"/><glyph glyph-name="uniFE91_uniFEE4.liga" unicode="ﺑﻤ" horiz-adv-x="1259" d="M1176-282l-112-112-125 105 114 113zM543 87q-2 118-53 188-44 61-102 61-69 0-151-103Q366 108 543 87zM819 0q-35 0-91 32-63 35-112 93Q575 14 511-46 299-20 157 134 77 0 0 0h-11q-26 0-26 25v89q0 30 26 30H9q60 0 185 160 122 157 232 157 39 0 76-17 95-147 188-229 80-71 129-71h66q153 0 201 102-15 79-91 151l77 182q90-143 105-294-22-124-105-202Q982 0 857 0h-38z"/><glyph glyph-name="uniFE92_uniFEE6.liga" unicode="ﺒﻦ" horiz-adv-x="1596" d="M725 589L613 477 488 582l113 114zm776-871l-112-112-125 105 114 113zM1146 0q-53 0-93 43l-3-4q26-68 26-153-15-92-62-207-86-85-245-150-177-72-346-72-160 0-257 76Q63-387 63-246q0 165 141 412 32 0 62-29-37-63-63-154-22-84-22-140 0-106 73-169t206-62q315 2 543 210-24 233-147 422l63 187q129-287 227-287h38q79 0 127 55 47 52 47 134v31q10 8 29 8 22 0 35-10v-32q0-110 39-151 35-35 118-35h21q26 0 26-30V25q0-25-26-25h-21q-77 0-132 43-52 39-56 91h-8q-13-58-76-98-59-36-123-36h-38z"/><glyph glyph-name="uniFE91_uniFEF0.liga" unicode="ﺑﻰ" horiz-adv-x="1603" d="M1024 0Q873 0 819-73q34-24 112-41 100-22 135.5-43t35.5-62q0-19-12-88-14-73-25-102-116-55-291-93-187-41-350-41-161 0-258 75Q63-389 63-248q0 165 142 412 32 0 62-30-37-62-63-153-23-84-23-140 0-106 73.5-167.5T461-388q152 0 334 27 161 24 242 51-10 53-136 77-99 18-162 60 16 100 45 212 98 105 258 105h179q153 0 201 102-15 79-91 151l77 182q90-143 105-294-22-124-105-202-90-83-215-83h-169zm488-282l-112-112-125 105 114 113z"/><glyph glyph-name="uniFE91_uniFEF2.liga" unicode="ﺑﻲ" horiz-adv-x="1603" d="M762-776L650-888 525-783l114 113zm-249-20L401-908 276-804l114 113zM1024 0Q873 0 819-73q34-24 112-41 100-22 135.5-43t35.5-62q0-19-12-88-14-73-25-102-116-55-291-93-187-41-350-41-161 0-258 75Q63-389 63-248q0 165 142 412 32 0 62-30-37-62-63-153-23-84-23-140 0-106 73.5-167.5T461-388q152 0 334 27 161 24 242 51-10 53-136 77-99 18-162 60 16 100 45 212 98 105 258 105h179q153 0 201 102-15 79-91 151l77 182q90-143 105-294-22-124-105-202-90-83-215-83h-169zm488-282l-112-112-125 105 114 113z"/><glyph glyph-name="uniFE97_uniFEE4.liga" unicode="ﺗﻤ" horiz-adv-x="1365" d="M543 87q-2 118-53 188-44 61-102 61-69 0-151-103Q366 108 543 87zm801 777l-112-112-125 104 114 114zM819 0q-35 0-91 32-63 35-112 93Q575 14 511-46 299-20 157 134 77 0 0 0h-11q-26 0-26 25v89q0 30 26 30H9q60 0 185 160 122 157 232 157 39 0 76-17 95-147 188-229 80-71 129-71h66q210 0 258 102-17 79-92 151l76 182q90-143 107-294-23-118-100-201.5T969 0H819zm276 844L984 732 859 836l113 113z"/><glyph glyph-name="uniFE98_uniFEE6.liga" unicode="ﺘﻦ" horiz-adv-x="1698" d="M725 589L613 477 488 582l113 114zM1146 0q-53 0-93 43l-3-4q26-68 26-153-15-92-62-207-86-85-245-150-177-72-346-72-160 0-257 76Q63-387 63-246q0 165 141 412 32 0 62-29-37-63-63-154-22-84-22-140 0-106 73-169t206-62q315 2 543 210-24 233-147 422l63 187q129-287 227-287h38q216 0 216 189v31q10 8 30 8 21 0 35-10v-32q0-112 47-151 44-35 172-35h21q25 0 25-30V25q0-25-25-25h-21q-119 0-187 43-58 36-63 91h-8q-13-58-77-98-58-36-123-36h-80zm273 700l-112-112-125 104 114 114zm248 21l-112-112-125 103 114 114z"/><glyph glyph-name="uniFE97_uniFEF0.liga" unicode="ﺗﻰ" horiz-adv-x="1705" d="M1680 864l-112-112-125 104 114 114zM1024 0Q873 0 819-73q34-24 112-41 100-22 135.5-43t35.5-62q0-19-12-88-14-73-25-102-116-55-291-93-187-41-350-41-161 0-258 75Q63-389 63-248q0 165 142 412 32 0 62-30-37-62-63-153-23-84-23-140 0-106 73.5-167.5T461-388q152 0 334 27 161 24 242 51-10 53-136 77-99 18-162 60 16 100 45 212 98 105 258 105h179q209 0 258 102-17 79-92 151l76 182q90-143 107-294-23-118-100-201.5T1305 0h-281zm407 844l-111-112-125 104 113 113z"/><glyph glyph-name="uniFE97_uniFEF2.liga" unicode="ﺗﻲ" horiz-adv-x="1705" d="M762-776L650-888 525-783l114 113zm-249-20L401-908 276-804l114 113zM1680 864l-112-112-125 104 114 114zM1024 0Q873 0 819-73q34-24 112-41 100-22 135.5-43t35.5-62q0-19-12-88-14-73-25-102-116-55-291-93-187-41-350-41-161 0-258 75Q63-389 63-248q0 165 142 412 32 0 62-30-37-62-63-153-23-84-23-140 0-106 73.5-167.5T461-388q152 0 334 27 161 24 242 51-10 53-136 77-99 18-162 60 16 100 45 212 98 105 258 105h179q209 0 258 102-17 79-92 151l76 182q90-143 107-294-23-118-100-201.5T1305 0h-281zm407 844l-111-112-125 104 113 113z"/><glyph glyph-name="uniFE9C_uniFEAE.liga" unicode="ﺜﺮ" horiz-adv-x="1238" d="M677 0q-52 0-111 52-21-166-93-298-70-128-225-288-67 0-142 20T0-468q218 103 355 253Q466-94 483 0q-17 126-141 244l62 187 94-146q91-141 179-141h43q217 0 217 189v31q10 8 30 8 21 0 34-10v-32q0-112 48-151 43-35 171-35h21q25 0 25-30V25q0-25-25-25h-21q-119 0-187 43-58 36-63 91h-8q-13-58-76-98Q827 0 763 0h-86zm378 888l-99-98-99 98 99 100zm117-201l-99-99-98 99 98 99zm-235 0l-99-99-100 99 100 99z"/><glyph glyph-name="uniFE9B_uniFEE4.liga" unicode="ﺛﻤ" horiz-adv-x="1365" d="M543 87q-2 118-53 188-44 61-102 61-69 0-151-103Q366 108 543 87zM819 0q-35 0-91 32-63 35-112 93Q575 14 511-46 299-20 157 134 77 0 0 0h-11q-26 0-26 25v89q0 30 26 30H9q60 0 185 160 122 157 232 157 39 0 76-17 95-147 188-229 80-71 129-71h66q210 0 258 102-17 79-92 151l76 182q90-143 107-294-23-118-100-201.5T969 0H819zm382 1034l-98-98-100 98 100 99zm118-201l-99-99-99 99 99 99zm-235 0l-99-99-101 99 101 99z"/><glyph glyph-name="uniFE9C_uniFEE6.liga" unicode="ﺜﻦ" horiz-adv-x="1698" d="M725 589L613 477 488 582l113 114zM1146 0q-53 0-93 43l-3-4q26-68 26-153-15-92-62-207-86-85-245-150-177-72-346-72-160 0-257 76Q63-387 63-246q0 165 141 412 32 0 62-29-37-63-63-154-22-84-22-140 0-106 73-169t206-62q315 2 543 210-24 233-147 422l63 187q129-287 227-287h38q216 0 216 189v31q10 8 30 8 21 0 35-10v-32q0-112 47-151 44-35 172-35h21q25 0 25-30V25q0-25-25-25h-21q-119 0-187 43-58 36-63 91h-8q-13-58-77-98-58-36-123-36h-80zm376 888l-100-98-98 98 98 100zm117-201l-99-99-99 99 99 99zm-235 0l-99-99-100 99 100 99z"/><glyph glyph-name="uniFE9B_uniFEF0.liga" unicode="ﺛﻰ" horiz-adv-x="1705" d="M1024 0Q873 0 819-73q34-24 112-41 100-22 135.5-43t35.5-62q0-19-12-88-14-73-25-102-116-55-291-93-187-41-350-41-161 0-258 75Q63-389 63-248q0 165 142 412 32 0 62-30-37-62-63-153-23-84-23-140 0-106 73.5-167.5T461-388q152 0 334 27 161 24 242 51-10 53-136 77-99 18-162 60 16 100 45 212 98 105 258 105h179q209 0 258 102-17 79-92 151l76 182q90-143 107-294-23-118-100-201.5T1305 0h-281zm512 1034l-98-98-100 98 100 99zm118-201l-99-99-99 99 99 99zm-235 0l-99-99-101 99 101 99z"/><glyph glyph-name="uniFE9B_uniFEF2.liga" unicode="ﺛﻲ" horiz-adv-x="1705" d="M762-776L650-888 525-783l114 113zm-249-20L401-908 276-804l114 113zM1024 0Q873 0 819-73q34-24 112-41 100-22 135.5-43t35.5-62q0-19-12-88-14-73-25-102-116-55-291-93-187-41-350-41-161 0-258 75Q63-389 63-248q0 165 142 412 32 0 62-30-37-62-63-153-23-84-23-140 0-106 73.5-167.5T461-388q152 0 334 27 161 24 242 51-10 53-136 77-99 18-162 60 16 100 45 212 98 105 258 105h179q209 0 258 102-17 79-92 151l76 182q90-143 107-294-23-118-100-201.5T1305 0h-281zm512 1034l-98-98-100 98 100 99zm118-201l-99-99-99 99 99 99zm-235 0l-99-99-101 99 101 99z"/><glyph glyph-name="uniFEDB_uniFEF0.liga" unicode="ﻛﻰ" horiz-adv-x="2017" d="M1024 0Q873 0 819-73q34-24 112-41 100-22 135.5-43t35.5-62q0-19-12-88-14-73-25-102-116-55-291-93-187-41-350-41-161 0-258 75Q63-389 63-248q0 165 142 412 32 0 62-30-37-62-63-153-23-84-23-140 0-106 73.5-167.5T461-388q152 0 334 27 161 24 242 51-10 53-136 77-99 18-162 60 16 100 45 212 98 105 258 105h183q141 0 234.5 35.5T1602 280q-3 42-21 83t-61 85.5-116.5 95.5T1217 657l22 207q42 31 103 70t131 81.5 144 84.5 142.5 78.5 126.5 65 97 41.5l-73-176q-27-10-76.5-34.5t-110-56-126-68T1472 879t-107.5-65.5T1294 763q95-53 162.5-102.5T1569 565t70.5-89.5T1675 388q-3-24-6-50.5t-7.5-54.5-9.5-55-9-49q-49-51-97.5-85T1443 39 1327.5 9 1193 0h-169z"/><glyph glyph-name="uniFEDC_uniFEF0.liga" unicode="ﻜﻰ" horiz-adv-x="2125" d="M1024 0Q873 0 819-73q34-24 112-41 100-22 135.5-43t35.5-62q0-19-12-88-14-73-25-102-116-55-291-93-187-41-350-41-161 0-258 75Q63-389 63-248q0 165 142 412 32 0 62-30-37-62-63-153-23-84-23-140 0-106 73.5-167.5T461-388q152 0 334 27 161 24 242 51-10 53-136 77-99 18-162 60 16 100 45 212 98 105 258 105h204q140 0 233.5 35.5T1622 280q-3 42-20.5 83t-61 85.5-117 95.5T1237 657l23 207q42 31 102.5 70t130.5 81.5 144 84.5 142.5 78.5 126.5 65 97 41.5l-73-176q-27-10-76.5-34.5t-109.5-56-126-68-125.5-71.5-107-65.5T1314 763q83-51 156.5-102.5T1621 546t164-144.5T1983 210q32-32 65-49t59-17h20q15 0 21-6.5t6-23.5V25q0-25-27-25h-20q-22 0-43 4t-45.5 17-54 38-71 66.5-96.5 103T1668 375l-3-3q4-23 6-44.5t2-38.5q0-27-4-56.5t-10-53.5q-47-51-95.5-85T1461 39 1345 9t-137-9h-184z"/><glyph glyph-name="uniFEDB_uniFEF2.liga" unicode="ﻛﻲ" horiz-adv-x="2017" d="M762-776L650-888 525-783l114 113zm-249-20L401-908 276-804l114 113zM1024 0Q873 0 819-73q34-24 112-41 100-22 135.5-43t35.5-62q0-19-12-88-14-73-25-102-116-55-291-93-187-41-350-41-161 0-258 75Q63-389 63-248q0 165 142 412 32 0 62-30-37-62-63-153-23-84-23-140 0-106 73.5-167.5T461-388q152 0 334 27 161 24 242 51-10 53-136 77-99 18-162 60 16 100 45 212 98 105 258 105h183q141 0 234.5 35.5T1602 280q-3 42-21 83t-61 85.5-116.5 95.5T1217 657l22 207q42 31 103 70t131 81.5 144 84.5 142.5 78.5 126.5 65 97 41.5l-73-176q-27-10-76.5-34.5t-110-56-126-68T1472 879t-107.5-65.5T1294 763q95-53 162.5-102.5T1569 565t70.5-89.5T1675 388q-3-24-6-50.5t-7.5-54.5-9.5-55-9-49q-49-51-97.5-85T1443 39 1327.5 9 1193 0h-169z"/><glyph glyph-name="uniFEDC_uniFEF2.liga" unicode="ﻜﻲ" horiz-adv-x="2125" d="M762-776L650-888 525-783l114 113zm-249-20L401-908 276-804l114 113zM1024 0Q873 0 819-73q34-24 112-41 100-22 135.5-43t35.5-62q0-19-12-88-14-73-25-102-116-55-291-93-187-41-350-41-161 0-258 75Q63-389 63-248q0 165 142 412 32 0 62-30-37-62-63-153-23-84-23-140 0-106 73.5-167.5T461-388q152 0 334 27 161 24 242 51-10 53-136 77-99 18-162 60 16 100 45 212 98 105 258 105h204q140 0 233.5 35.5T1622 280q-3 42-20.5 83t-61 85.5-117 95.5T1237 657l23 207q42 31 102.5 70t130.5 81.5 144 84.5 142.5 78.5 126.5 65 97 41.5l-73-176q-27-10-76.5-34.5t-109.5-56-126-68-125.5-71.5-107-65.5T1314 763q83-51 156.5-102.5T1621 546t164-144.5T1983 210q32-32 65-49t59-17h20q15 0 21-6.5t6-23.5V25q0-25-27-25h-20q-22 0-43 4t-45.5 17-54 38-71 66.5-96.5 103T1668 375l-3-3q4-23 6-44.5t2-38.5q0-27-4-56.5t-10-53.5q-47-51-95.5-85T1461 39 1345 9t-137-9h-184z"/><glyph glyph-name="uniFEDF_uniFB51.rlig" unicode="ﻟﭑ" horiz-adv-x="1135" d="M1067 987l-80 47q-49-450-194-700 63-111 63-172 0-66-22-144-60-8-194-20-154-13-196-9 26 56 26 148 118 50 226 191-68 128-236 297-143 145-241 211l-38-35L36 916q0 130 31 207 268-190 418-349 139-148 261-363 94 169 150 783l136 91q0-92 35-298zM785 148q-17 71-46 115-76-86-144-133v-5q109 0 190 23zM353 1380q-24-48-71.5-81t-96.5-33q-55 0-125 30-15-27-50-85v112q16 29 39 57 36-13 60-28 45 179 147 179 89 0 97-151zm-39 19q-2 21-18.5 40.5T258 1459q-28 0-58-28-36-32-54-86 14-6 43-6 74 0 125 60z"/><glyph glyph-name="uniFEE0_uniFB51.rlig" unicode="ﻠﭑ" horiz-adv-x="1244" d="M1281 25q0-25-26-25h-20q-103 0-155 67-58 74-69 248-26 386-29 523h-3Q869 418 787 274 709 138 510 4 335-30 234-30H24v9Q125-1 322 84q230 99 332 188-32 258-375 581l-32-39-136 123q0 147 38 240 324-312 430-469 105-154 136-366 71 98 143 329 76 245 99 467l107 147q7-432 46-984 11-157 125-157h20q26 0 26-30V25zM380 1408q-24-49-71.5-81.5T212 1294q-55 0-125 30-16-28-50-86v112q16 29 39 58 35-13 60-29 45 180 147 180 89 0 97-151zm-39 19q-2 21-18.5 40t-37.5 19q-28 0-58-27-36-32-55-87 15-5 44-5 74 0 125 60z"/><glyph glyph-name="uniFEDF_uniFEE2.liga" unicode="ﻟﻢ" horiz-adv-x="1395" d="M752 69q-144 54-267 138 0-243 161-293Q752-42 752 69zM945 0q-49 0-120 39-13-233-190-289-111 42-162 124-60 96-60 272-160 0-237-66 44-191 44-493-23-62-91-130 0 155-15 334.5T81 43q18 83 54 151 92 107 274 107 0 64 13 119 116-100 302-193 168-83 221-83h70q86 0 144 63 0 346-26 625-23 252-54 325h-3l103 128q16-52 55-143 42-92 62-120-47 10-78 32 32-418 32-796 0-72-70-156Q1093 0 972 0h-27z"/><glyph glyph-name="uniFEE4_uniFE8E.liga" unicode="ﻤﺎ" horiz-adv-x="1274" d="M980 87q-3 118-53 188-45 61-102 61-69 0-151-103Q802 108 980 87zM404 0Q269 0 220 91q-53 98-53 375 0 186-21 400.5T99 1157l108 128q52-217 52-758 0-239 29-313 28-70 116-70h42q59 0 185 160 122 157 231 157 40 0 77-17 95-147 188-229 80-71 129-71h21q25 0 25-30V25q0-25-25-25h-21q-36 0-91 32-63 35-112 93-41-111-105-171-212 26-354 180Q514 0 437 0h-33z"/><glyph glyph-name="uniFEE4_uniFE82.liga" unicode="ﻤﺂ" horiz-adv-x="1276" d="M370 1448q-84-68-221-68-62 0-79 2-21-35-24-82-45 0-54 4 0 94 36 169 51-13 144-13 118 0 198 54v-66zM980 87q-2 118-52 188-45 61-102 61-70 0-152-103Q803 108 980 87zM405 0Q270 0 221 91q-53 98-53 375 0 186-21 400.5T100 1157l107 128q53-217 53-758 0-239 29-313 27-70 116-70h42q59 0 185 160 122 157 231 157 39 0 76-17 95-147 188-229 80-71 130-71h20q26 0 26-30V25q0-25-26-25h-20q-36 0-92 32-62 35-112 93-41-111-104-171-213 26-355 180Q514 0 437 0h-32z"/><glyph glyph-name="uniFEE4_uniFE84.liga" unicode="ﻤﺄ" horiz-adv-x="1266" d="M970 87q-2 118-52 188-45 61-102 61-70 0-152-103Q793 108 970 87zM319 1418q-25-5-62-16.5t-77-26-79-31.5-68-33v66q18 10 42.5 20.5T130 1415v3q-81 30-81 104 85 129 169 129 55 0 90-59l-54-41q-19 18-36 26t-31 8q-38 0-80-57 30-65 104-68 26 8 58.5 17.5T341 1494zM404 0Q269 0 220 91q-53 98-53 375 0 186-21 400.5T99 1157l107 128q53-217 53-758 0-239 29-313 27-70 116-70h33q59 0 185 160 122 157 231 157 39 0 76-17 95-147 188-229 80-71 129-71h21q26 0 26-30V25q0-25-26-25h-21q-35 0-91 32-62 35-112 93-41-111-104-171-213 26-355 180Q504 0 427 0h-23z"/><glyph glyph-name="uniFEE4_uniFE88.liga" unicode="ﻤﺈ" horiz-adv-x="1275" d="M337-394q-25-4-62-15.5t-77-26-79-31.5-68-33v65q18 10 42.5 20.5T148-396v3q-81 29-81 104 85 129 169 129 55 0 90-59l-54-42q-19 19-36 27t-31 8q-38 0-80-57 30-65 104-68 26 8 58.5 17.5T359-317zM979 87q-2 118-52 188-45 61-103 61-69 0-151-103Q802 108 979 87zM404 0Q269 0 220 91q-53 98-53 375 0 186-21 400.5T98 1157l108 128q53-217 53-758 0-239 29-313 27-70 116-70h41q60 0 185 160 122 157 232 157 39 0 76-17 95-147 188-229 80-71 129-71h21q26 0 26-30V25q0-25-26-25h-21q-35 0-91 32-63 35-112 93-41-111-105-171-212 26-354 180Q513 0 436 0h-32z"/><glyph glyph-name="uniFEE8_uniFEAE.liga" unicode="ﻨﺮ" horiz-adv-x="1133" d="M1037 780L926 668 800 773l114 113zM677 0q-52 0-111 52-21-166-93-298-70-128-225-288-67 0-142 20T0-468q218 103 355 253Q466-94 483 0q-17 126-141 244l62 187 94-146q91-141 179-141h43q79 0 127 55 47 52 47 134v31q10 8 29 8 22 0 35-10v-32q0-110 40-151 34-35 117-35h21q26 0 26-30V25q0-25-26-25h-21q-77 0-132 43-52 39-56 91h-8q-13-58-76-98Q784 0 720 0h-43z"/><glyph glyph-name="uniFEE7_uniFEE4.liga" unicode="ﻧﻤ" horiz-adv-x="1275" d="M543 87q-2 118-53 188-44 61-102 61-69 0-151-103Q366 108 543 87zm634 812l-111-112-125 105 113 114zM819 0q-35 0-91 32-63 35-112 93Q575 14 511-46 299-20 157 134 77 0 0 0h-11q-26 0-26 25v89q0 30 26 30H9q60 0 185 160 122 157 232 157 39 0 76-17 95-147 188-229 80-71 129-71h66q153 0 201 102-15 79-91 151l77 182q90-143 105-294-22-124-105-202Q982 0 857 0h-38z"/><glyph glyph-name="uniFEE7_uniFEF0.liga" unicode="ﻧﻰ" horiz-adv-x="1603" d="M1513 899l-111-112-126 105 114 114zM1024 0Q873 0 819-73q34-24 112-41 100-22 135.5-43t35.5-62q0-19-12-88-14-73-25-102-116-55-291-93-187-41-350-41-161 0-258 75Q63-389 63-248q0 165 142 412 32 0 62-30-37-62-63-153-23-84-23-140 0-106 73.5-167.5T461-388q152 0 334 27 161 24 242 51-10 53-136 77-99 18-162 60 16 100 45 212 98 105 258 105h179q153 0 201 102-15 79-91 151l77 182q90-143 105-294-22-124-105-202-90-83-215-83h-169z"/><glyph glyph-name="uniFEE7_uniFEF2.liga" unicode="ﻧﻲ" horiz-adv-x="1603" d="M762-776L650-888 525-783l114 113zm-249-20L401-908 276-804l114 113zM1513 899l-111-112-126 105 114 114zM1024 0Q873 0 819-73q34-24 112-41 100-22 135.5-43t35.5-62q0-19-12-88-14-73-25-102-116-55-291-93-187-41-350-41-161 0-258 75Q63-389 63-248q0 165 142 412 32 0 62-30-37-62-63-153-23-84-23-140 0-106 73.5-167.5T461-388q152 0 334 27 161 24 242 51-10 53-136 77-99 18-162 60 16 100 45 212 98 105 258 105h179q153 0 201 102-15 79-91 151l77 182q90-143 105-294-22-124-105-202-90-83-215-83h-169z"/><glyph glyph-name="uniFEF4_uniFEAE.liga" unicode="ﻴﺮ" horiz-adv-x="1224" d="M677 0q-52 0-111 52-21-166-93-298-70-128-225-288-67 0-142 20T0-468q218 103 355 253Q466-94 483 0q-17 126-141 244l62 187 94-146q91-141 179-141h34q216 0 216 189v31q10 8 30 8 21 0 35-10v-32q0-112 47-151 44-35 172-35h21q25 0 25-30V25q0-25-25-25h-21q-119 0-187 43-58 36-63 91h-8q-13-58-77-98Q818 0 753 0h-76zm269-300L834-412 709-307l114 113zm248 20l-112-112-125 105 114 114z"/><glyph glyph-name="uniFEF3_uniFEE4.liga" unicode="ﻳﻤ" horiz-adv-x="1335" d="M1279-261l-113-113-124 105 114 114zm-249-21L918-394 793-289l114 113zM543 87q-2 118-53 188-44 61-102 61-69 0-151-103Q366 108 543 87zM819 0q-35 0-91 32-63 35-112 93Q575 14 511-46 299-20 157 134 77 0 0 0h-11q-26 0-26 25v89q0 30 26 30H9q60 0 185 160 122 157 232 157 39 0 76-17 95-147 188-229 80-71 129-71h66q210 0 258 102-17 79-92 151l76 182q90-143 107-294-23-118-100-201.5T969 0H819z"/><glyph glyph-name="uniFEF4_uniFEE6.liga" unicode="ﻴﻦ" horiz-adv-x="1697" d="M725 589L613 477 488 582l113 114zm694-889l-112-112-125 105 114 113zm248 20l-112-112-125 105 114 114zM1146 0q-53 0-93 43l-3-4q26-68 26-153-15-92-62-207-86-85-245-150-177-72-346-72-160 0-257 76Q63-387 63-246q0 165 141 412 32 0 62-29-37-63-63-154-22-84-22-140 0-106 73-169t206-62q315 2 543 210-24 233-147 422l63 187q129-287 227-287h38q216 0 216 189v31q10 8 30 8 21 0 35-10v-32q0-112 47-151 44-35 172-35h21q25 0 25-30V25q0-25-25-25h-21q-119 0-187 43-58 36-63 91h-8q-13-58-77-98-58-36-123-36h-80z"/><glyph glyph-name="T_h.liga" unicode="Th" horiz-adv-x="1505" d="M761 890q-96 15-285 16-3-197-3-297 0-479 10-616-59 9-92 9-36 0-75-9 16 217 16 562 0 157-3 351-232-2-319-20 6 32 6 51 0 21-6 50 89-9 386-9 282 0 513 11-7-36-7-97l-6-334q78 140 253 140 247 0 247-250 0-3-3-140t-3-166q0-116 5-149-30 9-73 9-44 0-77-9 13 154 13 338 0 137-23 194-35 85-144 85-92 0-146-62-49-57-49-199 0-205 10-356-31 9-78 9-41 0-74-9 10 204 10 371v313q0 111-3 213z"/><glyph glyph-name="f_b.liga" unicode="fb" horiz-adv-x="1369" d="M478 1051l-8-119-11-5q-48 17-81 17-109 0-109-128 0-77 20-148 50 0 153 3-2-32-2-36 0-10 2-27-101 2-151 2l2-233q0-143 10-384-65 9-76 9-10 0-78-9 14 144 14 381 0 99-4 236-40 0-121-2 3 22 3 30 0 7-3 33 81-3 122-3 6 163 91 278 83 110 189 110 21 0 38-5zM639-7h-42q10 154 10 463 0 256-2 428-2 69-8 169 52-8 78-8 39 0 75 8-9-165-13-485 85 130 234 130 134 0 224-88 97-96 97-261t-92.5-271.5T947-29Q819-29 716 75q-39-28-77-82zm297 42q107 0 163 94 49 82 49 214 0 152-73 225-55 57-134 57-94 0-151-70-63-78-63-234 0-131 49-204 55-82 160-82z"/><glyph glyph-name="f_f_b.liga" unicode="ffb" horiz-adv-x="1769" d="M432 609h-8q-90 1-133 1l2-233q0-143 10-384-65 9-76 9-10 0-78-9 14 144 14 381 0 99-4 236-40 0-121-2 3 22 3 30 0 7-3 33 81-3 122-3 6 163 91 278 83 110 189 110 21 0 38-5l-8-119-11-5q-48 17-81 17-109 0-109-128 0-77 20-148 43 0 135 2h8q94-2 129-2 5 163 91 278 83 110 189 110 21 0 38-5l-8-119-11-5q-49 17-81 17-109 0-109-128 0-77 19-148 50 0 154 3-2-32-2-36 0-10 2-27-101 2-151 2l2-233q0-143 10-384-65 9-77 9-9 0-77-9 14 144 14 381 0 99-4 236-34 0-128-1zM1040-7h-42q10 154 10 463 0 256-2 428-2 69-8 169 52-8 78-8 39 0 74 8-8-165-12-485 85 130 234 130 134 0 224-88 97-96 97-261t-93-271.5T1348-29q-128 0-231 104-40-28-77-82zm297 42q107 0 163 94 48 82 48 214 0 152-72 225-55 57-134 57-94 0-152-70-62-78-62-234 0-131 49-204 54-82 160-82z"/><glyph glyph-name="f_f.liga" unicode="ff" horiz-adv-x="877" d="M432 609h-8q-90 1-133 1l2-233q0-143 10-384-65 9-76 9-10 0-78-9 14 144 14 381 0 99-4 236-40 0-121-2 3 22 3 30 0 7-3 33 81-3 122-3 6 163 91 278 83 110 189 110 21 0 38-5l-8-119-11-5q-48 17-81 17-109 0-109-128 0-77 20-148 43 0 135 2h8q94-2 129-2 5 163 91 278 83 110 189 110 21 0 38-5l-8-119-11-5q-49 17-81 17-109 0-109-128 0-77 19-148 50 0 154 3-2-32-2-36 0-10 2-27-101 2-151 2l2-233q0-143 10-384-65 9-77 9-9 0-77-9 14 144 14 381 0 99-4 236-34 0-128-1z"/><glyph glyph-name="f_h.liga" unicode="fh" horiz-adv-x="1350" d="M478 1051l-8-119-11-5q-48 17-81 17-109 0-109-128 0-77 20-148 50 0 153 3-2-32-2-36 0-10 2-27-101 2-151 2l2-233q0-143 10-384-65 9-76 9-10 0-78-9 14 144 14 381 0 99-4 236-40 0-121-2 3 22 3 30 0 7-3 33 81-3 122-3 6 163 91 278 83 110 189 110 21 0 38-5zm263-493q78 140 253 140 247 0 247-250 0-3-3-140t-3-166q0-116 5-149-30 9-73 9-44 0-77-9 13 154 13 338 0 137-23 194-35 85-144 85-92 0-146-62-49-57-49-199 0-205 10-356-32 9-78 9-41 0-74-9 10 204 10 371v313q0 168-7 376 60-8 75-8 12 0 77 8-7-100-7-161z"/><glyph glyph-name="f_f_h.liga" unicode="ffh" horiz-adv-x="1750" d="M432 609h-8q-90 1-133 1l2-233q0-143 10-384-65 9-76 9-10 0-78-9 14 144 14 381 0 99-4 236-40 0-121-2 3 22 3 30 0 7-3 33 81-3 122-3 6 163 91 278 83 110 189 110 21 0 38-5l-8-119-11-5q-48 17-81 17-109 0-109-128 0-77 20-148 43 0 135 2h8q94-2 129-2 5 163 91 278 83 110 189 110 21 0 38-5l-8-119-11-5q-49 17-81 17-109 0-109-128 0-77 19-148 50 0 154 3-2-32-2-36 0-10 2-27-101 2-151 2l2-233q0-143 10-384-65 9-77 9-9 0-77-9 14 144 14 381 0 99-4 236-34 0-128-1zm710-51q78 140 253 140 246 0 246-250 0-3-2.5-140t-2.5-166q0-116 5-149-31 9-73 9-44 0-77-9 13 154 13 338 0 137-23 194-35 85-144 85-92 0-147-62-48-57-48-199 0-205 10-356-32 9-78 9-41 0-74-9 10 204 10 371v313q0 168-7 376 60-8 74-8 13 0 78 8-7-100-7-161z"/><glyph glyph-name="f_f_i.liga" unicode="ffi" horiz-adv-x="1267" d="M432 609h-8q-90 1-133 1l2-233q0-143 10-384-65 9-76 9-10 0-78-9 14 144 14 381 0 99-4 236-40 0-121-2 3 22 3 30 0 7-3 33 81-3 122-3 6 163 91 278 83 110 189 110 21 0 38-5l-8-119-11-5q-48 17-81 17-109 0-109-128 0-77 20-148 43 0 135 2h8q94-2 129-2 5 163 91 278 83 110 189 110 21 0 38-5l-8-119-11-5q-49 17-81 17-109 0-109-128 0-77 19-148 50 0 154 3-2-32-2-36 0-10 2-27-101 2-151 2l2-233q0-143 10-384-65 9-77 9-9 0-77-9 14 144 14 381 0 99-4 236-34 0-128-1zm585-251q0 180-11 330 30-8 71-8t73 8q-8-158-8-378 0-52 10-317-27 9-70 9t-76-9q11 191 11 365zm143 566q0-32-22.5-55t-55.5-23q-32 0-55 23t-23 55q0 33 23 56t55 23q33 0 55.5-23t22.5-56z"/><glyph glyph-name="f_j.liga" unicode="fj" horiz-adv-x="877" d="M760 924q0-32-23-55t-56-23q-32 0-55 23t-23 55q0 33 23 56t55 23q33 0 56-23t23-56zm-282 127l-8-119-11-5q-48 17-81 17-109 0-109-128 0-77 20-148 50 0 153 3-2-32-2-36 0-10 2-27-101 2-151 2l2-233q0-143 10-384-65 9-76 9-10 0-78-9 14 144 14 381 0 99-4 236-40 0-121-2 3 22 3 30 0 7-3 33 81-3 122-3 6 163 91 278 83 110 189 110 21 0 38-5zm26-1431l-5 44q46 14 67 43 37 49 46 165 3 38 3 404 0 180-15 412 43-8 78-8 31 0 77 8-10-218-10-455 0-250-2-299-1-53-11-96-44-194-228-218z"/><glyph glyph-name="f_f_j.liga" unicode="ffj" horiz-adv-x="1275" d="M432 609h-8q-90 1-133 1l2-233q0-143 10-384-65 9-76 9-10 0-78-9 14 144 14 381 0 99-4 236-40 0-121-2 3 22 3 30 0 7-3 33 81-3 122-3 6 163 91 278 83 110 189 110 21 0 38-5l-8-119-11-5q-48 17-81 17-109 0-109-128 0-77 20-148 43 0 135 2h8q94-2 129-2 5 163 91 278 83 110 189 110 21 0 38-5l-8-119-11-5q-49 17-81 17-109 0-109-128 0-77 19-148 50 0 154 3-2-32-2-36 0-10 2-27-101 2-151 2l2-233q0-143 10-384-65 9-77 9-9 0-77-9 14 144 14 381 0 99-4 236-34 0-128-1zm728 315q0-32-22.5-55t-55.5-23q-32 0-55 23t-23 55q0 33 23 56t55 23q33 0 55.5-23t22.5-56zM904-380l-4 44q46 14 67 43 37 49 46 165 3 38 3 404 0 180-15 412 43-8 77-8 32 0 78 8-10-218-10-455 0-250-2-299-1-53-11-96-44-194-229-218z"/><glyph glyph-name="f_k.liga" unicode="fk" horiz-adv-x="1282" d="M478 1051l-8-119-11-5q-48 17-81 17-109 0-109-128 0-77 20-148 50 0 153 3-2-32-2-36 0-10 2-27-101 2-151 2l2-233q0-143 10-384-65 9-76 9-10 0-78-9 14 144 14 381 0 99-4 236-40 0-121-2 3 22 3 30 0 7-3 33 81-3 122-3 6 163 91 278 83 110 189 110 21 0 38-5zM1229 5V-7q-49 9-92 9-41 0-90-9-90 126-261 317-19 23-36 23-10 0-10-24l2-127q1-119 11-189-43 9-75 9-42 0-72-9 6 173 6 517 0 376-6 543 43-8 76-8 31 0 74 8-13-188-13-316 0-40-2-126t-2-130q0-11 1-46v-41q0-11 12-11 7 0 39 30 196 179 266 275 25-8 71-8 41 0 78 8L879 402l224-263z"/><glyph glyph-name="f_f_k.liga" unicode="ffk" horiz-adv-x="1697" d="M432 609h-8q-90 1-133 1l2-233q0-143 10-384-65 9-76 9-10 0-78-9 14 144 14 381 0 99-4 236-40 0-121-2 3 22 3 30 0 7-3 33 81-3 122-3 6 163 91 278 83 110 189 110 21 0 38-5l-8-119-11-5q-48 17-81 17-109 0-109-128 0-77 20-148 43 0 135 2h8q94-2 129-2 5 163 91 278 83 110 189 110 21 0 38-5l-8-119-11-5q-49 17-81 17-109 0-109-128 0-77 19-148 50 0 154 3-2-32-2-36 0-10 2-27-101 2-151 2l2-233q0-143 10-384-65 9-77 9-9 0-77-9 14 144 14 381 0 99-4 236-34 0-128-1zM1630 5V-7q-49 9-92 9-41 0-91-9-89 126-260 317-19 23-36 23-10 0-10-24l2-127q1-119 11-189-43 9-76 9-42 0-72-9 7 173 7 517 0 376-7 543 44-8 77-8 31 0 74 8-13-188-13-316 0-40-2-126t-2-130q0-11 1-46v-41q0-11 12-11 6 0 39 30 196 179 265 275 26-8 71-8 41 0 79 8l-327-286 224-263z"/><glyph glyph-name="f_f_l.liga" unicode="ffl" horiz-adv-x="1279" d="M432 609h-8q-90 1-133 1l2-233q0-143 10-384-65 9-76 9-10 0-78-9 14 144 14 381 0 99-4 236-40 0-121-2 3 22 3 30 0 7-3 33 81-3 122-3 6 163 91 278 83 110 189 110 21 0 38-5l-8-119-11-5q-48 17-81 17-109 0-109-128 0-77 20-148 43 0 135 2h8q94-2 129-2 5 163 91 278 83 110 189 110 21 0 38-5l-8-119-11-5q-49 17-81 17-109 0-109-128 0-77 19-148 50 0 154 3-2-32-2-36 0-10 2-27-101 2-151 2l2-233q0-143 10-384-65 9-77 9-9 0-77-9 14 144 14 381 0 99-4 236-34 0-128-1zm580-63q0 340-9 507 49-8 74-8 24 0 76 8-10-292-10-539 0-253 12-521-37 10-78 10-36 0-73-10 8 151 8 553z"/><glyph glyph-name="f_t.liga" unicode="ft" horiz-adv-x="856" d="M426 608q-88 2-135 2l2-233q0-143 10-384-65 9-76 9-10 0-78-9 14 144 14 381 0 99-4 236-40 0-121-2 3 22 3 30 0 7-3 33 81-3 122-3 6 163 91 278 83 110 189 110 21 0 38-5l-8-119-11-5q-48 17-81 17-109 0-109-128 0-77 20-148 46 0 138 3h114q0 84-3 160 48 8 147 65-7-107-11-225 74 0 156 8-3-24-3-37 0-14 3-34-108 3-156 3-6-163-6-393 0-93 20-133 21-47 81-47 9 0 65 9-2-11-2-18t2-22q-49-27-122-27-104 0-154 86-20 34-20 135 0-2 1.5 50t1.5 134v226q-35 0-115-3z"/><glyph glyph-name="f_f_t.liga" unicode="fft" horiz-adv-x="1259" d="M442 671q79-3 119-3 5 163 91 278 83 110 189 110 21 0 38-5l-8-119-11-5q-49 17-81 17-109 0-109-128 0-77 19-148 47 0 139 3h114q0 84-3 160 47 8 147 65-8-107-11-225 74 0 156 8-3-24-3-37 0-14 3-34-108 3-156 3-7-163-7-393 0-93 20-133 22-47 82-47 9 0 65 9-2-11-2-18t2-22q-49-27-122-27-104 0-154 86-20 34-20 135 0-2 1.5 50t1.5 134v226q-35 0-115-3-88 2-135 2l2-233q0-143 10-384-65 9-77 9-9 0-77-9 14 144 14 381 0 99-4 236-39 0-118-2h-3q-99 2-148 2l2-233q0-143 10-384-65 9-76 9-10 0-78-9 14 144 14 381 0 99-4 236-40 0-121-2 3 22 3 30 0 7-3 33 81-3 122-3 6 163 91 278 83 110 189 110 21 0 38-5l-8-119-11-5q-48 17-81 17-109 0-109-128 0-77 20-148 49 0 150 3h3z"/><glyph glyph-name="uni0647.fina" unicode="ه" horiz-adv-x="935" arabic-form="final" d="M974 25q0-25-27-25h-12q-27 0-68 1t-91 3q69-59 69-163 0-36-11-77.5t-29.5-82-43-77T709-457q-80 16-148 57.5t-121.5 103-90.5 140T295 11Q206-8 152-37.5T72-107l-13 5L82 49q21 29 70 55t131 43v34q0 199 39 329t120 197q216-99 218-452 0-76-11-126 39 8 101 11.5t144 3.5h53q15 0 21-6.5t6-23.5V25zM356 154q87 7 149 26.5t94 57.5q-2 53-16.5 101.5t-36 88-47 66.5-52.5 35q-51-60-71-155t-20-220zm394-376q0 42-14 80.5t-41 70-67.5 54T535 15l21 61q-39-21-83-34.5T382 21q20-59 53.5-112.5T513-188t97.5-75T724-312q12 16 19 37t7 53z"/><glyph glyph-name="uni0672.fina" unicode="ٲ" horiz-adv-x="414" d="M451 25q0-25-26-25h-21Q269 0 220 91q-53 98-53 375 0 186-21 400.5T99 1157l107 128q53-217 53-758 0-239 29-313 28-70 116-70h21q26 0 26-30V25zM319 1546q-11 40-44 40-23 0-45-10-21-11-21-23 0-24 29-41 26-15 57-15 36 0 118 26l2-4q-21-38-47-78-100-23-156-66-28-22-50-22-18 0-46 18-27 17-41 17-21 0-42-27l-17 21q50 76 95 76 16 0 43-17t36-17q18 0 31 12v3q-65 30-65 81 0 33 40 76 50 52 102 52 54 0 54-48 0-19-24-55z"/><glyph glyph-name="uni0673.fina" unicode="ٳ" horiz-adv-x="414" d="M451 25q0-25-26-25h-21Q269 0 220 91q-53 98-53 375 0 186-21 400.5T99 1157l107 128q53-217 53-758 0-239 29-313 28-70 116-70h21q26 0 26-30V25zM319-230q-11 40-44 40-23 0-45-10-21-11-21-23 0-25 29-41 26-16 57-16 36 0 118 27l2-5q-21-37-47-77-100-23-156-67-28-22-50-22-18 0-46 19-27 17-41 17-21 0-42-27l-17 21q50 75 95 75 16 0 43-16 27-18 36-18 18 0 31 12v4q-65 29-65 80 0 34 40 77 50 52 102 52 54 0 54-49 0-19-24-54z"/><glyph glyph-name="uni0675.fina" unicode="ٵ" horiz-adv-x="615" d="M643 25q0-25-27-25H404Q269 0 220 91q-53 98-53 375 0 186-21 400.5T99 1157l108 128q52-217 52-758 0-239 29-313 28-70 116-70h212q27 0 27-30V25zm-68 1393q-26-5-63-16.5t-77-26-78.5-31.5-68.5-33v66q19 10 43.5 20.5T386 1415v3q-81 30-81 104 85 129 168 129 55 0 91-59l-54-41q-19 18-36.5 26t-31.5 8q-38 0-80-57 30-65 104-68 27 8 59 17.5t71 16.5z"/><glyph glyph-name="uni0676.fina" unicode="ٶ" horiz-adv-x="860" d="M888 25q0-25-27-25H603q-52-308-336-543-132 9-231 77 242 123 372 262Q513-91 524 7q-44-7-100-7-65 0-147 20-77 18-111 37-7 49-7 68 6 287 213 399 224-66 237-380h252q27 0 27-30V25zM529 151q-5 77-60.5 145.5T340 374q-82-70-82-189 71-41 190-41 32 0 81 7zm255 583q-26-4-62.5-15.5t-77-26-79-31.5-67.5-33v65q18 10 42.5 20.5T595 732v3q-81 29-81 104 85 129 169 129 54 0 90-59l-54-42q-19 19-36 27t-31 8q-38 0-80-57 30-65 104-68 26 7 58.5 17t71.5 17z"/><glyph glyph-name="uni0677.fina" unicode="ٷ" horiz-adv-x="860" d="M888 25q0-25-27-25H603q-52-308-336-543-132 9-231 77 242 123 372 262Q513-91 524 7q-44-7-100-7-65 0-147 20-77 18-111 37-7 49-7 68 6 287 213 399 224-66 237-380h252q27 0 27-30V25zM529 151q-5 77-60.5 145.5T340 374q-82-70-82-189 71-41 190-41 32 0 81 7zm255 583q-26-4-62.5-15.5t-77-26-79-31.5-67.5-33v65q18 10 42.5 20.5T595 732v3q-81 29-81 104 85 129 169 129 54 0 90-59l-54-42q-19 19-36 27t-31 8q-38 0-80-57 30-65 104-68 26 7 58.5 17t71.5 17zm-364-78q-20 8-83 32-82-123-260-183v94q135 27 200 108-83 25-123 71 10 85 58 139t118 54q57-24 57-115 0-42-23-104 29-15 56-18v-78zm-87 167q0 53-37 68-62 0-83-80 32-31 103-56 17 28 17 68z"/><glyph glyph-name="uni0678.init" unicode="ٸ" horiz-adv-x="636" d="M387 285Q364 167 287 83.5T122 0H-11q-26 0-26 25v89q0 30 26 30h49q209 0 258 102-17 79-92 151l76 182q90-143 107-294zm197 477q-25-5-62-16.5t-77-26-79-31.5-68-33v66q18 10 43 20.5t55 17.5v4q-81 29-81 103 84 129 168 129 55 0 90-58l-53-42q-19 18-36.5 26t-31.5 8q-38 0-80-57 30-65 104-68 26 8 58.5 17.5T606 838z"/><glyph glyph-name="uni0678.medi" unicode="ٸ" horiz-adv-x="636" d="M665 25q0-25-25-25H510Q391 0 323 43q-58 36-63 91h-8q-13-58-77-98Q117 0 52 0h-63q-26 0-26 25v89q0 30 26 30H9q217 0 217 194v32q10 7 30 7 21 0 35-10v-31q0-116 47-156 44-36 172-36h130q25 0 25-30V25zM557 652q-26-4-62.5-15.5t-76.5-26-79-31.5-68-33v65q18 10 42.5 20.5T368 650v3q-81 29-81 104 85 129 169 129 55 0 90-59l-54-42q-19 19-36 27t-31 8q-38 0-80-57 30-65 104-68 26 7 58.5 17t71.5 17z"/><glyph glyph-name="uni0678.fina" unicode="ٸ" horiz-adv-x="1340" d="M1366 25q0-25-27-25h-315Q873 0 819-73q34-24 112-41 100-22 135.5-43t35.5-62q0-19-12-88-14-73-25-102-116-55-291-93-187-41-350-41-161 0-258 75Q63-389 63-248q0 165 142 412 32 0 62-30-37-62-63-153-23-84-23-140 0-106 73.5-167.5T461-388q152 0 334 27 161 24 242 51-10 53-136 77-99 18-162 60 16 100 45 212 98 105 258 105h297q27 0 27-30V25zm-113 400q-26-5-62.5-16.5t-77-26-79-31.5-67.5-33v66q18 10 42.5 20.5T1064 422v3q-81 30-81 104 85 129 169 129 54 0 90-59l-54-41q-19 18-36.5 26t-30.5 8q-39 0-80-57 30-65 103-68 27 8 59 17.5t72 16.5z"/><glyph glyph-name="uni067C.init" unicode="ټ" horiz-adv-x="518" d="M497 864L385 752 260 856l114 114zm-249-20L137 732 11 836l114 113zM215 26Q170 0 122 0h-19Q81-57 81-94q0-24 25-41t67-17q29 0 64.5 12t50.5 30q0 43-34 93-17 22-39 43zM51 0h-62q-26 0-26 25v89q0 30 26 30h49q209 0 258 102-17 79-92 151l76 182q90-143 107-294-23-118-100-201-2-3-5-6 56-68 58-149-13-65-49-132-75-48-142-48-53 0-89 30-38 32-38 85Q22-84 51 0z"/><glyph glyph-name="uni067C.medi" unicode="ټ" horiz-adv-x="647" d="M593 721L481 609 356 712l114 114zm-248-21L233 588 108 692l114 114zM255 16Q214 0 171 0h-37q-23-57-23-94 0-24 25-41t68-17q29 0 64.5 12t50.5 30q0 43-35 93-12 18-29 33zM82 0H-2q-26 0-26 25v89q0 30 26 30h130q217 0 217 189v31q10 8 30 8 21 0 34-10v-32q0-112 48-151 43-35 171-35h21q25 0 25-30V25q0-25-25-25h-21Q510 0 441 43q-58 36-63 91h-8q-9-41-44-73 43-61 45-132-13-65-49-132-75-48-142-48-53 0-90 30-37 32-37 85Q53-84 82 0z"/><glyph glyph-name="uni067C.fina" unicode="ټ" horiz-adv-x="1394" d="M990 791L878 679 753 783l114 114zm-249-21L630 659 504 763l114 113zm29-759Q706-1 642-6q-21-53-21-88 0-24 25-41t68-17q28 0 63.5 12t50.5 30q0 43-34 93-11 14-24 28zM588-10q-29-1-59-1-216 0-335 80Q86 144 86 265q0 123 105 301 3 2 14 2 26 0 43-32-63-104-63-189 0-92 105.5-147.5T577 144q108 0 268 28 156 28 245 63 76 29 104.5 60.5T1245 411q11 4 21 4 27 0 46-27-30-67-30-130 0-114 103-114h20q27 0 27-30V25q0-25-27-25h-20q-79 0-126 40-42 37-42 94 0 25 6 53-115-85-299-140-34-10-69-19 25-46 25-99-12-65-49-132-74-48-142-48-53 0-89 30-38 32-38 85 0 49 26 126z"/><glyph glyph-name="uni067D.init" unicode="ٽ" horiz-adv-x="518" d="M258 689l-99 99 99 98 99-98zm118 201l-100 99 100 99 98-99zm-235 0L40 989l101 99 98-99zm246-605Q364 167 287 83.5T122 0H-11q-26 0-26 25v89q0 30 26 30h49q209 0 258 102-17 79-92 151l76 182q90-143 107-294z"/><glyph glyph-name="uni067D.medi" unicode="ٽ" horiz-adv-x="518" d="M243 524l-99 99 99 99 99-99zm117 201l-98 99 98 100 100-100zm-235 0L25 824l100 100 99-100zM556 25q0-25-25-25h-21Q391 0 323 43q-58 36-63 91h-8q-13-58-77-98Q117 0 52 0h-63q-26 0-26 25v89q0 30 26 30H9q217 0 217 189v31q10 8 30 8 21 0 35-10v-32q0-112 47-151 44-35 172-35h21q25 0 25-30V25z"/><glyph glyph-name="uni067D.fina" unicode="ٽ" horiz-adv-x="1394" d="M750 642l-99 100 99 98 99-98zm118 202l-100 99 100 99 98-99zm-235 0l-102 99 102 99 98-99zm799-819q0-25-27-25h-20q-79 0-126 40-42 37-42 94 0 25 6 53-115-85-299-140-196-58-395-58-216 0-335 80Q86 144 86 265q0 123 105 301 3 2 14 2 26 0 43-32-63-104-63-189 0-92 105.5-147.5T577 144q108 0 268 28 156 28 245 63 76 29 104.5 60.5T1245 411q11 4 21 4 27 0 46-27-30-67-30-130 0-114 103-114h20q27 0 27-30V25z"/><glyph glyph-name="uni0681.init" unicode="ځ" horiz-adv-x="966" d="M903 310l-80-129q-47 15-100 15-70 0-260-84Q211 0 9 0h-20q-26 0-26 25v89q0 30 26 30H9q147 0 357 57 78 25 215 66v4q-65 19-223 140-138 106-178 106-31 0-92-108-25 3-50 27l89 159q37 65 92 65 50 0 282-183 119-93 196-128 90-39 206-39zM531 930q-26-4-63-15.5t-77-26-78.5-31.5-67.5-33v65q18 10 42.5 20.5T342 927v4q-81 29-81 104 85 128 168 128 55 0 91-58l-54-42q-19 18-36.5 26.5T398 1098q-38 0-80-58 30-64 104-67 27 7 59 16.5t71 17.5z"/><glyph glyph-name="uni0681.medi" unicode="ځ" horiz-adv-x="1139" d="M1177 25q0-25-25-25-355 0-355 262 0 30 .5 53t2.5 44q-19-13-49.5-34.5T682 276t-82.5-59-91.5-64Q396 77 270.5 38.5T-1 0h-10q-26 0-26 25v89q0 30 26 30h10q116 0 227.5 27.5T443 258q48 27 82.5 47t59 34 41.5 24 29 16v4q-12 0-29 2t-43 9-63 19.5-89 33.5q-207 84-220 84-36 0-86-124-28 0-56 21l76 164q38 82 92 82 31 0 142-49 38-17 68-30t54-23 44-17 38-14q144-50 259-50 90 0 248 36l-66-150q-58-2-99-5t-65-8q3-35 7.5-61t11-45.5 16.5-34 24-27.5q57-52 212-52h21q25 0 25-30V25zM758 903q-25-5-62-16t-77-26-79-31.5-68-33.5v66q18 10 43 20.5t55 17.5v4q-81 29-81 104 84 128 168 128 55 0 90-58l-53-42q-19 18-36.5 26t-31.5 8q-38 0-80-57 30-65 104-67 26 7 58.5 16.5T780 979z"/><glyph glyph-name="uni0681.fina" unicode="ځ" horiz-adv-x="1045" d="M1088-383L987-500q-211-43-367-43-229 0-384 99Q68-335 68-155q0 190 165 348 143 138 366 216v4q-156 26-270 64-56 20-84 20-36 0-86-118-35 0-56 18l78 164q38 79 90 79 5 0 216-60t297-60q114 0 248 34l-65-148q-84 0-163-16 0-129 51-185 54-61 181-61h20q27 0 27-30V25q0-25-27-25h-20Q739 0 739 285q0 28 6 96-207-42-363-171Q215 72 215-84q0-154 150-245 145-89 374-89 127 0 349 35zM794 912q-25-5-62-16t-77-26-79-31.5-68-33.5v66q18 10 42.5 20.5T606 909v4q-82 29-82 104 85 128 169 128 55 0 90-58l-54-42q-19 18-36 26.5t-31 8.5q-38 0-80-58 30-65 104-67 26 7 58.5 16.5T816 988z"/><glyph glyph-name="uni0682.init" unicode="ڂ" horiz-adv-x="966" d="M489 1218l-112-112-125 104 114 114zm414-908l-80-129q-47 15-100 15-70 0-260-84Q211 0 9 0h-20q-26 0-26 25v89q0 30 26 30H9q147 0 357 57 78 25 215 66v4q-65 19-223 140-138 106-178 106-31 0-92-108-25 3-50 27l89 159q37 65 92 65 50 0 282-183 119-93 196-128 90-39 206-39zM499 995L387 883 262 987l114 114z"/><glyph glyph-name="uni0682.medi" unicode="ڂ" horiz-adv-x="1139" d="M726 968L614 855 490 959l113 114zm451-943q0-25-25-25-355 0-355 262 0 30 .5 53t2.5 44q-19-13-49.5-34.5T682 276t-82.5-59-91.5-64Q396 77 270.5 38.5T-1 0h-10q-26 0-26 25v89q0 30 26 30h10q116 0 227.5 27.5T443 258q48 27 82.5 47t59 34 41.5 24 29 16v4q-12 0-29 2t-43 9-63 19.5-89 33.5q-207 84-220 84-36 0-86-124-28 0-56 21l76 164q38 82 92 82 31 0 142-49 38-17 68-30t54-23 44-17 38-14q144-50 259-50 90 0 248 36l-66-150q-58-2-99-5t-65-8q3-35 7.5-61t11-45.5 16.5-34 24-27.5q57-52 212-52h21q25 0 25-30V25zM719 1192l-112-112-125 103 114 114z"/><glyph glyph-name="uni0682.fina" unicode="ڂ" horiz-adv-x="1045" d="M765 974L654 862 528 967l114 113zm323-1357L987-500q-211-43-367-43-229 0-384 99Q68-335 68-155q0 190 165 348 143 138 366 216v4q-156 26-270 64-56 20-84 20-36 0-86-118-35 0-56 18l78 164q38 79 90 79 5 0 216-60t297-60q114 0 248 34l-65-148q-84 0-163-16 0-129 51-185 54-61 181-61h20q27 0 27-30V25q0-25-27-25h-20Q739 0 739 285q0 28 6 96-207-42-363-171Q215 72 215-84q0-154 150-245 145-89 374-89 127 0 349 35zM755 1195l-112-112-125 104 114 114z"/><glyph glyph-name="uni0685.init" unicode="څ" horiz-adv-x="966" d="M903 310l-80-129q-47 15-100 15-70 0-260-84Q211 0 9 0h-20q-26 0-26 25v89q0 30 26 30H9q147 0 357 57 78 25 215 66v4q-65 19-223 140-138 106-178 106-31 0-92-108-25 3-50 27l89 159q37 65 92 65 50 0 282-183 119-93 196-128 90-39 206-39zm-425 875l-100-99-98 99 98 99zm117-201l-99-99-98 99 98 98zm-235 0l-99-99-100 99 100 98z"/><glyph glyph-name="uni0685.medi" unicode="څ" horiz-adv-x="1139" d="M1177 25q0-25-25-25-355 0-355 262 0 30 .5 53t2.5 44q-19-13-49.5-34.5T682 276t-82.5-59-91.5-64Q396 77 270.5 38.5T-1 0h-10q-26 0-26 25v89q0 30 26 30h10q116 0 227.5 27.5T443 258q48 27 82.5 47t59 34 41.5 24 29 16v4q-12 0-29 2t-43 9-63 19.5-89 33.5q-207 84-220 84-36 0-86-124-28 0-56 21l76 164q38 82 92 82 31 0 142-49 38-17 68-30t54-23 44-17 38-14q144-50 259-50 90 0 248 36l-66-150q-58-2-99-5t-65-8q3-35 7.5-61t11-45.5 16.5-34 24-27.5q57-52 212-52h21q25 0 25-30V25zM705 1167l-99-99-98 99 98 98zm118-201l-99-100-99 100 99 98zm-235 0l-99-100-101 100 101 98z"/><glyph glyph-name="uni0685.fina" unicode="څ" horiz-adv-x="1045" d="M1088-383L987-500q-211-43-367-43-229 0-384 99Q68-335 68-155q0 190 165 348 143 138 366 216v4q-156 26-270 64-56 20-84 20-36 0-86-118-35 0-56 18l78 164q38 79 90 79 5 0 216-60t297-60q114 0 248 34l-65-148q-84 0-163-16 0-129 51-185 54-61 181-61h20q27 0 27-30V25q0-25-27-25h-20Q739 0 739 285q0 28 6 96-207-42-363-171Q215 72 215-84q0-154 150-245 145-89 374-89 127 0 349 35zM741 1176l-99-99-98 99 98 99zm118-201l-100-99-98 99 98 98zm-235 0l-100-99-100 99 100 98z"/><glyph glyph-name="uni0689.fina" unicode="ډ" horiz-adv-x="768" d="M382 16q-1-1-3-1Q310-1 258-7q-20-52-20-87 0-24 25-41t68-17q28 0 63.5 12t50.5 30q0 43-34 93-13 17-29 33zM205-11h-1Q141-11 85 7q-4 71-4 94 0 39 15 132 15 4 24 4 14 0 27-9v-28q0-34 3-49 40-19 97-19 78 0 178 32 96 31 143 67-74 212-154 487l80 174q109-495 166-642 42-106 98-106h21q26 0 26-30V25q0-25-26-25h-21Q651 0 581 209h-3q-11-76-41-140-29-14-72-29 31-52 32-111-12-65-49-132-75-48-142-48-53 0-89 30-38 32-38 85 0 49 26 125z"/><glyph glyph-name="uni068A.fina" unicode="ڊ" horiz-adv-x="768" d="M805 25q0-25-26-25h-21Q651 0 581 209h-3q-11-76-41-140-54-28-158-54-109-26-175-26-63 0-119 18-4 71-4 94 0 39 15 132 15 4 24 4 14 0 27-9v-28q0-34 3-49 40-19 97-19 78 0 178 32 96 31 143 67-74 212-154 487l80 174q109-495 166-642 42-106 98-106h21q26 0 26-30V25zM485-282L373-394 248-289l114 113z"/><glyph glyph-name="uni068B.fina" unicode="ڋ" horiz-adv-x="768" d="M805 25q0-25-26-25h-21Q651 0 581 209h-3q-11-76-41-140-54-28-158-54-109-26-175-26-63 0-119 18-4 71-4 94 0 39 15 132 15 4 24 4 14 0 27-9v-28q0-34 3-49 40-19 97-19 78 0 178 32 96 31 143 67-74 212-154 487l80 174q109-495 166-642 42-106 98-106h21q26 0 26-30V25zM384 1257q0-29-.5-50.5T379 1171l2-1q31 46 70 71t73 25q25 0 45-10t35-26 24.5-35.5T642 1156q-21-51-49.5-83.5t-69-50.5-94-26-124.5-9l-100 88q32-5 61-6.5t53-1.5l14 44q0 56-.5 98.5t-3.5 76-7 61-11 51.5l60 62q8-29 25-64.5t45-76.5l-5-4-54 23q2-41 2-81zm115-64q-44 0-80-35t-69-92q34 1 70.5 6.5t68.5 14 57 19.5 38 22q-17 34-37.5 49.5T499 1193zM485-282L373-394 248-289l114 113z"/><glyph glyph-name="uni068F.fina" unicode="ڏ" horiz-adv-x="768" d="M805 25q0-25-26-25h-21Q651 0 581 209h-3q-11-76-41-140-54-28-158-54-109-26-175-26-63 0-119 18-4 71-4 94 0 39 15 132 15 4 24 4 14 0 27-9v-28q0-34 3-49 40-19 97-19 78 0 178 32 96 31 143 67-74 212-154 487l80 174q109-495 166-642 42-106 98-106h21q26 0 26-30V25zM457 997l-98 98 98 99 100-99zm118 201l-99 98 99 100 99-100zm-235 0l-100 98 100 100 99-100z"/><glyph glyph-name="uni0690.fina" unicode="ڐ" horiz-adv-x="768" d="M805 25q0-25-26-25h-21Q651 0 581 209h-3q-11-76-41-140-54-28-158-54-109-26-175-26-63 0-119 18-4 71-4 94 0 39 15 132 15 4 24 4 14 0 27-9v-28q0-34 3-49 40-19 97-19 78 0 178 32 96 31 143 67-74 212-154 487l80 174q109-495 166-642 42-106 98-106h21q26 0 26-30V25zM670 1296l-99-99-98 99 98 99zm-235 0l-99-99-100 99 100 99zm239-200l-99-99-99 99 99 98zm-235 0l-99-99-100 99 100 98z"/><glyph glyph-name="uni0692.fina" unicode="ڒ" horiz-adv-x="686" d="M724 25q0-25-26-25h-21q-52 0-111 52-21-166-93-298-70-128-225-288-67 0-142 20T0-468q218 103 355 253Q466-94 483 0q-17 126-141 244l62 187 94-146q91-141 179-141h21q26 0 26-30V25zM223 883l168-151 167 151h49L431 643h-80L174 883h49z"/><glyph glyph-name="uni0693.fina" unicode="ړ" horiz-adv-x="686" d="M336-436q-36-43-79-89-10-30-10-53 0-22 24.5-38t66.5-16q27 0 62 11.5t50 26.5q0 41-35 87-31 41-79 71zm-131-96q-47 5-98 18-76 20-107 46 218 103 355 253Q466-94 483 0q-17 126-141 244l62 187 94-146q91-141 179-141h21q26 0 26-30V25q0-25-26-25h-21q-52 0-111 52-21-166-93-298-32-57-81-122 105-83 107-189-12-60-47-124-74-43-139-43-52 0-86 27-37 29-37 79 0 36 15 86z"/><glyph glyph-name="uni0694.fina" unicode="ڔ" horiz-adv-x="686" d="M724 25q0-25-26-25h-21q-52 0-111 52-21-166-93-298-70-128-225-288-67 0-142 20T0-468q218 103 355 253Q466-94 483 0q-17 126-141 244l62 187 94-146q91-141 179-141h21q26 0 26-30V25zM616-602L505-713 379-609l114 113z"/><glyph glyph-name="uni0695.fina" unicode="ڕ" horiz-adv-x="686" d="M724 25q0-25-26-25h-21q-52 0-111 52-21-166-93-298-70-128-225-288-67 0-142 20T0-468q218 103 355 253Q466-94 483 0q-17 126-141 244l62 187 94-146q91-141 179-141h21q26 0 26-30V25zM172-668l168-150 167 150h49L380-907h-80L123-668h49z"/><glyph glyph-name="uni0696.fina" unicode="ږ" horiz-adv-x="686" d="M724 25q0-25-26-25h-21q-52 0-111 52-21-166-93-298-70-128-225-288-67 0-142 20T0-468q218 103 355 253Q466-94 483 0q-17 126-141 244l62 187 94-146q91-141 179-141h21q26 0 26-30V25zM616-602L505-713 379-609l114 113zM311-25L200-136 74-32 188 82z"/><glyph glyph-name="uni0697.fina" unicode="ڗ" horiz-adv-x="686" d="M404 431l94-146q50-76 93.5-108.5T677 144h21q14 0 20-6.5t6-23.5V25q0-25-26-25h-21q-24 0-51.5 12T566 52q-11-84-33.5-156.5t-60-141-93-139T248-534q-34 0-71 5.5T106-514t-62.5 21T0-468q121 57 209 123t147 130.5T445.5-94 483 0q-8 59-40.5 119T342 244zm201 279l-99-100-99 100 99 98zm-235 0l-99-100-101 100 101 98z"/><glyph glyph-name="uni0699.fina" unicode="ڙ" horiz-adv-x="686" d="M404 431l94-146q50-76 93.5-108.5T677 144h21q14 0 20-6.5t6-23.5V25q0-25-26-25h-21q-24 0-51.5 12T566 52q-11-84-33.5-156.5t-60-141-93-139T248-534q-34 0-71 5.5T106-514t-62.5 21T0-468q121 57 209 123t147 130.5T445.5-94 483 0q-8 59-40.5 119T342 244zm204 483L508 814l-98 100 98 98zm-235 0L273 814 173 914l100 98zm232-204l-99-100-99 100 99 98zm-235 0l-99-100-101 100 101 98z"/><glyph glyph-name="uni069A.init" unicode="ښ" horiz-adv-x="1059" d="M987 285q-25-116-93-197Q820 0 732 0 590 0 566 134h-4Q521 0 387 0q-59 0-102 35-47 36-59 99h-3q-19-59-75-97Q90 0 9 0h-20q-26 0-26 25v89q0 30 26 30H9q196 0 196 223 15 7 29 7 21 0 42-12-5-59-5-106 0-45 30-78.5t73-33.5q77 0 121 63 43 60 43 160 14 7 28 7 20 0 43-12-6-59-6-106 0-46 30.5-79t77.5-33q137 0 185 102-16 79-91 151l76 182q91-143 106-294zM705-282L593-394 468-289l114 113zM695 821L583 709 459 814l113 113z"/><glyph glyph-name="uni069A.medi" unicode="ښ" horiz-adv-x="1095" d="M1133 25q0-25-27-25h-20q-53 0-99.5 37.5T928 134h-4Q885 0 756 0 614 0 590 134h-4Q544 0 411 0 252 0 226 134h-3q-19-59-75-97Q90 0 9 0h-20q-26 0-26 25v89q0 30 26 30l20-2q196 3 196 223 15 7 29 7 21 0 42-12-5-56-5-104 0-46 34-79t93-33q78 0 122 63 42 59 42 158 14 7 28 7 21 0 43-12-6-56-6-104 0-46 31-79t78-33q77 0 122 63 42 59 42 158 13 7 28 7 20 0 43-12-6-56-6-104 0-46 33.5-79t87.5-33h20q27 0 27-30V25zM714-282L602-394 477-289l114 113zm-9 1030L593 636 468 741l114 113z"/><glyph glyph-name="uni069A.fina" unicode="ښ" horiz-adv-x="1838" d="M1875 25q0-25-26-25h-20q-54 0-100.5 37.5T1671 134h-4Q1628 0 1498 0q-141 0-165 134h-4Q1287 0 1153 0q-51 0-98 32 9-68 9-129 0-98-63-222-82-75-237-143-185-81-336-81-160 0-257 76Q68-387 68-246q0 165 141 412 32 0 62-29-37-63-63-154-22-84-22-140 0-106 73-168.5T465-388q122 0 270.5 57.5T984-189q2 202-111 409l64 189q60-158 104-212 41-53 99-53 79 0 122 63 42 60 42 160 15 7 29 7 20 0 42-12-5-59-5-106 0-46 31-79t77-33q78 0 122 63 42 60 42 160 14 7 29 7 20 0 42-12-5-59-5-106 0-46 32.5-79t88.5-33h20q26 0 26-30V25zm-406-307l-112-112-125 105 114 113zm-9 1039l-112-112-125 105 114 113z"/><glyph glyph-name="uni069B.init" unicode="ڛ" horiz-adv-x="1059" d="M987 285q-25-116-93-197Q820 0 732 0 590 0 566 134h-4Q521 0 387 0q-59 0-102 35-47 36-59 99h-3q-19-59-75-97Q90 0 9 0h-20q-26 0-26 25v89q0 30 26 30H9q196 0 196 223 15 7 29 7 21 0 42-12-5-59-5-106 0-45 30-78.5t73-33.5q77 0 121 63 43 60 43 160 14 7 28 7 20 0 43-12-6-59-6-106 0-46 30.5-79t77.5-33q137 0 185 102-16 79-91 151l76 182q91-143 106-294zM673-444l-100-99-98 99 98 99zm117 202l-99-100-98 100 98 98zm-235 0l-99-100-99 100 99 98z"/><glyph glyph-name="uni069B.medi" unicode="ڛ" horiz-adv-x="1095" d="M1133 25q0-25-27-25h-20q-53 0-99.5 37.5T928 134h-4Q885 0 756 0 614 0 590 134h-4Q544 0 411 0 252 0 226 134h-3q-19-59-75-97Q90 0 9 0h-20q-26 0-26 25v89q0 30 26 30l20-2q196 3 196 223 15 7 29 7 21 0 42-12-5-56-5-104 0-46 34-79t93-33q78 0 122 63 42 59 42 158 14 7 28 7 21 0 43-12-6-56-6-104 0-46 31-79t78-33q77 0 122 63 42 59 42 158 13 7 28 7 20 0 43-12-6-56-6-104 0-46 33.5-79t87.5-33h20q27 0 27-30V25zM682-444l-99-99-99 99 99 99zm117 202l-99-100-98 100 98 98zm-235 0l-99-100-98 100 98 98z"/><glyph glyph-name="uni069B.fina" unicode="ڛ" horiz-adv-x="1838" d="M1875 25q0-25-26-25h-20q-54 0-100.5 37.5T1671 134h-4Q1628 0 1498 0q-141 0-165 134h-4Q1287 0 1153 0q-51 0-98 32 9-68 9-129 0-98-63-222-82-75-237-143-185-81-336-81-160 0-257 76Q68-387 68-246q0 165 141 412 32 0 62-29-37-63-63-154-22-84-22-140 0-106 73-168.5T465-388q122 0 270.5 57.5T984-189q2 202-111 409l64 189q60-158 104-212 41-53 99-53 79 0 122 63 42 60 42 160 15 7 29 7 20 0 42-12-5-59-5-106 0-46 31-79t77-33q78 0 122 63 42 60 42 160 14 7 29 7 20 0 42-12-5-59-5-106 0-46 32.5-79t88.5-33h20q26 0 26-30V25zm-401-469l-100-99-98 99 98 99zm117 202l-99-100-98 100 98 98zm-235 0l-99-100-98 100 98 98z"/><glyph glyph-name="uni069C.init" unicode="ڜ" horiz-adv-x="1059" d="M678 1017l-98-100-100 100 100 99zm118-202l-99-99-99 99 99 99zm-235 0l-99-99-101 99 101 99zm426-530q-25-116-93-197Q820 0 732 0 590 0 566 134h-4Q521 0 387 0q-59 0-102 35-47 36-59 99h-3q-19-59-75-97Q90 0 9 0h-20q-26 0-26 25v89q0 30 26 30H9q196 0 196 223 15 7 29 7 21 0 42-12-5-59-5-106 0-45 30-78.5t73-33.5q77 0 121 63 43 60 43 160 14 7 28 7 20 0 43-12-6-59-6-106 0-46 30.5-79t77.5-33q137 0 185 102-16 79-91 151l76 182q91-143 106-294zM673-444l-100-99-98 99 98 99zm117 202l-99-100-98 100 98 98zm-235 0l-99-100-99 100 99 98z"/><glyph glyph-name="uni069C.medi" unicode="ڜ" horiz-adv-x="1095" d="M685 938l-98-99-99 99 99 99zm118-201l-98-99-100 99 100 98zm-235 0l-98-99-102 99 102 98zm565-712q0-25-27-25h-20q-53 0-99.5 37.5T928 134h-4Q885 0 756 0 614 0 590 134h-4Q544 0 411 0 252 0 226 134h-3q-19-59-75-97Q90 0 9 0h-20q-26 0-26 25v89q0 30 26 30l20-2q196 3 196 223 15 7 29 7 21 0 42-12-5-56-5-104 0-46 34-79t93-33q78 0 122 63 42 59 42 158 14 7 28 7 21 0 43-12-6-56-6-104 0-46 31-79t78-33q77 0 122 63 42 59 42 158 13 7 28 7 20 0 43-12-6-56-6-104 0-46 33.5-79t87.5-33h20q27 0 27-30V25zM682-444l-99-99-99 99 99 99zm117 202l-99-100-98 100 98 98zm-235 0l-99-100-98 100 98 98z"/><glyph glyph-name="uni069C.fina" unicode="ڜ" horiz-adv-x="1838" d="M1457 938l-99-99-98 99 98 99zm118-201l-99-99-99 99 99 98zm-235 0l-100-99-100 99 100 98zm535-712q0-25-26-25h-20q-54 0-100.5 37.5T1671 134h-4Q1628 0 1498 0q-141 0-165 134h-4Q1287 0 1153 0q-51 0-98 32 9-68 9-129 0-98-63-222-82-75-237-143-185-81-336-81-160 0-257 76Q68-387 68-246q0 165 141 412 32 0 62-29-37-63-63-154-22-84-22-140 0-106 73-168.5T465-388q122 0 270.5 57.5T984-189q2 202-111 409l64 189q60-158 104-212 41-53 99-53 79 0 122 63 42 60 42 160 15 7 29 7 20 0 42-12-5-59-5-106 0-46 31-79t77-33q78 0 122 63 42 60 42 160 14 7 29 7 20 0 42-12-5-59-5-106 0-46 32.5-79t88.5-33h20q26 0 26-30V25zm-401-469l-100-99-98 99 98 99zm117 202l-99-100-98 100 98 98zm-235 0l-99-100-98 100 98 98z"/><glyph glyph-name="uni069D.init" unicode="ڝ" horiz-adv-x="1315" d="M1243 310Q1129 133 949 64 783 0 481 0 252 0 226 134h-3q-19-59-75-97Q90 0 9 0h-20q-26 0-26 25v89q0 30 26 30H9q196 0 196 223 15 7 29 7 21 0 42-12-5-59-5-106 0-46 35-79t97-33q215 250 365 345 109 69 212 69 112 0 190-81 73-75 73-167zm-118-54q0 65-59 121t-135 56q-185 0-440-289h188q136 0 268 34 125 32 178 78zM972-242l-99-100-98 100 98 98zm-235 0l-99-100-98 100 98 98z"/><glyph glyph-name="uni069D.medi" unicode="ڝ" horiz-adv-x="1313" d="M1351 25q0-25-26-25h-93q-137 0-368 41Q675 0 481 0 252 0 226 134h-3q-19-59-75-97Q90 0 9 0h-20q-26 0-26 25v89q0 30 26 30H9q196 0 196 223 15 7 29 7 21 0 42-12-5-59-5-106 0-46 35-79t97-33q215 250 365 345 109 69 212 69 112 0 190-81 73-75 73-167-26-80-155-159v-7h237q26 0 26-30V25zm-226 231q0 65-59 121t-135 56q-185 0-440-289h188q136 0 268 34 125 32 178 78zm-125-498L900-342l-98 100 98 98zm-235 0L665-342l-98 100 98 98z"/><glyph glyph-name="uni069D.fina" unicode="ڝ" horiz-adv-x="2047" d="M2084 25q0-25-25-25h-94q-137 0-367 41-189-41-383-41-113 0-160 32 9-68 9-129 0-98-63-222-82-75-237-143-185-81-336-81-160 0-257 76Q68-387 68-246q0 165 141 412 32 0 62-29-37-63-63-154-22-84-22-140 0-106 73-168.5T465-388q122 0 270.5 57.5T984-189q2 202-111 409l64 189q60-157 102-211t98-54q215 250 365 345 108 69 211 69 112 0 191-81 73-75 73-167-28-80-155-159v-7h237q25 0 25-30V25zm-225 231q0 65-59.5 121T1665 433q-185 0-441-289h189q135 0 267 34 125 32 179 78zm-67-498l-100-100-98 100 98 98zm-235 0l-100-100-98 100 98 98z"/><glyph glyph-name="uni069E.init" unicode="ڞ" horiz-adv-x="1315" d="M1243 310Q1129 133 949 64 783 0 481 0 252 0 226 134h-3q-19-59-75-97Q90 0 9 0h-20q-26 0-26 25v89q0 30 26 30H9q196 0 196 223 15 7 29 7 21 0 42-12-5-59-5-106 0-46 35-79t97-33q215 250 365 345 109 69 212 69 112 0 190-81 73-75 73-167zm-118-54q0 65-59 121t-135 56q-185 0-440-289h188q136 0 268 34 125 32 178 78zm-117 778l-98-99-100 99 100 99zm117-201l-98-100-99 100 99 98zm-235 0l-98-100-101 100 101 98z"/><glyph glyph-name="uni069E.medi" unicode="ڞ" horiz-adv-x="1313" d="M1351 25q0-25-26-25h-93q-137 0-368 41Q675 0 481 0 252 0 226 134h-3q-19-59-75-97Q90 0 9 0h-20q-26 0-26 25v89q0 30 26 30H9q196 0 196 223 15 7 29 7 21 0 42-12-5-59-5-106 0-46 35-79t97-33q215 250 365 345 109 69 212 69 112 0 190-81 73-75 73-167-26-80-155-159v-7h237q26 0 26-30V25zm-226 231q0 65-59 121t-135 56q-185 0-440-289h188q136 0 268 34 125 32 178 78zm-112 782l-99-100-99 100 99 99zm117-202l-98-99-100 99 100 99zm-235 0l-98-99-102 99 102 99z"/><glyph glyph-name="uni069E.fina" unicode="ڞ" horiz-adv-x="2047" d="M2084 25q0-25-25-25h-94q-137 0-367 41-189-41-383-41-113 0-160 32 9-68 9-129 0-98-63-222-82-75-237-143-185-81-336-81-160 0-257 76Q68-387 68-246q0 165 141 412 32 0 62-29-37-63-63-154-22-84-22-140 0-106 73-168.5T465-388q122 0 270.5 57.5T984-189q2 202-111 409l64 189q60-157 102-211t98-54q215 250 365 345 108 69 211 69 112 0 191-81 73-75 73-167-28-80-155-159v-7h237q25 0 25-30V25zm-225 231q0 65-59.5 121T1665 433q-185 0-441-289h189q135 0 267 34 125 32 179 78zm-114 778l-98-99-99 99 99 99zm118-201l-99-100-99 100 99 98zm-235 0l-99-100-101 100 101 98z"/><glyph glyph-name="uni069F.init" unicode="ڟ" horiz-adv-x="1044" d="M972 310Q859 134 682 64 521 0 237 0H-11q-26 0-26 25v89q0 30 26 30h148q0 342-26 648-23 286-57 365l103 128q16-51 56.5-143t59.5-122q-44 13-77 34 32-349 32-804 167 182 285 252 96 56 196 56 112 0 191-81 72-75 72-167zm-117-54q0 65-59.5 121T661 433q-185 0-440-289h188q135 0 267 34 125 32 179 78zm-120 778l-99-99-99 99 99 99zm117-201l-98-100-100 100 100 98zm-235 0l-98-100-101 100 101 98z"/><glyph glyph-name="uni069F.medi" unicode="ڟ" horiz-adv-x="1037" d="M1075 25q0-25-26-25h-88Q825 0 593 41 397 0 9 0h-20q-26 0-26 25v89q0 30 26 30h148q0 342-26 648-23 286-57 365l103 128q16-51 56.5-143t59.5-122q-44 13-77 34 32-349 32-804 167 182 285 252 96 56 196 56 112 0 191-81 72-75 72-167-26-80-154-159v-7h231q26 0 26-30V25zM855 256q0 65-59.5 121T661 433q-185 0-440-289h188q135 0 267 34 125 32 179 78zm-120 778l-99-99-99 99 99 99zm117-201l-98-100-100 100 100 98zm-235 0l-98-100-101 100 101 98z"/><glyph glyph-name="uni069F.fina" unicode="ڟ" horiz-adv-x="1212" d="M1249 25q0-25-26-25h-93Q993 0 763 41 537 0 406 0H283Q168 63 65 176q104-30 241-30 0 340-26 646-23 286-56 365l102 128q15-51 55.5-143t59.5-122q-43 13-76 34 32-349 32-804 166 182 286 252 94 56 196 56 112 0 190-81 72-75 72-167-26-80-155-159v-7h237q26 0 26-30V25zm-226 231q0 65-59 121t-135 56q-184 0-440-289h189q136 0 267 34 125 32 178 78zm-116 778l-99-99-99 99 99 99zm117-201l-98-100-99 100 99 98zm-235 0l-98-100-101 100 101 98z"/><glyph glyph-name="uni06A0.init" unicode="ڠ" horiz-adv-x="859" d="M791 340l-78-171q-61 0-362-83T9 0h-20q-26 0-26 25v89q0 30 26 30H9q135 0 237 27v5q-69 16-114.5 79.5T86 397q0 41 9 71 131 221 304 221 160 0 255-162-94 36-200 36-139 0-265-59-1-13-4-39 0-76 63-145 66-73 165-96 36 7 186 53 154 46 192 63zm-295 800l-98-100-100 100 100 99zm117-202l-98-99-99 99 99 99zm-235 0l-98-99-101 99 101 99z"/><glyph glyph-name="uni06A0.medi" unicode="ڠ" horiz-adv-x="621" d="M659 25q0-25-26-25h-20Q441 0 330 127 183 0 41 0h-52q-26 0-26 25v89q0 30 26 30h47q133 0 231 65-67 99-153 99-9 0-54-4l63 127q110 52 212 52 105 0 210-84l-37-93-101-89q62-73 206-73h20q26 0 26-30V25zM432 994l-98-99-100 99 100 99zm118-201l-99-100-99 100 99 98zm-235 0l-99-100-101 100 101 98z"/><glyph glyph-name="uni06A0.fina" unicode="ڠ" horiz-adv-x="852" d="M889-415l-98-113q-71-15-206-15-232 0-366 77Q63-375 63-190q0 258 377 491-75 98-155 98-10 0-54-4l63 127q114 53 211 53 127 0 229-94l-37-91-132-89q136-157 278-157h21q25 0 25-30V25q0-25-25-25h-21Q691 0 485 244 200 53 200-125q0-147 148-229 137-75 357-75 80 0 184 14zM613 1085l-98-99-99 99 99 99zm118-201l-99-100-99 100 99 98zm-235 0l-99-100-101 100 101 98z"/><glyph glyph-name="uni06A1.init" unicode="ڡ" horiz-adv-x="637" d="M538 406q0-163-55-301-52-38-193-71Q142 0 11 0h-22q-26 0-26 25v89q0 30 26 30H9q142 0 270 24 114 21 149 47 32 63 37 160-65-52-185-52-102 0-171 52-12 67-12 114 0 212 167 343 274-63 274-426zm-89 100q0 55-62 111-66 58-146 58-63-51-63-169 39-40 127-40 92 0 144 40z"/><glyph glyph-name="uni06A1.medi" unicode="ڡ" horiz-adv-x="621" d="M659 25q0-25-26-25h-20Q449 0 319 93 207 0 9 0h-20q-26 0-26 25v89q0 30 26 30H9q123 0 187 24-91 63-91 186 0 110 73 196.5T383 683q160-118 160-284 0-125-117-221 82-34 187-34h20q26 0 26-30V25zM452 375q0 88-97 147-130-25-170-171 10-38 58-86 44-45 76-58 64 20 100 71 33 45 33 97z"/><glyph glyph-name="uni06A1.fina" unicode="ڡ" horiz-adv-x="1465" d="M1503 25q0-25-27-25h-20q-164 0-293 93-61-54-177-78-133-26-391-26-260 0-391 80Q86 141 86 265q0 123 105 301 3 2 14 2 26 0 43-32-63-104-63-189 0-203 497-203 242 0 358 24-92 63-92 186 0 110 73.5 196.5T1227 683q160-118 160-284 0-125-118-221 82-34 187-34h20q27 0 27-30V25zm-208 350q0 88-97 147-129-25-169-171 10-38 57-86 45-45 77-58 63 20 100 71 32 45 32 97z"/><glyph glyph-name="uni06A2.init" unicode="ڢ" horiz-adv-x="637" d="M538 406q0-163-55-301-52-38-193-71Q142 0 11 0h-22q-26 0-26 25v89q0 30 26 30H9q142 0 270 24 114 21 149 47 32 63 37 160-65-52-185-52-102 0-171 52-12 67-12 114 0 212 167 343 274-63 274-426zm-89 100q0 55-62 111-66 58-146 58-63-51-63-169 39-40 127-40 92 0 144 40zm-27-788L310-394 185-289l114 113z"/><glyph glyph-name="uni06A2.medi" unicode="ڢ" horiz-adv-x="621" d="M659 25q0-25-26-25h-20Q449 0 319 93 207 0 9 0h-20q-26 0-26 25v89q0 30 26 30H9q123 0 187 24-91 63-91 186 0 110 73 196.5T383 683q160-118 160-284 0-125-117-221 82-34 187-34h20q26 0 26-30V25zM452 375q0 88-97 147-130-25-170-171 10-38 58-86 44-45 76-58 64 20 100 71 33 45 33 97zm-21-657L319-394 194-289l114 113z"/><glyph glyph-name="uni06A2.fina" unicode="ڢ" horiz-adv-x="1465" d="M1503 25q0-25-27-25h-20q-164 0-293 93-61-54-177-78-133-26-391-26-260 0-391 80Q86 141 86 265q0 123 105 301 3 2 14 2 26 0 43-32-63-104-63-189 0-203 497-203 242 0 358 24-92 63-92 186 0 110 73.5 196.5T1227 683q160-118 160-284 0-125-118-221 82-34 187-34h20q27 0 27-30V25zm-208 350q0 88-97 147-129-25-169-171 10-38 57-86 45-45 77-58 63 20 100 71 32 45 32 97zm-8-657l-112-112-125 105 114 113z"/><glyph glyph-name="uni06A3.init" unicode="ڣ" horiz-adv-x="637" d="M399 1123l-112-112-124 105 113 114zm139-717q0-163-55-301-52-38-193-71Q142 0 11 0h-22q-26 0-26 25v89q0 30 26 30H9q142 0 270 24 114 21 149 47 32 63 37 160-65-52-185-52-102 0-171 52-12 67-12 114 0 212 167 343 274-63 274-426zm-89 100q0 55-62 111-66 58-146 58-63-51-63-169 39-40 127-40 92 0 144 40zm-27-788L310-394 185-289l114 113z"/><glyph glyph-name="uni06A3.medi" unicode="ڣ" horiz-adv-x="621" d="M446 1019L335 906l-126 105 114 114zM659 25q0-25-26-25h-20Q449 0 319 93 207 0 9 0h-20q-26 0-26 25v89q0 30 26 30H9q123 0 187 24-91 63-91 186 0 110 73 196.5T383 683q160-118 160-284 0-125-117-221 82-34 187-34h20q26 0 26-30V25zM452 375q0 88-97 147-130-25-170-171 10-38 58-86 44-45 76-58 64 20 100 71 33 45 33 97zm-21-657L319-394 194-289l114 113z"/><glyph glyph-name="uni06A3.fina" unicode="ڣ" horiz-adv-x="1465" d="M1289 1019l-112-113-124 105 113 114zm214-994q0-25-27-25h-20q-164 0-293 93-61-54-177-78-133-26-391-26-260 0-391 80Q86 141 86 265q0 123 105 301 3 2 14 2 26 0 43-32-63-104-63-189 0-203 497-203 242 0 358 24-92 63-92 186 0 110 73.5 196.5T1227 683q160-118 160-284 0-125-118-221 82-34 187-34h20q27 0 27-30V25zm-208 350q0 88-97 147-129-25-169-171 10-38 57-86 45-45 77-58 63 20 100 71 32 45 32 97zM877-282L765-394 640-289l114 113z"/><glyph glyph-name="uni06A5.init" unicode="ڥ" horiz-adv-x="637" d="M538 406q0-163-55-301-52-38-193-71Q142 0 11 0h-22q-26 0-26 25v89q0 30 26 30H9q142 0 270 24 114 21 149 47 32 63 37 160-65-52-185-52-102 0-171 52-12 67-12 114 0 212 167 343 274-63 274-426zm-89 100q0 55-62 111-66 58-146 58-63-51-63-169 39-40 127-40 92 0 144 40zm-77-950l-99-99-99 99 99 99zm118 202L390-342l-98 100 98 98zm-235 0L155-342 57-242l98 98z"/><glyph glyph-name="uni06A5.medi" unicode="ڥ" horiz-adv-x="621" d="M659 25q0-25-26-25h-20Q449 0 319 93 207 0 9 0h-20q-26 0-26 25v89q0 30 26 30H9q123 0 187 24-91 63-91 186 0 110 73 196.5T383 683q160-118 160-284 0-125-117-221 82-34 187-34h20q26 0 26-30V25zM452 375q0 88-97 147-130-25-170-171 10-38 58-86 44-45 76-58 64 20 100 71 33 45 33 97zm-34-819l-100-99-98 99 98 99zm117 202l-99-100-99 100 99 98zm-235 0l-99-100-99 100 99 98z"/><glyph glyph-name="uni06A5.fina" unicode="ڥ" horiz-adv-x="1465" d="M1503 25q0-25-27-25h-20q-164 0-293 93-61-54-177-78-133-26-391-26-260 0-391 80Q86 141 86 265q0 123 105 301 3 2 14 2 26 0 43-32-63-104-63-189 0-203 497-203 242 0 358 24-92 63-92 186 0 110 73.5 196.5T1227 683q160-118 160-284 0-125-118-221 82-34 187-34h20q27 0 27-30V25zm-208 350q0 88-97 147-129-25-169-171 10-38 57-86 45-45 77-58 63 20 100 71 32 45 32 97zm-49-819l-100-99-98 99 98 99zm117 202l-99-100-98 100 98 98zm-235 0l-99-100-98 100 98 98z"/><glyph glyph-name="uni06A7.init" unicode="ڧ" horiz-adv-x="637" d="M399 1123l-112-112-124 105 113 114zm139-717q0-163-55-301-52-38-193-71Q142 0 11 0h-22q-26 0-26 25v89q0 30 26 30H9q142 0 270 24 114 21 149 47 32 63 37 160-65-52-185-52-102 0-171 52-12 67-12 114 0 212 167 343 274-63 274-426zm-89 100q0 55-62 111-66 58-146 58-63-51-63-169 39-40 127-40 92 0 144 40z"/><glyph glyph-name="uni06A7.medi" unicode="ڧ" horiz-adv-x="621" d="M446 1019L335 906l-126 105 114 114zM659 25q0-25-26-25h-20Q449 0 319 93 207 0 9 0h-20q-26 0-26 25v89q0 30 26 30H9q123 0 187 24-91 63-91 186 0 110 73 196.5T383 683q160-118 160-284 0-125-117-221 82-34 187-34h20q26 0 26-30V25zM452 375q0 88-97 147-130-25-170-171 10-38 58-86 44-45 76-58 64 20 100 71 33 45 33 97z"/><glyph glyph-name="uni06A7.fina" unicode="ڧ" horiz-adv-x="1227" d="M947 830L835 718 710 822l114 114zm317-805q0-25-26-25h-108q1-43-15-128-15-80-30-116-76-110-272-202-207-98-390-97-160 1-257 76Q63-387 63-246q0 165 141 412 32 0 62-29-37-63-63-154-22-84-22-140 0-106 73-169t206-62q129 1 286 65 165 67 291 177 20 75 20 151-47-5-132-5-147 0-228 54-11 64-11 115 0 208 164 340 253-58 273-365h115q26 0 26-30V25zm-222 119q0 72-64 140-68 70-145 70-67-55-67-164 75-46 276-46z"/><glyph glyph-name="uni06A8.init" unicode="ڨ" horiz-adv-x="626" d="M527 406q0-158-57-301-52-38-193-71Q130 0-1 0h-10q-26 0-26 25v89q0 30 26 30H9q133 0 258 24 113 21 150 47 32 63 37 160-68-52-187-52-102 0-172 52-11 67-11 114 0 212 166 343 277-64 277-426zm-92 100q0 55-61 111-67 58-146 58-64-51-64-169 40-40 127-40 93 0 144 40zm-186 523l-99-100-100 100 100 98zm118 201l-100-99-98 99 98 98zm117-201l-99-100-99 100 99 98z"/><glyph glyph-name="uni06A8.medi" unicode="ڨ" horiz-adv-x="621" d="M659 25q0-25-26-25h-20Q449 0 319 93 207 0 9 0h-20q-26 0-26 25v89q0 30 26 30H9q123 0 187 24-91 63-91 186 0 110 73 196.5T383 683q160-118 160-284 0-125-117-221 82-34 187-34h20q26 0 26-30V25zM452 375q0 88-97 147-130-25-170-171 10-38 58-86 44-45 76-58 64 20 100 71 33 45 33 97zm-31 771l-99-99-98 99 98 98zm118-201L439 845l-98 100 98 98zm-235 0L204 845 104 945l100 98z"/><glyph glyph-name="uni06A8.fina" unicode="ڨ" horiz-adv-x="1227" d="M1264 25q0-25-26-25h-108q1-43-15-128-15-80-30-116-76-110-272-202-207-98-390-97-160 1-257 76Q63-387 63-246q0 165 141 412 32 0 62-29-37-63-63-154-22-84-22-140 0-106 73-169t206-62q129 1 286 65 165 67 291 177 20 75 20 151-47-5-132-5-147 0-228 54-11 64-11 115 0 208 164 340 253-58 273-365h115q26 0 26-30V25zm-222 119q0 72-64 140-68 70-145 70-67-55-67-164 75-46 276-46zM826 802L726 702 626 802l100 98zm117 201l-99-99-99 99 99 98zm118-201L961 702l-98 100 98 98z"/><glyph glyph-name="uni06AA.init" unicode="ڪ" horiz-adv-x="1433" d="M557 842h-7q-19 13-37 13-60 0-191-118-114-105-114-157 0-42 61-68 55-23 130-23 149 0 367 17 163 12 223 12 204 0 300-145 36-62 36-124 0-29-7-61l-35-115q-79-4-538-40Q397 4 141 0H-2q-26 0-26 25v89q0 30 26 30h87q311 0 683 26 366 26 478 30-52 184-255 184-90 0-289-16-227-17-333-17-123 0-177 39-62 45-62 112 0 47 29 129 43 121 157 230 156 150 231 150 22 0 33-16l-20-149q-2-1-3-4z"/><glyph glyph-name="uni06AA.medi" unicode="ڪ" horiz-adv-x="1446" d="M559 846h-7q-19 14-37 14-62 0-196-119-115-105-115-157 0-43 61-69 56-24 133-24 152 0 376 17 164 12 225 12 208 0 306-146 36-62 36-123 0-29-6-62 30-45 89-45h27q25 0 25-30V25q0-25-25-25h-40v1q-63 5-112 72-81-3-548-40Q395 4 133 0H-11q-26 0-26 25v89q0 30 26 30h90q316 0 695 27 374 26 487 29-53 185-259 185-95 0-304-15-224-17-330-17-125 0-181 39-64 45-64 113 0 47 30 129 45 121 161 231 158 152 235 152 16 0 27-9l-16-160q-1-1-1-2z"/><glyph glyph-name="uni06AA.fina" unicode="ڪ" horiz-adv-x="1595" d="M691 842q-20 13-38 13-62 0-197-119-116-105-116-156 0-42 62-69 56-23 134-23 153 0 376 17 167 12 229 12 209 0 309-146 36-62 36-124 0-27-7-61 28-42 90-42h26q26 0 26-30V25q0-25-26-25h-37q-68 5-115 71-94-4-472-38Q630 0 430 0 305 0 209 17L62 165l7 17q118-38 343-38 151 0 502 25 376 25 491 29-54 185-262 185-93 0-303-17-228-16-334-16-127 0-183 39-64 45-64 112 0 47 31 129 43 121 161 231 159 150 237 150 22 0 32-15l-24-154h-5z"/><glyph glyph-name="uni06AB.init" unicode="ګ" horiz-adv-x="828" d="M691 942q-31-6-78.5-19.5t-103.5-31T393.5 854t-114-40-99.5-39-71-33q100-46 168.5-91t113-89 67.5-87 33-87q-2-24-5.5-50.5T478 283t-9-55-9-49q-49-51-97.5-85t-103-55T144 9 9 0h-20q-26 0-26 25v89q0 17 6 23.5t20 6.5h52q142 0 235 35.5T419 280q-2 37-22.5 80.5t-65.5 91-117.5 96T34 642l18 200q64 28 134 56.5t141 56 140 52.5 130.5 45.5 113.5 36 88 23.5zm-590 110q60 30 122.5 58.5t124 54.5 120 48.5 108.5 40 89.5 29.5 64.5 17l-62-100q-15-4-53.5-17.5t-91-33-113-44T290 1057t-114-47-92-42z"/><glyph glyph-name="uni06AB.medi" unicode="ګ" horiz-adv-x="932" d="M71 842q64 28 140 57.5T366.5 957t158 53.5 148 47 126 37T890 1118L771 947q-30-6-82-20t-114.5-32.5-130-39-129-41-112-39.5-76.5-33q80-41 154.5-88.5t152.5-109 167.5-143T802 210q32-32 64.5-49t57.5-17h20q15 0 21-6.5t6-23.5V25q0-25-27-25h-20q-23 0-44 4t-45 17-53.5 38-71 66.5-96.5 103T485 375l-4-3q5-23 7-44.5t2-38.5q0-27-4.5-56.5T476 179q-47-51-95.5-85T278 39 162 9 25 0h-36q-26 0-26 25v89q0 17 6 23.5t20 6.5h73q141 0 234 35.5T439 280q-3 37-23.5 80.5t-65.5 91-117.5 96T52 642zm51 201q58 30 125.5 59.5t136 55.5 135 50 123.5 42.5 101 31.5 69 18l-80-106q-16-3-57-17.5t-98-34.5-123.5-44-131.5-49-122-48-95-42z"/><glyph glyph-name="uni06AB.fina" unicode="ګ" horiz-adv-x="1773" d="M1811 25q0-25-27-25h-21q-23 0-43.5 4T1675 21t-54 38-71 66.5-96 103T1325 375l-4-3q5-23 6.5-44.5t1.5-38.5q0-27-4-56.5t-9-53.5q-28-35-59.5-63T1184 67t-94-36T965.5 6.5 801-7t-213-4q-135 0-230 21.5T202.5 70 114 158 86 265q0 70 29 145.5T191 566q3 2 14 2 9 0 22.5-10t20.5-22q-15-26-27-53t-19.5-52-12-46.5T185 347q0-45 28-82.5t83-64.5 137.5-41.5T625 144q153 0 264.5 8t189 25.5T1204 220t75 60q-3 37-23.5 80.5t-65.5 91-118 96T892 642l19 200q64 28 140 57.5t155.5 57.5 158 53.5 148 47 126 37 91.5 23.5l-119-171q-30-6-82-20t-115-32.5-130-39-129-41-112-39.5-76-33q80-41 154-88.5t152.5-109 167.5-143T1641 210q32-32 65-49t57-17h21q14 0 20.5-6.5t6.5-23.5V25zM962 1043q58 30 125.5 59.5t136 55.5 135 50 123.5 42.5 101 31.5 69 18l-80-106q-16-3-57-17.5t-98-34.5-123.5-44-131.5-49-122.5-48-95.5-42z"/><glyph glyph-name="uni06AC.init" unicode="ڬ" horiz-adv-x="828" d="M799 1285l-73-176q-82-31-312-160-234-130-303-186 338-192 380-375-10-109-31-209-96-99-198.5-139T9 0h-20q-26 0-26 25v89q0 30 26 30h52q274 0 378 136-7 90-82 168-87 90-303 209l22 207q129 94 377 236 253 144 366 185zm-577-119l-99 99 99 99 99-99z"/><glyph glyph-name="uni06AC.medi" unicode="ڬ" horiz-adv-x="932" d="M971 25q0-25-27-25h-20q-72 0-142 59-82 68-297 316l-4-3q9-40 9-83 0-54-14-110-94-99-199-140Q177 0 25 0h-36q-26 0-26 25v89q0 30 26 30h73q274 0 377 136-6 90-82 168-87 90-303 209l23 207q129 94 377 236 253 144 365 185l-73-176q-82-31-311-160-234-130-304-186 165-100 307-217 138-115 361-337 66-65 125-65h20q27 0 27-30V25zM222 1166l-99 99 99 99 99-99z"/><glyph glyph-name="uni06AC.fina" unicode="ڬ" horiz-adv-x="1394" d="M1432 25q0-25-27-25h-20q-150 0-190 137Q828-30 491-30q-202 0-307 73-98 69-98 192 0 132 87 283 34 0 57-33-45-72-45-168 0-192 336-192 143 0 340 36 189 34 305 78l-57 873 106 173q9-594 41-996 12-145 129-145h20q27 0 27-30V25zM901 944l-41-127q-140-19-240-71 118-29 210-117l-18-136q-92-83-317-109l36 114q145 0 240 54-23 26-86 63-69 39-125 55l19 138q103 80 322 136zm263 422l-99 98 99 99 99-99z"/><glyph glyph-name="uni06AE.init" unicode="ڮ" horiz-adv-x="828" d="M799 1285l-73-176q-82-31-312-160-234-130-303-186 338-192 380-375-10-109-31-209-96-99-198.5-139T9 0h-20q-26 0-26 25v89q0 30 26 30h52q274 0 378 136-7 90-82 168-87 90-303 209l22 207q129 94 377 236 253 144 366 185zM354-444l-99-99-99 99 99 99zm117 202l-99-100-98 100 98 98zm-235 0l-99-100-98 100 98 98z"/><glyph glyph-name="uni06AE.medi" unicode="ڮ" horiz-adv-x="932" d="M971 25q0-25-27-25h-20q-72 0-142 59-82 68-297 316l-4-3q9-40 9-83 0-54-14-110-94-99-199-140Q177 0 25 0h-36q-26 0-26 25v89q0 30 26 30h73q274 0 377 136-6 90-82 168-87 90-303 209l23 207q129 94 377 236 253 144 365 185l-73-176q-82-31-311-160-234-130-304-186 165-100 307-217 138-115 361-337 66-65 125-65h20q27 0 27-30V25zM408-444l-99-99-98 99 98 99zm118 202l-99-100-99 100 99 98zm-235 0l-99-100-99 100 99 98z"/><glyph glyph-name="uni06AE.fina" unicode="ڮ" horiz-adv-x="1394" d="M1432 25q0-25-27-25h-20q-150 0-190 137Q828-30 491-30q-202 0-307 73-98 69-98 192 0 132 87 283 34 0 57-33-45-72-45-168 0-192 336-192 143 0 340 36 189 34 305 78l-57 873 106 173q9-594 41-996 12-145 129-145h20q27 0 27-30V25zM901 944l-41-127q-140-19-240-71 118-29 210-117l-18-136q-92-83-317-109l36 114q145 0 240 54-23 26-86 63-69 39-125 55l19 138q103 80 322 136zM736-444l-100-99-98 99 98 99zm117 202l-99-100-99 100 99 98zm-235 0l-99-100-99 100 99 98z"/><glyph glyph-name="uni06B0.init" unicode="ڰ" horiz-adv-x="828" d="M101 1052q60 30 122.5 58.5t124 54.5 120 48.5 108.5 40 89.5 29.5 64.5 17l-62-100q-15-4-53.5-17.5t-91-33-113-44T290 1057t-114-47-92-42zm311-192q-9-4-18-6-60-20-114.5-40T180 775t-71-33q100-46 168.5-91t113-89 67.5-87 33-87q-2-24-5.5-50.5T478 283t-9-55-9-49q-49-51-97.5-85t-103-55T144 9 9 0h-20q-26 0-26 25v89q0 17 6 23.5t20 6.5h52q142 0 235 35.5T419 280q-2 37-22.5 80.5t-65.5 91-117.5 96T34 642l18 200q64 28 134 56.5t141 56 140 52.5 130.5 45.5 113.5 36 88 23.5L691 942q-31-6-78-19l-12-4q63-63 64-139-11-54-44-111-69-39-130-39-47 0-79 24-34 27-34 72 0 50 34 134zm97 31q-20-6-40-13l-17-36q-21-48-22-80 0-20 23.5-35t61.5-15q26 0 57.5 10.5T619 747q0 36-32 78-30 39-78 66z"/><glyph glyph-name="uni06B0.medi" unicode="ڰ" horiz-adv-x="932" d="M122 1043q58 30 125.5 59.5t136 55.5 135 50 123.5 42.5 101 31.5 69 18l-80-106q-16-3-57-17.5t-98-34.5-123.5-44-131.5-49-122-48-95-42zm336-184q-7-2-13-4-68-20-129.5-40.5t-112-39.5-76.5-33q80-41 154.5-88.5t152.5-109 167.5-143T802 210q32-32 64.5-49t57.5-17h20q15 0 21-6.5t6-23.5V25q0-25-27-25h-20q-23 0-44 4t-45 17-53.5 38-71 66.5-96.5 103T485 375l-4-3q5-23 7-44.5t2-38.5q0-27-4.5-56.5T476 179q-47-51-95.5-85T278 39 162 9 25 0h-36q-26 0-26 25v89q0 17 6 23.5t20 6.5h73q141 0 234 35.5T439 280q-3 37-23.5 80.5t-65.5 91-117.5 96T52 642l19 200q64 28 140 57.5T366.5 957t158 53.5 148 47 126 37T890 1118L771 947q-30-6-82-20-19-5-40-11 60-61 62-136-12-54-45-111-68-39-129-39-47 0-79 24-35 27-34 72 0 50 34 133zm99 30q-22-6-44-13l-15-34q-21-48-22-80 0-20 23-35t62-15q25 0 57 10.5t46 24.5q0 36-31 78-30 38-76 64z"/><glyph glyph-name="uni06B0.fina" unicode="ڰ" horiz-adv-x="1773" d="M962 1043q58 30 125.5 59.5t136 55.5 135 50 123.5 42.5 101 31.5 69 18l-80-106q-16-3-57-17.5t-98-34.5-123.5-44-131.5-49-122.5-48-95.5-42zm333-184q-6-2-11-4-67-20-129-40.5T1043 775t-76-33q80-41 154-88.5t152.5-109 167.5-143T1641 210q32-32 65-49t57-17h21q14 0 20.5-6.5t6.5-23.5V25q0-25-27-25h-21q-23 0-43.5 4T1675 21t-54 38-71 66.5-96 103T1325 375l-4-3q5-23 6.5-44.5t1.5-38.5q0-27-4-56.5t-9-53.5q-28-35-59.5-63T1184 67t-94-36T965.5 6.5 801-7t-213-4q-135 0-230 21.5T202.5 70 114 158 86 265q0 70 29 145.5T191 566q3 2 14 2 9 0 22.5-10t20.5-22q-15-26-27-53t-19.5-52-12-46.5T185 347q0-45 28-82.5t83-64.5 137.5-41.5T625 144q153 0 264.5 8t189 25.5T1204 220t75 60q-3 37-23.5 80.5t-65.5 91-118 96T892 642l19 200q64 28 140 57.5t155.5 57.5 158 53.5 148 47 126 37 91.5 23.5l-119-171q-30-6-82-20-20-6-42-11 59-62 61-136-12-54-44-111-69-39-130-39-47 0-79 24-35 27-34 72 0 49 34 133zm100 30q-22-6-45-13l-15-34q-21-48-22-80 0-20 23.5-35t61.5-15q25 0 57 10.5t47 24.5q0 36-32 78-29 38-75 64z"/><glyph glyph-name="uni06B2.init" unicode="ڲ" horiz-adv-x="828" d="M691 942q-31-6-78.5-19.5t-103.5-31T393.5 854t-114-40-99.5-39-71-33q100-46 168.5-91t113-89 67.5-87 33-87q-2-24-5.5-50.5T478 283t-9-55-9-49q-49-51-97.5-85t-103-55T144 9 9 0h-20q-26 0-26 25v89q0 17 6 23.5t20 6.5h52q142 0 235 35.5T419 280q-2 37-22.5 80.5t-65.5 91-117.5 96T34 642l18 200q64 28 134 56.5t141 56 140 52.5 130.5 45.5 113.5 36 88 23.5zm-590 110q60 30 122.5 58.5t124 54.5 120 48.5 108.5 40 89.5 29.5 64.5 17l-62-100q-15-4-53.5-17.5t-91-33-113-44T290 1057t-114-47-92-42zM471-242l-99-100-98 100 98 98zm-235 0l-99-100-98 100 98 98z"/><glyph glyph-name="uni06B2.medi" unicode="ڲ" horiz-adv-x="932" d="M71 842q64 28 140 57.5T366.5 957t158 53.5 148 47 126 37T890 1118L771 947q-30-6-82-20t-114.5-32.5-130-39-129-41-112-39.5-76.5-33q80-41 154.5-88.5t152.5-109 167.5-143T802 210q32-32 64.5-49t57.5-17h20q15 0 21-6.5t6-23.5V25q0-25-27-25h-20q-23 0-44 4t-45 17-53.5 38-71 66.5-96.5 103T485 375l-4-3q5-23 7-44.5t2-38.5q0-27-4.5-56.5T476 179q-47-51-95.5-85T278 39 162 9 25 0h-36q-26 0-26 25v89q0 17 6 23.5t20 6.5h73q141 0 234 35.5T439 280q-3 37-23.5 80.5t-65.5 91-117.5 96T52 642zm51 201q58 30 125.5 59.5t136 55.5 135 50 123.5 42.5 101 31.5 69 18l-80-106q-16-3-57-17.5t-98-34.5-123.5-44-131.5-49-122-48-95-42zM526-242l-99-100-99 100 99 98zm-235 0l-99-100-99 100 99 98z"/><glyph glyph-name="uni06B2.fina" unicode="ڲ" horiz-adv-x="1773" d="M1811 25q0-25-27-25h-21q-23 0-43.5 4T1675 21t-54 38-71 66.5-96 103T1325 375l-4-3q5-23 6.5-44.5t1.5-38.5q0-27-4-56.5t-9-53.5q-28-35-59.5-63T1184 67t-94-36T965.5 6.5 801-7t-213-4q-135 0-230 21.5T202.5 70 114 158 86 265q0 70 29 145.5T191 566q3 2 14 2 9 0 22.5-10t20.5-22q-15-26-27-53t-19.5-52-12-46.5T185 347q0-45 28-82.5t83-64.5 137.5-41.5T625 144q153 0 264.5 8t189 25.5T1204 220t75 60q-3 37-23.5 80.5t-65.5 91-118 96T892 642l19 200q64 28 140 57.5t155.5 57.5 158 53.5 148 47 126 37 91.5 23.5l-119-171q-30-6-82-20t-115-32.5-130-39-129-41-112-39.5-76-33q80-41 154-88.5t152.5-109 167.5-143T1641 210q32-32 65-49t57-17h21q14 0 20.5-6.5t6.5-23.5V25zM962 1043q58 30 125.5 59.5t136 55.5 135 50 123.5 42.5 101 31.5 69 18l-80-106q-16-3-57-17.5t-98-34.5-123.5-44-131.5-49-122.5-48-95.5-42zM908-242L808-342l-98 100 98 98zm-235 0L573-342l-98 100 98 98z"/><glyph glyph-name="uni06B4.init" unicode="ڴ" horiz-adv-x="828" d="M691 942q-31-6-78.5-19.5t-103.5-31T393.5 854t-114-40-99.5-39-71-33q100-46 168.5-91t113-89 67.5-87 33-87q-2-24-5.5-50.5T478 283t-9-55-9-49q-49-51-97.5-85t-103-55T144 9 9 0h-20q-26 0-26 25v89q0 17 6 23.5t20 6.5h52q142 0 235 35.5T419 280q-2 37-22.5 80.5t-65.5 91-117.5 96T34 642l18 200q64 28 134 56.5t141 56 140 52.5 130.5 45.5 113.5 36 88 23.5zm-590 110q60 30 122.5 58.5t124 54.5 120 48.5 108.5 40 89.5 29.5 64.5 17l-62-100q-15-4-53.5-17.5t-91-33-113-44T290 1057t-114-47-92-42zm139 424l-98 98 98 100 99-100zm117-201l-98 98 98 99 100-99zm-235 0l-98 98 98 99 100-99z"/><glyph glyph-name="uni06B4.medi" unicode="ڴ" horiz-adv-x="932" d="M71 842q64 28 140 57.5T366.5 957t158 53.5 148 47 126 37T890 1118L771 947q-30-6-82-20t-114.5-32.5-130-39-129-41-112-39.5-76.5-33q80-41 154.5-88.5t152.5-109 167.5-143T802 210q32-32 64.5-49t57.5-17h20q15 0 21-6.5t6-23.5V25q0-25-27-25h-20q-23 0-44 4t-45 17-53.5 38-71 66.5-96.5 103T485 375l-4-3q5-23 7-44.5t2-38.5q0-27-4.5-56.5T476 179q-47-51-95.5-85T278 39 162 9 25 0h-36q-26 0-26 25v89q0 17 6 23.5t20 6.5h73q141 0 234 35.5T439 280q-3 37-23.5 80.5t-65.5 91-117.5 96T52 642zm51 201q58 30 125.5 59.5t136 55.5 135 50 123.5 42.5 101 31.5 69 18l-80-106q-16-3-57-17.5t-98-34.5-123.5-44-131.5-49-122-48-95-42zm118 433l-98 98 98 100 99-100zm117-201l-98 98 98 99 100-99zm-235 0l-98 98 98 99 100-99z"/><glyph glyph-name="uni06B4.fina" unicode="ڴ" horiz-adv-x="1773" d="M1811 25q0-25-27-25h-21q-23 0-43.5 4T1675 21t-54 38-71 66.5-96 103T1325 375l-4-3q5-23 6.5-44.5t1.5-38.5q0-27-4-56.5t-9-53.5q-28-35-59.5-63T1184 67t-94-36T965.5 6.5 801-7t-213-4q-135 0-230 21.5T202.5 70 114 158 86 265q0 70 29 145.5T191 566q3 2 14 2 9 0 22.5-10t20.5-22q-15-26-27-53t-19.5-52-12-46.5T185 347q0-45 28-82.5t83-64.5 137.5-41.5T625 144q153 0 264.5 8t189 25.5T1204 220t75 60q-3 37-23.5 80.5t-65.5 91-118 96T892 642l19 200q64 28 140 57.5t155.5 57.5 158 53.5 148 47 126 37 91.5 23.5l-119-171q-30-6-82-20t-115-32.5-130-39-129-41-112-39.5-76-33q80-41 154-88.5t152.5-109 167.5-143T1641 210q32-32 65-49t57-17h21q14 0 20.5-6.5t6.5-23.5V25zM962 1043q58 30 125.5 59.5t136 55.5 135 50 123.5 42.5 101 31.5 69 18l-80-106q-16-3-57-17.5t-98-34.5-123.5-44-131.5-49-122.5-48-95.5-42zm106 433l-98 98 98 100 99-100zm118-201l-99 98 99 99 99-99zm-235 0l-99 98 99 99 99-99z"/><glyph glyph-name="uni06B5.init" unicode="ڵ" horiz-adv-x="414" d="M314 1022q-48 10-79 32 32-418 32-796 0-72-70-156Q111 0-11 0q-26 0-26 25v89q0 30 26 30h43q87 0 144 63 0 346-25 625-23 252-54 325h-4l103 128q17-52 56-143 42-92 62-120zM26 1642l167-151 168 151h48l-175-240h-81l-176 240h49z"/><glyph glyph-name="uni06B5.medi" unicode="ڵ" horiz-adv-x="414" d="M452 25q0-25-26-25h-21q-51 0-99 34-53 36-74 98Q146 0 29 0h-40q-26 0-26 25v89q0 30 26 30h41q108 0 163 71l-64 897 106 173q10-594 41-996 12-145 129-145h21q26 0 26-30V25zM35 1642l168-151 167 151h49l-176-240h-80l-177 240h49z"/><glyph glyph-name="uni06B5.fina" unicode="ڵ" horiz-adv-x="1143" d="M1180 26q0-24-26-24h-21q-88 0-128 99h-5v-202q-36-136-82-239-101-81-234.5-129T427-517q-169 1-266.5 72T63-250q0 71 29 179 27 97 57 155 34 0 57-34-45-83-45-199 0-213 310-213 224 0 454 166l-62 1308 106 173q10-594 41-994 12-145 123-145h21q26 0 26-30V26zM754 1642l167-151 168 151h48l-176-240h-80l-177 240h50z"/><glyph glyph-name="uni06B6.init" unicode="ڶ" horiz-adv-x="414" d="M314 1022q-48 10-79 32 32-418 32-796 0-72-70-156Q111 0-11 0q-26 0-26 25v89q0 30 26 30h43q87 0 144 63 0 346-25 625-23 252-54 325h-4l103 128q17-52 56-143 42-92 62-120zm-113 383l-99 98 99 100 99-100z"/><glyph glyph-name="uni06B6.medi" unicode="ڶ" horiz-adv-x="414" d="M452 25q0-25-26-25h-21q-51 0-99 34-53 36-74 98Q146 0 29 0h-40q-26 0-26 25v89q0 30 26 30h41q108 0 163 71l-64 897 106 173q10-594 41-996 12-145 129-145h21q26 0 26-30V25zM201 1405l-99 98 99 100 99-100z"/><glyph glyph-name="uni06B6.fina" unicode="ڶ" horiz-adv-x="1143" d="M1180 26q0-24-26-24h-21q-88 0-128 99h-5v-202q-36-136-82-239-101-81-234.5-129T427-517q-169 1-266.5 72T63-250q0 71 29 179 27 97 57 155 34 0 57-34-45-83-45-199 0-213 310-213 224 0 454 166l-62 1308 106 173q10-594 41-994 12-145 123-145h21q26 0 26-30V26zM901 1405l-98 98 98 100 99-100z"/><glyph glyph-name="uni06B7.init" unicode="ڷ" horiz-adv-x="414" d="M314 1022q-48 10-79 32 32-418 32-796 0-72-70-156Q111 0-11 0q-26 0-26 25v89q0 30 26 30h43q87 0 144 63 0 346-25 625-23 252-54 325h-4l103 128q17-52 56-143 42-92 62-120zm-113 583l-99 99 99 99 99-99zm117-201l-98 98 98 100 100-100zm-235 0l-98 98 98 100 100-100z"/><glyph glyph-name="uni06B7.medi" unicode="ڷ" horiz-adv-x="414" d="M452 25q0-25-26-25h-21q-51 0-99 34-53 36-74 98Q146 0 29 0h-40q-26 0-26 25v89q0 30 26 30h41q108 0 163 71l-64 897 106 173q10-594 41-996 12-145 129-145h21q26 0 26-30V25zM201 1605l-99 99 99 99 99-99zm117-201l-98 98 98 100 100-100zm-235 0l-98 98 98 100 100-100z"/><glyph glyph-name="uni06B7.fina" unicode="ڷ" horiz-adv-x="1143" d="M1180 26q0-24-26-24h-21q-88 0-128 99h-5v-202q-36-136-82-239-101-81-234.5-129T427-517q-169 1-266.5 72T63-250q0 71 29 179 27 97 57 155 34 0 57-34-45-83-45-199 0-213 310-213 224 0 454 166l-62 1308 106 173q10-594 41-994 12-145 123-145h21q26 0 26-30V26zM901 1605l-98 99 98 99 99-99zm118-201l-99 98 99 100 99-100zm-235 0l-99 98 99 100 99-100z"/><glyph glyph-name="uni06B8.init" unicode="ڸ" horiz-adv-x="455" d="M350 1022q-47 10-78 32 32-418 32-796 0-72-70-156Q147 0-11 0q-26 0-26 25v89q0 30 26 30h80q86 0 144 63 0 346-26 625-23 252-54 325h-3l103 128q16-52 55-143 42-92 62-120zM336-444l-100-99-98 99 98 99zm117 202l-99-100-99 100 99 98zm-235 0l-99-100-99 100 99 98z"/><glyph glyph-name="uni06B8.medi" unicode="ڸ" horiz-adv-x="452" d="M489 25q0-25-27-25h-57q-51 0-99 34-53 36-74 98Q146 0 29 0h-40q-26 0-26 25v89q0 30 26 30h41q108 0 163 71l-64 897 106 173q10-594 41-996 12-145 129-145h57q27 0 27-30V25zM327-444l-100-99-98 99 98 99zm117 202l-99-100-99 100 99 98zm-235 0l-99-100-99 100 99 98z"/><glyph glyph-name="uni06B8.fina" unicode="ڸ" horiz-adv-x="1143" d="M1180 26q0-24-26-24h-21q-88 0-128 99h-5v-202q-36-136-82-239-101-81-234.5-129T427-517q-169 1-266.5 72T63-250q0 71 29 179 27 97 57 155 34 0 57-34-45-83-45-199 0-213 310-213 224 0 454 166l-62 1308 106 173q10-594 41-994 12-145 123-145h21q26 0 26-30V26zM644-908l-99-100-98 100 98 98zm118 201l-100-99-98 99 98 98zm-235 0l-100-99-98 99 98 98z"/><glyph glyph-name="uni06B9.init" unicode="ڹ" horiz-adv-x="414" d="M330 899L219 787 93 892l114 114zm0-614Q307 161 224 83 135 0 9 0h-20q-26 0-26 25v89q0 30 26 30h49q153 0 201 102-15 79-91 151l76 182q91-143 106-294zm-2-567L217-394 91-289l114 113z"/><glyph glyph-name="uni06B9.medi" unicode="ڹ" horiz-adv-x="414" d="M327 780L215 668 90 773l114 113zM452 25q0-25-26-25h-21q-78 0-132 43-52 39-56 91h-8q-13-58-77-98Q74 0 9 0h-20q-26 0-26 25v89q0 30 26 30H9q80 0 128 55 46 52 46 134v31q10 8 30 8 21 0 35-10v-32q0-110 39-151 35-35 118-35h21q26 0 26-30V25zM327-282L215-394 90-289l114 113z"/><glyph glyph-name="uni06B9.fina" unicode="ڹ" horiz-adv-x="1157" d="M725 589L613 477 488 582l113 114zm469-564q0-25-27-25h-21q-53 0-93 43l-3-4q26-68 26-153-15-92-62-207-86-85-245-150-177-72-346-72-160 0-257 76Q63-387 63-246q0 165 141 412 32 0 62-29-37-63-63-154-22-84-22-140 0-106 73-169t206-62q315 2 543 210-24 233-147 422l63 187q129-287 227-287h21q27 0 27-30V25zM722-797L611-909 485-804l114 113z"/><glyph glyph-name="uni06BC.init" unicode="ڼ" horiz-adv-x="518" d="M215 26Q170 0 122 0h-19Q81-57 81-94q0-24 25-41t67-17q29 0 64.5 12t50.5 30q0 43-34 93-17 22-39 43zM51 0h-62q-26 0-26 25v89q0 30 26 30h49q209 0 258 102-17 79-92 151l76 182q90-143 107-294-23-118-100-201-2-3-5-6 56-68 58-149-13-65-49-132-75-48-142-48-53 0-89 30-38 32-38 85Q22-84 51 0zm279 899L219 787 93 892l114 114z"/><glyph glyph-name="uni06BC.medi" unicode="ڼ" horiz-adv-x="647" d="M255 16Q214 0 171 0h-37q-23-57-23-94 0-24 25-41t68-17q29 0 64.5 12t50.5 30q0 43-35 93-12 18-29 33zM82 0H-2q-26 0-26 25v89q0 30 26 30h130q217 0 217 189v31q10 8 30 8 21 0 34-10v-32q0-112 48-151 43-35 171-35h21q25 0 25-30V25q0-25-25-25h-21Q510 0 441 43q-58 36-63 91h-8q-9-41-44-73 43-61 45-132-13-65-49-132-75-48-142-48-53 0-90 30-37 32-37 85Q53-84 82 0zm372 780L343 668 217 773l114 113z"/><glyph glyph-name="uni06BC.fina" unicode="ڼ" horiz-adv-x="1157" d="M725 589L613 477 488 582l113 114zM639-515q-69-17-136-24-16-46-16-78 0-24 25-41t68-17q28 0 63.5 12.5T694-633q0 44-34 93-10 13-21 25zm-188-27q-14-1-28-1-160 0-257 76Q63-387 63-246q0 165 141 412 32 0 62-29-37-63-63-154-22-84-22-140 0-106 73-169t206-62q315 2 543 210-24 233-147 422l63 187q129-287 227-287h21q27 0 27-30V25q0-25-27-25h-21q-53 0-93 43l-3-4q26-68 26-153-15-92-62-207-86-85-245-150-25-10-50-19 26-49 27-104-12-65-49-132-75-47-142-47-53 0-89 29-38 32-38 85 0 46 23 117z"/><glyph glyph-name="uni06BD.init" unicode="ڽ" horiz-adv-x="518" d="M357 988l-99-98-99 98 99 100zm117-201l-98-98-100 98 100 99zm-235 0l-98-98-101 98 101 99zm148-502Q364 167 287 83.5T122 0H-11q-26 0-26 25v89q0 30 26 30h49q209 0 258 102-17 79-92 151l76 182q90-143 107-294z"/><glyph glyph-name="uni06BD.medi" unicode="ڽ" horiz-adv-x="518" d="M342 824l-99-98-99 98 99 100zm118-201l-100-99-98 99 98 99zm-236 0l-99-99-100 99 100 99zM556 25q0-25-25-25h-21Q391 0 323 43q-58 36-63 91h-8q-13-58-77-98Q117 0 52 0h-63q-26 0-26 25v89q0 30 26 30H9q217 0 217 189v31q10 8 30 8 21 0 35-10v-32q0-112 47-151 44-35 172-35h21q25 0 25-30V25z"/><glyph glyph-name="uni06BD.fina" unicode="ڽ" horiz-adv-x="1157" d="M1194 25q0-25-27-25h-21q-53 0-93 43l-3-4q26-68 26-153-15-92-62-207-86-85-245-150-177-72-346-72-160 0-257 76Q63-387 63-246q0 165 141 412 32 0 62-29-37-63-63-154-22-84-22-140 0-106 73-169t206-62q315 2 543 210-24 233-147 422l63 187q129-287 227-287h21q27 0 27-30V25zM711 697l-99-98-99 98 99 99zm117-201l-98-99-99 99 99 99zm-235 0l-98-99-101 99 101 99z"/><glyph glyph-name="uni06BF.init" unicode="ڿ" horiz-adv-x="966" d="M499 995L387 883 262 987l114 114zm404-685l-80-129q-47 15-100 15-70 0-260-84Q211 0 9 0h-20q-26 0-26 25v89q0 30 26 30H9q147 0 357 57 78 25 215 66v4q-65 19-223 140-138 106-178 106-31 0-92-108-25 3-50 27l89 159q37 65 92 65 50 0 282-183 119-93 196-128 90-39 206-39zM499-444l-100-99-98 99 98 99zm117 202l-99-100-98 100 98 98zm-235 0l-99-100-99 100 99 98z"/><glyph glyph-name="uni06BF.medi" unicode="ڿ" horiz-adv-x="1139" d="M726 968L614 855 490 959l113 114zm451-943q0-25-25-25-355 0-355 262 0 30 .5 53t2.5 44q-19-13-49.5-34.5T682 276t-82.5-59-91.5-64Q396 77 270.5 38.5T-1 0h-10q-26 0-26 25v89q0 30 26 30h10q116 0 227.5 27.5T443 258q48 27 82.5 47t59 34 41.5 24 29 16v4q-12 0-29 2t-43 9-63 19.5-89 33.5q-207 84-220 84-36 0-86-124-28 0-56 21l76 164q38 82 92 82 31 0 142-49 38-17 68-30t54-23 44-17 38-14q144-50 259-50 90 0 248 36l-66-150q-58-2-99-5t-65-8q3-35 7.5-61t11-45.5 16.5-34 24-27.5q57-52 212-52h21q25 0 25-30V25zM726-444l-99-99-98 99 98 99zm118 202l-99-100-99 100 99 98zm-235 0l-99-100-99 100 99 98z"/><glyph glyph-name="uni06BF.fina" unicode="ڿ" horiz-adv-x="1045" d="M765 974L654 862 528 967l114 113zm323-1357L987-500q-211-43-367-43-229 0-384 99Q68-335 68-155q0 190 165 348 143 138 366 216v4q-156 26-270 64-56 20-84 20-36 0-86-118-35 0-56 18l78 164q38 79 90 79 5 0 216-60t297-60q114 0 248 34l-65-148q-84 0-163-16 0-129 51-185 54-61 181-61h20q27 0 27-30V25q0-25-27-25h-20Q739 0 739 285q0 28 6 96-207-42-363-171Q215 72 215-84q0-154 150-245 145-89 374-89 127 0 349 35zM642-205l-98-99-100 99 100 98zM759-4l-98-99-99 99 99 99zM524-4l-98-99-99 99 99 99z"/><glyph glyph-name="uni06C2.fina" unicode="ۂ" horiz-adv-x="760" d="M798 25q0-25-27-25h-28q-60 0-106.5 17t-82 54.5T492 170t-47 151q-69-16-126-44.5T204 209q-30-20-59-49.5T100 101q-18 0-23 10l46 170q36 33 74.5 62.5T282 398t100 46 120 38q15-88 31.5-151T576 226t65-62 100-20h30q15 0 21-6.5t6-23.5V25zM511 771q-26-5-63-16.5t-77-26-78.5-31T225 664v66q18 10 42.5 20.5T322 768v4q-81 29-81 104 85 128 169 128 54 0 90-58l-54-42q-19 18-36.5 26t-30.5 8q-39 0-81-57 30-65 104-67 27 7 59 16.5t72 16.5z"/><glyph glyph-name="uni06C3.fina" unicode="ۃ" horiz-adv-x="760" d="M798 25q0-25-27-25h-28q-60 0-106.5 17t-82 54.5T492 170t-47 151q-69-16-126-44.5T204 209q-30-20-59-49.5T100 101q-18 0-23 10l46 170q36 33 74.5 62.5T282 398t100 46 120 38q15-88 31.5-151T576 226t65-62 100-20h30q15 0 21-6.5t6-23.5V25zM606 826L494 714 369 819l114 114zm-248-20L246 694 121 799l114 113z"/><glyph glyph-name="uni06C4.fina" unicode="ۄ" horiz-adv-x="668" d="M529 151q-5 77-60.5 145.5T340 374q-82-70-82-189 71-41 190-41 32 0 81 7zM295-306q61 46 107 96l-54 36q-43 29-73 36-19 3-37-16.5T213-210q-5-26-.5-58.5T228-317q30-6 67 11zm136 128q83 99 93 185-44-7-100-7-65 0-147 20-77 18-111 37-7 49-7 68 6 287 213 399 224-66 237-380h70q27 0 27-30V25q0-25-27-25h-76q-52-308-336-543-132 9-231 77 107 53 191 111-37 19-73 50-27 73-16 130 8 47 37 73 32 27 75 20 65-12 181-96z"/><glyph glyph-name="uni06CA.fina" unicode="ۊ" horiz-adv-x="668" d="M706 25q0-25-27-25h-76q-52-308-336-543-132 9-231 77 242 123 372 262Q513-91 524 7q-44-7-100-7-65 0-147 20-77 18-111 37-7 49-7 68 6 287 213 399 224-66 237-380h70q27 0 27-30V25zM529 151q-5 77-60.5 145.5T340 374q-82-70-82-189 71-41 190-41 32 0 81 7zm73 602l-99-99-99 99 99 99zm-235 0l-99-99-101 99 101 99z"/><glyph glyph-name="uni06CD.fina" unicode="ۍ" horiz-adv-x="1302" d="M333 164q32 0 62-30-38-62-63-153-24-84-24-140 0-106 74-167.5T589-388q152 0 334 27 160 24 242 51-10 53-136 77-99 18-162 60 16 100 44 212 99 105 259 105h133q26 0 26-30V25q0-25-26-25h-151q-151 0-205-73 34-24 112-41 100-22 135.5-43t35.5-62q0-19-13-88-13-73-24-102-116-55-292-93-186-41-350-41-160 0-257 75-103 79-103 220 0 113 66 263Q125-43 50-87l-6 8L80 43q138 70 253 121z"/><glyph glyph-name="uni06CE.init" unicode="ێ" horiz-adv-x="518" d="M387 285Q364 167 287 83.5T122 0H-11q-26 0-26 25v89q0 30 26 30h49q209 0 258 102-17 79-92 151l76 182q90-143 107-294zm99-546L374-374 249-269l114 114zm-249-21L125-394 0-289l114 113zM83 1014l168-150 168 150h48L291 774h-80L34 1014h49z"/><glyph glyph-name="uni06CE.medi" unicode="ێ" horiz-adv-x="518" d="M556 25q0-25-25-25h-21Q391 0 323 43q-58 36-63 91h-8q-13-58-77-98Q117 0 52 0h-63q-26 0-26 25v89q0 30 26 30H9q217 0 217 189v31q10 8 30 8 21 0 35-10v-32q0-112 47-151 44-35 172-35h21q25 0 25-30V25zm-63-305L381-392 256-287l114 114zm-248-20L132-412 8-307l114 113zM83 814l168-151 168 151h48L291 574h-80L34 814h49z"/><glyph glyph-name="uni06CE.fina" unicode="ێ" horiz-adv-x="1165" d="M1202 25q0-25-27-25h-151Q873 0 819-73q34-24 112-41 100-22 135.5-43t35.5-62q0-19-12-88-14-73-25-102-116-55-291-93-187-41-350-41-161 0-258 75Q63-389 63-248q0 165 142 412 32 0 62-30-37-62-63-153-23-84-23-140 0-106 73.5-167.5T461-388q152 0 334 27 161 24 242 51-10 53-136 77-99 18-162 60 16 100 45 212 98 105 258 105h133q27 0 27-30V25zM292 513l167-150 168 150h48L499 273h-80L242 513h50z"/><glyph glyph-name="uni06CF.fina" unicode="ۏ" horiz-adv-x="668" d="M706 25q0-25-27-25h-76q-52-308-336-543-132 9-231 77 242 123 372 262Q513-91 524 7q-44-7-100-7-65 0-147 20-77 18-111 37-7 49-7 68 6 287 213 399 224-66 237-380h70q27 0 27-30V25zM529 151q-5 77-60.5 145.5T340 374q-82-70-82-189 71-41 190-41 32 0 81 7zm-45 602l-98-98-99 98 99 100z"/><glyph glyph-name="uni06D1.init" unicode="ۑ" horiz-adv-x="518" d="M-37 114q0 17 6 23.5t20 6.5h49q58 0 101.5 7.5T214 172t51 31.5 31 42.5q-3 14-12 34t-22 41-28 41.5-30 34.5l76 182q18-30 36-66.5t32.5-76.5 24.5-79 14-72q-11-59-37.5-111T287 83.5t-79-61T122 0H-11q-26 0-26 25v89zm394-558l-99-99-99 99 99 99zm117 202l-98-100-100 100 100 98zm-235 0l-98-100L41-242l100 98z"/><glyph glyph-name="uni06D1.medi" unicode="ۑ" horiz-adv-x="518" d="M-37 114q0 17 6 23.5t20 6.5H9q29 0 66.5 5.5t71 25 56.5 57T226 333v31q9 8 30 8 11 0 19-2t16-8v-32q0-58 11-94t36.5-56.5 67.5-28 104-7.5h21q13 0 19-6.5t6-23.5V25q0-25-25-25h-21q-64 0-110 12t-76.5 31-46 42.5T260 134h-8q-7-31-27.5-55.5t-49-42-61-27T52 0h-63q-26 0-26 25v89zm394-558l-99-99-99 99 99 99zm117 202l-98-100-100 100 100 98zm-235 0l-98-100L41-242l100 98z"/><glyph glyph-name="uni06D1.fina" unicode="ۑ" horiz-adv-x="1165" d="M1202 25q0-25-27-25h-151Q873 0 819-73q34-24 112-41 100-22 135.5-43t35.5-62q0-19-12-88-14-73-25-102-116-55-291-93-187-41-350-41-161 0-258 75Q63-389 63-248q0 165 142 412 32 0 62-30-37-62-63-153-23-84-23-140 0-106 73.5-167.5T461-388q152 0 334 27 161 24 242 51-10 53-136 77-99 18-162 60 16 100 45 212 98 105 258 105h133q27 0 27-30V25zM620-979l-99-100-99 100 99 98zm117 201l-98-99-100 99 100 98zm-235 0l-98-99-100 99 100 98z"/><glyph glyph-name="uni06D5.fina" unicode="ە" horiz-adv-x="759" d="M796 25q0-25-26-25h-21Q580 0 531 235q-23-37-94-108-147 0-192 6-115 15-173 72 12 100 71 215 148 106 308 149l-32 153 75 142q75-460 136-610 44-110 113-110h27q26 0 26-30V25zM526 251q-37 138-55 230-220-61-292-169 21-23 85.5-42T384 251h142z"/><glyph glyph-name="uni06EE.fina" unicode="ۮ" horiz-adv-x="768" d="M805 25q0-25-26-25h-21Q651 0 581 209h-3q-11-76-41-140-54-28-158-54-109-26-175-26-63 0-119 18-4 71-4 94 0 39 15 132 15 4 24 4 14 0 27-9v-28q0-34 3-49 40-19 97-19 78 0 178 32 96 31 143 67-74 212-154 487l80 174q109-495 166-642 42-106 98-106h21q26 0 26-30V25zM237 1062l177 240h80l176-240h-49l-167 151-168-151h-49z"/><glyph glyph-name="uni06EF.fina" unicode="ۯ" horiz-adv-x="686" d="M724 25q0-25-26-25h-21q-52 0-111 52-21-166-93-298-70-128-225-288-67 0-142 20T0-468q218 103 355 253Q466-94 483 0q-17 126-141 244l62 187 94-146q91-141 179-141h21q26 0 26-30V25zM174 643l177 240h80l176-240h-49L391 794 223 643h-49z"/><glyph glyph-name="uni06FA.init" unicode="ۺ" horiz-adv-x="1059" d="M678 1017l-98-100-100 100 100 99zm118-202l-99-99-99 99 99 99zm-235 0l-99-99-101 99 101 99zm426-530q-25-116-93-197Q820 0 732 0 590 0 566 134h-4Q521 0 387 0q-59 0-102 35-47 36-59 99h-3q-19-59-75-97Q90 0 9 0h-20q-26 0-26 25v89q0 30 26 30H9q196 0 196 223 15 7 29 7 21 0 42-12-5-59-5-106 0-45 30-78.5t73-33.5q77 0 121 63 43 60 43 160 14 7 28 7 20 0 43-12-6-59-6-106 0-46 30.5-79t77.5-33q137 0 185 102-16 79-91 151l76 182q91-143 106-294zM673-243L573-343l-98 100 98 98z"/><glyph glyph-name="uni06FA.medi" unicode="ۺ" horiz-adv-x="1095" d="M685 938l-98-99-99 99 99 99zm118-201l-98-99-100 99 100 98zm-235 0l-98-99-102 99 102 98zm565-712q0-25-27-25h-20q-53 0-99.5 37.5T928 134h-4Q885 0 756 0 614 0 590 134h-4Q544 0 411 0 252 0 226 134h-3q-19-59-75-97Q90 0 9 0h-20q-26 0-26 25v89q0 30 26 30l20-2q196 3 196 223 15 7 29 7 21 0 42-12-5-56-5-104 0-46 34-79t93-33q78 0 122 63 42 59 42 158 14 7 28 7 21 0 43-12-6-56-6-104 0-46 31-79t78-33q77 0 122 63 42 59 42 158 13 7 28 7 20 0 43-12-6-56-6-104 0-46 33.5-79t87.5-33h20q27 0 27-30V25zM682-243l-99-100-99 100 99 98z"/><glyph glyph-name="uni06FA.fina" unicode="ۺ" horiz-adv-x="1838" d="M1457 938l-99-99-98 99 98 99zm118-201l-99-99-99 99 99 98zm-235 0l-100-99-100 99 100 98zm535-712q0-25-26-25h-20q-54 0-100.5 37.5T1671 134h-4Q1628 0 1498 0q-141 0-165 134h-4Q1287 0 1153 0q-51 0-98 32 9-68 9-129 0-98-63-222-82-75-237-143-185-81-336-81-160 0-257 76Q68-387 68-246q0 165 141 412 32 0 62-29-37-63-63-154-22-84-22-140 0-106 73-168.5T465-388q122 0 270.5 57.5T984-189q2 202-111 409l64 189q60-158 104-212 41-53 99-53 79 0 122 63 42 60 42 160 15 7 29 7 20 0 42-12-5-59-5-106 0-46 31-79t77-33q78 0 122 63 42 60 42 160 14 7 29 7 20 0 42-12-5-59-5-106 0-46 32.5-79t88.5-33h20q26 0 26-30V25zm-401-268l-100-100-98 100 98 98z"/><glyph glyph-name="uni06FB.init" unicode="ۻ" horiz-adv-x="1315" d="M1243 310Q1129 133 949 64 783 0 481 0 252 0 226 134h-3q-19-59-75-97Q90 0 9 0h-20q-26 0-26 25v89q0 30 26 30H9q196 0 196 223 15 7 29 7 21 0 42-12-5-59-5-106 0-46 35-79t97-33q215 250 365 345 109 69 212 69 112 0 190-81 73-75 73-167zm-118-54q0 65-59 121t-135 56q-185 0-440-289h188q136 0 268 34 125 32 178 78zm-98-503L915-359 790-254l114 114zm6 1178L921 819 797 924l113 114z"/><glyph glyph-name="uni06FB.medi" unicode="ۻ" horiz-adv-x="1313" d="M1351 25q0-25-26-25h-93q-137 0-368 41Q675 0 481 0 252 0 226 134h-3q-19-59-75-97Q90 0 9 0h-20q-26 0-26 25v89q0 30 26 30H9q196 0 196 223 15 7 29 7 21 0 42-12-5-59-5-106 0-46 35-79t97-33q215 250 365 345 109 69 212 69 112 0 190-81 73-75 73-167-26-80-155-159v-7h237q26 0 26-30V25zm-226 231q0 65-59 121t-135 56q-185 0-440-289h188q136 0 268 34 125 32 178 78zm-98-503L915-359 790-254l114 114zm6 1178L921 819 797 924l113 114z"/><glyph glyph-name="uni06FB.fina" unicode="ۻ" horiz-adv-x="2047" d="M2084 25q0-25-25-25h-94q-137 0-367 41-189-41-383-41-113 0-160 32 9-68 9-129 0-98-63-222-82-75-237-143-185-81-336-81-160 0-257 76Q68-387 68-246q0 165 141 412 32 0 62-29-37-63-63-154-22-84-22-140 0-106 73-168.5T465-388q122 0 270.5 57.5T984-189q2 202-111 409l64 189q60-157 102-211t98-54q215 250 365 345 108 69 211 69 112 0 191-81 73-75 73-167-28-80-155-159v-7h237q25 0 25-30V25zm-225 231q0 65-59.5 121T1665 433q-185 0-441-289h189q135 0 267 34 125 32 179 78zm-104-503l-112-112-125 105 114 114zm7 1178l-112-112-125 105 114 114z"/><glyph glyph-name="uni06FC.init" unicode="ۼ" horiz-adv-x="859" d="M511 1038L399 926l-124 103 113 114zm280-698l-78-171q-61 0-362-83T9 0h-20q-26 0-26 25v89q0 30 26 30H9q135 0 237 27v5q-69 16-114.5 79.5T86 397q0 41 9 71 131 221 304 221 160 0 255-162-94 36-200 36-139 0-265-59-1-13-4-39 0-76 63-145 66-73 165-96 36 7 186 53 154 46 192 63zM510-282L398-394 273-289l114 113z"/><glyph glyph-name="uni06FC.medi" unicode="ۼ" horiz-adv-x="621" d="M450 892L338 780 213 885l114 113zM659 25q0-25-26-25h-20Q441 0 330 127 183 0 41 0h-52q-26 0-26 25v89q0 30 26 30h47q133 0 231 65-67 99-153 99-9 0-54-4l63 127q110 52 212 52 105 0 210-84l-37-93-101-89q62-73 206-73h20q26 0 26-30V25zM431-282L319-394 194-289l114 113z"/><glyph glyph-name="uni06FC.fina" unicode="ۼ" horiz-adv-x="852" d="M631 981L519 869 394 974l113 114zM889-415l-98-113q-71-15-206-15-232 0-366 77Q63-375 63-190q0 258 377 491-75 98-155 98-10 0-54-4l63 127q114 53 211 53 127 0 229-94l-37-91-132-89q136-157 278-157h21q25 0 25-30V25q0-25-25-25h-21Q691 0 485 244 200 53 200-125q0-147 148-229 137-75 357-75 80 0 184 14zM632-115L520-227 396-122 509-8z"/><glyph glyph-name="uni06FF.init" unicode="ۿ" horiz-adv-x="915" d="M839 246q0-22-31-90-35-77-76-133-63 1-203 28-147 29-196 52-59-37-162.5-70T9 0h-20q-26 0-26 25v89q0 30 26 30h38q134 0 178 32-55 40-55 152 0 79 41.5 155T289 586l-74 34 35 173q363-236 484-355 102-98 105-192zm-82-45q0 38-50 102-58 72-149 133l-4-3q9-26 9-75 0-104-87-164 128-43 256-46 23 16 25 53zM491 384q0 86-82 136-87-3-136-61-43-51-43-119 3-30 35-60 34-35 88-50 64 16 101 59.5t37 94.5zM35 869l177 240h80l176-240h-49l-167 150L84 869H35z"/><glyph glyph-name="uni06FF.medi" unicode="ۿ" horiz-adv-x="819" d="M858 25q0-25-27-25h-12q-27 0-68 1t-91 3q69-59 69-163 0-36-11-77.5t-29.5-82-43-77T593-457q-80 16-148 57.5t-121.5 103-90.5 140T179 11Q109 0 0 0h-11q-26 0-26 25v89q0 17 6 23.5t20 6.5H0q39 0 82.5 1.5T167 150v35q0 199 39 327t120 195q216-99 218-452 0-76-11-126 39 8 100.5 11.5T778 144h53q15 0 21-6.5t6-23.5V25zM240 154q87 7 149 26.5t94 57.5q-3 53-17 101.5t-35.5 88T383 494t-52 35q-51-60-71-155t-20-220zm394-376q0 42-14 80t-41 69-67.5 53.5T419 13l20 63q-38-21-82-34.5T265 21q21-59 54.5-112.5T397-188t97.5-75T608-312q12 16 19 37t7 53zM108 869l177 240h80l176-240h-49l-167 150-168-150h-49z"/><glyph glyph-name="uni06FF.fina" unicode="ۿ" horiz-adv-x="935" d="M974 25q0-25-27-25h-12q-27 0-68 1t-91 3q69-59 69-163 0-36-11-77.5t-29.5-82-43-77T709-457q-80 16-148 57.5t-121.5 103-90.5 140T295 11Q206-8 152-37.5T72-107l-13 5L82 49q21 29 70 55t131 43v34q0 199 39 329t120 197q216-99 218-452 0-76-11-126 39 8 101 11.5t144 3.5h53q15 0 21-6.5t6-23.5V25zM356 154q87 7 149 26.5t94 57.5q-2 53-16.5 101.5t-36 88-47 66.5-52.5 35q-51-60-71-155t-20-220zm394-376q0 42-14 80.5t-41 70-67.5 54T535 15l21 61q-39-21-83-34.5T382 21q20-59 53.5-112.5T513-188t97.5-75T724-312q12 16 19 37t7 53zM198 869l177 240h80l176-240h-48l-168 150-167-150h-50z"/><glyph glyph-name="uniFB50" unicode="ٱ" horiz-adv-x="414" arabic-form="isolated" d="M353 1480q-24-48-71.5-80.5T185 1367q-55 0-125 30-15-28-50-86v112q16 29 39 57 36-12 60-28 45 180 147 180 89 0 97-152zm-39 20q-2 21-18.5 40t-37.5 19q-28 0-58-28-36-31-54-86 14-6 43-6 74 0 125 61zm-42-884q0-309-9-530L178-57l-9 611q-4 393-62 608l121 123q44-268 44-669z"/><glyph glyph-name="uniFB51" unicode="ٱ" horiz-adv-x="414" arabic-form="final" d="M353 1480q-24-48-71.5-80.5T185 1367q-55 0-125 30-15-28-50-86v112q16 29 39 57 36-12 60-28 45 180 147 180 89 0 97-152zm-39 20q-2 21-18.5 40t-37.5 19q-28 0-58-28-36-31-54-86 14-6 43-6 74 0 125 61zM452 25q0-25-27-25h-21Q270 0 220 91q-52 98-52 375 0 186-21 400.5T99 1157l108 128q53-217 53-758 0-239 29-313 27-70 115-70h21q27 0 27-30V25z"/><glyph glyph-name="uniFB52" unicode="ٻ" horiz-adv-x="1419" arabic-form="isolated" d="M1264 579q9-18 19-42.5t19-52 17-56 14-53.5 9.5-45 3.5-31q-2-11-13-40t-25-60-28-58-22-36q-14-6-53.5-17t-97-23.5-128-26-147-24.5T678-4t-149-7q-113 0-196.5 21.5T194.5 70 113 158 86 265q0 70 29 145.5T191 566q3 2 14 2 9 0 22.5-10t20.5-22q-15-26-27-53t-19.5-52-12-46.5T185 347q0-45 27-82.5t77.5-64.5 123-41.5T577 144q113 0 220.5 9.5t198 23 159 29.5 104.5 29q-1 11-9.5 34t-20 50-24.5 52.5-24 39.5zM709-543l-98 98 98 100 99-100zm0 204l-98 98 98 100 99-100z"/><glyph glyph-name="uniFB53" unicode="ٻ" horiz-adv-x="1394" arabic-form="final" d="M808-241l-99-99-98 99 98 99zm624 266q0-25-27-25h-20q-41 0-73 11t-53 29-31.5 42.5T1217 134q0 26 6 53-55-41-131.5-77t-167-63-191-42.5T529-11q-113 0-196.5 21.5T194.5 70 113 158 86 265q0 70 29 145.5T191 566q3 2 14 2 9 0 22.5-10t20.5-22q-15-26-27-53t-19.5-52-12-46.5T185 347q0-45 27-82.5t77.5-64.5 123-41.5T577 144q56 0 126.5 7.5t141.5 21 136 30 109 32.5q38 15 62.5 28.5t41.5 32 28.5 46T1245 411q4 2 10 3t11 1q11 0 25-8.5t21-18.5q-12-25-21-60.5t-9-69.5q0-57 27-85.5t76-28.5h20q15 0 21-6.5t6-23.5V25zM808-444l-99-99-98 99 98 99z"/><glyph glyph-name="uniFB54" unicode="ٻ" horiz-adv-x="480" d="M-37 114q0 17 6 23.5t20 6.5h49q58 0 101.5 7.5T214 172t51 31.5 31 42.5q-3 14-12 34t-22 41-28 41.5-30 34.5l76 182q18-30 36-66.5t32.5-76.5 24.5-79 14-72q-11-59-37.5-111T287 83.5t-79-61T122 0H-11q-26 0-26 25v89zm394-348l-99-99-99 99 99 98zm0-210l-99-99-99 99 99 99z"/><glyph glyph-name="uniFB55" unicode="ٻ" horiz-adv-x="518" arabic-form="medial" d="M-37 114q0 17 6 23.5t20 6.5H9q29 0 66.5 5.5t71 25 56.5 57T226 333v31q9 8 30 8 11 0 19-2t16-8v-32q0-58 11-94t36.5-56.5 67.5-28 104-7.5h21q13 0 19-6.5t6-23.5V25q0-25-25-25h-21q-64 0-110 12t-76.5 31-46 42.5T260 134h-8q-7-31-27.5-55.5t-49-42-61-27T52 0h-63q-26 0-26 25v89zm394-355l-99-99-99 99 99 99zm0-203l-99-99-99 99 99 99z"/><glyph glyph-name="uniFB56" unicode="پ" horiz-adv-x="1419" arabic-form="isolated" d="M1264 579q9-18 19-42.5t19-52 17-56 14-53.5 9.5-45 3.5-31q-2-11-13-40t-25-60-28-58-22-36q-14-6-53.5-17t-97-23.5-128-26-147-24.5T678-4t-149-7q-113 0-196.5 21.5T194.5 70 113 158 86 265q0 70 29 145.5T191 566q3 2 14 2 9 0 22.5-10t20.5-22q-15-26-27-53t-19.5-52-12-46.5T185 347q0-45 27-82.5t77.5-64.5 123-41.5T577 144q113 0 220.5 9.5t198 23 159 29.5 104.5 29q-1 11-9.5 34t-20 50-24.5 52.5-24 39.5zM808-444l-99-99-98 99 98 99zm118 202l-99-100-99 100 99 98zm-235 0l-99-100-99 100 99 98z"/><glyph glyph-name="uniFB57" unicode="پ" horiz-adv-x="1394" arabic-form="final" d="M808-444l-99-99-98 99 98 99zm118 202l-99-100-99 100 99 98zm-235 0l-99-100-99 100 99 98zm741 267q0-25-27-25h-20q-41 0-73 11t-53 29-31.5 42.5T1217 134q0 26 6 53-55-41-131.5-77t-167-63-191-42.5T529-11q-113 0-196.5 21.5T194.5 70 113 158 86 265q0 70 29 145.5T191 566q3 2 14 2 9 0 22.5-10t20.5-22q-15-26-27-53t-19.5-52-12-46.5T185 347q0-45 27-82.5t77.5-64.5 123-41.5T577 144q56 0 126.5 7.5t141.5 21 136 30 109 32.5q38 15 62.5 28.5t41.5 32 28.5 46T1245 411q4 2 10 3t11 1q11 0 25-8.5t21-18.5q-12-25-21-60.5t-9-69.5q0-57 27-85.5t76-28.5h20q15 0 21-6.5t6-23.5V25z"/><glyph glyph-name="uniFB58" unicode="پ" horiz-adv-x="518" d="M-37 114q0 17 6 23.5t20 6.5h49q58 0 101.5 7.5T214 172t51 31.5 31 42.5q-3 14-12 34t-22 41-28 41.5-30 34.5l76 182q18-30 36-66.5t32.5-76.5 24.5-79 14-72q-11-59-37.5-111T287 83.5t-79-61T122 0H-11q-26 0-26 25v89zm394-558l-99-99-99 99 99 99zm117 202l-98-100-100 100 100 98zm-235 0l-98-100L41-242l100 98z"/><glyph glyph-name="uniFB59" unicode="پ" horiz-adv-x="518" arabic-form="medial" d="M-37 114q0 17 6 23.5t20 6.5H9q29 0 66.5 5.5t71 25 56.5 57T226 333v31q9 8 30 8 11 0 19-2t16-8v-32q0-58 11-94t36.5-56.5 67.5-28 104-7.5h21q13 0 19-6.5t6-23.5V25q0-25-25-25h-21q-64 0-110 12t-76.5 31-46 42.5T260 134h-8q-7-31-27.5-55.5t-49-42-61-27T52 0h-63q-26 0-26 25v89zm394-558l-99-99-99 99 99 99zm117 202l-98-100-100 100 100 98zm-235 0l-98-100L41-242l100 98z"/><glyph glyph-name="uniFB5A" unicode="ڀ" horiz-adv-x="1419" arabic-form="isolated" d="M1264 579q9-18 19-42.5t19-52 17-56 14-53.5 9.5-45 3.5-31q-2-11-13-40t-25-60-28-58-22-36q-14-6-53.5-17t-97-23.5-128-26-147-24.5T678-4t-149-7q-113 0-196.5 21.5T194.5 70 113 158 86 265q0 70 29 145.5T191 566q3 2 14 2 9 0 22.5-10t20.5-22q-15-26-27-53t-19.5-52-12-46.5T185 347q0-45 27-82.5t77.5-64.5 123-41.5T577 144q113 0 220.5 9.5t198 23 159 29.5 104.5 29q-1 11-9.5 34t-20 50-24.5 52.5-24 39.5zM926-448l-99-100-99 100 99 98zm-235 0l-99-100-99 100 99 98zm235 206l-99-100-99 100 99 98zm-235 0l-99-100-99 100 99 98z"/><glyph glyph-name="uniFB5B" unicode="ڀ" horiz-adv-x="1394" arabic-form="final" d="M926-448l-99-100-99 100 99 98zm-235 0l-99-100-99 100 99 98zm741 473q0-25-27-25h-20q-41 0-73 11t-53 29-31.5 42.5T1217 134q0 26 6 53-55-41-131.5-77t-167-63-191-42.5T529-11q-113 0-196.5 21.5T194.5 70 113 158 86 265q0 70 29 145.5T191 566q3 2 14 2 9 0 22.5-10t20.5-22q-15-26-27-53t-19.5-52-12-46.5T185 347q0-45 27-82.5t77.5-64.5 123-41.5T577 144q56 0 126.5 7.5t141.5 21 136 30 109 32.5q38 15 62.5 28.5t41.5 32 28.5 46T1245 411q4 2 10 3t11 1q11 0 25-8.5t21-18.5q-12-25-21-60.5t-9-69.5q0-57 27-85.5t76-28.5h20q15 0 21-6.5t6-23.5V25zM926-242l-99-100-99 100 99 98zm-235 0l-99-100-99 100 99 98z"/><glyph glyph-name="uniFB5C" unicode="ڀ" horiz-adv-x="518" d="M-37 114q0 17 6 23.5t20 6.5h49q58 0 101.5 7.5T214 172t51 31.5 31 42.5q-3 14-12 34t-22 41-28 41.5-30 34.5l76 182q18-30 36-66.5t32.5-76.5 24.5-79 14-72q-11-59-37.5-111T287 83.5t-79-61T122 0H-11q-26 0-26 25v89zm511-559l-98-99-100 99 100 99zm-235 0l-98-99-100 99 100 99zm235 203l-98-100-100 100 100 98zm-235 0l-98-100L41-242l100 98z"/><glyph glyph-name="uniFB5D" unicode="ڀ" horiz-adv-x="518" arabic-form="medial" d="M-37 114q0 17 6 23.5t20 6.5H9q29 0 66.5 5.5t71 25 56.5 57T226 333v31q9 8 30 8 11 0 19-2t16-8v-32q0-58 11-94t36.5-56.5 67.5-28 104-7.5h21q13 0 19-6.5t6-23.5V25q0-25-25-25h-21q-64 0-110 12t-76.5 31-46 42.5T260 134h-8q-7-31-27.5-55.5t-49-42-61-27T52 0h-63q-26 0-26 25v89zm515-557l-99-99-99 99 99 99zm-235 0l-99-99-99 99 99 99zm231 201l-98-100-100 100 100 98zm-235 0l-98-100L41-242l100 98z"/><glyph glyph-name="uniFB5E" unicode="ٺ" horiz-adv-x="1419" arabic-form="isolated" d="M843 739l-98-99-100 99 100 99zm503-440q-5-25-38-99-34-79-50-95-66-27-278-67-265-49-451-49-216 0-335 80Q86 144 86 265q0 123 105 301 3 2 14 2 26 0 43-32-63-104-63-189 0-92 105.5-147.5T577 144q204 0 418 33 174 26 264 58-4 26-30 84-27 66-48 92l83 168q26-50 55-150 27-96 27-130zM843 943l-98-98-100 98 100 99z"/><glyph glyph-name="uniFB5F" unicode="ٺ" horiz-adv-x="1394" arabic-form="final" d="M849 740l-99-99-99 99 99 99zm583-715q0-25-27-25h-20q-79 0-126 40-42 37-42 94 0 25 6 53-115-85-299-140-196-58-395-58-216 0-335 80Q86 144 86 265q0 123 105 301 3 2 14 2 26 0 43-32-63-104-63-189 0-92 105.5-147.5T577 144q108 0 268 28 156 28 245 63 76 29 104.5 60.5T1245 411q11 4 21 4 27 0 46-27-30-67-30-130 0-114 103-114h20q27 0 27-30V25zM849 943l-99-98-99 98 99 99z"/><glyph glyph-name="uniFB60" unicode="ٺ" horiz-adv-x="477" d="M359 782l-98-99-99 99 99 99zm28-497Q364 167 287 83.5T122 0H-11q-26 0-26 25v89q0 30 26 30h49q209 0 258 102-17 79-92 151l76 182q90-143 107-294zm-30 703l-99-98-99 98 99 100z"/><glyph glyph-name="uniFB61" unicode="ٺ" horiz-adv-x="518" arabic-form="medial" d="M342 620l-99-98-99 98 99 100zM556 25q0-25-25-25h-21Q391 0 323 43q-58 36-63 91h-8q-13-58-77-98Q117 0 52 0h-63q-26 0-26 25v89q0 30 26 30H9q217 0 217 189v31q10 8 30 8 21 0 35-10v-32q0-112 47-151 44-35 172-35h21q25 0 25-30V25zM342 824l-99-98-99 98 99 100z"/><glyph glyph-name="uniFB62" unicode="ٿ" horiz-adv-x="1419" arabic-form="isolated" d="M974 1029L862 916l-125 105 114 114zm-248-21L613 896l-124 104 114 114zm620-709q-5-25-38-99-34-79-50-95-66-27-278-67-265-49-451-49-216 0-335 80Q86 144 86 265q0 123 105 301 3 2 14 2 26 0 43-32-63-104-63-189 0-92 105.5-147.5T577 144q204 0 418 33 174 26 264 58-4 26-30 84-27 66-48 92l83 168q26-50 55-150 27-96 27-130zM988 809L876 697 751 802l114 114zm-249-21L627 677 502 781l114 114z"/><glyph glyph-name="uniFB63" unicode="ٿ" horiz-adv-x="1394" arabic-form="final" d="M973 1015L861 903l-125 105 114 113zm-248-21L613 883 488 987l114 114zm707-969q0-25-27-25h-20q-79 0-126 40-42 37-42 94 0 25 6 53-115-85-299-140-196-58-395-58-216 0-335 80Q86 144 86 265q0 123 105 301 3 2 14 2 26 0 43-32-63-104-63-189 0-92 105.5-147.5T577 144q108 0 268 28 156 28 245 63 76 29 104.5 60.5T1245 411q11 4 21 4 27 0 46-27-30-67-30-130 0-114 103-114h20q27 0 27-30V25zM990 791L878 679 753 783l114 114zm-249-21L630 659 504 763l114 113z"/><glyph glyph-name="uniFB64" unicode="ٿ" horiz-adv-x="518" d="M483 1084L371 972l-125 105 114 114zm-249-20L123 952-2 1057l113 113zm153-779Q364 167 287 83.5T122 0H-11q-26 0-26 25v89q0 30 26 30h49q209 0 258 102-17 79-92 151l76 182q90-143 107-294zm110 579L385 752 260 856l114 114zm-249-20L137 732 11 836l114 113z"/><glyph glyph-name="uniFB65" unicode="ٿ" horiz-adv-x="518" arabic-form="medial" d="M480 935L367 823 243 927l114 113zm-249-21L119 802-6 906l114 114zM556 25q0-25-25-25h-21Q391 0 323 43q-58 36-63 91h-8q-13-58-77-98Q117 0 52 0h-63q-26 0-26 25v89q0 30 26 30H9q217 0 217 189v31q10 8 30 8 21 0 35-10v-32q0-112 47-151 44-35 172-35h21q25 0 25-30V25zm-63 687L381 599 256 703l114 114zm-248-21L132 579 8 683l114 114z"/><glyph glyph-name="uniFB66" unicode="ٹ" horiz-adv-x="1419" arabic-form="isolated" d="M1346 299q-5-25-38-99-34-79-50-95-66-27-278-67-265-49-451-49-216 0-335 80Q86 144 86 265q0 123 105 301 3 2 14 2 26 0 43-32-63-104-63-189 0-92 105.5-147.5T577 144q204 0 418 33 174 26 264 58-4 26-30 84-27 66-48 92l83 168q26-50 55-150 27-96 27-130zM701 920q0-29-1-50.5t-5-35.5l2-1q31 46 70.5 71t72.5 25q26 0 46-10t34.5-26 24-35.5T959 819q-21-51-50-83.5T839.5 685 746 659t-124-9l-101 88q32-5 61.5-6.5T635 730l15 44q0 56-1 98.5t-3.5 76-7 61T628 1061l59 62q8-29 25-64.5t45-76.5l-4-4-55 23q3-41 3-81zm115-65q-44 0-80-34.5T666 729q35 1 71.5 6.5t68.5 14 57 19.5 37 22q-16 34-37 49t-47 15z"/><glyph glyph-name="uniFB67" unicode="ٹ" horiz-adv-x="1394" arabic-form="final" d="M1432 25q0-25-27-25h-20q-79 0-126 40-42 37-42 94 0 25 6 53-115-85-299-140-196-58-395-58-216 0-335 80Q86 144 86 265q0 123 105 301 3 2 14 2 26 0 43-32-63-104-63-189 0-92 105.5-147.5T577 144q108 0 268 28 156 28 245 63 76 29 104.5 60.5T1245 411q11 4 21 4 27 0 46-27-30-67-30-130 0-114 103-114h20q27 0 27-30V25zM712 914q0-29-1-50.5t-5-36.5l2-1q31 47 70.5 72t72.5 25q26 0 46-10t34.5-26 24-35.5T970 813q-21-51-50-83.5t-69.5-51-93.5-26-124-9.5l-101 89q32-5 61.5-7t52.5-2l15 45q0 56-1 98t-3.5 76-7 61-10.5 52l59 62q8-29 25-64.5t45-76.5l-4-5-55 24q3-41 3-81zm115-65q-44 0-80-34.5T677 722q35 1 71.5 6.5T817 743t57 19.5 37 21.5q-16 35-37 50t-47 15z"/><glyph glyph-name="uniFB68" unicode="ٹ" horiz-adv-x="527" d="M387 285Q364 167 287 83.5T122 0H-11q-26 0-26 25v89q0 30 26 30h49q209 0 258 102-17 79-92 151l76 182q90-143 107-294zM214 966q0-29-.5-50.5T209 879l2-1q31 47 70 72t73 25q25 0 45-10t35-26 24.5-35.5T472 865q-21-51-49.5-83.5t-69-51-94-26T135 695L35 783q32-4 61-6t53-2l14 45q0 56-.5 98t-3.5 76-7 61-10 52l59 62q8-29 25-64.5t45-76.5l-5-5-54 24q2-41 2-81zm115-65q-43 0-79-34.5T180 774q34 1 70.5 6.5T319 795t57 19.5 38 21.5q-16 35-37 50t-48 15z"/><glyph glyph-name="uniFB69" unicode="ٹ" horiz-adv-x="518" arabic-form="medial" d="M556 25q0-25-25-25h-21Q391 0 323 43q-58 36-63 91h-8q-13-58-77-98Q117 0 52 0h-63q-26 0-26 25v89q0 30 26 30H9q217 0 217 189v31q10 8 30 8 21 0 35-10v-32q0-112 47-151 44-35 172-35h21q25 0 25-30V25zM198 829q0-29-1-50.5t-4-36.5h1q31 46 70.5 71t72.5 25q26 0 46-10t34.5-26 24-35.5T456 728q-21-51-49.5-83.5T337 594t-94-26-124-10L19 647q31-5 60.5-6.5T132 639l15 44q0 56-1 98.5t-3.5 76-6.5 61-11 51.5l59 62q9-29 25.5-64.5T255 891l-5-5-55 24q3-41 3-81zm115-65q-44 0-80-34.5T163 638q35 1 71.5 6.5t68.5 14 57 19.5 38 22q-17 34-38 49t-47 15z"/><glyph glyph-name="uniFB6A" unicode="ڤ" horiz-adv-x="1495" arabic-form="isolated" d="M1394 406q0-156-60-313Q1133-11 536-11q-220 0-341 80Q86 143 86 265q0 123 105 301 3 2 14 2 26 0 43-32-63-104-63-189 0-92 106.5-147.5T584 144q284 0 488 24 173 21 212 47 33 63 37 160-67-52-186-52-102 0-172 52-11 67-11 114 0 212 166 343 276-64 276-426zm-91 100q0 55-62 111-65 58-146 58-62-51-62-169 39-40 126-40 92 0 144 40zm-72 724l-99-99-99 99 99 98zm118-201l-100-100-98 100 98 98zm-235 0l-100-100-100 100 100 98z"/><glyph glyph-name="uniFB6B" unicode="ڤ" horiz-adv-x="1465" arabic-form="final" d="M1503 25q0-25-27-25h-20q-164 0-293 93-61-54-177-78-133-26-391-26-260 0-391 80Q86 141 86 265q0 123 105 301 3 2 14 2 26 0 43-32-63-104-63-189 0-203 497-203 242 0 358 24-92 63-92 186 0 110 73.5 196.5T1227 683q160-118 160-284 0-125-118-221 82-34 187-34h20q27 0 27-30V25zm-208 350q0 88-97 147-129-25-169-171 10-38 57-86 45-45 77-58 63 20 100 71 32 45 32 97zm-27 771l-100-99-98 99 98 98zm117-201l-99-100-99 100 99 98zm-235 0l-99-100-100 100 100 98z"/><glyph glyph-name="uniFB6C" unicode="ڤ" horiz-adv-x="626" d="M527 406q0-158-57-301-52-38-193-71Q130 0-1 0h-10q-26 0-26 25v89q0 30 26 30H9q133 0 258 24 113 21 150 47 32 63 37 160-68-52-187-52-102 0-172 52-11 67-11 114 0 212 166 343 277-64 277-426zm-92 100q0 55-61 111-67 58-146 58-64-51-64-169 40-40 127-40 93 0 144 40zm-186 523l-99-100-100 100 100 98zm118 201l-100-99-98 99 98 98zm117-201l-99-100-99 100 99 98z"/><glyph glyph-name="uniFB6D" unicode="ڤ" horiz-adv-x="621" arabic-form="medial" d="M659 25q0-25-26-25h-20Q449 0 319 93 207 0 9 0h-20q-26 0-26 25v89q0 30 26 30H9q123 0 187 24-91 63-91 186 0 110 73 196.5T383 683q160-118 160-284 0-125-117-221 82-34 187-34h20q26 0 26-30V25zM452 375q0 88-97 147-130-25-170-171 10-38 58-86 44-45 76-58 64 20 100 71 33 45 33 97zm-31 771l-99-99-98 99 98 98zm118-201L439 845l-98 100 98 98zm-235 0L204 845 104 945l100 98z"/><glyph glyph-name="uniFB6E" unicode="ڦ" horiz-adv-x="1495" arabic-form="isolated" d="M1394 406q0-156-60-313Q1133-11 536-11q-220 0-341 80Q86 143 86 265q0 123 105 301 3 2 14 2 26 0 43-32-63-104-63-189 0-92 106.5-147.5T584 144q284 0 488 24 173 21 212 47 33 63 37 160-67-52-186-52-102 0-172 52-11 67-11 114 0 212 166 343 276-64 276-426zm-91 100q0 55-62 111-65 58-146 58-62-51-62-169 39-40 126-40 92 0 144 40zm42 727l-99-100-99 100 99 98zm-235 0l-99-100-101 100 101 98zm239-204l-100-100-98 100 98 98zm-235 0l-100-100-100 100 100 98z"/><glyph glyph-name="uniFB6F" unicode="ڦ" horiz-adv-x="1465" arabic-form="final" d="M1503 25q0-25-27-25h-20q-164 0-293 93-61-54-177-78-133-26-391-26-260 0-391 80Q86 141 86 265q0 123 105 301 3 2 14 2 26 0 43-32-63-104-63-189 0-203 497-203 242 0 358 24-92 63-92 186 0 110 73.5 196.5T1227 683q160-118 160-284 0-125-118-221 82-34 187-34h20q27 0 27-30V25zm-208 350q0 88-97 147-129-25-169-171 10-38 57-86 45-45 77-58 63 20 100 71 32 45 32 97zm90 773l-99-99-99 99 99 98zm-235 0l-99-99-100 99 100 98zm235-203l-99-100-99 100 99 98zm-235 0l-99-100-100 100 100 98z"/><glyph glyph-name="uniFB70" unicode="ڦ" horiz-adv-x="626" d="M527 406q0-158-57-301-52-38-193-71Q130 0-1 0h-10q-26 0-26 25v89q0 30 26 30H9q133 0 258 24 113 21 150 47 32 63 37 160-68-52-187-52-102 0-172 52-11 67-11 114 0 212 166 343 277-64 277-426zm-92 100q0 55-61 111-67 58-146 58-64-51-64-169 40-40 127-40 93 0 144 40zm-190 727l-99-100-100 100 100 98zm235 0l-99-100-98 100 98 98zm-231-204l-99-100-100 100 100 98zm235 0l-99-100-99 100 99 98z"/><glyph glyph-name="uniFB71" unicode="ڦ" horiz-adv-x="621" arabic-form="medial" d="M659 25q0-25-26-25h-20Q449 0 319 93 207 0 9 0h-20q-26 0-26 25v89q0 30 26 30H9q123 0 187 24-91 63-91 186 0 110 73 196.5T383 683q160-118 160-284 0-125-117-221 82-34 187-34h20q26 0 26-30V25zM452 375q0 88-97 147-130-25-170-171 10-38 58-86 44-45 76-58 64 20 100 71 33 45 33 97zm87 770l-100-99-98 99 98 99zm-235 0l-100-99-100 99 100 99zm235-200L439 845l-98 100 98 98zm-235 0L204 845 104 945l100 98z"/><glyph glyph-name="uniFB72" unicode="ڄ" horiz-adv-x="1045" arabic-form="isolated" d="M866 395q-77-1-155.5-20.5t-151-52.5T424 243.5 314.5 144t-73-114.5T215-95q0-78 40-140.5T365-341t166-65.5T739-429q40 0 80 2.5t77 7 68.5 11T1019-394l-99-117q-19-9-54-17t-76-14-86-9-84-3q-108 0-208 25t-176.5 74.5-122 121.5T68-166q0 106 45 195.5t120 162T403 319t196 90v4q-32 5-71 13.5t-77 18-70.5 18.5-51.5 15q-30 10-49.5 14.5T245 497q-9 0-18-4.5t-18.5-17-21-36T159 379q-11 0-28 4t-28 14l78 164q20 41 42 60t48 19q9 0 40.5-9t76.5-22.5 99-28.5 107.5-28.5T698 529t86-9q14 0 32.5 1t38.5 3 40 5 37 9zM685 61l-99-98-99 98 99 99zm0-204l-99-98-99 98 99 99z"/><glyph glyph-name="uniFB73" unicode="ڄ" horiz-adv-x="1045" arabic-form="final" d="M967 406q-46 0-84.5-4T804 390q0-62 12-108.5t39-77 71.5-45.5 109.5-15h20q14 0 20.5-6.5t6.5-23.5V25q0-25-27-25h-20q-65 0-119.5 14T823 61t-61.5 87.5T739 285q0 20 2 49.5t4 46.5q-98-20-193-65T382 208.5 261 68 215-95q0-78 40-140.5T365-341t166-65.5T739-429q80 0 166 10t183 25L987-511q-44-9-92.5-17T798-542t-93.5-9-84.5-3q-108 0-208 25t-176.5 74.5-122 121.5T68-166q0 106 45 195.5t120 162T403 319t196 90v4q-32 5-71 13.5t-77 18-70.5 18T329 477q-30 10-49.5 15t-34.5 5q-9 0-18-4.5t-18.5-17-21-36T159 379q-11 0-28 4t-28 14l78 164q20 41 42 60t48 19q9 0 40.5-9t76.5-22.5 99-28.5 107.5-28.5T698 529t86-9q18 0 48 2.5t64 7 69.5 11T1032 554zM642 53l-98-99-100 99 100 98zm0-203l-98-100-100 100 100 98z"/><glyph glyph-name="uniFB74" unicode="ڄ" horiz-adv-x="966" d="M823 181q-23 8-49.5 11.5T723 196q-41 0-106-22.5T463 112Q327 52 218 26T9 0h-20q-26 0-26 25v89q0 17 6 23.5t20 6.5H9q41 0 85.5 4.5T185 161t92 18 89 22q38 11 68.5 20t55.5 17 47 15.5 44 13.5v4q-17 4-43.5 18T481 323t-62 42.5-62 44.5q-43 34-72.5 54.5t-50 31.5-33 14-21.5 3q-16 0-37-22t-55-82q-13 2-26.5 9.5T38 436l89 159q23 39 43.5 52t48.5 13q15 0 35.5-8t53-29 79.5-56 114-89q57-44 104-76t93-52.5 95-30 110-9.5zM502-241l-99-99-98 99 98 99zm-3-203l-100-99-98 99 98 99z"/><glyph glyph-name="uniFB75" unicode="ڄ" horiz-adv-x="1139" arabic-form="medial" d="M726-243l-99-100-98 100 98 98zm451 268q0-25-25-25-355 0-355 262 0 30 .5 53t2.5 44q-19-13-49.5-34.5T682 276t-82.5-59-91.5-64Q396 77 270.5 38.5T-1 0h-10q-26 0-26 25v89q0 30 26 30h10q116 0 227.5 27.5T443 258q48 27 82.5 47t59 34 41.5 24 29 16v4q-12 0-29 2t-43 9-63 19.5-89 33.5q-207 84-220 84-36 0-86-124-28 0-56 21l76 164q38 82 92 82 31 0 142-49 38-17 68-30t54-23 44-17 38-14q144-50 259-50 90 0 248 36l-66-150q-58-2-99-5t-65-8q3-35 7.5-61t11-45.5 16.5-34 24-27.5q57-52 212-52h21q25 0 25-30V25zM726-444l-99-99-98 99 98 99z"/><glyph glyph-name="uniFB76" unicode="ڃ" horiz-adv-x="1045" arabic-form="isolated" d="M866 395q-77-1-155.5-20.5t-151-52.5T424 243.5 314.5 144t-73-114.5T215-95q0-78 40-140.5T365-341t166-65.5T739-429q40 0 80 2.5t77 7 68.5 11T1019-394l-99-117q-19-9-54-17t-76-14-86-9-84-3q-108 0-208 25t-176.5 74.5-122 121.5T68-166q0 106 45 195.5t120 162T403 319t196 90v4q-32 5-71 13.5t-77 18-70.5 18.5-51.5 15q-30 10-49.5 14.5T245 497q-9 0-18-4.5t-18.5-17-21-36T159 379q-11 0-28 4t-28 14l78 164q20 41 42 60t48 19q9 0 40.5-9t76.5-22.5 99-28.5 107.5-28.5T698 529t86-9q14 0 32.5 1t38.5 3 40 5 37 9zM802-5l-98-99-99 99 99 99zM567-5l-98-99-99 99 99 99z"/><glyph glyph-name="uniFB77" unicode="ڃ" horiz-adv-x="1045" arabic-form="final" d="M967 406q-46 0-84.5-4T804 390q0-62 12-108.5t39-77 71.5-45.5 109.5-15h20q14 0 20.5-6.5t6.5-23.5V25q0-25-27-25h-20q-65 0-119.5 14T823 61t-61.5 87.5T739 285q0 20 2 49.5t4 46.5q-98-20-193-65T382 208.5 261 68 215-95q0-78 40-140.5T365-341t166-65.5T739-429q80 0 166 10t183 25L987-511q-44-9-92.5-17T798-542t-93.5-9-84.5-3q-108 0-208 25t-176.5 74.5-122 121.5T68-166q0 106 45 195.5t120 162T403 319t196 90v4q-32 5-71 13.5t-77 18-70.5 18T329 477q-30 10-49.5 15t-34.5 5q-9 0-18-4.5t-18.5-17-21-36T159 379q-11 0-28 4t-28 14l78 164q20 41 42 60t48 19q9 0 40.5-9t76.5-22.5 99-28.5 107.5-28.5T698 529t86-9q18 0 48 2.5t64 7 69.5 11T1032 554zM759-40l-98-99-99 99 99 98zm-235 0l-98-99-99 99 99 98z"/><glyph glyph-name="uniFB78" unicode="ڃ" horiz-adv-x="966" d="M823 181q-23 8-49.5 11.5T723 196q-41 0-106-22.5T463 112Q327 52 218 26T9 0h-20q-26 0-26 25v89q0 17 6 23.5t20 6.5H9q41 0 85.5 4.5T185 161t92 18 89 22q38 11 68.5 20t55.5 17 47 15.5 44 13.5v4q-17 4-43.5 18T481 323t-62 42.5-62 44.5q-43 34-72.5 54.5t-50 31.5-33 14-21.5 3q-16 0-37-22t-55-82q-13 2-26.5 9.5T38 436l89 159q23 39 43.5 52t48.5 13q15 0 35.5-8t53-29 79.5-56 114-89q57-44 104-76t93-52.5 95-30 110-9.5zM616-242l-99-100-98 100 98 98zm-235 0l-99-100-99 100 99 98z"/><glyph glyph-name="uniFB79" unicode="ڃ" horiz-adv-x="1139" arabic-form="medial" d="M844-242l-99-100-99 100 99 98zm-235 0l-99-100-99 100 99 98zm568 267q0-25-25-25-355 0-355 262 0 30 .5 53t2.5 44q-19-13-49.5-34.5T682 276t-82.5-59-91.5-64Q396 77 270.5 38.5T-1 0h-10q-26 0-26 25v89q0 30 26 30h10q116 0 227.5 27.5T443 258q48 27 82.5 47t59 34 41.5 24 29 16v4q-12 0-29 2t-43 9-63 19.5-89 33.5q-207 84-220 84-36 0-86-124-28 0-56 21l76 164q38 82 92 82 31 0 142-49 38-17 68-30t54-23 44-17 38-14q144-50 259-50 90 0 248 36l-66-150q-58-2-99-5t-65-8q3-35 7.5-61t11-45.5 16.5-34 24-27.5q57-52 212-52h21q25 0 25-30V25z"/><glyph glyph-name="uniFB7A" unicode="چ" horiz-adv-x="1045" arabic-form="isolated" d="M866 395q-77-1-155.5-20.5t-151-52.5T424 243.5 314.5 144t-73-114.5T215-95q0-78 40-140.5T365-341t166-65.5T739-429q40 0 80 2.5t77 7 68.5 11T1019-394l-99-117q-19-9-54-17t-76-14-86-9-84-3q-108 0-208 25t-176.5 74.5-122 121.5T68-166q0 106 45 195.5t120 162T403 319t196 90v4q-32 5-71 13.5t-77 18-70.5 18.5-51.5 15q-30 10-49.5 14.5T245 497q-9 0-18-4.5t-18.5-17-21-36T159 379q-11 0-28 4t-28 14l78 164q20 41 42 60t48 19q9 0 40.5-9t76.5-22.5 99-28.5 107.5-28.5T698 529t86-9q14 0 32.5 1t38.5 3 40 5 37 9zM685-189l-99-98-99 98 99 100zM802 13l-98-99-99 99 99 99zm-235 0l-98-99-99 99 99 99z"/><glyph glyph-name="uniFB7B" unicode="چ" horiz-adv-x="1045" arabic-form="final" d="M967 406q-46 0-84.5-4T804 390q0-62 12-108.5t39-77 71.5-45.5 109.5-15h20q14 0 20.5-6.5t6.5-23.5V25q0-25-27-25h-20q-65 0-119.5 14T823 61t-61.5 87.5T739 285q0 20 2 49.5t4 46.5q-98-20-193-65T382 208.5 261 68 215-95q0-78 40-140.5T365-341t166-65.5T739-429q80 0 166 10t183 25L987-511q-44-9-92.5-17T798-542t-93.5-9-84.5-3q-108 0-208 25t-176.5 74.5-122 121.5T68-166q0 106 45 195.5t120 162T403 319t196 90v4q-32 5-71 13.5t-77 18-70.5 18T329 477q-30 10-49.5 15t-34.5 5q-9 0-18-4.5t-18.5-17-21-36T159 379q-11 0-28 4t-28 14l78 164q20 41 42 60t48 19q9 0 40.5-9t76.5-22.5 99-28.5 107.5-28.5T698 529t86-9q18 0 48 2.5t64 7 69.5 11T1032 554zM642-205l-98-99-100 99 100 98zM759-4l-98-99-99 99 99 99zM524-4l-98-99-99 99 99 99z"/><glyph glyph-name="uniFB7C" unicode="چ" horiz-adv-x="966" d="M823 181q-23 8-49.5 11.5T723 196q-41 0-106-22.5T463 112Q327 52 218 26T9 0h-20q-26 0-26 25v89q0 17 6 23.5t20 6.5H9q41 0 85.5 4.5T185 161t92 18 89 22q38 11 68.5 20t55.5 17 47 15.5 44 13.5v4q-17 4-43.5 18T481 323t-62 42.5-62 44.5q-43 34-72.5 54.5t-50 31.5-33 14-21.5 3q-16 0-37-22t-55-82q-13 2-26.5 9.5T38 436l89 159q23 39 43.5 52t48.5 13q15 0 35.5-8t53-29 79.5-56 114-89q57-44 104-76t93-52.5 95-30 110-9.5zM499-444l-100-99-98 99 98 99zm117 202l-99-100-98 100 98 98zm-235 0l-99-100-99 100 99 98z"/><glyph glyph-name="uniFB7D" unicode="چ" horiz-adv-x="1139" arabic-form="medial" d="M726-444l-99-99-98 99 98 99zm118 202l-99-100-99 100 99 98zm-235 0l-99-100-99 100 99 98zm568 267q0-25-25-25-355 0-355 262 0 30 .5 53t2.5 44q-19-13-49.5-34.5T682 276t-82.5-59-91.5-64Q396 77 270.5 38.5T-1 0h-10q-26 0-26 25v89q0 30 26 30h10q116 0 227.5 27.5T443 258q48 27 82.5 47t59 34 41.5 24 29 16v4q-12 0-29 2t-43 9-63 19.5-89 33.5q-207 84-220 84-36 0-86-124-28 0-56 21l76 164q38 82 92 82 31 0 142-49 38-17 68-30t54-23 44-17 38-14q144-50 259-50 90 0 248 36l-66-150q-58-2-99-5t-65-8q3-35 7.5-61t11-45.5 16.5-34 24-27.5q57-52 212-52h21q25 0 25-30V25z"/><glyph glyph-name="uniFB7E" unicode="ڇ" horiz-adv-x="1045" arabic-form="isolated" d="M866 395q-77-1-155.5-20.5t-151-52.5T424 243.5 314.5 144t-73-114.5T215-95q0-78 40-140.5T365-341t166-65.5T739-429q40 0 80 2.5t77 7 68.5 11T1019-394l-99-117q-19-9-54-17t-76-14-86-9-84-3q-108 0-208 25t-176.5 74.5-122 121.5T68-166q0 106 45 195.5t120 162T403 319t196 90v4q-32 5-71 13.5t-77 18-70.5 18.5-51.5 15q-30 10-49.5 14.5T245 497q-9 0-18-4.5t-18.5-17-21-36T159 379q-11 0-28 4t-28 14l78 164q20 41 42 60t48 19q9 0 40.5-9t76.5-22.5 99-28.5 107.5-28.5T698 529t86-9q14 0 32.5 1t38.5 3 40 5 37 9zm-64-556l-98-99-99 99 99 99zm-235 0l-98-99-99 99 99 99zM802 49l-98-98-99 98 99 99zm-235 0l-98-98-99 98 99 99z"/><glyph glyph-name="uniFB7F" unicode="ڇ" horiz-adv-x="1045" arabic-form="final" d="M967 406q-46 0-84.5-4T804 390q0-62 12-108.5t39-77 71.5-45.5 109.5-15h20q14 0 20.5-6.5t6.5-23.5V25q0-25-27-25h-20q-65 0-119.5 14T823 61t-61.5 87.5T739 285q0 20 2 49.5t4 46.5q-98-20-193-65T382 208.5 261 68 215-95q0-78 40-140.5T365-341t166-65.5T739-429q80 0 166 10t183 25L987-511q-44-9-92.5-17T798-542t-93.5-9-84.5-3q-108 0-208 25t-176.5 74.5-122 121.5T68-166q0 106 45 195.5t120 162T403 319t196 90v4q-32 5-71 13.5t-77 18-70.5 18T329 477q-30 10-49.5 15t-34.5 5q-9 0-18-4.5t-18.5-17-21-36T159 379q-11 0-28 4t-28 14l78 164q20 41 42 60t48 19q9 0 40.5-9t76.5-22.5 99-28.5 107.5-28.5T698 529t86-9q18 0 48 2.5t64 7 69.5 11T1032 554zM759-178l-98-99-99 99 99 99zm-235 0l-98-99-99 99 99 99zM759 33L661-67 562 33l99 98zm-235 0L426-67 327 33l99 98z"/><glyph glyph-name="uniFB80" unicode="ڇ" horiz-adv-x="966" d="M823 181q-23 8-49.5 11.5T723 196q-41 0-106-22.5T463 112Q327 52 218 26T9 0h-20q-26 0-26 25v89q0 17 6 23.5t20 6.5H9q41 0 85.5 4.5T185 161t92 18 89 22q38 11 68.5 20t55.5 17 47 15.5 44 13.5v4q-17 4-43.5 18T481 323t-62 42.5-62 44.5q-43 34-72.5 54.5t-50 31.5-33 14-21.5 3q-16 0-37-22t-55-82q-13 2-26.5 9.5T38 436l89 159q23 39 43.5 52t48.5 13q15 0 35.5-8t53-29 79.5-56 114-89q57-44 104-76t93-52.5 95-30 110-9.5zM616-449l-99-99-98 99 98 98zm-235 0l-99-99-99 99 99 98zm235 207l-99-100-98 100 98 98zm-235 0l-99-100-99 100 99 98z"/><glyph glyph-name="uniFB81" unicode="ڇ" horiz-adv-x="1139" arabic-form="medial" d="M844-242l-99-100-99 100 99 98zm-235 0l-99-100-99 100 99 98zm568 267q0-25-25-25-355 0-355 262 0 30 .5 53t2.5 44q-19-13-49.5-34.5T682 276t-82.5-59-91.5-64Q396 77 270.5 38.5T-1 0h-10q-26 0-26 25v89q0 30 26 30h10q116 0 227.5 27.5T443 258q48 27 82.5 47t59 34 41.5 24 29 16v4q-12 0-29 2t-43 9-63 19.5-89 33.5q-207 84-220 84-36 0-86-124-28 0-56 21l76 164q38 82 92 82 31 0 142-49 38-17 68-30t54-23 44-17 38-14q144-50 259-50 90 0 248 36l-66-150q-58-2-99-5t-65-8q3-35 7.5-61t11-45.5 16.5-34 24-27.5q57-52 212-52h21q25 0 25-30V25zM853-443l-99-99-99 99 99 99zm-235 0l-99-99-99 99 99 99z"/><glyph glyph-name="uniFB82" unicode="ڍ" horiz-adv-x="715" arabic-form="isolated" d="M628 310q0-80-54-228-56-35-154-62-113-31-218-31-61 0-117 18-4 71-4 94 0 39 15 132 15 4 24 4 14 0 27-9v-28q0-34 3-49 40-19 95-19 76 0 178 30 89 27 124 50 0 299-328 450l41 166q368-196 368-518zm-20-593L496-395 372-291l113 113zm-246-4L250-399 125-294l114 113z"/><glyph glyph-name="uniFB83" unicode="ڍ" horiz-adv-x="768" arabic-form="final" d="M805 25q0-25-26-25h-21Q651 0 581 209h-3q-11-76-41-140-54-28-158-54-109-26-175-26-63 0-119 18-4 71-4 94 0 39 15 132 15 4 24 4 14 0 27-9v-28q0-34 3-49 40-19 97-19 78 0 178 32 96 31 143 67-74 212-154 487l80 174q109-495 166-642 42-106 98-106h21q26 0 26-30V25zM608-283L496-395 372-291l113 113zm-246-4L250-399 125-294l114 113z"/><glyph glyph-name="uniFB84" unicode="ڌ" horiz-adv-x="715" arabic-form="isolated" d="M628 310q0-80-53-228-56-35-154-62-113-31-218-31-61 0-118 18-3 71-3 94 0 39 14 132 16 4 25 4 14 0 26-9v-28q0-34 4-49 40-19 95-19 75 0 177 30 90 27 125 50 0 299-328 450l41 166q367-196 367-518zm-144 786l-100-99-98 99 98 98zm-235 0l-100-99-100 99 100 98z"/><glyph glyph-name="uniFB85" unicode="ڌ" horiz-adv-x="768" arabic-form="final" d="M805 25q0-25-26-25h-21Q651 0 581 209h-3q-11-76-41-140-54-28-158-54-109-26-175-26-63 0-119 18-4 71-4 94 0 39 15 132 15 4 24 4 14 0 27-9v-28q0-34 3-49 40-19 97-19 78 0 178 32 96 31 143 67-74 212-154 487l80 174q109-495 166-642 42-106 98-106h21q26 0 26-30V25zM674 1096l-99-99-99 99 99 98zm-235 0l-99-99-100 99 100 98z"/><glyph glyph-name="uniFB86" unicode="ڎ" horiz-adv-x="715" arabic-form="isolated" d="M628 310q0-80-53-228-56-35-154-62-113-31-218-31-61 0-118 18-3 71-3 94 0 39 14 132 16 4 25 4 14 0 26-9v-28q0-34 4-49 40-19 95-19 75 0 177 30 90 27 125 50 0 299-328 450l41 166q367-196 367-518zm-262 987l-99-99-99 99 99 99zm118-201l-100-99-98 99 98 98zm-235 0l-100-99-100 99 100 98z"/><glyph glyph-name="uniFB87" unicode="ڎ" horiz-adv-x="768" arabic-form="final" d="M805 25q0-25-26-25h-21Q651 0 581 209h-3q-11-76-41-140-54-28-158-54-109-26-175-26-63 0-119 18-4 71-4 94 0 39 15 132 15 4 24 4 14 0 27-9v-28q0-34 3-49 40-19 97-19 78 0 178 32 96 31 143 67-74 212-154 487l80 174q109-495 166-642 42-106 98-106h21q26 0 26-30V25zM557 1297l-100-99-98 99 98 99zm117-201l-99-99-99 99 99 98zm-235 0l-99-99-100 99 100 98z"/><glyph glyph-name="uniFB88" unicode="ڈ" horiz-adv-x="715" arabic-form="isolated" d="M628 310q0-80-53-228-56-35-154-62-113-31-218-31-61 0-118 18-3 71-3 94 0 39 14 132 16 4 25 4 13 0 26-9v-28q0-34 4-49 40-19 95-19 75 0 177 30 90 27 125 50 0 299-328 450l41 166q367-196 367-518zm-371 920q0-29-.5-50.5T252 1143l2-1q31 47 70 72t73 25q25 0 45-10t35-26 24.5-35.5T515 1129q-21-51-49.5-83.5t-69-50.5-94-26T178 959l-100 89q32-5 61-7t53-2l14 45q0 56-.5 98t-3.5 76-7 61.5-10 51.5l59 62q8-29 25-64.5t45-76.5l-5-5-54 24q2-41 2-81zm115-65q-43 0-79-34.5t-70-91.5q34 0 70.5 5.5T362 1059t57 20 38 22q-16 34-37 49t-48 15z"/><glyph glyph-name="uniFB89" unicode="ڈ" horiz-adv-x="768" arabic-form="final" d="M805 25q0-25-26-25h-21Q651 0 581 209h-3q-11-76-41-140-54-28-158-54-109-26-175-26-63 0-119 18-4 71-4 94 0 39 15 132 15 4 24 4 14 0 27-9v-28q0-34 3-49 40-19 97-19 78 0 178 32 96 31 143 67-74 212-154 487l80 174q109-495 166-642 42-106 98-106h21q26 0 26-30V25zM384 1257q0-29-.5-50.5T379 1171l2-1q31 46 70 71t73 25q25 0 45-10t35-26 24.5-35.5T642 1156q-21-51-49.5-83.5t-69-50.5-94-26-124.5-9l-100 88q32-5 61-6.5t53-1.5l14 44q0 56-.5 98.5t-3.5 76-7 61-11 51.5l60 62q8-29 25-64.5t45-76.5l-5-4-54 23q2-41 2-81zm115-64q-44 0-80-35t-69-92q34 1 70.5 6.5t68.5 14 57 19.5 38 22q-17 34-37.5 49.5T499 1193z"/><glyph glyph-name="uniFB8A" unicode="ژ" horiz-adv-x="615" arabic-form="isolated" d="M388 431q29-42 55-91.5t46.5-97.5 34.5-89.5T543 86q-5-70-24.5-142t-55-147T375-353.5 248-506q-34 0-71 5.5t-71 15-62.5 21T0-440q109 53 190 112.5T327-209t86.5 113T452 0q-3 25-11 55t-23.5 61.5-39 64.5-55.5 63zm69 480l-99-99-98 99 98 98zm118-201l-99-100-99 100 99 98zm-235 0l-99-100-101 100 101 98z"/><glyph glyph-name="uniFB8B" unicode="ژ" horiz-adv-x="686" arabic-form="final" d="M404 431l94-146q50-76 93.5-108.5T677 144h21q14 0 20-6.5t6-23.5V25q0-25-26-25h-21q-24 0-51.5 12T566 52q-11-84-33.5-156.5t-60-141-93-139T248-534q-34 0-71 5.5T106-514t-62.5 21T0-468q121 57 209 123t147 130.5T445.5-94 483 0q-8 59-40.5 119T342 244zm83 480l-99-99-98 99 98 98zm118-201l-99-100-99 100 99 98zm-235 0l-99-100-101 100 101 98z"/><glyph glyph-name="uniFB8C" unicode="ڑ" horiz-adv-x="615" arabic-form="isolated" d="M388 431q29-42 55-91.5t46.5-97.5 34.5-89.5T543 86q-5-70-24.5-142t-55-147T375-353.5 248-506q-34 0-71 5.5t-71 15-62.5 21T0-440q109 53 190 112.5T327-209t86.5 113T452 0q-3 25-11 55t-23.5 61.5-39 64.5-55.5 63zm-94 471q0-29-1-50.5t-4-36.5l2-1q31 47 70 72t73 25q25 0 45-10t34.5-26 24.5-35.5 14-38.5q-21-51-49.5-83.5t-69-50.5-94-26T215 631l-100 89q32-5 61-6.5t53-1.5l14 44q0 56-1 98t-3.5 76-6.5 61.5-11 51.5l60 62q8-29 25-64.5t45-76.5l-5-5-54 24q2-41 2-81zm115-65q-44 0-80-34.5T260 711q34 1 70.5 6t68.5 14 57 20 38 22q-17 34-38 49t-47 15z"/><glyph glyph-name="uniFB8D" unicode="ڑ" horiz-adv-x="686" arabic-form="final" d="M404 431l94-146q50-76 93.5-108.5T677 144h21q14 0 20-6.5t6-23.5V25q0-25-26-25h-21q-24 0-51.5 12T566 52q-11-84-33.5-156.5t-60-141-93-139T248-534q-34 0-71 5.5T106-514t-62.5 21T0-468q121 57 209 123t147 130.5T445.5-94 483 0q-8 59-40.5 119T342 244zm-82 462q0-29-1-50.5t-5-36.5l2-1q31 47 70 72t73 25q25 0 45.5-10t35-26 24-35.5T579 792q-21-51-49.5-83.5t-69-50.5-94-26T242 622l-100 89q32-5 61-7t53-2l15 45q0 56-1 98t-4 76-7 61-10 52l59 62q8-29 25-64.5t45-76.5l-4-5-55 24q3-41 3-81zm114-65q-43 0-79-34.5T287 701q35 1 71 6.5t68 14.5 57 20 38 21q-16 35-37 50t-48 15z"/><glyph glyph-name="uniFB8E" unicode="ک" horiz-adv-x="1663" arabic-form="isolated" d="M1293 179q-38-50-99.5-86t-151-59-209-34T558-11q-124 0-213.5 21.5T198 70t-84.5 88T86 265q0 70 29 145.5T191 566q3 2 14 2 9 0 22.5-10t20.5-22q-15-26-27-53t-19.5-52-12-46.5T185 347q0-45 27.5-82.5t80-64.5T422 158.5 599 144q551 0 653 136-3 42-20.5 83t-61 85.5T1054 544 868 657l22 207q41 31 102.5 70t131 81.5T1267 1100t142.5 78.5 127 65 96.5 41.5l-73-176q-26-10-76-34.5t-110.5-56-126-68-125-71.5-107-65.5T944 763q95-53 163-102.5t113-95.5 70-89.5 35-87.5q-3-24-6-50.5t-7-54.5-9-55-10-49z"/><glyph glyph-name="uniFB8F" unicode="ک" horiz-adv-x="1773" arabic-form="final" d="M1316 179q-28-35-59.5-63T1184 67t-94-36T965.5 6.5 801-7t-213-4q-135 0-230 21.5T202.5 70 114 158 86 265q0 70 29 145.5T191 566q3 2 14 2 9 0 22.5-10t20.5-22q-15-26-27-53t-19.5-52-12-46.5T185 347q0-45 28-82.5t83-64.5 137.5-41.5T625 144q153 0 264.5 8t189 25.5T1204 220t75 60q-3 42-21 83t-61 85.5-116.5 95.5T894 657l23 207q42 31 102.5 70t130 81.5 144 84.5 142.5 78.5 126.5 65 96.5 41.5l-73-176q-26-10-75.5-34.5t-110-56-126.5-68-125-71.5-107-65.5-71-50.5q83-51 156.5-102.5T1278 546t164-144.5T1640 210q32-32 65-49t59-17h20q15 0 21-6.5t6-23.5V25q0-25-27-25h-20q-23 0-44 4t-45 17-53.5 38-71 66.5-96.5 103T1325 375l-4-3q5-23 7-44.5t2-38.5q0-27-4.5-56.5T1316 179z"/><glyph glyph-name="uniFB90" unicode="ک" horiz-adv-x="828" d="M726 1109q-26-10-75.5-34.5t-110-56-126.5-68T288.5 879t-107-65.5T111 763q94-53 162-102.5T386 565t70-89.5 35-87.5q-2-24-5.5-50.5T478 283t-9-55-9-49q-49-51-97.5-85t-103-55T144 9 9 0h-20q-26 0-26 25v89q0 17 6 23.5t20 6.5h52q142 0 235 35.5T419 280q-3 42-21 83t-61 85.5T220.5 544 34 657l22 207q42 31 103 70t130.5 81.5 144 84.5 142.5 78.5 126.5 65T799 1285z"/><glyph glyph-name="uniFB91" unicode="ک" horiz-adv-x="932" arabic-form="medial" d="M971 25q0-25-27-25h-20q-23 0-44 4t-45 17-53.5 38-71 66.5-96.5 103T485 375l-4-3q5-23 7-44.5t2-38.5q0-27-4.5-56.5T476 179q-47-51-95.5-85T278 39 162 9 25 0h-36q-26 0-26 25v89q0 17 6 23.5t20 6.5h73q141 0 234 35.5T439 280q-3 42-21 83t-61 85.5T240.5 544 54 657l23 207q42 31 102.5 70t130 81.5 144 84.5 142.5 78.5 126.5 65T819 1285l-73-176q-26-10-75.5-34.5t-109.5-56-126.5-68T309 879t-107-65.5-71-50.5q83-51 156.5-102.5T438 546t164-144.5T800 210q32-32 65-49t59-17h20q15 0 21-6.5t6-23.5V25z"/><glyph glyph-name="uniFB92" unicode="گ" horiz-adv-x="1663" arabic-form="isolated" d="M935 1052q59 30 122 58.5t125 54.5 120.5 48.5 108.5 40 89 29.5 64 17l-61-100q-16-4-54.5-17.5t-90.5-33-113-44-121-48.5-113.5-47-91.5-42zm590-110q-31-6-78.5-19.5t-103.5-31-116-37.5-114-40-99-39-72-33q101-46 169-91t113-89 68-87 33-87q-2-23-5-49.5t-7-55-9-55.5-11-49q-38-50-99.5-86t-151-59-209-34T558-11q-124 0-213.5 21.5T198 70t-84.5 88T86 265q0 70 29 145.5T191 566q3 2 14 2 9 0 22.5-10t20.5-22q-15-26-27-53t-19.5-52-12-46.5T185 347q0-45 27.5-82.5t80-64.5T422 158.5 599 144q551 0 653 136-2 37-22 80.5t-65 91-117.5 96T868 642l19 200q95 43 203 85.5t210.5 79.5 190 65 142.5 40z"/><glyph glyph-name="uniFB93" unicode="گ" horiz-adv-x="1773" arabic-form="final" d="M1811 25q0-25-27-25h-21q-23 0-43.5 4T1675 21t-54 38-71 66.5-96 103T1325 375l-4-3q5-23 6.5-44.5t1.5-38.5q0-27-4-56.5t-9-53.5q-28-35-59.5-63T1184 67t-94-36T965.5 6.5 801-7t-213-4q-135 0-230 21.5T202.5 70 114 158 86 265q0 70 29 145.5T191 566q3 2 14 2 9 0 22.5-10t20.5-22q-15-26-27-53t-19.5-52-12-46.5T185 347q0-45 28-82.5t83-64.5 137.5-41.5T625 144q153 0 264.5 8t189 25.5T1204 220t75 60q-3 37-23.5 80.5t-65.5 91-118 96T892 642l19 200q64 28 140 57.5t155.5 57.5 158 53.5 148 47 126 37 91.5 23.5l-119-171q-30-6-82-20t-115-32.5-130-39-129-41-112-39.5-76-33q80-41 154-88.5t152.5-109 167.5-143T1641 210q32-32 65-49t57-17h21q14 0 20.5-6.5t6.5-23.5V25zM962 1043q58 30 125.5 59.5t136 55.5 135 50 123.5 42.5 101 31.5 69 18l-80-106q-16-3-57-17.5t-98-34.5-123.5-44-131.5-49-122.5-48-95.5-42z"/><glyph glyph-name="uniFB94" unicode="گ" horiz-adv-x="828" d="M691 942q-31-6-78.5-19.5t-103.5-31T393.5 854t-114-40-99.5-39-71-33q100-46 168.5-91t113-89 67.5-87 33-87q-2-24-5.5-50.5T478 283t-9-55-9-49q-49-51-97.5-85t-103-55T144 9 9 0h-20q-26 0-26 25v89q0 17 6 23.5t20 6.5h52q142 0 235 35.5T419 280q-2 37-22.5 80.5t-65.5 91-117.5 96T34 642l18 200q64 28 134 56.5t141 56 140 52.5 130.5 45.5 113.5 36 88 23.5zm-590 110q60 30 122.5 58.5t124 54.5 120 48.5 108.5 40 89.5 29.5 64.5 17l-62-100q-15-4-53.5-17.5t-91-33-113-44T290 1057t-114-47-92-42z"/><glyph glyph-name="uniFB95" unicode="گ" horiz-adv-x="932" arabic-form="medial" d="M71 842q64 28 140 57.5T366.5 957t158 53.5 148 47 126 37T890 1118L771 947q-30-6-82-20t-114.5-32.5-130-39-129-41-112-39.5-76.5-33q80-41 154.5-88.5t152.5-109 167.5-143T802 210q32-32 64.5-49t57.5-17h20q15 0 21-6.5t6-23.5V25q0-25-27-25h-20q-23 0-44 4t-45 17-53.5 38-71 66.5-96.5 103T485 375l-4-3q5-23 7-44.5t2-38.5q0-27-4.5-56.5T476 179q-47-51-95.5-85T278 39 162 9 25 0h-36q-26 0-26 25v89q0 17 6 23.5t20 6.5h73q141 0 234 35.5T439 280q-3 37-23.5 80.5t-65.5 91-117.5 96T52 642zm51 201q58 30 125.5 59.5t136 55.5 135 50 123.5 42.5 101 31.5 69 18l-80-106q-16-3-57-17.5t-98-34.5-123.5-44-131.5-49-122-48-95-42z"/><glyph glyph-name="uniFB96" unicode="ڳ" horiz-adv-x="1663" arabic-form="isolated" d="M935 1052q59 30 122 58.5t125 54.5 120.5 48.5 108.5 40 89 29.5 64 17l-61-100q-16-4-54.5-17.5t-90.5-33-113-44-121-48.5-113.5-47-91.5-42zm590-110q-31-6-78.5-19.5t-103.5-31-116-37.5-114-40-99-39-72-33q101-46 169-91t113-89 68-87 33-87q-2-23-5-49.5t-7-55-9-55.5-11-49q-38-50-99.5-86t-151-59-209-34T558-11q-124 0-213.5 21.5T198 70t-84.5 88T86 265q0 70 29 145.5T191 566q3 2 14 2 9 0 22.5-10t20.5-22q-15-26-27-53t-19.5-52-12-46.5T185 347q0-45 27.5-82.5t80-64.5T422 158.5 599 144q551 0 653 136-2 37-22 80.5t-65 91-117.5 96T868 642l19 200q95 43 203 85.5t210.5 79.5 190 65 142.5 40zM738-237l-99-99-98 99 98 99zm-2-207l-100-99-98 99 98 99z"/><glyph glyph-name="uniFB97" unicode="ڳ" horiz-adv-x="1773" arabic-form="final" d="M1811 25q0-25-27-25h-21q-23 0-43.5 4T1675 21t-54 38-71 66.5-96 103T1325 375l-4-3q5-23 6.5-44.5t1.5-38.5q0-27-4-56.5t-9-53.5q-28-35-59.5-63T1184 67t-94-36T965.5 6.5 801-7t-213-4q-135 0-230 21.5T202.5 70 114 158 86 265q0 70 29 145.5T191 566q3 2 14 2 9 0 22.5-10t20.5-22q-15-26-27-53t-19.5-52-12-46.5T185 347q0-45 28-82.5t83-64.5 137.5-41.5T625 144q153 0 264.5 8t189 25.5T1204 220t75 60q-3 37-23.5 80.5t-65.5 91-118 96T892 642l19 200q64 28 140 57.5t155.5 57.5 158 53.5 148 47 126 37 91.5 23.5l-119-171q-30-6-82-20t-115-32.5-130-39-129-41-112-39.5-76-33q80-41 154-88.5t152.5-109 167.5-143T1641 210q32-32 65-49t57-17h21q14 0 20.5-6.5t6.5-23.5V25zM962 1043q58 30 125.5 59.5t136 55.5 135 50 123.5 42.5 101 31.5 69 18l-80-106q-16-3-57-17.5t-98-34.5-123.5-44-131.5-49-122.5-48-95.5-42zM738-237l-99-99-98 99 98 99zm-2-207l-100-99-98 99 98 99z"/><glyph glyph-name="uniFB98" unicode="ڳ" horiz-adv-x="828" d="M691 942q-31-6-78.5-19.5t-103.5-31T393.5 854t-114-40-99.5-39-71-33q100-46 168.5-91t113-89 67.5-87 33-87q-2-24-5.5-50.5T478 283t-9-55-9-49q-49-51-97.5-85t-103-55T144 9 9 0h-20q-26 0-26 25v89q0 17 6 23.5t20 6.5h52q142 0 235 35.5T419 280q-2 37-22.5 80.5t-65.5 91-117.5 96T34 642l18 200q64 28 134 56.5t141 56 140 52.5 130.5 45.5 113.5 36 88 23.5zm-590 110q60 30 122.5 58.5t124 54.5 120 48.5 108.5 40 89.5 29.5 64.5 17l-62-100q-15-4-53.5-17.5t-91-33-113-44T290 1057t-114-47-92-42zM366-237l-100-99-98 99 98 99zm-3-207l-99-99-99 99 99 99z"/><glyph glyph-name="uniFB99" unicode="ڳ" horiz-adv-x="932" arabic-form="medial" d="M71 842q64 28 140 57.5T366.5 957t158 53.5 148 47 126 37T890 1118L771 947q-30-6-82-20t-114.5-32.5-130-39-129-41-112-39.5-76.5-33q80-41 154.5-88.5t152.5-109 167.5-143T802 210q32-32 64.5-49t57.5-17h20q15 0 21-6.5t6-23.5V25q0-25-27-25h-20q-23 0-44 4t-45 17-53.5 38-71 66.5-96.5 103T485 375l-4-3q5-23 7-44.5t2-38.5q0-27-4.5-56.5T476 179q-47-51-95.5-85T278 39 162 9 25 0h-36q-26 0-26 25v89q0 17 6 23.5t20 6.5h73q141 0 234 35.5T439 280q-3 37-23.5 80.5t-65.5 91-117.5 96T52 642zm51 201q58 30 125.5 59.5t136 55.5 135 50 123.5 42.5 101 31.5 69 18l-80-106q-16-3-57-17.5t-98-34.5-123.5-44-131.5-49-122-48-95-42zM384-237l-99-99-99 99 99 99zm-3-207l-99-99-99 99 99 99z"/><glyph glyph-name="uniFB9A" unicode="ڱ" horiz-adv-x="1663" arabic-form="isolated" d="M935 1052q59 30 122 58.5t125 54.5 120.5 48.5 108.5 40 89 29.5 64 17l-61-100q-16-4-54.5-17.5t-90.5-33-113-44-121-48.5-113.5-47-91.5-42zm590-110q-31-6-78.5-19.5t-103.5-31-116-37.5-114-40-99-39-72-33q101-46 169-91t113-89 68-87 33-87q-2-23-5-49.5t-7-55-9-55.5-11-49q-38-50-99.5-86t-151-59-209-34T558-11q-124 0-213.5 21.5T198 70t-84.5 88T86 265q0 70 29 145.5T191 566q3 2 14 2 9 0 22.5-10t20.5-22q-15-26-27-53t-19.5-52-12-46.5T185 347q0-45 27.5-82.5t80-64.5T422 158.5 599 144q551 0 653 136-2 37-22 80.5t-65 91-117.5 96T868 642l19 200q95 43 203 85.5t210.5 79.5 190 65 142.5 40zm-348 305l-99 99 99 99 99-99zm-236 0l-98 99 98 99 100-99z"/><glyph glyph-name="uniFB9B" unicode="ڱ" horiz-adv-x="1773" arabic-form="final" d="M1811 25q0-25-27-25h-21q-23 0-43.5 4T1675 21t-54 38-71 66.5-96 103T1325 375l-4-3q5-23 6.5-44.5t1.5-38.5q0-27-4-56.5t-9-53.5q-28-35-59.5-63T1184 67t-94-36T965.5 6.5 801-7t-213-4q-135 0-230 21.5T202.5 70 114 158 86 265q0 70 29 145.5T191 566q3 2 14 2 9 0 22.5-10t20.5-22q-15-26-27-53t-19.5-52-12-46.5T185 347q0-45 28-82.5t83-64.5 137.5-41.5T625 144q153 0 264.5 8t189 25.5T1204 220t75 60q-3 37-23.5 80.5t-65.5 91-118 96T892 642l19 200q64 28 140 57.5t155.5 57.5 158 53.5 148 47 126 37 91.5 23.5l-119-171q-30-6-82-20t-115-32.5-130-39-129-41-112-39.5-76-33q80-41 154-88.5t152.5-109 167.5-143T1641 210q32-32 65-49t57-17h21q14 0 20.5-6.5t6.5-23.5V25zM962 1043q58 30 125.5 59.5t136 55.5 135 50 123.5 42.5 101 31.5 69 18l-80-106q-16-3-57-17.5t-98-34.5-123.5-44-131.5-49-122.5-48-95.5-42zm224 204l-99 99 99 99 99-99zm-235 0l-99 99 99 99 99-99z"/><glyph glyph-name="uniFB9C" unicode="ڱ" horiz-adv-x="828" d="M691 942q-31-6-78.5-19.5t-103.5-31T393.5 854t-114-40-99.5-39-71-33q100-46 168.5-91t113-89 67.5-87 33-87q-2-24-5.5-50.5T478 283t-9-55-9-49q-49-51-97.5-85t-103-55T144 9 9 0h-20q-26 0-26 25v89q0 17 6 23.5t20 6.5h52q142 0 235 35.5T419 280q-2 37-22.5 80.5t-65.5 91-117.5 96T34 642l18 200q64 28 134 56.5t141 56 140 52.5 130.5 45.5 113.5 36 88 23.5zm-590 110q60 30 122.5 58.5t124 54.5 120 48.5 108.5 40 89.5 29.5 64.5 17l-62-100q-15-4-53.5-17.5t-91-33-113-44T290 1057t-114-47-92-42zm256 195l-98 99 98 99 100-99zm-235 0l-98 99 98 99 100-99z"/><glyph glyph-name="uniFB9D" unicode="ڱ" horiz-adv-x="932" arabic-form="medial" d="M71 842q64 28 140 57.5T366.5 957t158 53.5 148 47 126 37T890 1118L771 947q-30-6-82-20t-114.5-32.5-130-39-129-41-112-39.5-76.5-33q80-41 154.5-88.5t152.5-109 167.5-143T802 210q32-32 64.5-49t57.5-17h20q15 0 21-6.5t6-23.5V25q0-25-27-25h-20q-23 0-44 4t-45 17-53.5 38-71 66.5-96.5 103T485 375l-4-3q5-23 7-44.5t2-38.5q0-27-4.5-56.5T476 179q-47-51-95.5-85T278 39 162 9 25 0h-36q-26 0-26 25v89q0 17 6 23.5t20 6.5h73q141 0 234 35.5T439 280q-3 37-23.5 80.5t-65.5 91-117.5 96T52 642zm51 201q58 30 125.5 59.5t136 55.5 135 50 123.5 42.5 101 31.5 69 18l-80-106q-16-3-57-17.5t-98-34.5-123.5-44-131.5-49-122-48-95-42zm254 204l-99 99 99 99 99-99zm-235 0l-99 99 99 99 99-99z"/><glyph glyph-name="uniFB9E" unicode="ں" horiz-adv-x="1183" arabic-form="isolated" d="M1081 62q-4-74-58-207-86-85-245-150-177-72-346-72-160 0-257 75Q72-211 72-70q0 165 141 412 32 0 62-30-37-62-63-153-22-84-22-140 0-106 73-169t206-62q150 1 294 58T1009-2q0 60-30 181-32 130-75 214l89 192q89-241 89-480 0-23-1-43z"/><glyph glyph-name="uniFB9F" unicode="ں" horiz-adv-x="1157" arabic-form="final" d="M1194 25q0-25-27-25h-21q-53 0-93 43l-3-4q26-68 26-153-15-92-62-207-86-85-245-150-177-72-346-72-160 0-257 76Q63-387 63-246q0 165 141 412 32 0 62-29-37-63-63-154-22-84-22-140 0-106 73-169t206-62q315 2 543 210-24 233-147 422l63 187q129-287 227-287h21q27 0 27-30V25z"/><glyph glyph-name="uniFBA0" unicode="ڻ" horiz-adv-x="1183" arabic-form="isolated" d="M1081 62q-4-74-58-207-86-85-245-150-177-72-346-72-160 0-257 75Q72-211 72-70q0 165 141 412 32 0 62-30-37-62-63-153-22-84-22-140 0-106 73-169t206-62q150 1 294 58T1009-2q0 60-30 181-32 130-75 214l89 192q89-241 89-480 0-23-1-43zM507 867q0-29-.5-50.5T502 781l2-1q31 46 70 71t73 25q25 0 45-10t35-26 24.5-35.5T765 766q-21-51-49.5-83.5t-69-50.5-94-25.5T428 597l-100 88q32-4 61-6t53-2l14 45q0 55-.5 97.5t-3.5 76-7 61-10 52.5l59 61q8-29 25-64.5t45-76.5l-5-4-54 23q2-41 2-81zm115-64q-43 0-79-35t-70-92q34 1 70.5 6.5t68.5 14 57 19.5 38 22q-16 35-37 50t-48 15z"/><glyph glyph-name="uniFBA1" unicode="ڻ" horiz-adv-x="1157" arabic-form="final" d="M1194 25q0-25-27-25h-21q-53 0-93 43l-3-4q26-68 26-153-15-92-62-207-86-85-245-150-177-72-346-72-160 0-257 76Q63-387 63-246q0 165 141 412 32 0 62-29-37-63-63-154-22-84-22-140 0-106 73-169t206-62q315 2 543 210-24 233-147 422l63 187q129-287 227-287h21q27 0 27-30V25zM499 691q0-30-.5-51t-4.5-36l2-1q31 47 70 72t73 25q25 0 45-10t35-26 24.5-35.5T757 589q-21-51-49.5-83t-69-50.5-94-26T420 420l-100 88q32-4 61-6t53-2l14 45q0 55-.5 97.5T444 719t-7 61-10 52l59 62q8-29 25-64.5t45-76.5l-5-5-54 24q2-41 2-81zm115-65q-44 0-80-34.5T465 499q34 1 70.5 6.5t68.5 14 57 19.5 38 22q-16 35-37 50t-48 15z"/><glyph glyph-name="uniFBA2" unicode="ڻ" horiz-adv-x="527" d="M387 285Q364 167 287 83.5T122 0H-11q-26 0-26 25v89q0 30 26 30h49q209 0 258 102-17 79-92 151l76 182q90-143 107-294zM214 966q0-29-.5-50.5T209 879l2-1q31 47 70 72t73 25q25 0 45-10t35-26 24.5-35.5T472 865q-21-51-49.5-83.5t-69-51-94-26T135 695L35 783q32-4 61-6t53-2l14 45q0 56-.5 98t-3.5 76-7 61-10 52l59 62q8-29 25-64.5t45-76.5l-5-5-54 24q2-41 2-81zm115-65q-43 0-79-34.5T180 774q34 1 70.5 6.5T319 795t57 19.5 38 21.5q-16 35-37 50t-48 15z"/><glyph glyph-name="uniFBA3" unicode="ڻ" horiz-adv-x="518" arabic-form="medial" d="M556 25q0-25-25-25h-21Q391 0 323 43q-58 36-63 91h-8q-13-58-77-98Q117 0 52 0h-63q-26 0-26 25v89q0 30 26 30H9q217 0 217 189v31q10 8 30 8 21 0 35-10v-32q0-112 47-151 44-35 172-35h21q25 0 25-30V25zM198 829q0-29-1-50.5t-4-36.5h1q31 46 70.5 71t72.5 25q26 0 46-10t34.5-26 24-35.5T456 728q-21-51-49.5-83.5T337 594t-94-26-124-10L19 647q31-5 60.5-6.5T132 639l15 44q0 56-1 98.5t-3.5 76-6.5 61-11 51.5l59 62q9-29 25.5-64.5T255 891l-5-5-55 24q3-41 3-81zm115-65q-44 0-80-34.5T163 638q35 1 71.5 6.5t68.5 14 57 19.5 38 22q-17 34-38 49t-47 15z"/><glyph glyph-name="uniFBA4" unicode="ۀ" horiz-adv-x="661" arabic-form="isolated" d="M578 250q-20-94-76-193-119-68-223-68-83 0-139 42-59 46-59 124 0 149 175 479 317-158 322-384zm-80-58q0 64-55 136-67 85-185 138l-49-110q-37-85-37-139 0-36 39.5-60.5T318 132q45 0 100.5 18.5T498 192zm-61 734q-25-5-62-16.5t-77-26-79-31.5-68-33v66q18 10 43 20.5t55 17.5v4q-81 29-81 103 84 129 168 129 55 0 90-58l-53-42q-20 18-37 26t-31 8q-38 0-80-57 30-65 104-68 26 8 58.5 17.5T459 1002z"/><glyph glyph-name="uniFBA5" unicode="ۀ" horiz-adv-x="759" arabic-form="final" d="M796 25q0-25-26-25h-21Q580 0 531 235q-23-37-94-108-147 0-192 6-115 15-173 72 12 100 71 215 148 106 308 149l-32 153 75 142q75-460 136-610 44-110 113-110h27q26 0 26-30V25zM526 251q-37 138-55 230-220-61-292-169 21-23 85.5-42T384 251h142zm39 784q-26-5-62.5-16t-77-26-79-31.5T279 928v66q18 10 42.5 20.5T376 1032v4q-81 29-81 104 85 128 169 128 54 0 90-58l-54-42q-19 18-36.5 26.5T433 1203q-38 0-80-58 30-65 103-67 27 7 59.5 16.5T587 1111z"/><glyph glyph-name="uniFBA6" unicode="ہ" horiz-adv-x="661" arabic-form="isolated" d="M578 250q-20-94-76-193-119-68-223-68-83 0-139 42-59 46-59 124 0 149 175 479 317-158 322-384zm-80-58q0 64-55 136-67 85-185 138l-49-110q-37-85-37-139 0-36 39.5-60.5T318 132q45 0 100.5 18.5T498 192z"/><glyph glyph-name="uniFBA7" unicode="ہ" horiz-adv-x="760" arabic-form="final" d="M798 25q0-25-27-25h-28q-60 0-106.5 17t-82 54.5T492 170t-47 151q-69-16-126-44.5T204 209q-30-20-59-49.5T100 101q-18 0-23 10l46 170q36 33 74.5 62.5T282 398t100 46 120 38q15-88 31.5-151T576 226t65-62 100-20h30q15 0 21-6.5t6-23.5V25z"/><glyph glyph-name="uniFBA8" unicode="ہ" horiz-adv-x="420" d="M276-85q-146-77-146-163 0-11 2-19 21 17 45 17 36 0 61.5-25.5T264-336q0-37-25.5-61.5T177-422q-39 0-71 30-39 37-39 101 0 136 157 235zm54 370Q307 161 224 83 135 0 9 0h-20q-26 0-26 25v89q0 30 26 30h49q153 0 201 102-15 79-91 151l76 182q91-143 106-294z"/><glyph glyph-name="uniFBA9" unicode="ہ" horiz-adv-x="811" arabic-form="medial" d="M510-148q0 35 5 72.5T531 5q48 69 114 104t147 35h31q15 0 20.5-6.5T849 114V25q0-25-26-25h-11q-56 0-97-11.5t-70.5-29T597-81t-27-46q0-20 7.5-51.5t29-67.5 58.5-73.5 95-68.5l-47-143q-233 80-347.5 213.5T251-16v57q-36-19-95-30T0 0h-11q-26 0-26 25v89q0 17 6 23.5t20 6.5H0q119 0 195 13t117 39q35 24 60 56.5t40 76.5q22 0 37-7.5t21-25.5q-24-82-62-138t-88-91q0-115 51-205t160-153l2 3q-16 32-19.5 67t-3.5 73z"/><glyph glyph-name="uniFBAA" unicode="ھ" horiz-adv-x="1158" arabic-form="isolated" d="M1081 246q0-23-31-90-34-77-76-133-64 2-203 28-146 29-196 52L196-53q-34 21-66 47.5T68 53l380 123q-56 39-56 152 0 79 41 155 43 77 99 103l-74 34 35 173q182-120 302-207.5T976 438q102-98 105-192zm-81-45q0 39-50 102-58 72-150 133l-3-3q9-25 9-75 0-104-88-164 129-42 256-46 23 16 26 53zM734 384q0 85-82 136-87-4-137-61-43-51-43-119 3-29 35-60 35-36 88-50 64 16 102 60 37 44 37 94z"/><glyph glyph-name="uniFBAB" unicode="ھ" horiz-adv-x="935" arabic-form="final" d="M974 25q0-25-27-25h-12q-27 0-68 1t-91 3q69-59 69-163 0-36-11-77.5t-29.5-82-43-77T709-457q-80 16-148 57.5t-121.5 103-90.5 140T295 11Q206-8 152-37.5T72-107l-13 5L82 49q21 29 70 55t131 43v34q0 199 39 329t120 197q216-99 218-452 0-76-11-126 39 8 101 11.5t144 3.5h53q15 0 21-6.5t6-23.5V25zM356 154q87 7 149 26.5t94 57.5q-2 53-16.5 101.5t-36 88-47 66.5-52.5 35q-51-60-71-155t-20-220zm394-376q0 42-14 80.5t-41 70-67.5 54T535 15l21 61q-39-21-83-34.5T382 21q20-59 53.5-112.5T513-188t97.5-75T724-312q12 16 19 37t7 53z"/><glyph glyph-name="uniFBAC" unicode="ھ" horiz-adv-x="915" d="M839 246q0-22-31-90-35-77-76-133-63 1-203 28-147 29-196 52-59-37-162.5-70T9 0h-20q-26 0-26 25v89q0 30 26 30h38q134 0 178 32-55 40-55 152 0 79 41.5 155T289 586l-74 34 35 173q363-236 484-355 102-98 105-192zm-82-45q0 38-50 102-58 72-149 133l-4-3q9-26 9-75 0-104-87-164 128-43 256-46 23 16 25 53zM491 384q0 86-82 136-87-3-136-61-43-51-43-119 3-30 35-60 34-35 88-50 64 16 101 59.5t37 94.5z"/><glyph glyph-name="uniFBAD" unicode="ھ" horiz-adv-x="819" arabic-form="medial" d="M858 25q0-25-27-25h-12q-27 0-68 1t-91 3q69-59 69-163 0-36-11-77.5t-29.5-82-43-77T593-457q-80 16-148 57.5t-121.5 103-90.5 140T179 11Q109 0 0 0h-11q-26 0-26 25v89q0 17 6 23.5t20 6.5H0q39 0 82.5 1.5T167 150v35q0 199 39 327t120 195q216-99 218-452 0-76-11-126 39 8 100.5 11.5T778 144h53q15 0 21-6.5t6-23.5V25zM240 154q87 7 149 26.5t94 57.5q-3 53-17 101.5t-35.5 88T383 494t-52 35q-51-60-71-155t-20-220zm394-376q0 42-14 80t-41 69-67.5 53.5T419 13l20 63q-38-21-82-34.5T265 21q21-59 54.5-112.5T397-188t97.5-75T608-312q12 16 19 37t7 53z"/><glyph glyph-name="uniFBAE" unicode="ے" horiz-adv-x="1509" arabic-form="isolated" d="M838 528q-55 44-100.5 68.5T656 621q-29 0-46.5-32.5T580 503q-23-24-57-43.5T450.5 422 372 387.5 297 352t-62-39.5-41-46.5q19-33 59.5-56.5t105.5-39 154.5-23T721 140q173 0 353 9t374 24L1309 31Q1100 13 937 4T647-5Q512-5 415.5 2.5T252 28 144.5 77 81 157q15 43 28.5 78.5T137 301q22 52 57 89.5t75.5 65.5 83 48 81 37 68.5 33.5 45 36.5q15 38 29.5 69.5t31.5 54 37.5 35.5 46.5 13q39 0 89-32t113-92z"/><glyph glyph-name="uniFBAF" unicode="ے" horiz-adv-x="1186" arabic-form="final" d="M1223 25q0-25-26-25H639Q530 0 451.5-10T317-41t-94.5-55-68.5-82q32-32 76.5-53T336-265t140.5-19 182.5-6q76 0 141 2.5t125 6 116.5 9T1155-260l-113-134q-131-18-254-26t-255-8q-202 0-325 36.5T39-276q14 46 31 85.5t39.5 75.5 51 71T226 26q43 37 84 60t86.5 36 98 17.5T614 144h583q14 0 20-6.5t6-23.5V25z"/><glyph glyph-name="uniFBB0" unicode="ۓ" horiz-adv-x="1509" arabic-form="isolated" d="M838 528q-55 44-100.5 68.5T656 621q-29 0-46.5-32.5T580 503q-23-24-57-43.5T450.5 422 372 387.5 297 352t-62-39.5-41-46.5q19-33 59.5-56.5t105.5-39 154.5-23T721 140q173 0 353 9t374 24L1309 31Q1100 13 937 4T647-5Q512-5 415.5 2.5T252 28 144.5 77 81 157q15 43 28.5 78.5T137 301q22 52 57 89.5t75.5 65.5 83 48 81 37 68.5 33.5 45 36.5q15 38 29.5 69.5t31.5 54 37.5 35.5 46.5 13q39 0 89-32t113-92zM419 898q-26-4-62.5-15.5t-76.5-26-79-31.5-68-33v65q18 10 42.5 20.5T230 896v3q-81 29-81 104 85 129 169 129 55 0 90-59l-54-42q-19 19-36 27t-31 8q-38 0-80-57 30-65 104-68 26 7 58.5 17t71.5 17z"/><glyph glyph-name="uniFBB1" unicode="ۓ" horiz-adv-x="1186" arabic-form="final" d="M1223 25q0-25-26-25H639Q530 0 451.5-10T317-41t-94.5-55-68.5-82q32-32 76.5-53T336-265t140.5-19 182.5-6q76 0 141 2.5t125 6 116.5 9T1155-260l-113-134q-131-18-254-26t-255-8q-202 0-325 36.5T39-276q14 46 31 85.5t39.5 75.5 51 71T226 26q43 37 84 60t86.5 36 98 17.5T614 144h583q14 0 20-6.5t6-23.5V25zM502 497q-26-4-62.5-15.5t-77-26-79-31.5-67.5-33v65q18 10 42.5 20.5T313 495v3q-81 29-81 104 85 129 169 129 54 0 90-59l-54-42q-19 19-36.5 27t-30.5 8q-39 0-80-57 30-65 103-68 27 8 59 17.5t72 16.5z"/><glyph glyph-name="uniFBD3" unicode="ڭ" horiz-adv-x="1282" arabic-form="isolated" d="M791 983l-41-127q-140-19-240-71 118-29 211-117l-19-136q-92-83-317-108l35 114q146 0 241 53-23 26-87 63-68 39-123 55l18 138q103 80 322 136zm390 37q-44 13-76 34 32-349 32-804-47-119-92-183-133-31-337-56-183-22-266-22-183 0-365 34l62 167q150-49 339-49 100 0 290.5 21t276.5 41q-1 316-25 596t-57 358l102 128q16-51 56.5-143t59.5-122zm-172 546l-98 98 98 100 99-100zm118-201l-99 98 99 99 99-99zm-236 0l-98 98 98 99 100-99z"/><glyph glyph-name="uniFBD4" unicode="ڭ" horiz-adv-x="1394" arabic-form="final" d="M1432 25q0-25-27-25h-20q-150 0-190 137Q828-30 491-30q-202 0-307 73-98 69-98 192 0 132 87 283 34 0 57-33-45-72-45-168 0-192 336-192 143 0 340 36 189 34 305 78l-57 873 106 173q9-594 41-996 12-145 129-145h20q27 0 27-30V25zM901 944l-41-127q-140-19-240-71 118-29 210-117l-18-136q-92-83-317-109l36 114q145 0 240 54-23 26-86 63-69 39-125 55l19 138q103 80 322 136zm263 622l-99 98 99 100 99-100zm117-201l-98 98 98 99 100-99zm-235 0l-98 98 98 99 100-99z"/><glyph glyph-name="uniFBD5" unicode="ڭ" horiz-adv-x="828" d="M799 1285l-73-176q-82-31-312-160-234-130-303-186 338-192 380-375-10-109-31-209-96-99-198.5-139T9 0h-20q-26 0-26 25v89q0 30 26 30h52q274 0 378 136-7 90-82 168-87 90-303 209l22 207q129 94 377 236 253 144 366 185zm-577 91l-99 98 99 99 99-99zm117-202l-98 99 98 99 100-99zm-235 0l-98 99 98 99 100-99z"/><glyph glyph-name="uniFBD6" unicode="ڭ" horiz-adv-x="932" arabic-form="medial" d="M971 25q0-25-27-25h-20q-72 0-142 59-82 68-297 316l-4-3q9-40 9-83 0-54-14-110-94-99-199-140Q177 0 25 0h-36q-26 0-26 25v89q0 30 26 30h73q274 0 377 136-6 90-82 168-87 90-303 209l23 207q129 94 377 236 253 144 365 185l-73-176q-82-31-311-160-234-130-304-186 165-100 307-217 138-115 361-337 66-65 125-65h20q27 0 27-30V25zM222 1376l-99 98 99 99 99-99zm117-202l-98 99 98 99 100-99zm-235 0l-98 99 98 99 100-99z"/><glyph glyph-name="uniFBD7" unicode="ۇ" horiz-adv-x="690" arabic-form="isolated" d="M605 144q3-75-8-144-46-306-337-543-125 9-224 77Q499-231 524 26 474 0 396 0q-43 0-118.5 18.5T166 57q-7 49-7 68 6 285 209 399 224-66 237-380zm-81 22q-1 66-54 131-58 68-130 77-82-70-82-189 71-41 155-41 74 0 111 22zm3 558l-84 32q-82-123-259-183v94q134 27 199 108-83 25-123 71 10 85 58.5 139t118.5 54q56-24 56-114 0-42-22-105 29-15 56-17v-79zm-87 167q0 53-38 68-62 0-83-80 32-31 103-55 18 28 18 67z"/><glyph glyph-name="uniFBD8" unicode="ۇ" horiz-adv-x="668" arabic-form="final" d="M706 25q0-25-27-25h-76q-52-308-336-543-132 9-231 77 242 123 372 262Q513-91 524 7q-44-7-100-7-65 0-147 20-77 18-111 37-7 49-7 68 6 287 213 399 224-66 237-380h70q27 0 27-30V25zM529 151q-5 77-60.5 145.5T340 374q-82-70-82-189 71-41 190-41 32 0 81 7zm-2 573l-84 32q-82-123-259-183v94q134 27 199 108-83 25-123 71 10 85 58.5 139t118.5 54q56-24 56-114 0-42-22-105 29-15 56-17v-79zm-87 167q0 53-38 68-62 0-83-80 32-31 103-55 18 28 18 67z"/><glyph glyph-name="uniFBD9" unicode="ۆ" horiz-adv-x="690" arabic-form="isolated" d="M605 144q3-75-8-144-46-306-337-543-125 9-224 77Q499-231 524 26 474 0 396 0q-43 0-118.5 18.5T166 57q-7 49-7 68 6 285 209 399 224-66 237-380zm-81 22q-1 66-54 131-58 68-130 77-82-70-82-189 71-41 155-41 74 0 111 22zM219 886l168-150 167 150h49L427 647h-80L170 886h49z"/><glyph glyph-name="uniFBDA" unicode="ۆ" horiz-adv-x="668" arabic-form="final" d="M706 25q0-25-27-25h-76q-52-308-336-543-132 9-231 77 242 123 372 262Q513-91 524 7q-44-7-100-7-65 0-147 20-77 18-111 37-7 49-7 68 6 287 213 399 224-66 237-380h70q27 0 27-30V25zM529 151q-5 77-60.5 145.5T340 374q-82-70-82-189 71-41 190-41 32 0 81 7zM219 886l168-150 167 150h49L427 647h-80L170 886h49z"/><glyph glyph-name="uniFBDB" unicode="ۈ" horiz-adv-x="690" arabic-form="isolated" d="M605 144q3-75-8-144-46-306-337-543-125 9-224 77Q499-231 524 26 474 0 396 0q-43 0-118.5 18.5T166 57q-7 49-7 68 6 285 209 399 224-66 237-380zm-81 22q-1 66-54 131-58 68-130 77-82-70-82-189 71-41 155-41 74 0 111 22zm-97 534l-48-45q0 152-68 251l65 59q51-69 51-265z"/><glyph glyph-name="uniFBDC" unicode="ۈ" horiz-adv-x="668" arabic-form="final" d="M706 25q0-25-27-25h-76q-52-308-336-543-132 9-231 77 242 123 372 262Q513-91 524 7q-44-7-100-7-65 0-147 20-77 18-111 37-7 49-7 68 6 287 213 399 224-66 237-380h70q27 0 27-30V25zM529 151q-5 77-60.5 145.5T340 374q-82-70-82-189 71-41 190-41 32 0 81 7zM427 700l-48-45q0 152-68 251l65 59q51-69 51-265z"/><glyph glyph-name="uniFBDD" unicode="ٷ" horiz-adv-x="824" arabic-form="isolated" d="M605 144q3-75-8-144-46-306-337-543-125 9-224 77Q499-231 524 26 474 0 396 0q-43 0-118.5 18.5T166 57q-7 49-7 68 6 285 209 399 224-66 237-380zm-81 22q-1 66-54 131-58 68-130 77-82-70-82-189 71-41 155-41 74 0 111 22zm260 568q-26-4-62.5-15.5t-77-26-79-31.5-67.5-33v65q18 10 42.5 20.5T595 732v3q-81 29-81 104 85 129 169 129 54 0 90-59l-54-42q-19 19-36 27t-31 8q-38 0-80-57 30-65 104-68 26 7 58.5 17t71.5 17zm-364-78q-20 8-83 32-82-123-260-183v94q135 27 200 108-83 25-123 71 10 85 58 139t118 54q57-24 57-115 0-42-23-104 29-15 56-18v-78zm-87 167q0 53-37 68-62 0-83-80 32-31 103-56 17 28 17 68z"/><glyph glyph-name="uniFBDE" unicode="ۋ" horiz-adv-x="690" arabic-form="isolated" d="M605 144q3-75-8-144-46-306-337-543-125 9-224 77Q499-231 524 26 474 0 396 0q-43 0-118.5 18.5T166 57q-7 49-7 68 6 285 209 399 224-66 237-380zm-81 22q-1 66-54 131-58 68-130 77-82-70-82-189 71-41 155-41 74 0 111 22zm-40 788l-98-99-99 99 99 99zm118-201l-99-99-99 99 99 99zm-235 0l-99-99-101 99 101 99z"/><glyph glyph-name="uniFBDF" unicode="ۋ" horiz-adv-x="668" arabic-form="final" d="M706 25q0-25-27-25h-76q-52-308-336-543-132 9-231 77 242 123 372 262Q513-91 524 7q-44-7-100-7-65 0-147 20-77 18-111 37-7 49-7 68 6 287 213 399 224-66 237-380h70q27 0 27-30V25zM529 151q-5 77-60.5 145.5T340 374q-82-70-82-189 71-41 190-41 32 0 81 7zm-45 803l-98-99-99 99 99 99zm118-201l-99-99-99 99 99 99zm-235 0l-99-99-101 99 101 99z"/><glyph glyph-name="uniFBE0" unicode="ۅ" horiz-adv-x="690" arabic-form="isolated" d="M524 166q-1 66-54 131-58 68-130 77-82-70-82-189 71-41 155-41 74 0 111 22zm-61-302q53 80 61 162Q474 0 396 0q-43 0-118.5 18.5T166 57q-7 49-7 68 6 285 209 399 224-66 237-380 3-75-8-144-46-306-337-543-125 9-224 77 235 119 357 244H139v86h324z"/><glyph glyph-name="uniFBE1" unicode="ۅ" horiz-adv-x="668" arabic-form="final" d="M529 151q-5 77-60.5 145.5T340 374q-82-70-82-189 71-41 190-41 32 0 81 7zm-65-287q53 75 60 143-44-7-100-7-65 0-147 20-77 18-111 37-7 49-7 68 6 287 213 399 224-66 237-380h70q27 0 27-30V25q0-25-27-25h-76q-52-308-336-543-132 9-231 77 227 114 354 244H139v86h325z"/><glyph glyph-name="uniFBE2" unicode="ۉ" horiz-adv-x="690" arabic-form="isolated" d="M605 144q3-75-8-144-46-306-337-543-125 9-224 77Q499-231 524 26 474 0 396 0q-43 0-118.5 18.5T166 57q-7 49-7 68 6 285 209 399 224-66 237-380zm-81 22q-1 66-54 131-58 68-130 77-82-70-82-189 71-41 155-41 74 0 111 22zM170 647l177 239h80l176-239h-49L387 797 219 647h-49z"/><glyph glyph-name="uniFBE3" unicode="ۉ" horiz-adv-x="668" arabic-form="final" d="M706 25q0-25-27-25h-76q-52-308-336-543-132 9-231 77 242 123 372 262Q513-91 524 7q-44-7-100-7-65 0-147 20-77 18-111 37-7 49-7 68 6 287 213 399 224-66 237-380h70q27 0 27-30V25zM529 151q-5 77-60.5 145.5T340 374q-82-70-82-189 71-41 190-41 32 0 81 7zM170 647l177 239h80l176-239h-49L387 797 219 647h-49z"/><glyph glyph-name="uniFBE4" unicode="ې" horiz-adv-x="1370" arabic-form="isolated" d="M1315 732l-51-165q-33 9-77 9-100 0-193-83-87-76-142-199 28-67 137-90 127-25 172-51 35-21 42-60 0-112-43-241-141-71-324-125-228-68-404-68-160 0-257 75Q72-187 72-46q0 119 164 420 41 0 61-31-35-60-69-149-38-101-38-150 0-106 73-168t206-62q136 0 316 42 194 45 345 117 0 38-31 58.5T980 67Q832 92 762 184q5 72 17 125 178 440 451 440 54 0 85-17zM712-562L607-668 501-562l106 106zm5-215L610-884 505-777l105 105z"/><glyph glyph-name="uniFBE5" unicode="ې" horiz-adv-x="1165" arabic-form="final" d="M1202 25q0-25-27-25h-151Q873 0 819-73q34-24 112-41 100-22 135.5-43t35.5-62q0-19-12-88-14-73-25-102-116-55-291-93-187-41-350-41-161 0-258 75Q63-389 63-248q0 165 142 412 32 0 62-30-37-62-63-153-23-84-23-140 0-106 73.5-167.5T461-388q152 0 334 27 161 24 242 51-10 53-136 77-99 18-162 60 16 100 45 212 98 105 258 105h133q27 0 27-30V25zM649-772L543-877 437-772l106 106zm4-215l-106-106-106 106 106 105z"/><glyph glyph-name="uniFBE6" unicode="ې" horiz-adv-x="486" d="M-37 114q0 17 6 23.5t20 6.5h49q58 0 101.5 7.5T214 172t51 31.5 31 42.5q-3 14-12 34t-22 41-28 41.5-30 34.5l76 182q18-30 36-66.5t32.5-76.5 24.5-79 14-72q-11-59-37.5-111T287 83.5t-79-61T122 0H-11q-26 0-26 25v89zm390-354l-98-99-100 99 100 99zm4-204l-99-99-99 99 99 99z"/><glyph glyph-name="uniFBE7" unicode="ې" horiz-adv-x="518" arabic-form="medial" d="M-37 114q0 17 6 23.5t20 6.5H9q29 0 66.5 5.5t71 25 56.5 57T226 333v31q9 8 30 8 11 0 19-2t16-8v-32q0-58 11-94t36.5-56.5 67.5-28 104-7.5h21q13 0 19-6.5t6-23.5V25q0-25-25-25h-21q-64 0-110 12t-76.5 31-46 42.5T260 134h-8q-7-31-27.5-55.5t-49-42-61-27T52 0h-63q-26 0-26 25v89zm394-358l-99-99-99 99 99 98zm0-200l-99-99-99 99 99 99z"/><glyph glyph-name="uniFBE8" unicode="ى" horiz-adv-x="477" d="M387 285Q364 167 287 83.5T122 0H-11q-26 0-26 25v89q0 30 26 30h49q209 0 258 102-17 79-92 151l76 182q90-143 107-294z"/><glyph glyph-name="uniFBE9" unicode="ى" horiz-adv-x="518" arabic-form="medial" d="M556 25q0-25-25-25h-21Q391 0 323 43q-58 36-63 91h-8q-13-58-77-98Q117 0 52 0h-63q-26 0-26 25v89q0 30 26 30H9q217 0 217 189v31q10 8 30 8 21 0 35-10v-32q0-112 47-151 44-35 172-35h21q25 0 25-30V25z"/><glyph glyph-name="uniFBFC" unicode="ی" horiz-adv-x="1370" arabic-form="isolated" d="M1315 732l-51-165q-33 9-77 9-100 0-193-83-87-76-142-199 28-67 137-90 127-25 172-51 35-21 42-60 0-112-43-241-141-71-324-125-228-68-404-68-160 0-257 75Q72-187 72-46q0 119 164 420 41 0 61-31-35-60-69-149-38-101-38-150 0-106 73-168t206-62q136 0 316 42 194 45 345 117 0 38-31 58.5T980 67Q832 92 762 184q5 72 17 125 178 440 451 440 54 0 85-17z"/><glyph glyph-name="uniFBFD" unicode="ی" horiz-adv-x="1165" arabic-form="final" d="M1202 25q0-25-27-25h-151Q873 0 819-73q34-24 112-41 100-22 135.5-43t35.5-62q0-19-12-88-14-73-25-102-116-55-291-93-187-41-350-41-161 0-258 75Q63-389 63-248q0 165 142 412 32 0 62-30-37-62-63-153-23-84-23-140 0-106 73.5-167.5T461-388q152 0 334 27 161 24 242 51-10 53-136 77-99 18-162 60 16 100 45 212 98 105 258 105h133q27 0 27-30V25z"/><glyph glyph-name="uniFBFE" unicode="ی" horiz-adv-x="518" d="M387 285Q364 167 287 83.5T122 0H-11q-26 0-26 25v89q0 30 26 30h49q209 0 258 102-17 79-92 151l76 182q90-143 107-294zm99-546L374-374 249-269l114 114zm-249-21L125-394 0-289l114 113z"/><glyph glyph-name="uniFBFF" unicode="ی" horiz-adv-x="518" arabic-form="medial" d="M556 25q0-25-25-25h-21Q391 0 323 43q-58 36-63 91h-8q-13-58-77-98Q117 0 52 0h-63q-26 0-26 25v89q0 30 26 30H9q217 0 217 189v31q10 8 30 8 21 0 35-10v-32q0-112 47-151 44-35 172-35h21q25 0 25-30V25zm-63-305L381-392 256-287l114 114zm-248-20L132-412 8-307l114 113z"/><glyph glyph-name="uniFC5E" unicode="ﱞ" horiz-adv-x="0" arabic-form="isolated" d="M354 1729l-75 30q-40-60-101.5-102T31 1585q0 68-1 109t-7 49q-22-19-49.5-35.5T-87 1675v97q97 29 128 78 16-26 23.5-70t10.5-99q47 15 84.5 40t63.5 56q-42 13-76 33t-50 46q6 39 19.5 69.5T154 1982q49 55 118 55 56-25 56-112 0-44-22-106l48-12v-78zm-7-209q0-134-92-134-49 0-58 74l-5-1q-18-123-100-123-44 0-61 39.5T14 1523l54 21v-75q5-51 35-51 55 0 55 107 0 23-2 37l56 20q0-116 44-116 36 0 36 80 0 4-4 63l59 21v-110zm-72 369q0 52-38 68-61 0-80-69 16-19 42-31.5t62-25.5q5 10 9.5 24t4.5 34z"/><glyph glyph-name="uniFC5F" unicode="ﱟ" horiz-adv-x="0" arabic-form="isolated" d="M337 1848q0-134-92-134-49 0-58 74l-5-1q-18-123-100-123-44 0-61 39.5T4 1851l54 21v-75q5-51 35-51 55 0 55 107 0 23-2 37l56 20q0-116 44-116 36 0 36 80 0 4-4 63l59 21v-110zm16-409L9 1303v74l344 136v-74zm0 161L9 1463v74l344 137v-74z"/><glyph glyph-name="uniFC60" unicode="ﱠ" horiz-adv-x="0" arabic-form="isolated" d="M346 1520q0-134-92-134-48 0-57 74l-6-1q-17-123-99-123-45 0-61.5 39.5T14 1523l53 21v-75q6-51 36-51 55 0 55 107 0 23-2 37l55 20q0-116 45-116 36 0 36 80 0 4-4 63l58 21v-110zm7 220L10 1603v74l343 137v-74z"/><glyph glyph-name="uniFC61" unicode="ﱡ" horiz-adv-x="0" arabic-form="isolated" d="M346 1520q0-134-92-134-48 0-57 74l-6-1q-18-123-99-123-45 0-62 40-16 39-16 147l53 21v-75q6-51 36-51 55 0 55 107 0 12-.5 21t-1.5 16l55 20q0-116 45-116 36 0 36 80 0 2-1 18t-3 45l58 21v-110zm7 204q-10 4-30.5 12t-52.5 20q-81-119-260-170v85q68 13 118.5 39t82.5 65q-84 24-124 71 5 42 19.5 76.5t38 59 53 38T262 2033q57-24 57-114 0-19-5-43.5t-17-56.5q27-14 56-17v-78zm-88 161q0 53-37 68-62 0-82-74 30-31 103-56 9 15 12.5 30t3.5 32z"/><glyph glyph-name="uniFC62" unicode="ﱢ" horiz-adv-x="0" arabic-form="isolated" d="M337 1702q0-134-92-134-49 0-58 75l-5-2q-18-122-100-122-44 0-61 39T4 1705l54 21v-75q5-51 35-51 55 0 55 107 0 23-2 38l56 19q0-116 44-116 36 0 36 80 0 4-4 63l59 21v-110zm16-263L9 1303v74l344 136v-74z"/><glyph glyph-name="uniFC63" unicode="ﱣ" horiz-adv-x="0" arabic-form="isolated" d="M346 1520q0-134-92-134-49 0-58 74l-5-1q-18-123-100-123-44 0-61 39.5T13 1523l54 21v-75q5-51 35-51 55 0 55 107 0 23-2 37l56 20q0-116 44-116 36 0 36 80 0 4-4 63l59 21v-110zm-149 133l-48-45q0 152-68 251l65 59q51-70 51-265z"/><glyph glyph-name="uniFDF2" unicode="ﷲ" horiz-adv-x="1882" arabic-form="isolated" d="M1400 272q-13-124-78-198T1167 0q-51 0-97 37-48 40-67 103Q885-28 727-28q-194 0-208 291L405 149q-234 0-324 101 18 82 73 190 116 91 372 149v105l96 99q-14-102-14-321 0-227 35-299 27-57 108-57 99 0 218 106-16 119-41 496l103 124q8-455 35-579 26-119 114-119 73 0 140 63-10 40-36 267-27 233-31 330l92 143q0-272 55-675zm339 344q0-309-9-530l-82-143-8 611q-4 393-60 608l116 123q43-268 43-669zM519 280q-3 30-3 99 0 84 3 119-81-12-172-54-101-47-143-101 28-63 315-63zm601 784q0-134-92-134-49 0-58 75l-5-2q-18-122-100-122-44 0-61 39t-17 148l54 21v-76q5-51 35-51 55 0 55 108 0 22-2 37l56 19q0-116 44-116 36 0 36 81 0 3-4 62l59 21v-110zm-149 133l-48-45q0 153-68 252l65 58q51-69 51-265z"/><glyph glyph-name="uniFDFA" unicode="ﷺ" horiz-adv-x="1865" arabic-form="isolated" d="M1774 1175l-17-46q-65-22-217-96-179-86-179-113 0-23 49-47l-17-45q-61 20-61 75t48 82q236 136 394 190zm-306 77l-12-41-364-179 8 47zM836 771q-6-123-25-137l-46 452 41 107zm-285 406q0-59-39-59-24 0-39 14-33-28-56-28-39 0-39 51 0 37 6 50l11 11q-3-68 31-68 21 0 36 29l-4 43 17 26 7-55q5-31 28-31 25 0 21 29l-5 41 13 18q12-35 12-71zM1828-60q0-91-72-201-79-120-167-120-42 0-110.5 30t-68.5 43q0 7 9 7 8 0 50.5-13.5T1535-328q127-4 261 198l-13 41q-33-49-68-49-28 0-47.5 24.5T1646-62q-1 44 29.5 101.5T1727 97q25 0 60-44 41-51 41-113zm16 812q0-26-29-71.5t-58-59.5q-87-40-217-40-43 0-89 5-45-88-71-88-7 0-7 11 0 29 40 88-78 30-89 49-73-49-93-49 13-261 46.5-328.5T1434 194l4 4q-39 29-39 80 0 64 60 142 44 59 114 59 52 0 99-32 44-29 44-57-48 17-98 17-67 0-120-27-49-25-49-50 0-27 46.5-73t82.5-54q34 5 127 34.5t125 45.5l-32-68q-189-98-357-98-179 0-222 134-55-120-106-120-48 0-125 81-119-104-367-104-74 0-131 10 8-62 17-97 16-67 43-94 82-81 328-81 214 0 308 59 29 69 51 69 9 0 9-15 0-26-23-82 12-24 51-24 48 0 91 22 40 123 61 123 8 0 8-20 0-34-19-81 57-24 83-24 12 0 14 6 2 5-14 73l31 66q23-66 23-96 0-126-82-126-44 0-90 36-29-49-110-49-90 0-90 49-58-43-218-60-56-5-126-5-183 0-268 52-108 66-111 235-21-29-41-59-32-47-50-49 24-39 24-77 0-47-31-78-14-15-38-15-38 0-115 43-25-59-78-88-13-7-44-8.5T44-282q-21-7-20-7-12 0-12 9t46 28q54 22 72 35l63 49q-18 34-18 75 0 38 33.5 76.5T271 22q7 0 12-4 33-19 54-19 34 0 67 44l43 78q-71 23-103 51-56 50-72 158h-4q-54-93-147-93-38 0-73 15-31 13-31 22 0 47 82 109 76 58 158 82l-4 32 37 61q15-201 40.5-262T434 210l-24 247 35 81 32-337q98-11 177-11 193 0 330 75 24 70 37 70 6 0 6-16 0-17-7-47 67-64 111-64 48 0 77 79l-24 301q-139-5-164 138h-4q-16-55-26-79-21-46-51-56l4-3q130 10 130-72 0-55-46-87-159-110-299-110-86 0-137.5 44T539 486q0 57 30 124-53 15-71 81h-4q-27-95-103-95-92 0-87 143l-51-45q-15-13-73-13-91 0-91 33 0 18 25 58.5t46 50.5l142 69v18l32 68 7-225q3-78 59-78 28 0 55 19.5t32 42.5l-30 212 33 73 52-300q18-39 61-39 44 0 44 24 0 38-30 138-19 61-37 122l24 61q74-234 74-293 0-37-17-82-22-52-49-52-8 0-16 6-12-40-12-74 0-139 169-139 133 0 265 89 4 3 4 6 0 11-71 22-107 17-114 19-21 18 24 75 113 45 119 98 2 9 2 27 0 181-37 431l32 104q44-395 70-478 34-106 135-123l-9 180 39 83 15-261q53 18 111 67 47-33 57-40 35-21 73-27 38 43 120 103 96 71 131 71 34 0 77-26 48-29 48-62zM1071 5l-50-57-89 65-52-67-94 67 55 65 87-65 51 62zm55-294q0-43-4-55-10-26-46-26-17 0-26 8-28-30-56-30-14 0-30.5 16T939-360q-14 0-68-32.5T740-425q-82 0-82 14t59 14q66 0 86 3 27 6 65 30 57 36 75 36 16 0 36.5-15t23.5-15q28 0 34 32 4 24 21 24 7 0 7-12 0-7-3-16 5-7 21-12 22 0 22 23 0 30 21 30zm666 1010q0 11-32.5 28.5T1710 767q-38 0-112-45-57-35-87-63 11-3 36-3 78 0 153 15 92 20 92 50zm-18-766q-11 60-48 60-29 0-39-47 8-33 58-33 24 0 29 20zM302 773l-2 72q-38-16-77-31-62-29-63-45-2-21 46-21 53 0 96 25zm-36-417l-3 71Q99 362 99 330q0-18 57-18 61 0 110 44zm80-490q-7 37-44 64-34 24-64 24-26 0-26-21 0-24 48-51 45-27 74-27 14 0 12 11z"/><glyph glyph-name="uniFDFB" unicode="ﷻ" horiz-adv-x="2437" arabic-form="isolated" d="M1490-39q70-15 283 62 166 60 152 59 7 1 31-6 35-12 80-20l-8-5q0-4-8-4-8-9-13-9l-86-40q-277-115-406-111zm-358 884q18 89-35 178-28 44-46 44l-5-57q-1-8 13-28 62-77 62-169 9 3 11 32zm-634 8q-11 11 0 19 18 12 26-5 7-16 0-31-22 14-26 17zM260 498q-4-1-4-6 10-8 47 22 127 125 231 274 10-1 21-7 1-2 3-4 3-2 4-3 18-11 15 13-2 15-30 40 11 89-34 91-19 0-37-29-19-28-8-48 5-11 20-23 21-16 24-21-97-141-252-299zm647 1221q18-3 16-43-6 2-36 22 4 24 20 21zm-257-389q-14-12-4-14t24 9q148 108 258 294 3 4 6 5 31-19 40-16 10 19-5 36l-21 21q11 92-38 92-17 0-37-27-22-30-11-51 8-15 34-35 2 0 7-3 4-3 7-5-43-90-260-306zm659 410q-20 16-4 24t26-7q5-8 1-33-4 1-23 16zm-248-363q-6-6-6-10 22-20 142 122 82 96 148 185 45-14 41-16 5 23-17 45l-6 4q-4 2-6 5 5 45 2 60-4 34-36 37-21 2-41-28-21-28-12-50 9-19 50-44-64-111-259-310zm825-746l3-1 15-26q22-37 25-69 1-16 11-14 5 6 31 107 13 57 31 51 6-2 13-12 10-11 12-14 16 17 11 45-5 33-38 26-22-4-37-57-5-15-12-44-6-28-8-38-27 92-67 110-34 14-38-18-5-31 21-49 23-13 25-1zm-181 716l2 11-3-2q-207-82-273-147l-2-44 275 148zm-186-618q19 10 31 16 11 6 30 18 20 10 31 16 156 90 309 160 7 4 33 17 28 12 31 14l1 43q-10-2-33-14-26-13-33-17-161-76-329-169-91-47-97-54-3-11-3-47 15 7 29 17zm80 359q-2 12-19 15-8-18 1-49t2-47q-3-9-17-11-13-1-19 6-6 8-6 49 0 39-19 48-12-68 9-120 10-31 41-24 23 5 30 37 48-24 40-24 39 1 25 63-7 37-30 80-16-10-10-37-3 7 17-50 10-29-13-18-21 9-27 44-1 5-5 38zM1360-317q-10 25-108 73l-8-13q-26-76-20-86 38-40 106-61 37 70 30 87zm593-23q17 38-2 58-20 14-100 53-4-7-10-26-6-18-10-27l-9-30q-1-12 13-23 18-23 90-54 15 15 28 49zM1630 72q-130-22-157 0-24 16-17 44 9 31 54 51 59 28 292-38-49-35-172-57zM652 269q-3-2-41-31-31-25-45-27-30-12-58-8-35 7-24 41 6 23 64 75 57 50 84 61zm780-13q0 46 49 74 110 75 390-28l186-58q-11-6-37-21-27-13-38-20-28-14-41-12-1 0-41 16l-172 49q-118 40-180 9-26-13-62-49-17-25-20-37-25-37-22-34-12 55-12 111zm-780 920q0 17-12 29-143 103-173 107v-102q7 0 228-259 221-258 228-275 12-26 36-245 25-213 22-240-12-40-83-71-103-37-153 47-30 50-53 185-8 69-5 77 0 2 31 33 70 70 70 83-25 7-107-75-10 70-13 78-25 50-45 37-15-25 0-156-22-23-56-50-41-32-52-43-58-51-85-129-36-80 8-102-50-91-66-197-20-127 25-214 44-89 139-119 94-29 218 8 167 43 338 173 148 118 214 291 8-22 20-81 10-47 33-92 45-81 127-98 0-62 8-74 11 0 13 2l8 18 9 48q1 1 48 6 107 13 330 114Q2124-8 2233 2q28 3 37 43 8 30 4 64-80 9-190 40 20 13 165 50 19 2 32 43 10 32 10 60-108 14-284 72-237 80-283 92-143 38-263-70-54-49-66-119-8-57 9-160-58 47-58 106l-9 478q0 438-61 583-26-5-45-79-11-42 19-353 31-332 18-443-11-130-54-202-21-38-111-127-3-5-17-15-10-8-16-14-20-15-85-68-66-51-87-68-57-28-57-53 20 5 78 33 171 67 222 131 49 55 86 153 58 153 58 168 3-18 3-255-3-49-40-86-168-160-373-267-242-130-399-25-47 32-62 67-16 38-13 114 9 74 22 107l27 98q59-21 133 25 21 13 41 42 28 36 36 44Q703 37 767 10q58-33 123 4 75 35 110 135 32 89 21 185-2 19-18 138-12 93-15 133 146-211 182-377 0-18 12-25 69 93-63 324-41 70-99 149-48 67-48 65-26 116-45 373 10-6 23-25 10-15 27-19 0 34-40 126-37 86-55 103-9-9-21-52-10-44-8-62 23-65 22-53 1-59 31-325-19 19-140 170-129 161-172 208z"/><glyph glyph-name="uniFDFC" unicode="﷼" horiz-adv-x="2459" arabic-form="isolated" d="M1047 1022q-47 10-78 32 13-155 25-590 11-351 11-529-36-135-82-238-101-81-234.5-129.5T432-480q-169 1-266.5 71.5T68-213q0 70 29 178 27 98 57 155 34 0 57-33-45-83-45-200 0-214 310-212 224 1 437 156-5 390-29 772-26 482-57 554l103 128q15-52 55-143 41-92 62-120zm823-1229l-112-112-125 105 114 114zm-249-20l-112-112-125 105 114 113zM1488 0q-135 0-184 91-53 98-53 375 0 186-20.5 400.5T1183 1157l108 128q52-217 52-758 0-239 30-313 27-70 115-70h70q210 0 258 102-16 79-92 151l77 182q90-143 106-294-22-118-99-201.5T1642 0h-154zm877 86q-26-315-295-592-67 0-142 20t-106 46q201 97 327 231Q2255-96 2274 0q-12 135-130 244l66 187q54-78 102-189 42-97 53-156z"/><glyph glyph-name="uniFE80" unicode="ء" horiz-adv-x="648" arabic-form="isolated" d="M573 276l-43-121Q287 137 83-11L98 91q49 30 149 77v3q-125 30-125 128 0 15 9 48 134 171 232 171 75 0 158-76l-91-72q-44 46-96 46-80 0-121-82 7-88 159-110 74 27 201 52z"/><glyph glyph-name="uniFE81" unicode="آ" horiz-adv-x="414" arabic-form="isolated" d="M273 616q0-309-10-530L178-57l-8 611q-5 393-63 608l121 123q45-268 45-669zm97 832q-84-68-221-68-62 0-79 2-21-35-24-82-45 0-54 4 0 94 36 169 51-13 144-13 118 0 198 54v-66z"/></font>
</defs>
</svg>
