<svg xmlns="http://www.w3.org/2000/svg"><defs><font id="LimerickMedium" horiz-adv-x="608"><font-face font-family="LimerickMedium" font-weight="5" ascent="800" descent="-200" x-height="463" cap-height="721" bbox="-94 -261 1042 996" underline-thickness="50" underline-position="-175" unicode-range="U+0020-F002"/><glyph glyph-name=".notdef" horiz-adv-x="741" d="M46 0v741h649V0H46zm603 46v649H92V46h557z"/><glyph glyph-name="glyph1" horiz-adv-x="0"/><glyph glyph-name="glyph2" horiz-adv-x="290"/><glyph glyph-name="space" horiz-adv-x="290"/><glyph glyph-name="exclam" unicode="!" horiz-adv-x="228" d="M118 147q32 0 56-24t24-56q0-33-23.5-56.5T118-13 61.5 10.5 38 67t23.5 56.5T118 147zM62 721h112V202H62v519z"/><glyph glyph-name="quotedbl" unicode="&quot;" horiz-adv-x="397" d="M67 721h132L68 428h-78zm178 0h132L246 428h-77z"/><glyph glyph-name="numbersign" unicode="#" horiz-adv-x="199" d="M99 147q33 0 56.5-23.5T179 67t-23.5-56.5T99-13 42.5 10.5 19 67t23.5 56.5T99 147z"/><glyph glyph-name="dollar" unicode="$" horiz-adv-x="484" d="M82 173q28-38 58-56t76-24v222q-34 14-59.5 27.5T103 376t-49.5 61.5T32 526q0 83 53.5 144.5T216 732v67h46v-66l27 1q83 0 152-78l-70-85q-47 58-104 58h-5V425q56-20 126-58t70-157q0-92-52-151.5T262-13v-73h-46v70q-29 0-44.5 2t-47 11T63 26 3 84zm180-68q28 8 47.5 34t19.5 59-18 59-49 37V105zm-46 510q-24-11-40-34t-16-48q0-45 24-67l28-20 4-2v171z"/><glyph glyph-name="percent" unicode="%" horiz-adv-x="890" d="M639 766l77-46L251-46 173 0zm-420-24q80 0 135.5-56.5T410 549q0-81-55-137t-136-56q-79 0-135 56T28 548t56 137 135 57zm450-379q80 0 136.5-55.5T862 171q0-80-56.5-136.5T669-22 533.5 34.5 478 171t55 136 136 56zM125 548q0-43 26.5-70.5T219 450q40 0 66.5 28.5T312 549t-26.5 70.5T219 648t-67-29-27-71zm449-377q0-42 27.5-70.5T669 72q42 0 69 28t27 71q0 42-27 70t-69 28q-41 0-68-28t-27-70z"/><glyph glyph-name="ampersand" unicode="&amp;" horiz-adv-x="667" d="M385 50q-85-64-160-64-82 0-136.5 54.5T34 176t51 129l53 39 43 30 35 24-5 6q-9 10-19.5 23t-29 39.5T144 554q0 80 52.5 131.5T329 737q75 0 126.5-47.5T507 573t-36-109.5T371 379l109-137 98 86 68-86-102-79L675 0H536l-82 103zm3 132L279 318l-53-36-35-24-20-18q-13-13-20-30t-7-34q0-36 22-59t57-23q23 0 44.5 9t58.5 35zm-80 274l29 23 34 27q29 24 29 56 0 29-21 51t-50 22q-31 0-51.5-22.5T257 556q0-44 51-100z"/><glyph glyph-name="quotesingle" unicode="'" horiz-adv-x="218" d="M67 721h132L68 428h-78z"/><glyph glyph-name="parenleft" unicode="(" horiz-adv-x="296" d="M301 834q-47-66-103-170t-56-306q0-120 28-213t49.5-135T297-116l-94-25q-4 7-33.5 54T113 11 59 166 32 355q0 116 33.5 216t59 150T208 859z"/><glyph glyph-name="parenright" unicode=")" horiz-adv-x="291" d="M64-5q42 78 66 176t24 193q0 125-27.5 212.5T74.5 712 0 835l92 26q29-46 46-75t43.5-80T233 551t25-199q0-117-29-212T174.5-3.5 89-137l-93 23q22 33 40 61.5T64-5z"/><glyph glyph-name="asterisk" unicode="*" horiz-adv-x="348" d="M51 676l100-65-6 122h58l-6-127 101 70 30-50-106-56 106-52-29-52-102 66 6-121h-54v121l-99-66-29 50 111 54-113 55z"/><glyph glyph-name="plus" unicode="+" d="M72 405h183v186h97V405h183v-89H352V129h-97v187H72v89z"/><glyph glyph-name="comma" unicode="," horiz-adv-x="218" d="M67 200h132L68-91h-78z"/><glyph glyph-name="hyphen" unicode="-" horiz-adv-x="334" d="M19 280h296V179H19v101z"/><glyph glyph-name="period" unicode="." horiz-adv-x="199" d="M99 147q33 0 56.5-23.5T179 67t-23.5-56.5T99-13 42.5 10.5 19 67t23.5 56.5T99 147z"/><glyph glyph-name="slash" unicode="/" horiz-adv-x="461" d="M341 723h100L120-3H19z"/><glyph glyph-name="zero" unicode="0" d="M86 621q36 54 93 84t125 30 125.5-30T535 601t48-241q0-165-48-239.5T428.5 15 304-16q-67 0-125 30.5T73 119 25 359q0 169 61 262zm60-262q0-129 26-179t59.5-70T304 90t72 20 59.5 70T462 359q0 133-26.5 181t-60 68.5T304 629q-39 0-72-20t-59.5-69T146 359z"/><glyph glyph-name="one" unicode="1" d="M255 626h-99v95h218V0H255v626z"/><glyph glyph-name="two" unicode="2" d="M324 338q86 103 86 180 0 56-35 92t-92 36q-54 0-87.5-35.5T162 518l2-26H43l-2 34q0 94 68.5 155.5T281 743q112 0 183-63t71-165q0-116-99-224L257 95h291V0H41z"/><glyph glyph-name="three" unicode="3" d="M165 195q8-55 41.5-85T294 80q56 0 92.5 34.5T423 204q0 58-40 91t-112 33h-9v95l22-1q58 0 92 30t34 82q0 47-33 79t-83 32-80.5-29.5T183 536H69q0 93 62.5 146.5T299 736q103 0 167.5-54T531 541q0-55-28-95.5T424 385q57-17 90.5-65.5T548 204q0-100-68.5-160.5T299-17 118.5 39.5 50 195h115z"/><glyph glyph-name="four" unicode="4" d="M479 751V262h97l1-91h-98V0H364v171H17zM189 243q44 19 75 19h104v148q0 26 2 40.5t9 43.5q-10-25-20.5-45T342 421l-96-129q-6-8-23-22.5T189 243z"/><glyph glyph-name="five" unicode="5" d="M84 173q83-88 182-88 69 0 114 42t45 108-47 106-127 40q-62 0-141-34l73 374h321v-99H266l-36-159q28 8 65 8 111 0 180-65t69-170q0-113-76-184T272-19Q157-19 63 59z"/><glyph glyph-name="six" unicode="6" d="M348 468q95 0 159-65t64-163q0-112-75.5-184.5T304-17 113 53 38 230q0 88 42 169l45 75 159 247h145L215 425q64 43 133 43zM160 228q0-61 42-103t104-42q64 0 106.5 43.5T455 235q0 62-42 103t-104 41q-63 0-106-43t-43-108z"/><glyph glyph-name="seven" unicode="7" d="M368 584q15 28 36 48-20-7-31-9t-36-2H58v100h516L181 0H49z"/><glyph glyph-name="eight" unicode="8" d="M81 536q0 86 64 143t161 57q93 0 156.5-57.5T526 536q0-57-27.5-98T419 378q59-20 93-68t34-113q0-91-70-153T303-18 131 44 62 198q0 64 32 111t92 69Q81 419 81 536zm105-344q0-45 34.5-77.5T303 82q51 0 83 34t32 87-32.5 87.5T303 325t-83.5-35.5T186 200v-8zm10 345v-5q0-48 30-79t77-31q45 0 76 31t31 78q0 45-31 77t-76 32q-44 0-75.5-29.5T196 537z"/><glyph glyph-name="nine" unicode="9" d="M362 275q-47-24-106-24-95 0-157 64T37 479q0 111 75.5 183.5T303 735q117 0 192.5-72.5T571 478q0-104-89-235L315 0H174l215 292zM152 488v-7q0-61 42-102t104-41q64 0 105.5 42.5T445 488q0 63-41.5 105.5T301 636q-63 0-106-42t-43-106z"/><glyph glyph-name="colon" unicode=":" horiz-adv-x="214" d="M115 147q32 0 56-24t24-56q0-33-23.5-56.5T115-13 59 10 36 67q0 32 23 56t56 24zm0 315q33 0 56-23t23-57q0-33-23-56t-56-23-56 23-23 56q0 32 23 56t56 24z"/><glyph glyph-name="semicolon" unicode=";" horiz-adv-x="236" d="M82 200h132L83-91H5zm54 262q34 0 57-23t23-57q0-33-23-56t-57-23q-32 0-56 23t-24 56 23.5 56.5T136 462z"/><glyph glyph-name="less" unicode="&lt;" horiz-adv-x="263" d="M175 469l68-52-123-165L241 89l-73-52L19 253z"/><glyph glyph-name="equal" unicode="=" d="M66 331h476v-94H66v94zm0 153h476v-94H66v94z"/><glyph glyph-name="greater" unicode="&gt;" horiz-adv-x="266" d="M147 257L22 417l71 53 153-211L89 37 19 91z"/><glyph glyph-name="question" unicode="?" horiz-adv-x="490" d="M237 147q32 0 56-24t24-56q0-33-23.5-56.5T237-13q-34 0-57 23t-23 57q0 32 23 56t57 24zm2 598q103 0 169.5-64.5T475 517q0-88-49-145t-132-66V204H181v195q24-4 41-4 61 0 99 34t38 90q0 55-33 89t-89 34q-53 0-83.5-31.5T123 523H13q0 102 62 162t164 60z"/><glyph glyph-name="at" unicode="@" horiz-adv-x="782" d="M436 195q-36-43-82-43-22 0-74.5 22.5T227 341l4 35q7 49 23 85.5t42 68 54.5 45.5 57.5 14q59 0 86-52l5-10 9 54h49l-37-213-13-85q-3-20-3-34t1-20q3-6 8-22t35-16q7 0 18 4t22.5 13 29.5 31q19 20 33 53.5t18.5 61.5 5.5 43 1 29q0 114-70.5 185.5T424 683q-22 0-89-9.5T194.5 574 121 359v-24q2-11 8-77.5T218 112t196-79q58 0 123 27t122 89l25 30 18-43-25-29Q562-14 409-14 255-14 156.5 98.5T58 384q0 77 31 140.5T193.5 654t140 73.5T423 735q134 0 220.5-86.5T730 428q0-33-8.5-81t-35-96-55.5-70-49.5-29-41.5-7q-29 0-51.5 15T462 189.5t-5 21-1 18.5q-6-18-20-34zm-137 35q17-36 59-36 26 0 42.5 16.5t25 33 20 48.5 21.5 80l1 10 7 42q3 23 3 37 0 15-2.5 32t-21 34-43.5 17q-12 0-32.5-8.5t-38-32-30-60.5-17.5-63.5-6-44.5-1-44q0-18 3.5-33.5T299 230z"/><glyph glyph-name="A" unicode="A" horiz-adv-x="624" d="M312 747L661 0H531l-70 160H163L94 0H-37zM210 262h204l-73 166q-18 41-23.5 63.5T312 557q0-38-2.5-52.5T296 461l-13-33z"/><glyph glyph-name="B" unicode="B" horiz-adv-x="575" d="M58 721h224q99 0 154.5-48.5T492 538q0-106-95-151 76-13 117-59.5T555 208q0-44-16-84t-60-82T317 0H58v721zM176 96h106q147 0 147 117 0 40-23 68.5T353 316t-74 6H176V96zm0 326h96q44 0 70 27t26 74q0 45-28.5 72.5T263 623h-87V422z"/><glyph glyph-name="C" unicode="C" horiz-adv-x="610" d="M592 537q-85 84-190 84-104 0-177-76.5T152 359q0-111 73.5-186.5T406 97q101 0 186 79V38l-13-6-54-24q-22-9-53.5-15T409-13Q248-13 139 93T30 358t110 268 270 109q54 0 89-10t93-42V537z"/><glyph glyph-name="D" unicode="D" horiz-adv-x="669" d="M58 721h210q68 0 107.5-7t104-35.5T591 566t47-200q0-119-47.5-207.5T482 42 382.5 7 286 0H58v721zm120-615h88q120 0 183 66t63 192q0 159-64 197.5T352.5 607t-78.5 7h-96V106z"/><glyph glyph-name="E" unicode="E" horiz-adv-x="477" d="M58 721h378V614H176V423h254V317H176V106h260V0H58v721z"/><glyph glyph-name="F" unicode="F" horiz-adv-x="429" d="M58 721h366V614H176V419h242V314H176V0H58v721z"/><glyph glyph-name="G" unicode="G" horiz-adv-x="782" d="M629 491q-87 137-221 137-105 0-178-79t-73-195q0-114 71-187t180-73q92 0 154 50.5T624 275H418v106h340l1-19q0-173-95-276T408-17Q245-17 137.5 88.5T30 354q0 164 108 274t268 110q152 0 215-60t70.5-68.5T718 574z"/><glyph glyph-name="H" unicode="H" horiz-adv-x="681" d="M58 720l118 1V418h329v303l118-1V0H505v320H175V0H58v720z"/><glyph glyph-name="I" unicode="I" horiz-adv-x="235" d="M58 721l118-1V0H58v721z"/><glyph glyph-name="J" unicode="J" horiz-adv-x="388" d="M56 178q4-43 25.5-68.5T139 84q37 0 51.5 18t17.5 35.5 3 62.5v521h119V172q0-189-183-189Q3-17-41 107z"/><glyph glyph-name="K" unicode="K" horiz-adv-x="594" d="M58 721h118V458l-1-33q-3-28-11-64 17 36 31 54l21 26 239 280h146L295 369 639 0H480L225 286l-49-56V0H58v721z"/><glyph glyph-name="L" unicode="L" horiz-adv-x="402" d="M58 721h118V106h222V0H58v721z"/><glyph glyph-name="M" unicode="M" horiz-adv-x="886" d="M176 749l236-461 16-34q7-19 11-31t4-45q0 43 6.5 59.5T474 290l235 459L881 0H759l-78 363q-4 18-6.5 34t-2.5 27l4 42q-5-18-9-31t-9.5-29.5-8-22.5-6.5-14L443-29 242 371l-12 31q-5 15-9.5 29t-9.5 35l3-42q0-24-3-36t-6-25L128 0H5z"/><glyph glyph-name="N" unicode="N" horiz-adv-x="765" d="M58 748l480-456q7-7 14-14.5t15.5-20 15.5-26 15-34.5q-2 23-5 44t-3 33l-1 42v405h118V-31L229 426l-26 31q-9 12-18 25.5T156 528q12-34 16-51t4-35V0H58v748z"/><glyph glyph-name="O" unicode="O" horiz-adv-x="817" d="M409 736q160 0 269-108t109-268q0-159-109.5-267.5T409-16Q249-16 139.5 92.5T30 360t109.5 267.5T409 736zM152 360q0-109 74.5-185.5T409 98q106 0 181 76t75 186-74 186-182 76q-107 0-182-76t-75-186z"/><glyph glyph-name="P" unicode="P" horiz-adv-x="512" d="M58 721h228q99 0 158-57t59-155q0-71-32-125t-81-74-126-20h-87V0H58v721zm118-335h63q140 0 140 123 0 54-30.5 83.5T262 622h-86V386z"/><glyph glyph-name="Q" unicode="Q" horiz-adv-x="817" d="M750 3l-92-86-81 104-35-15q-31-10-69-16.5T403-17Q249-17 139.5 93.5T30 360q0 159 110 268t269 109q158 0 268-109t110-268q0-73-22-127.5t-40.5-82T668 83zM594 175q71 75 71 183 0 111-74 188t-182 77q-107 0-182-77t-75-186q0-111 76-187t187-76q30 0 46 4t44 17L381 281l96 71z"/><glyph glyph-name="R" unicode="R" horiz-adv-x="542" d="M58 721h214q106 0 168.5-56.5T503 512q0-82-47-135t-134-69L550 0H403L200 294h-24V0H58v721zm117-337h57q67 0 104.5 32.5T374 507q0 49-30 80t-79 31h-90V384z"/><glyph glyph-name="S" unicode="S" horiz-adv-x="484" d="M82 173q57-78 136-78 49 0 80.5 30.5T330 203q0 56-56 89l-15 7-17 8-40 16q-61 27-115.5 66.5T32 526q0 90 65 151t160 61q83 0 120.5-27.5t43.5-33 20-21.5l-70-85q-48 59-109 59-45 0-73-27t-28-70q0-52 28.5-70t38-22.5T268 424l38-15 54-26q98-54 98-173 0-101-67.5-164.5T216-18Q115-18 72.5 17T21 63 3 84z"/><glyph glyph-name="T" unicode="T" horiz-adv-x="422" d="M-4 721h430V614H269V0H150v614H-4v107z"/><glyph glyph-name="U" unicode="U" horiz-adv-x="669" d="M612 292q0-89-23.5-155t-93-111T335-19q-118 0-178.5 56T77 147.5 58 292v429h118V275q0-85 42-134t116-49q73 0 116 49.5T493 275v446h119V292z"/><glyph glyph-name="V" unicode="V" horiz-adv-x="570" d="M88 721l170-410q16-39 21-62t5-67q0 52 5 69.5t22 59.5l171 410h131L284-30-43 721H88z"/><glyph glyph-name="W" unicode="W" horiz-adv-x="895" d="M98 720l132-383 8-33q4-23 6-43t2-49q0 26 2 42t9 49l10 34 181 413 181-413 9-34q6-30 8.5-46t2.5-45q0 37 .5 44.5T657 304l8 33 132 383h127L659-29 471 402l-12 37q-6 25-8.5 40t-2.5 42q0-26-1-32.5T436 439l-12-37L235-29-29 720H98z"/><glyph glyph-name="X" unicode="X" horiz-adv-x="629" d="M244 378L11 721h145l122-190 19-29q10-13 18-49 8 35 17 49l19 29 124 190h143L385 378 644 0H502L351 230l-20 31q-11 15-16 50-9-40-17-50l-19-31L128 0H-15z"/><glyph glyph-name="Y" unicode="Y" horiz-adv-x="497" d="M97 721l117-195q5-8 12-22.5t10.5-23T243 457t6-32q2 17 5.5 32t7 24.5 10 22.5 11.5 22l117 195h142L310 347V0H188v347L-44 721H97z"/><glyph glyph-name="Z" unicode="Z" horiz-adv-x="563" d="M341 565q10 21 44 64-23-6-36-8t-38-2H31v102h535L218 150q-7-13-24.5-33T168 88q25 7 39 9t42 2h297V0H-8z"/><glyph glyph-name="bracketleft" unicode="[" horiz-adv-x="235" d="M44 796h194v-74h-83V-1h83v-74H44v871z"/><glyph glyph-name="backslash" unicode="\" horiz-adv-x="302" d="M133 720L259 0h-90L43 720h90z"/><glyph glyph-name="bracketright" unicode="]" horiz-adv-x="235" d="M80-1v723H-3v74h193V-75H-3v74h83z"/><glyph glyph-name="asciicircum" unicode="^" horiz-adv-x="307" d="M135 702h31l151-128-53-63-109 98L44 509l-54 62z"/><glyph glyph-name="underscore" unicode="_" horiz-adv-x="446" d="M43 0h360v-32H43V0z"/><glyph glyph-name="grave" unicode="`" horiz-adv-x="236" d="M79 702l121-157-56-38L-6 645z"/><glyph glyph-name="a" unicode="a" horiz-adv-x="588" d="M419 463h111V0H418v85q-43-96-164-96-98 0-161 67T30 228t65.5 177.5T255 478q113 0 164-95v80zM145 232q0-62 39-103t98-41q60 0 100 42t40 104-40.5 103.5T282 379t-98-42-39-105z"/><glyph glyph-name="b" unicode="b" horiz-adv-x="589" d="M58 822h113V386q19 44 61 69t98 25q97 0 163-71t66-177q0-105-64.5-174.5T333-12q-57 0-101 26t-63 71V0H58v822zm106-591q0-62 38.5-102.5T301 88t99.5 41.5T440 235q0 62-39 103t-99 41q-58 0-98-42t-40-106z"/><glyph glyph-name="c" unicode="c" horiz-adv-x="414" d="M395 325q-34 49-104 49-61 0-100.5-40.5T151 229q0-62 38-103t96-41q61 0 110 46V12q-65-27-120-27-106 0-175.5 68.5T30 228q0 107 71 180t177 73q56 0 117-31V325z"/><glyph glyph-name="d" unicode="d" horiz-adv-x="588" d="M418 822h113V0H419v84q-8-15-37.5-54.5T251-10q-95 0-158 69T30 231q0 105 66 176t162 71q107 0 160-84v428zM148 234q0-63 38.5-104.5T285 88t99.5 41.5T424 235q0 61-39.5 102.5T285 379q-57 0-97-42t-40-103z"/><glyph glyph-name="e" unicode="e" horiz-adv-x="523" d="M144 201q6-59 40.5-91.5T275 77q81 0 128 79l82-50q-32-57-87.5-89T274-15Q166-15 98 53T30 229q0 109 68.5 180.5T270 481q107 0 168-71t61-194v-15H144zm2 82h238q-7 53-38 83t-79 30-80-30-41-83z"/><glyph glyph-name="f" unicode="f" horiz-adv-x="265" d="M14 463h60v193q0 44 6 69.5t22.5 49 47 39T215 829q31 0 64-12V710q-16 12-34 12-61 0-61-83V463h93v-94h-93V0H72v369H14v94z"/><glyph glyph-name="g" unicode="g" horiz-adv-x="585" d="M416 463h110V25q0-80-15-140t-74-101-149-41q-112 0-179 49.5T42-69h128q4-39 37-64.5t81-25.5q59 0 93.5 38.5T416-17v97q-45-91-161-91-97 0-161 67T30 224q0 104 65 176t161 72q100 0 160-88v79zM146 227q0-63 39-104t99-41q59 0 98.5 41.5T422 227q0 63-39 105t-99 42q-59 0-98.5-42.5T146 227z"/><glyph glyph-name="h" unicode="h" horiz-adv-x="546" d="M58 822h111V383q24 45 65.5 69.5T329 477q74 0 117-46t43-127V0H376v252q0 46-8 70.5T336 363t-56 16q-51 0-80.5-35.5T170 246V0H58v822z"/><glyph glyph-name="i" unicode="i" horiz-adv-x="236" d="M62 463h112V0H62v463zm56 230q29 0 51-22t22-52q0-31-21-52t-52-21q-30 0-52 21t-22 52 21.5 52.5T118 693z"/><glyph glyph-name="j" unicode="j" horiz-adv-x="235" d="M59 463h115v-715H59v715zm58 230q31 0 52-22t21-52q0-31-21-52t-52-21q-30 0-52 21t-22 52q0 30 22 52t52 22z"/><glyph glyph-name="k" unicode="k" horiz-adv-x="479" d="M58 822h114V343q0-24-2-42.5t-8-45.5q13 26 18.5 34t14.5 18l19 19 129 137h154L289 256 514 0H360L212 181l-40-39V0H58v822z"/><glyph glyph-name="l" unicode="l" horiz-adv-x="228" d="M58 822h113V0H58v822z"/><glyph glyph-name="m" unicode="m" horiz-adv-x="805" d="M58 463h111v-75q48 84 141 84 50 0 85.5-24t50.5-70q54 97 150 97 41 0 74-17t50-44 22-51.5 5-66.5V0H636v245q0 44-3 60.5T612.5 348 550 374q-43 0-66-28t-23-80V0H348v269q0 50-21.5 76.5T264 372q-51 0-77-41-16-28-16-99V0H58v463z"/><glyph glyph-name="n" unicode="n" horiz-adv-x="541" d="M58 463h112v-80q48 91 150 91 31 0 59-9.5t54-30.5 38-53 12-88V0H371v258q0 57-24 86.5T277 374q-50 0-78-32t-28-90V0H58v463z"/><glyph glyph-name="o" unicode="o" horiz-adv-x="561" d="M279 480q107 0 179-71t72-178q0-105-72-177T280-18q-104 0-177 72T30 230q0 105 71.5 177.5T279 480zM142 231q0-61 40-103t99-42 98 41 39 104q0 61-39.5 102.5T280 375q-58 0-98-42t-40-102z"/><glyph glyph-name="p" unicode="p" horiz-adv-x="589" d="M58 463h111v-87q54 101 166 101 95 0 159-71t64-176-62.5-174.5T338-14q-54 0-98.5 24T171 79v-331H58v715zm108-234q0-63 39-105t99-42q59 0 98.5 41.5T442 228t-39.5 104.5T304 374q-58 0-98-42t-40-103z"/><glyph glyph-name="q" unicode="q" horiz-adv-x="587" d="M418 463h111v-715H416V78q-50-93-164-93-95 0-158.5 69.5T30 229t63 175 159 70q107 0 166-90v79zM147 227q0-62 39.5-103.5T284 82q60 0 100 41t40 104-40 105-99 42q-58 0-98-42t-40-105z"/><glyph glyph-name="r" unicode="r" horiz-adv-x="301" d="M58 463h112v-80q41 89 138 89l20-1-3-111q-16 5-23.5 6.5T282 368q-111 0-111-132V0H58v463z"/><glyph glyph-name="s" unicode="s" horiz-adv-x="377" d="M107 133q18-61 75-61 27 0 44.5 15.5T244 126q0 18-11 29t-41 23l-27 11q-25 10-42 18.5t-54 32T32 337q0 63 45.5 104.5T190 483q112 0 153-96l-97-31q-11 41-51 41-21 0-36-15t-15-36q0-19 10-29 7-10 18.5-15t25.5-10l7-3 29-11q27-10 39-16t47-32 35-93q0-66-49-110T182-17Q51-17 10 94z"/><glyph glyph-name="t" unicode="t" horiz-adv-x="248" d="M63 463v159h112V463h89v-94h-90V0H63v369H11v94h52z"/><glyph glyph-name="u" unicode="u" horiz-adv-x="545" d="M486 202q0-38-3-62.5T465 81t-69.5-64T272-13q-90 0-137 37T73 99.5 58 202v261h113V199q0-54 26-82t75-28q102 0 102 110v264h112V202z"/><glyph glyph-name="v" unicode="v" horiz-adv-x="441" d="M98 463l97-204q13-26 18-46.5t8-56.5q0 28 2.5 40.5T236 232l10 27 98 204h127L221-28-30 463H98z"/><glyph glyph-name="w" unicode="w" horiz-adv-x="699" d="M102 463l85-202q5-15 10-29t9-33 6-38q0 27 2 41t9 30l12 27 115 231 115-231 12-27q5-13 8-25.5t3-45.5q3 22 6 38t9 33l9 29 86 202h125L489-28 385 176l-13 29q-4 10-10 28t-13 46q-4-22-10-41t-11-33l-13-29L211-28-24 463h126z"/><glyph glyph-name="x" unicode="x" horiz-adv-x="493" d="M176 238L-11 463h148l91-120q12-15 18-48 4 19 7.5 28t12.5 20l90 120h147L317 238 509 0H370L267 137q-8 10-12.5 21t-8.5 30q-6-34-20-51L123 0H-16z"/><glyph glyph-name="y" unicode="y" horiz-adv-x="444" d="M95 463l108-247q13-30 17.5-48t4.5-49q0 28 2.5 41.5T237 189l12 26 103 248h123L172-252H49L170 27-30 463H95z"/><glyph glyph-name="z" unicode="z" horiz-adv-x="446" d="M223 332q8 12 17.5 22t17.5 17 26 20q-36-18-57-18H30l-1 90h414L223 131l-15-20q-10-11-26-23.5T162 72q21 12 33 16t24 4l23-1h188V0H3z"/><glyph glyph-name="braceleft" unicode="{" horiz-adv-x="325" d="M107 432v326q0 36 21.5 56.5T191 835h91v-53h-12q-33 0-45-12t-12-45V443q0-36-24-58t-51-25q14-2 44.5-16.5T213 277V-5q0-34 11.5-45.5T270-62h12v-53h-91q-40 0-62 20t-22 57v326q0 32-18 52t-46 20q28 0 46 20t18 52z"/><glyph glyph-name="bar" unicode="|" horiz-adv-x="176" d="M43 720h90V0H43v720z"/><glyph glyph-name="braceright" unicode="}" horiz-adv-x="325" d="M43-62h12q34 0 46 12t12 45v282q0 53 30 67t45 16q-15 2-45 16t-30 67v282q0 34-11.5 45.5T55 782H43v53h91q41 0 63-20t22-57V432q0-31 17.5-51.5T282 360q-27 0-45-20t-18-52V-38q0-36-22.5-56.5T134-115H43v53z"/><glyph glyph-name="asciitilde" unicode="~" horiz-adv-x="423" d="M121 907q25 0 41-5l25-8 27-10 22-8q25-9 40-13.5t26-4.5q22 0 33 9t20 34l77-4q-6-63-39-98t-86-35q-8 0-18 .5t-21 3.5l-29 8-25 9-20 9-25 8-26 9-23 3q-42 0-52-44l-78 3q27 134 131 134z"/><glyph glyph-name="Euro" horiz-adv-x="610" d="M592 537q-85 84-190 84-104 0-177-76.5T152 359q0-111 73.5-186.5T406 97q101 0 186 79V38l-13-6-54-24q-22-9-53.5-15T409-13Q248-13 139 93T30 358t110 268 270 109q54 0 89-10t93-42V537zM-12 393l27 64h421l-27-64H-12zm0-128l27 64h367l-27-64H-12z"/><glyph glyph-name="Euro" unicode="€" horiz-adv-x="610" d="M592 537q-85 84-190 84-104 0-177-76.5T152 359q0-111 73.5-186.5T406 97q101 0 186 79V38l-13-6-54-24q-22-9-53.5-15T409-13Q248-13 139 93T30 358t110 268 270 109q54 0 89-10t93-42V537zM-12 393l27 64h421l-27-64H-12zm0-128l27 64h367l-27-64H-12z"/><glyph glyph-name="nonbreakingspace" horiz-adv-x="500"/><glyph glyph-name="exclamdown" unicode="¡" horiz-adv-x="228" d="M118 721q32 0 56-24t24-56q0-33-23.5-56.5T118 561t-56.5 23.5T38 641t23.5 56.5T118 721zM62 505h112V-13H62v518z"/><glyph glyph-name="cent" unicode="¢" horiz-adv-x="418" d="M253 542h46v-66q12 0 21.5-.5t24.5-4 23.5-7T399 450V325q-17 24-41 36.5T299 374V83q60 11 99 47V11l-4-2Q362-5 343.5-9.5T299-14v-70h-45v71Q154-13 92 55T30 228t63 176 160 71v67zm0-177q-45-10-71-47.5T156 225t25.5-90.5T253 89v276z"/><glyph glyph-name="sterling" unicode="£" horiz-adv-x="550" d="M26 104q9 2 16.5 3.5T65 116q51 18 75.5 53.5T165 256q0 17-5 38H35v91h89q-48 74-48 150 0 82 64.5 137.5T302 728q91 0 153.5-45.5T536 558l-109-55q0 57-33 91t-85 34q-49 0-81-30t-32-75q0-38 18-71l29-44 15-23h173v-92H277l1-21q0-17-3.5-36.5t-11-36T239 163t-24-25.5-24-14.5q26 0 49-3.5t44-10.5l32-7q21-7 52-7 68 0 113 51l45-96q-56-62-151-62-39 0-117 17l-46 11q-27 7-48.5 10T126 29Q69 29 26 1v103z"/><glyph glyph-name="currency" unicode="¤" horiz-adv-x="494" d="M103 272q-13 17-21 42.5T74 363q0 48 29 88l-59 57q14 20 33 37l62-60q41 30 90 30 50 0 90-29l60 60 10-8q14-12 25-30l-59-56q29-41 29-91t-30-91l60-60-8-8-8-9-20-18-59 60q-41-30-90-30-50 0-90 31l-62-60-9 8-8 9-9 9-8 10zm53 15q30-30 74-30 42 0 72 30t30 74q0 42-30 72t-73 30-73-30-30-73q0-41 30-73z"/><glyph glyph-name="yen" unicode="¥" horiz-adv-x="625" d="M161 721l117-195q7-13 11.5-21.5t9-19.5 7.5-26.5 6-33.5q3 17 6 30.5t8 28 9.5 23T347 526l117 195h141L441 452h123v-94H386l-12-11v-15h190v-94H374V0H252v238H62v94h190v15l-8 11H62v94h126L19 721h142z"/><glyph glyph-name="section" unicode="§" horiz-adv-x="581" d="M72 637q0 80 64.5 132.5T301 822q101 0 166.5-56.5T533 617l-107 4q-6 55-40.5 87.5T299 741q-44 0-77.5-29.5T188 644q0-36 20.5-56.5t27-24.5 29.5-12l185-66q51-18 80-59t29-95q0-104-105-149 56-53 56-121 0-83-63-136t-162-53q-103 0-169.5 54.5T49 66v17l106-4-1-8q0-51 37-85t93-34q47 0 77.5 27.5T392 50q0 67-76 95l-188 64Q19 244 19 354q0 108 113 158-60 53-60 125zm147-176l-17 1q-28 0-47.5-25.5T135 375q0-33 22-59t60-37l147-47h5q36 0 58 23t22 61q0 65-71 89z"/><glyph glyph-name="dieresis" unicode="¨" horiz-adv-x="255" d="M31 649q27 0 47-20t20-47q0-28-20-48t-49-20q-28 0-47 19t-19 49q0 27 20 47t48 20zm195 0q27 0 46-20t19-47q0-28-19-48t-46-20q-28 0-47.5 19.5T159 582q0 28 19.5 47.5T226 649z"/><glyph glyph-name="copyright" unicode="©" horiz-adv-x="862" d="M167 624q54 54 122.5 81.5T432 733q73 0 141-27.5t149.5-109T804 361q0-155-109-264T431-12 167 97 58 361q0 74 28 142t81 121zm39-493q45-45 104.5-69.5T432 37t120 23.5T656 131t69.5 107T749 361q0 64-23.5 123t-69 105-105 70.5T430 684t-120-23.5-128-95T112 361q0-65 24-124.5T206 131zm363 363q-37 31-68.5 37t-49.5 6q-66 0-115-41t-56-83-7-57q0-66 41-116t80.5-57 52.5-7q52 0 98 29l23 16 33-47q-32-27-70-41.5T450 118q-103 0-173 68t-70 167q0 22 4 46t21.5 70 76.5 87 135 41h19l49-7.5 90-48.5z"/><glyph glyph-name="ordfeminine" unicode="ª" horiz-adv-x="446" d="M403 336v-68H53v68h350zm-74 384h74V385h-75v69l-3-8-4-8q-16-28-47-45t-69-17q-32 0-87 22T46 515l-3 39q0 77 48 127t114 50q15 0 50-7.5t65-52.5l5-9 4-7v65zM122 531q6-35 28-58t45.5-27 30.5-4q22 0 56 15.5t41 48.5 7 49q0 7-7 43t-35.5 49-42 16-21.5 3q-37 0-66-25t-37-67l-1-20q-1-5-.5-11.5T122 531z"/><glyph glyph-name="guillemotleft" unicode="«" horiz-adv-x="444" d="M175 469l68-52-123-165L241 89l-73-52L19 253zm182 0l68-52-123-165L423 89l-74-52-148 216z"/><glyph glyph-name="logicalnot" unicode="¬" horiz-adv-x="590" d="M43 450h504V216h-72v144H43v90z"/><glyph glyph-name="registered" unicode="®" horiz-adv-x="862" d="M167 624q54 54 122.5 81.5T432 733q73 0 141-27.5t149.5-109T804 361q0-155-109-264T431-12 167 97 58 361q0 74 28 142t81 121zm39-493q45-45 104.5-69.5T432 37t120 23.5T656 131t69.5 107T749 361q0 64-23.5 123t-69 105-105 70.5T430 684t-120-23.5-128-95T112 361q0-65 24-124.5T206 131zm105 464h114q39 0 62.5-6t49.5-28 32-52 6-44q0-47-28-79.5T473 345l-15-1 141-209h-77L376 358V135h-65v460zm103-214q44 0 69 21t25 58q0 81-89 81h-43V381h38z"/><glyph glyph-name="plusminus" unicode="±" horiz-adv-x="549" d="M506 19H44v68h462V19zM309 331h197v-68H309V141h-68v122H44v68h197v122h68V331z"/><glyph glyph-name="acute" unicode="´" horiz-adv-x="223" d="M156 701l86-56L92 508l-56 36z"/><glyph glyph-name="mu" unicode="µ" horiz-adv-x="576" d="M166 153q0-71 14-95t50-24q57 0 95 81t38 204v130h92V121q0-45 9.5-66T493 34q20 0 31.5 20.5T536 116v14h21l1-9v-13q0-55-23.5-86T468-9q-49 0-75.5 43T366 163q-23-89-61.5-130.5T208-9q-42 0-73 26-28 27-40 77l-1-28q0-65 32-142t32-91q0-20-11-31t-31-11q-23 0-33 17t-10 53l2 58 2 89-1 101-2 95v245h92V153z"/><glyph glyph-name="paragraph" unicode="¶" horiz-adv-x="600" d="M557 720v-58H241q-58 0-99-42t-41-102q0-58 41-99t99-41h67v238h61V0h-61v320h-67q-82 0-140 58T43 520q0 83 57.5 141.5T241 720h316zM434 616h61V0h-61v616z"/><glyph glyph-name="cedilla" unicode="¸" horiz-adv-x="152" d="M101-27l72-41L71-212l-54 34z"/><glyph glyph-name="ordmasculine" unicode="º" horiz-adv-x="446" d="M49 336h349v-68H49v68zm-2 255q13 65 61 105t113 40h15.5l46.5-8.5 80-58L403 555q0-18-3-38-13-63-63-103t-114-40q-18 0-54 7t-73.5 44-45 73-7.5 56v15.5l4 21.5zm72-57q13-74 53.5-83t52.5-9q38 0 66 25t36 66q2 16 2 22 0 60-45 91-26 20-60 20-23 0-58.5-16.5T119 575l-2-21z"/><glyph glyph-name="guillemotright" unicode="»" horiz-adv-x="448" d="M147 257L22 417l71 53 153-211L89 37 19 91zm182 0L203 417l71 53 154-211L269 37l-68 54z"/><glyph glyph-name="questiondown" unicode="¿" horiz-adv-x="490" d="M252 745q32 0 55.5-23.5T331 665t-23.5-56.5T252 585q-33 0-56.5 23.5T172 665t23.5 56.5T252 745zm-58-217h113V333l-40 4q-62 0-100-34t-38-91q0-55 33-89t89-34q53 0 83.5 31.5T365 208h110q0-101-62-161T250-13Q147-13 80 51T13 214q0 89 49 146t132 65v103z"/><glyph glyph-name="Agrave" unicode="À" horiz-adv-x="624" d="M312 747L661 0H531l-70 160H163L94 0H-37zM210 262h204l-73 166q-18 41-23.5 63.5T312 557q0-38-2.5-52.5T296 461l-13-33zm63 733l121-157-56-38-150 138z"/><glyph glyph-name="Aacute" unicode="Á" horiz-adv-x="624" d="M312 747L661 0H531l-70 160H163L94 0H-37zM210 262h204l-73 166q-18 41-23.5 63.5T312 557q0-38-2.5-52.5T296 461l-13-33zm146 732l86-56-150-137-56 36z"/><glyph glyph-name="Acircumflex" unicode="Â" horiz-adv-x="624" d="M312 747L661 0H531l-70 160H163L94 0H-37zM210 262h204l-73 166q-18 41-23.5 63.5T312 557q0-38-2.5-52.5T296 461l-13-33zm83 733h31l151-128-53-63-109 98-111-100-54 62z"/><glyph glyph-name="Atilde" unicode="Ã" horiz-adv-x="624" d="M312 747L661 0H531l-70 160H163L94 0H-37zM210 262h204l-73 166q-18 41-23.5 63.5T312 557q0-38-2.5-52.5T296 461l-13-33zm35 671q15 0 30-5l18-7 21-9 16-7q34-16 51-16 15 0 23.5 8t16.5 30l57-3q0-55-26.5-88.5T384 802q-17 0-29 5l-23 7-17 7-16 8-19 8-20 8-15 3q-34 0-41-40l-58 3q20 122 99 122z"/><glyph glyph-name="Adieresis" unicode="Ä" horiz-adv-x="624" d="M209 855q29 0 50-20t21-50q0-29-21-50t-50-21q-30 0-51 20t-21 51q0 30 21 50t51 20zm206 0q29 0 50-20t21-50q0-29-21-50t-50-21q-30 0-50.5 20.5T344 785q0 29 20.5 49.5T415 855zM312 747L661 0H531l-70 160H163L94 0H-37zM210 262h204l-73 166q-18 41-23.5 63.5T312 557q0-38-2.5-52.5T296 461l-13-33z"/><glyph glyph-name="Aring" unicode="Å" horiz-adv-x="624" d="M288 686q-47 24-65 45.5T205 787q0 47 32 81t77 34q44 0 76-34t32-81q0-33-17.5-55.5T342 686L661 0H531l-70 160H163L94 0H-37zm126-424l-73 166q-18 41-23.5 63.5T312 557q0-38-2.5-52.5T296 461l-13-33-73-166h204zM314 747q18 0 31.5 13.5T359 792q0 20-13 33t-32 13q-18 0-32-13t-14-33q0-18 13.5-31.5T314 747z"/><glyph glyph-name="AE" unicode="Æ" horiz-adv-x="952" d="M310 749l13-28h349l49-107H371l87-190h352l49-107H508l94-211h350l51-106H521l-66 164H159L91 0H-37zM198 261h219l-82 207-14 33q-4 10-7 26.5t-5 32.5q0-21-2.5-34.5T298 501l-14-33z"/><glyph glyph-name="Ccedilla" unicode="Ç" horiz-adv-x="601" d="M582 537q-87 84-191 84-105 0-177-76t-72-186q0-111 73.5-186.5T396 97q53 0 96 18t90 61V38l-13-6-54-24q-23-9-54.5-15T398-13Q237-13 128 93T19 358t110 268 270 109q53 0 88.5-10t94.5-42V537zM354-19l72-42-102-143-54 33z"/><glyph glyph-name="Egrave" unicode="È" horiz-adv-x="477" d="M58 721h378V614H176V423h254V317H176V106h260V0H58v721zm141 274l121-157-56-38-150 138z"/><glyph glyph-name="Eacute" unicode="É" horiz-adv-x="477" d="M58 721h378V614H176V423h254V317H176V106h260V0H58v721zm225 273l86-56-150-137-56 36z"/><glyph glyph-name="Ecircumflex" unicode="Ê" horiz-adv-x="477" d="M58 721h378V614H176V423h254V317H176V106h260V0H58v721zm162 274h31l151-128-53-63-109 98-111-100-54 62z"/><glyph glyph-name="Edieresis" unicode="Ë" horiz-adv-x="477" d="M58 721h378V614H176V423h254V317H176V106h260V0H58v721zm84 221q27 0 47-20t20-47q0-28-20-48t-49-20q-28 0-47 19t-19 49q0 27 20 47t48 20zm195 0q27 0 46-20t19-47q0-28-19-48t-46-20q-28 0-47.5 19.5T270 875q0 28 19.5 47.5T337 942z"/><glyph glyph-name="Igrave" unicode="Ì" horiz-adv-x="235" d="M58 721l118-1V0H58v721zm21 274l121-157-56-38L-6 938z"/><glyph glyph-name="Iacute" unicode="Í" horiz-adv-x="235" d="M58 721l118-1V0H58v721zm104 273l86-56L98 801l-56 36z"/><glyph glyph-name="Icircumflex" unicode="Î" horiz-adv-x="235" d="M58 721l118-1V0H58v721zm41 274h31l151-128-53-63-109 98L8 802l-54 62z"/><glyph glyph-name="Idieresis" unicode="Ï" horiz-adv-x="235" d="M58 721l118-1V0H58v721zM21 942q27 0 47-20t20-47q0-28-20-48t-49-20q-28 0-47 19t-19 49q0 27 20 47t48 20zm195 0q27 0 46-20t19-47q0-28-19-48t-46-20q-28 0-47.5 19.5T149 875q0 28 19.5 47.5T216 942z"/><glyph glyph-name="Ntilde" unicode="Ñ" horiz-adv-x="765" d="M58 748l480-456q7-7 14-14.5t15.5-20 15.5-26 15-34.5q-2 23-5 44t-3 33l-1 42v405h118V-31L229 426l-26 31q-9 12-18 25.5T156 528q12-34 16-51t4-35V0H58v748zm257 185q15 0 30-5l18-7 21-9 16-7q34-16 51-16 15 0 23.5 8t16.5 30l57-3q0-55-26.5-88.5T454 802q-17 0-29 5l-23 7-17 7-16 8-19 8-20 8-15 3q-34 0-41-40l-58 3q20 122 99 122z"/><glyph glyph-name="Ograve" unicode="Ò" horiz-adv-x="817" d="M409 736q160 0 269-108t109-268q0-159-109.5-267.5T409-16Q249-16 139.5 92.5T30 360t109.5 267.5T409 736zM152 360q0-109 74.5-185.5T409 98q106 0 181 76t75 186-74 186-182 76q-107 0-182-76t-75-186zm217 635l121-157-56-38-150 138z"/><glyph glyph-name="Oacute" unicode="Ó" horiz-adv-x="817" d="M409 736q160 0 269-108t109-268q0-159-109.5-267.5T409-16Q249-16 139.5 92.5T30 360t109.5 267.5T409 736zM152 360q0-109 74.5-185.5T409 98q106 0 181 76t75 186-74 186-182 76q-107 0-182-76t-75-186zm301 634l86-56-150-137-56 36z"/><glyph glyph-name="Ocircumflex" unicode="Ô" horiz-adv-x="817" d="M409 736q160 0 269-108t109-268q0-159-109.5-267.5T409-16Q249-16 139.5 92.5T30 360t109.5 267.5T409 736zM152 360q0-109 74.5-185.5T409 98q106 0 181 76t75 186-74 186-182 76q-107 0-182-76t-75-186zm238 635h31l151-128-53-63-109 98-111-100-54 62z"/><glyph glyph-name="Otilde" unicode="Õ" horiz-adv-x="817" d="M409 736q160 0 269-108t109-268q0-159-109.5-267.5T409-16Q249-16 139.5 92.5T30 360t109.5 267.5T409 736zM152 360q0-109 74.5-185.5T409 98q106 0 181 76t75 186-74 186-182 76q-107 0-182-76t-75-186zm189 573q15 0 30-5l18-7 21-9 16-7q34-16 51-16 15 0 23.5 8t16.5 30l57-3q0-55-26.5-88.5T480 802q-17 0-29 5l-23 7-17 7-16 8-19 8-20 8-15 3q-34 0-41-40l-58 3q20 122 99 122z"/><glyph glyph-name="Odieresis" unicode="Ö" horiz-adv-x="817" d="M409 737q158 0 268-109t110-268q0-158-109.5-267.5T409-17 140 92 30 360t110 268 269 109zM200 855q30 0 50-20t20-50-20.5-50.5T200 714q-30 0-50.5 20.5T129 785t20 50 51 20zm417 0q30 0 51-20t21-50-21.5-50.5T617 714t-50 20-21 51q0 29 20.5 49.5T617 855zM409 97q107 0 181.5 76.5T665 360q0 109-75 186t-181 77q-107 0-182-77t-75-186 75-186 182-77z"/><glyph glyph-name="Oslash" unicode="Ø" horiz-adv-x="821" d="M129 106q-28 33-63.5 86T30 360q0 159 109.5 267.5T409 736q72 0 121-17.5t72-32.5 66-51l95 91 27-27-95-91 36-49q56-90 56-200 0-159-109-267T409-16q-72 0-119.5 17T219 32.5 157 81L58-15 30 10zm114 57q26-22 40-31t46.5-21.5T409 98q106 0 181 76t75 186q0 74-34 131l-21 32zm341 389q-20 14-37.5 26t-54 25.5T411 617q-107 0-180.5-74.5T157 360q0-36 9-69.5t26-66.5l23-35z"/><glyph glyph-name="Ugrave" unicode="Ù" horiz-adv-x="669" d="M612 292q0-89-23.5-155t-93-111T335-19q-118 0-178.5 56T77 147.5 58 292v429h118V275q0-85 42-134t116-49q73 0 116 49.5T493 275v446h119V292zM295 995l121-157-56-38-150 138z"/><glyph glyph-name="Uacute" unicode="Ú" horiz-adv-x="669" d="M612 292q0-89-23.5-155t-93-111T335-19q-118 0-178.5 56T77 147.5 58 292v429h118V275q0-85 42-134t116-49q73 0 116 49.5T493 275v446h119V292zM379 994l86-56-150-137-56 36z"/><glyph glyph-name="Ucircumflex" unicode="Û" horiz-adv-x="669" d="M612 292q0-89-23.5-155t-93-111T335-19q-118 0-178.5 56T77 147.5 58 292v429h118V275q0-85 42-134t116-49q73 0 116 49.5T493 275v446h119V292zM316 995h31l151-128-53-63-109 98-111-100-54 62z"/><glyph glyph-name="Udieresis" unicode="Ü" horiz-adv-x="669" d="M248 899q29 0 50-20t21-51q0-29-21-50t-50-21-50.5 20.5T176 828t21.5 50.5T248 899zm174 0q29 0 50-21t21-50-20-50-51-21q-29 0-50.5 20.5T350 828q0 29 21 50t51 21zm190-607q0-89-23.5-155t-93-111T335-19q-118 0-178.5 56T77 147.5 58 292v429h118V275q0-85 42-134t116-49q73 0 116 49.5T493 275v446h119V292z"/><glyph glyph-name="germandbls" unicode="ß" horiz-adv-x="569" d="M58 628q0 83 62 139t157 56q97 0 161-56t64-140q0-59-31.5-104.5T382 454q75-19 118-76t43-138q0-101-62.5-172.5T283-4q-34 0-69 5v101q26-9 55-9 69 0 112.5 43.5T425 248q0 72-47.5 112.5T244 401l-23-2v91l19-1q69 0 106 32t37 93q0 49-29 80t-76 31q-52 0-79-34t-27-105V0H58v628z"/><glyph glyph-name="agrave" unicode="à" horiz-adv-x="588" d="M419 463h111V0H418v85q-43-96-164-96-98 0-161 67T30 228t65.5 177.5T255 478q113 0 164-95v80zM145 232q0-62 39-103t98-41q60 0 100 42t40 104-40.5 103.5T282 379t-98-42-39-105zm110 470l121-157-56-38-150 138z"/><glyph glyph-name="aacute" unicode="á" horiz-adv-x="588" d="M419 463h111V0H418v85q-43-96-164-96-98 0-161 67T30 228t65.5 177.5T255 478q113 0 164-95v80zM145 232q0-62 39-103t98-41q60 0 100 42t40 104-40.5 103.5T282 379t-98-42-39-105zm193 469l86-56-150-137-56 36z"/><glyph glyph-name="acircumflex" unicode="â" horiz-adv-x="588" d="M419 463h111V0H418v85q-43-96-164-96-98 0-161 67T30 228t65.5 177.5T255 478q113 0 164-95v80zM145 232q0-62 39-103t98-41q60 0 100 42t40 104-40.5 103.5T282 379t-98-42-39-105zm130 470h31l151-128-53-63-109 98-111-100-54 62z"/><glyph glyph-name="atilde" unicode="ã" horiz-adv-x="588" d="M419 463h111V0H418v85q-43-96-164-96-98 0-161 67T30 228t65.5 177.5T255 478q113 0 164-95v80zM145 232q0-62 39-103t98-41q60 0 100 42t40 104-40.5 103.5T282 379t-98-42-39-105zm82 408q15 0 30-5l18-7 21-9 16-7q34-16 51-16 15 0 23.5 8t16.5 30l57-3q0-55-26.5-88.5T366 509q-17 0-29 5l-23 7-17 7-16 8-19 8-20 8-15 3q-34 0-41-40l-58 3q20 122 99 122z"/><glyph glyph-name="adieresis" unicode="ä" horiz-adv-x="588" d="M208 685q28 0 47.5-19.5T275 617q0-27-20-47t-47-20-47 20-20 47q0 29 19.5 48.5T208 685zm194 0q29 0 48.5-19.5T470 617q0-28-19.5-47.5T402 550q-27 0-47 20t-20 47q0 29 19.5 48.5T402 685zm17-222h111V0H418v85q-43-96-164-96-98 0-161 67T30 228t65.5 177.5T255 478q113 0 164-95v80zM145 232q0-62 39-103t98-41q60 0 100 42t40 104-40.5 103.5T282 379t-98-42-39-105z"/><glyph glyph-name="aring" unicode="å" horiz-adv-x="588" d="M419 463h111V0H418v85q-43-96-164-96-98 0-161 67T30 228t65.5 177.5T255 478q113 0 164-95v80zM282 719q44 0 76-32t32-77-31.5-76.5T281 502q-44 0-75.5 31.5T174 610q0 44 31.5 76.5T282 719zM145 232q0-62 39-103t98-41q60 0 100 42t40 104-40.5 103.5T282 379t-98-42-39-105zm92 378q0-19 13-32t32-13q18 0 31 13t13 32q0 20-12.5 32.5T281 655q-18 0-31-13t-13-32z"/><glyph glyph-name="ae" unicode="æ" horiz-adv-x="838" d="M347 305q-15 91-124 91-77 0-142-45l-2 101 28 11q63 21 133 21 143 0 182-102 58 100 173 100 99 0 159-67t60-179l-1-32H464Q484 77 600 77q77 0 122 82l80-43Q735-14 599-14q-130 0-186 96-24-45-76-70.5T218-14q-84 0-136 43T30 143t50.5 115T213 302q88 0 138-41zm125-29h238q0 58-32.5 92.5T591 403q-53 0-86-34t-33-93zM134 142q0-32 29-51t75-19q52 0 82.5 21.5T351 150q0 34-31 53t-86 19q-48 0-74-19t-26-56v-5z"/><glyph glyph-name="ccedilla" unicode="ç" horiz-adv-x="403" d="M384 325q-34 49-104 49-62 0-100.5-40.5T141 229q0-63 37.5-103.5T275 85q60 0 109 46V12q-65-27-120-27-106 0-175.5 68.5T19 228q0 107 71 180t177 73q56 0 117-31V325zM231-18l73-41-102-144-54 33z"/><glyph glyph-name="egrave" unicode="è" horiz-adv-x="523" d="M144 201q6-59 40.5-91.5T275 77q81 0 128 79l82-50q-32-57-87.5-89T274-15Q166-15 98 53T30 229q0 109 68.5 180.5T270 481q107 0 168-71t61-194v-15H144zm2 82h238q-7 53-38 83t-79 30-80-30-41-83zm76 419l121-157-56-38-150 138z"/><glyph glyph-name="eacute" unicode="é" horiz-adv-x="523" d="M144 201q6-59 40.5-91.5T275 77q81 0 128 79l82-50q-32-57-87.5-89T274-15Q166-15 98 53T30 229q0 109 68.5 180.5T270 481q107 0 168-71t61-194v-15H144zm2 82h238q-7 53-38 83t-79 30-80-30-41-83zm160 418l86-56-150-137-56 36z"/><glyph glyph-name="ecircumflex" unicode="ê" horiz-adv-x="523" d="M144 201q6-59 40.5-91.5T275 77q81 0 128 79l82-50q-32-57-87.5-89T274-15Q166-15 98 53T30 229q0 109 68.5 180.5T270 481q107 0 168-71t61-194v-15H144zm2 82h238q-7 53-38 83t-79 30-80-30-41-83zm97 419h31l151-128-53-63-109 98-111-100-54 62z"/><glyph glyph-name="edieresis" unicode="ë" horiz-adv-x="523" d="M144 201q6-59 40.5-91.5T275 77q81 0 128 79l82-50q-32-57-87.5-89T274-15Q166-15 98 53T30 229q0 109 68.5 180.5T270 481q107 0 168-71t61-194v-15H144zm2 82h238q-7 53-38 83t-79 30-80-30-41-83zm19 366q27 0 47-20t20-47q0-28-20-48t-49-20q-28 0-47 19t-19 49q0 27 20 47t48 20zm195 0q27 0 46-20t19-47q0-28-19-48t-46-20q-28 0-47.5 19.5T293 582q0 28 19.5 47.5T360 649z"/><glyph glyph-name="igrave" unicode="ì" horiz-adv-x="152" d="M19 463h113V0H19v463zm18 239l121-157-56-38-150 138z"/><glyph glyph-name="iacute" unicode="í" horiz-adv-x="152" d="M19 463h113V0H19v463zm102 238l86-56L57 508 1 544z"/><glyph glyph-name="icircumflex" unicode="î" horiz-adv-x="152" d="M19 463h113V0H19v463zm39 239h31l151-128-53-63-109 98-111-100-54 62z"/><glyph glyph-name="idieresis" unicode="ï" horiz-adv-x="152" d="M19 463h113V0H19v463zm-39 186q27 0 47-20t20-47q0-28-20-48t-49-20q-28 0-47 19t-19 49q0 27 20 47t48 20zm195 0q27 0 46-20t19-47q0-28-19-48t-46-20q-28 0-47.5 19.5T108 582q0 28 19.5 47.5T175 649z"/><glyph glyph-name="ntilde" unicode="ñ" horiz-adv-x="541" d="M58 463h112v-80q48 91 150 91 31 0 59-9.5t54-30.5 38-53 12-88V0H371v258q0 57-24 86.5T277 374q-50 0-78-32t-28-90V0H58v463zm145 177q15 0 30-5l18-7 21-9 16-7q34-16 51-16 15 0 23.5 8t16.5 30l57-3q0-55-26.5-88.5T342 509q-17 0-29 5l-23 7-17 7-16 8-19 8-20 8-15 3q-34 0-41-40l-58 3q20 122 99 122z"/><glyph glyph-name="ograve" unicode="ò" horiz-adv-x="561" d="M279 480q107 0 179-71t72-178q0-105-72-177T280-18q-104 0-177 72T30 230q0 105 71.5 177.5T279 480zM142 231q0-61 40-103t99-42 98 41 39 104q0 61-39.5 102.5T280 375q-58 0-98-42t-40-102zm99 471l121-157-56-38-150 138z"/><glyph glyph-name="oacute" unicode="ó" horiz-adv-x="561" d="M279 480q107 0 179-71t72-178q0-105-72-177T280-18q-104 0-177 72T30 230q0 105 71.5 177.5T279 480zM142 231q0-61 40-103t99-42 98 41 39 104q0 61-39.5 102.5T280 375q-58 0-98-42t-40-102zm183 470l86-56-150-137-56 36z"/><glyph glyph-name="ocircumflex" unicode="ô" horiz-adv-x="561" d="M279 480q107 0 179-71t72-178q0-105-72-177T280-18q-104 0-177 72T30 230q0 105 71.5 177.5T279 480zM142 231q0-61 40-103t99-42 98 41 39 104q0 61-39.5 102.5T280 375q-58 0-98-42t-40-102zm120 471h31l151-128-53-63-109 98-111-100-54 62z"/><glyph glyph-name="otilde" unicode="õ" horiz-adv-x="561" d="M279 480q107 0 179-71t72-178q0-105-72-177T280-18q-104 0-177 72T30 230q0 105 71.5 177.5T279 480zM142 231q0-61 40-103t99-42 98 41 39 104q0 61-39.5 102.5T280 375q-58 0-98-42t-40-102zm71 409q15 0 30-5l18-7 21-9 16-7q34-16 51-16 15 0 23.5 8t16.5 30l57-3q0-55-26.5-88.5T352 509q-17 0-29 5l-23 7-17 7-16 8-19 8-20 8-15 3q-34 0-41-40l-58 3q20 122 99 122z"/><glyph glyph-name="odieresis" unicode="ö" horiz-adv-x="561" d="M183 685q28 0 47.5-19.5T250 617q0-27-20-47t-47-20-47 20-20 47q0 29 19.5 48.5T183 685zm194 0q29 0 48.5-19.5T445 617q0-28-19.5-47.5T377 550q-27 0-47 20t-20 47q0 28 20 48t47 20zm-98-205q107 0 179-71t72-178q0-105-72-177T280-18q-104 0-177 72T30 230q0 105 71.5 177.5T279 480zM142 231q0-61 40-103t99-42 98 41 39 104q0 61-39.5 102.5T280 375q-58 0-98-42t-40-102z"/><glyph glyph-name="divide" unicode="÷" horiz-adv-x="549" d="M275 158q24 0 40-16t16-41q0-24-17-40-15-17-39-17t-40.5 17.5T218 101q0 24 17.5 40.5T275 158zm231 44H43v68h463v-68zM275 427q24 0 40-17t16-40q0-24-17-40-15-17-39-17t-40.5 16.5T218 370t17.5 40.5T275 427z"/><glyph glyph-name="oslash" unicode="ø" horiz-adv-x="561" d="M89 69L68 98q-38 59-38 132 0 105 71.5 177.5T279 480q52 0 89.5-15t75.5-44l61 55 26-26-59-60 21-28q37-56 37-131 0-105-72-177T281-18q-51 0-82.5 12.5t-46 21T118 40L58-17 30 9zm106 47q44-30 86-30 59 0 98 41t39 104q0 29-4 44t-20 39zm171 229q-38 30-85 30-59 0-99-41t-40-103q0-26 5.5-44t20.5-41z"/><glyph glyph-name="ugrave" unicode="ù" horiz-adv-x="545" d="M486 202q0-38-3-62.5T465 81t-69.5-64T272-13q-90 0-137 37T73 99.5 58 202v261h113V199q0-54 26-82t75-28q102 0 102 110v264h112V202zM233 702l121-157-56-38-150 138z"/><glyph glyph-name="uacute" unicode="ú" horiz-adv-x="545" d="M486 202q0-38-3-62.5T465 81t-69.5-64T272-13q-90 0-137 37T73 99.5 58 202v261h113V199q0-54 26-82t75-28q102 0 102 110v264h112V202zM317 701l86-56-150-137-56 36z"/><glyph glyph-name="ucircumflex" unicode="û" horiz-adv-x="545" d="M486 202q0-38-3-62.5T465 81t-69.5-64T272-13q-90 0-137 37T73 99.5 58 202v261h113V199q0-54 26-82t75-28q102 0 102 110v264h112V202zM254 702h31l151-128-53-63-109 98-111-100-54 62z"/><glyph glyph-name="udieresis" unicode="ü" horiz-adv-x="545" d="M175 685q28 0 47.5-19.5T242 617q0-28-19.5-47.5T175 550t-48 20-20 47q0 29 19.5 48.5T175 685zm195 0q28 0 47.5-19.5T437 617q0-27-20-47t-47-20-47 20-20 47q0 29 19.5 48.5T370 685zm116-483q0-38-3-62.5T465 81t-69.5-64T272-13q-90 0-137 37T73 99.5 58 202v261h113V199q0-54 26-82t75-28q102 0 102 110v264h112V202z"/><glyph glyph-name="ydieresis" unicode="ÿ" horiz-adv-x="444" d="M95 463l108-247q13-30 17.5-48t4.5-49q0 28 2.5 41.5T237 189l12 26 103 248h123L172-252H49L170 27-30 463H95zm30 186q27 0 47-20t20-47q0-28-20-48t-49-20q-28 0-47 19t-19 49q0 27 20 47t48 20zm195 0q27 0 46-20t19-47q0-28-19-48t-46-20q-28 0-47.5 19.5T253 582q0 28 19.5 47.5T320 649z"/><glyph glyph-name="dotlessi" unicode="ı" horiz-adv-x="152" d="M19 463h113V0H19v463z"/><glyph glyph-name="OE" unicode="Œ" horiz-adv-x="1083" d="M668 721h374V618H784V424h258V318H782V106h259V0H665v94l-17-20q-87-93-239-93-158 0-268.5 109.5T30 357q0 156 111.5 267.5T410 736q55 0 111-17t96-45q25-20 51-53v100zM155 360q0-109 73-183t181-74q107 0 181.5 73.5T665 356q0 108-74 183t-181 75q-105 0-180-74t-75-180z"/><glyph glyph-name="oe" unicode="œ" horiz-adv-x="901" d="M651 480q102 0 164-68t62-180l-1-34H521q10-60 45-93t91-33q83 0 127 86l85-43q-33-65-87.5-99T657-18Q509-18 463 94 403-14 272-14 168-14 99 56T30 234q0 102 70 174t170 72q65 0 116.5-30t79.5-84q49 114 185 114zM532 274h238q0 56-33 89t-85 33-83.5-31.5T532 274zm-388-46q0-63 38.5-103.5T280 84q60 0 98.5 41.5T417 232t-38 106-100 41q-59 0-97-42t-38-109z"/><glyph glyph-name="Ydieresis" unicode="Ÿ" horiz-adv-x="497" d="M97 721l117-195q5-8 12-22.5t10.5-23T243 457t6-32q2 17 5.5 32t7 24.5 10 22.5 11.5 22l117 195h142L310 347V0H188v347L-44 721H97zm55 221q27 0 47-20t20-47q0-28-20-48t-49-20q-28 0-47 19t-19 49q0 27 20 47t48 20zm195 0q27 0 46-20t19-47q0-28-19-48t-46-20q-28 0-47.5 19.5T280 875q0 28 19.5 47.5T347 942z"/><glyph glyph-name="florin" unicode="ƒ" horiz-adv-x="422" d="M-5-142q16-13 34-13 28 0 46.5 22.5T98-72l44 440H85l10 93h57l20 190q5 48 11.5 66.5t40.5 62T333 823q17 0 31-2t32-8l-11-107q-16 13-36 13-23 0-38-15.5T289 668q-6-10-6-33l-18-174h93l-10-92h-93L209-86q-5-50-12-70.5T154.5-219 50-261q-27 0-64 10z"/><glyph glyph-name="hungarumlaut" unicode="ʺ" horiz-adv-x="223" d="M156 701l86-56L92 508l-56 36z"/><glyph glyph-name="caron" unicode="ˇ" horiz-adv-x="307" d="M44 703l111-101 109 97 53-62-151-128h-31L-10 641z"/><glyph glyph-name="macron" unicode="ˉ" horiz-adv-x="317" d="M-1 609h317v-88H-1v88z"/><glyph glyph-name="breve" unicode="˘" horiz-adv-x="328" d="M55 708q17-58 40.5-82t66.5-24q47 0 71.5 22t41.5 82l53-64q-34-71-70.5-99T161 515q-61 0-96 28.5T1 646z"/><glyph glyph-name="dotaccent" unicode="˙" horiz-adv-x="272" d="M35 917l226-92-23-62-248 60z"/><glyph glyph-name="ring" unicode="˚" horiz-adv-x="255" d="M128 718q44 0 76-32t32-77-32.5-76.5T126 501q-44 0-75.5 31.5T19 609q0 44 31.5 76.5T128 718zM82 609q0-19 13-32t33-13q18 0 31 13t13 32-13 32-33 13q-18 0-31-13t-13-32z"/><glyph glyph-name="ogonek" unicode="˛" horiz-adv-x="199" d="M99 147q33 0 56.5-23.5T179 67t-23.5-56.5T99-13 42.5 10.5 19 67t23.5 56.5T99 147z"/><glyph glyph-name="circumflex" unicode="̂" horiz-adv-x="307" d="M135 702h31l151-128-53-63-109 98L44 509l-54 62z"/><glyph glyph-name="tilde" unicode="̃" horiz-adv-x="312" d="M89 640q15 0 30-5l18-7 21-9 16-7q34-16 51-16 15 0 23.5 8t16.5 30l57-3q0-55-26.5-88.5T228 509q-17 0-29 5l-23 7-17 7-16 8-19 8-20 8-15 3q-34 0-41-40l-58 3q20 122 99 122z"/><glyph glyph-name="summation" unicode="Σ" horiz-adv-x="713" d="M618 643l15-129h-44q-32 105-85 144t-169 39H203l315-431-344-394h187q122 0 172.5 31.5T616 20h45l-30-130-2-7q-23-99-111-99H36l389 446L50 744h460q65 0 82-15 17-13 26-86z"/><glyph glyph-name="Omega" unicode="Ω" horiz-adv-x="768" d="M593 90q48 0 68 19t20 67h23V0H432v180q77 15 122.5 76.5T600 408q0 106-59 168.5T384 639t-157-62.5T168 408q0-90 44.5-151T336 180V0H64v176h23q0-48 19-67t69-19h123v59q-118 21-183 89T50 408q0 121 92.5 194T384 675t241.5-73.5T718 408q0-100-64-168t-184-91V90h123z"/><glyph glyph-name="pi" unicode="π" horiz-adv-x="549" d="M404 373l-1-24-3-150v-40q0-84 8.5-105T439 33q28 0 41 29 17 31 17 89h25v-5q0-80-26-118t-80-38q-56 0-79.5 40T313 194l1 78 3 104-50 1-77 2q0-234-23-311.5T87-10q-35 0-52.5 29T17 105v19h24q0-27 9.5-39.5T78 72q42 0 54.5 47t18 110.5T156 379h-22q-38 0-59.5-13.5T47 326H24q0 34 10 57.5T70.5 428 183 449l102-3 152-3q34 0 49.5 7t16.5 21l23 1q0-53-23.5-76.5T428 372h-14z"/><glyph glyph-name="endash" unicode="–" d="M66 408h476v-94H66v94z"/><glyph glyph-name="emdash" unicode="—" horiz-adv-x="996" d="M30 406h936v-95H30v95z"/><glyph glyph-name="quoteleft" unicode="‘" horiz-adv-x="216" d="M126 721h76l-71-293H-4z"/><glyph glyph-name="quoteright" unicode="’" horiz-adv-x="218" d="M67 721h132L68 428h-78z"/><glyph glyph-name="quotesinglbase" unicode="‚" horiz-adv-x="218" d="M67 200h132L68-91h-78z"/><glyph glyph-name="quotedblleft" unicode="“" horiz-adv-x="395" d="M126 721h76l-71-293H-4zm179 0h76l-72-293H174z"/><glyph glyph-name="quotedblright" unicode="”" horiz-adv-x="397" d="M67 721h132L68 428h-78zm178 0h132L246 428h-77z"/><glyph glyph-name="quotedblbase" unicode="„" horiz-adv-x="397" d="M67 200h132L68-91h-78zm178 0h132L246-91h-77z"/><glyph glyph-name="dagger" unicode="†" horiz-adv-x="595" d="M12 566l230-2v228h110V564l231 2 1-111-228 2v-600H240v600l-228-2v111z"/><glyph glyph-name="daggerdbl" unicode="‡" horiz-adv-x="613" d="M248 189l1 266-228-2v109l229-2-2 227 113 1 1-227 229 3 3-108H365V191l226 1 1-108-228 2 2-228H254l-3 227-230-3-2 107h229z"/><glyph glyph-name="bullet" unicode="•" horiz-adv-x="199" d="M99 308q34 0 57-23t23-57q0-32-23-56t-57-24q-32 0-56 24t-24 56q0 33 23.5 56.5T99 308z"/><glyph glyph-name="ellipsis" unicode="…" horiz-adv-x="996" d="M167 133q30 0 51-21t21-51-21-51-51-21-51 21-21 51 21 51 51 21zm333 0q30 0 51-21t21-51-21-51-51-21-51 21-21 51 21 51 51 21zm333 0q30 0 51-21t21-51-21-51-51-21-51 21-21 51 21 51 51 21z"/><glyph glyph-name="perthousand" unicode="‰" horiz-adv-x="1003" d="M164 742q61 0 103-56t42-137-42-137-103-56q-59 0-102 56.5T19 548q0 81 42 137.5T164 742zm313 14l65-28L192-28 128 0zm24-393q61 0 103-56t42-136-42.5-136.5T501-22 398.5 34.5 356 171t42 136 103 56zm337 0q60 0 103-56t43-136-42.5-136.5T838-22q-60 0-102.5 56.5T693 171t42 136 103 56zM427 197q0-89 21-121 6-12 21.5-20t31.5-8 31.5 8T555 76t13.5 44 6.5 49v23q-3 12-7.5 35.5t-12 37-23 21.5-31.5 8q-33 0-53.5-27.5T427 197zM92 548q0-22 6-51t13.5-42.5T134 433t30-8q37 0 50.5 24t20.5 66l3 31q0 26-6 55t-15 43q-6 12-21.5 20t-31.5 8q-14 0-29-8t-23-20.5-14-41-6-54.5zm672-377q0-19 6-50.5t14-44T807 56t32-8q15 0 30.5 8.5t23.5 21 16 55.5l3 36-3 40q-7 39-15.5 54T870 286t-31 8-31-8-25-23-15-54z"/><glyph glyph-name="guilsinglleft" unicode="‹" horiz-adv-x="263" d="M175 469l68-52-123-165L241 89l-73-52L19 253z"/><glyph glyph-name="guilsinglright" unicode="›" horiz-adv-x="266" d="M147 257L22 417l71 53 153-211L89 37 19 91z"/><glyph glyph-name="trademark" unicode="™" horiz-adv-x="723" d="M43 720h218v-54h-80V360h-60v306H43v54zm273 7h39l92-217q17-38 17-68 0 28 17 68l93 217h39l67-367h-60l-35 206-1 11-1 10v38l-10-37-4-15-2-5-90-214h-25l-90 214-2 5-5 15-10 37v-18.5l1-19.5-1-10-2-11-35-206h-59z"/><glyph glyph-name="partialdiff" unicode="∂" horiz-adv-x="494" d="M358 287q4 14 6.5 28t2.5 31l3 89q0 85-15.5 126T307 602q-18 0-50-35t-56-35q-16 0-25.5 7.5T164 564q0 29 30.5 50t71.5 21q77 0 111.5-54T424 478t12-111q0-163-64.5-271.5T214-13q-68 0-110 51T62 175q0 82 53 143.5T240 380q44 0 72.5-22t45.5-71zm-102 62q-52 0-86-60t-34-161q0-57 21.5-88T220 9q53 0 87 62t34 153q0 58-21.5 91.5T256 349z"/><glyph glyph-name="Delta" unicode="∆" horiz-adv-x="612" d="M595 0H21l276 672h22zM92 45h373L279 504z"/><glyph glyph-name="product" unicode="∏" horiz-adv-x="823" d="M118-176v880H30v40h767v-40h-88v-880h88v-40H533v40h84v880H210v-880h84v-40H30v40h88z"/><glyph glyph-name="fraction" unicode="∕" horiz-adv-x="190" d="M227 723h61L-32-3h-62z"/><glyph glyph-name="periodcentered" unicode="∙" horiz-adv-x="199" d="M99 308q34 0 57-23t23-57q0-32-23-56t-57-24q-32 0-56 24t-24 56q0 33 23.5 56.5T99 308z"/><glyph glyph-name="radical" unicode="√" horiz-adv-x="549" d="M594 764h-57L247-20h-32L59 411l-61-22-12 39 138 48 125-346 252 681h93v-47z"/><glyph glyph-name="infinity" unicode="∞" horiz-adv-x="713" d="M366 238q-33-62-71.5-93T209 114q-66 0-111 52.5T53 298q0 83 41 134.5T199 484q47 0 82.5-29.5T347 360q31 62 69.5 93t87.5 31q63 0 109-53t46-131q0-83-40.5-134.5T514 114q-46 0-84 30-36 31-64 94zm-36 89q-26 46-59 69.5T195 420q-51 0-84-35t-33-90q0-54 29.5-88.5T184 172q40 0 71.5 31.5T330 327zm53-56q23-45 58-70 35-23 77-23 52 0 84.5 35t32.5 90q0 56-30 89.5T525 426q-37 0-71-36t-71-119z"/><glyph glyph-name="integral" unicode="∫" horiz-adv-x="274" d="M283 757q36 0 58.5-18.5T364 690q0-20-13-34t-36-14q-29 0-44 32t-29 32q-57 0-57-310l-3-98q0-63-4.5-120t-14-128-31-120-60-80T-9-181q-35 0-58 18.5T-90-114q0 22 12.5 34.5T-41-67q29 0 44-31t30-32q57 0 57 324l2 84q0 60 4 116t13.5 127.5T141 644t59.5 82 82.5 31z"/><glyph glyph-name="approxequal" unicode="≈" horiz-adv-x="549" d="M15 100v77q49 31 87 44.5t74 13.5q44 0 115-24t99-24 61.5 15 82.5 52v-78q-42-28-76.5-41.5T385 121q-32 0-104 23.5T165 168q-28 0-53.5-11t-48-24.5T15 100zm0 119v77q23 14 43.5 25t50.5 21.5 66 10.5q42 0 114.5-23.5T390 306q27 0 60 14.5t84 51.5v-77q-18-12-41-24t-49-21.5-59-9.5-104.5 23.5T170 287q-35 0-66-13.5T15 219z"/><glyph glyph-name="notequal" unicode="≠" horiz-adv-x="549" d="M413 336h91v-64H355l-73-72h222v-64H223L105 18 62 62l74 74H45v64h150l73 72H45v64h281l118 118 44-44z"/><glyph glyph-name="lessequal" unicode="≤" horiz-adv-x="549" d="M506 18H43v68h463V18zM162 280l344-107v-70L44 248v65l462 145v-70z"/><glyph glyph-name="greaterequal" unicode="≥" horiz-adv-x="549" d="M506 18H43v68h463V18zm0 230L43 103v70l344 107L43 388v70l463-145v-65z"/><glyph glyph-name="lozenge" unicode="◊" horiz-adv-x="494" d="M247 807l244-518-244-522L3 289zm0-119L59 289l188-403 188 403z"/><glyph glyph-name="apple" unicode="" horiz-adv-x="790" d="M408 594l-1 7v11q0 61 46 112t116 64v-12l1-18q0-64-50.5-114.5T420 593h-4zm327-397Q679 76 634 29.5T535-17q-25 0-64 16t-60 16q-23 0-64-16t-62-16q-30 0-63 21-13 10-30.5 27.5t-48.5 60T83.5 212 55 360q0 107 61.5 174.5T274 602q16 0 35.5-4t51.5-17 49-13q18 0 61 17t73 17q55 0 97.5-19.5T719 522q-49-31-73.5-70.5T621 362q0-54 30-98t84-67z"/><glyph glyph-name="fi" unicode="" d="M238 362L108 492l64 64 130-130 132 132 68-69-132-132 129-129-63-64-130 129-132-131-68 68z"/><glyph glyph-name="fl" unicode="" horiz-adv-x="341" d="M113 626H14v95h218V0H113v626z"/><glyph glyph-name="glyph225" horiz-adv-x="484" d="M82 173q57-78 136-78 49 0 80.5 30.5T330 203q0 56-56 89l-15 7-17 8-40 16q-61 27-115.5 66.5T32 526q0 90 65 151t160 61q83 0 120.5-27.5t43.5-33 20-21.5l-70-85q-48 59-109 59-45 0-73-27t-28-70q0-52 28.5-70t38-22.5T268 424l38-15 54-26q98-54 98-173 0-101-67.5-164.5T216-18Q115-18 72.5 17T21 63 3 84zm50 823l111-101 109 97 53-62-151-128h-31L78 934z"/><glyph glyph-name="glyph226" horiz-adv-x="377" d="M107 133q18-61 75-61 27 0 44.5 15.5T244 126q0 18-11 29t-41 23l-27 11q-25 10-42 18.5t-54 32T32 337q0 63 45.5 104.5T190 483q112 0 153-96l-97-31q-11 41-51 41-21 0-36-15t-15-36q0-19 10-29 7-10 18.5-15t25.5-10l7-3 29-11q27-10 39-16t47-32 35-93q0-66-49-110T182-17Q51-17 10 94zM79 703l111-101 109 97 53-62-151-128h-31L25 641z"/><glyph glyph-name="glyph227" horiz-adv-x="563" d="M341 565q10 21 44 64-23-6-36-8t-38-2H31v102h535L218 150q-7-13-24.5-33T168 88q25 7 39 9t42 2h297V0H-8zM172 996l111-101 109 97 53-62-151-128h-31L118 934z"/><glyph glyph-name="glyph228" horiz-adv-x="446" d="M223 332q8 12 17.5 22t17.5 17 26 20q-36-18-57-18H30l-1 90h414L223 131l-15-20q-10-11-26-23.5T162 72q21 12 33 16t24 4l23-1h188V0H3zM113 703l111-101 109 97 53-62-151-128h-31L59 641z"/><glyph glyph-name="Eurosymbolbar" horiz-adv-x="448" d="M0 393l27 64h421l-27-64H0zm0-128l27 64h367l-27-64H0z"/></font>
</defs>
</svg>
