<svg xmlns="http://www.w3.org/2000/svg" width="190" height="46"><path d="M120.1 24.9c.3-.9.6-1.3.9-1.1.3.2.3.8 0 1.9-.1.3-.2.8-.6 1.6-.3.8-.8 1.8-1.3 2.9-.5 1.1-1.1 2.2-1.8 3.4-.7 1.2-1.4 2.2-2.3 3.2-.8.9-1.7 1.6-2.5 2.1-.9.5-1.8.6-2.7.4-1.5-.3-2.2-1.3-2.2-2.8 0-1.1.2-2.4.5-3.8s.7-2.6 1.1-3.7l1.4-3c.1-.3.2-.5.1-.5s-.1.1-.3.2c-.3.3-.6.5-.9.8-.4.3-.7.5-1.2.7-.4.2-.8.3-1.2.3s-.8-.1-1.2-.4c-.3-.3-.6-.6-.7-1.1-.1-.4-.2-.9-.2-1.4 0-.5.1-1 .2-1.4.1-.5.3-.9.5-1.2.3-.6.7-1 1.2-1.2.5-.2 1-.2 1.4-.1.4.1.8.3 1.1.7.3.3.4.7.4 1.2-.1.5-.2 1-.4 1.4-.2.4-.4.9-.6 1.3-.1.1-.1.2-.2.4-.1.1 0 .2.2 0l3.5-3.4c.4-.4 1-.7 1.6-.8.6-.1 1.2 0 1.6.2.4.3.8.8 1 1.4.2.6.1 1.2-.3 1.8-.4.6-1 1.6-1.7 2.9-.7 1.3-1.4 2.7-2 4-.6 1.4-1 2.6-1.3 3.7-.2 1.1-.1 1.7.4 1.8.4-.1.9-.4 1.6-1.1.7-.7 1.4-1.6 2.3-2.8.8-1.1 1.6-2.5 2.4-4 1-1.3 1.7-2.9 2.2-4.5z"/><path d="M119.1 35.3c0 .8.3 1.4.9 1.8.6.4 1.3.6 1.9.5 1.1-.2 2.3-.7 3.3-1.4 1.1-.7 2.1-1.5 3-2.5.9-.9 1.7-1.9 2.4-2.9s1.3-1.9 1.8-2.8l1.2-2.1c.4-.7.7-1.2 1-1.6.3-.4.5-.5.6-.4.1.1.1.7-.1 1.6 0 .1-.2.5-.5 1.2s-.8 1.6-1.4 2.6c-.6 1-1.4 2.1-2.2 3.3-.8 1.2-1.8 2.3-2.9 3.2-1.1 1-2.2 1.8-3.5 2.5s-2.6 1-3.9.9c-2-.1-3.4-.5-4.3-1.5-.8-.9-1.2-2.1-1.2-3.5s.3-2.9.9-4.4c.6-1.5 1.5-2.9 2.5-4.1 1-1.2 2.2-2.2 3.5-3 1.3-.8 2.7-1.2 4.1-1.2 1.1 0 2 .2 2.7.7.7.5 1.1 1.1 1.1 2 0 .9-.2 1.8-.7 2.6-.4.8-1 1.6-1.7 2.3-.7.7-1.5 1.3-2.5 1.9-1 .5-1.9 1-2.9 1.4-.4.2-.9.3-1.5.5-.6.1-1.1.1-1.4 0-.1.6-.2 1.4-.2 2.4zm4.1-8.2c-.7.8-1.3 1.6-1.9 2.3-.5.7-1 1.5-1.4 2.3.4-.2 1-.3 1.6-.5.5-.2 1.1-.4 1.8-.8s1.4-.8 2.1-1.4c.7-.5 1.3-1.1 1.8-1.7.5-.6.9-1.2 1.1-1.9s.1-1.1-.1-1.2c-.2-.2-.6-.1-1.1.1-.5.2-1.1.6-1.8 1.1-.7.5-1.4 1-2.1 1.7z"/><path d="M153 24.7c.4-.5.8-.7 1.2-.5.4.2.4.7-.1 1.4-.7 1.2-1.6 2.6-2.5 4.3-1 1.6-2.1 3.2-3.2 4.7-1.2 1.5-2.4 2.7-3.8 3.7-1.3 1-2.7 1.4-4.1 1.2-.8-.1-1.3-.3-1.7-.7-.4-.4-.7-.8-.8-1.2-.2-.4-.2-.8-.2-1.1 0-.3 0-.4-.1-.4-.4.7-1.1 1.4-2 2.2-.9.7-1.8 1.1-2.7 1.1-.8 0-1.5-.2-2.1-.6-.6-.4-1-1-1.3-2-.3-1.3-.3-2.9.2-4.7.4-1.8 1.2-3.6 2.2-5.3 1-1.7 2.4-3 3.9-4.1 1.6-1.1 3.4-1.5 5.3-1.2.7.1 1.3.2 1.9.4.6.1 1.2.4 1.7.9.6.5 1 1 1.2 1.5.2.4.2.7.1.9.8.2 1 .6.7 1.2l-1.6 3.4c-.4.9-.8 1.7-1.2 2.6-.4.8-.7 1.6-1 2.3-.3.7-.5 1.2-.6 1.7-.1.4-.1.7.1.8.4.3 1.1.1 2-.7.9-.8 1.8-1.9 2.9-3.2 1-1.3 2.1-2.8 3.1-4.4.8-1.5 1.7-2.9 2.5-4.2zm-11.9-1.5c-.9.1-1.7.5-2.5 1.3-.8.7-1.6 1.6-2.3 2.7-.7 1.1-1.3 2.2-1.8 3.4-.5 1.2-.9 2.4-1.1 3.4-.2 1-.3 1.9-.3 2.6.1.7.3 1.1.8 1.1.5.1 1.2-.5 2.1-1.6.9-1.1 1.8-2.3 2.8-3.7.9-1.4 1.7-2.8 2.3-4.1.6-1.3.9-2.1.9-2.5-.1-.2.3-.3 1-.5s1.4-.3 2.1-.2c-.4-.4-.9-.8-1.5-1.4-.5-.5-1.4-.7-2.5-.5z"/><path d="M155.2 8.9c.4-.4.8-.7 1.4-.8.5-.2 1-.2 1.5-.2.9 0 1.6.3 2.1.8.4.5.7 1.2.7 2 0 .4 0 .9-.1 1.5s-.3 1.2-.7 2c1.2 0 2.7 0 4.6-.1 1.9-.1 3.9-.1 6-.2s4.3-.1 6.4 0c2.2 0 4.1.1 5.9.3 1.8.2 3.2.4 4.3.7s1.6.7 1.6 1.3c0 .5-.1.9-.2 1.2-.2.3-.4.5-.7.6-.1 0-.2 0-.1-.1 0-.1.1-.2.1-.4V17c-.1-.2-.2-.4-.4-.7-.3-.3-1.2-.6-2.5-.7-1.3-.1-3-.2-4.8-.3-1.9-.1-3.9-.1-6.1 0-2.2 0-4.3.1-6.2.1-2 .1-3.7.1-5.2.2s-2.5.1-3.1.1c-.5 1.3-1.1 2.8-1.8 4.5-.7 1.7-1.4 3.4-2.1 5.2-.7 1.8-1.4 3.5-2.1 5.2-.7 1.7-1.3 3.1-1.8 4.3-.4 1-.6 1.7-.5 2.1 0 .4.2.6.5.6s.7-.2 1.2-.6c.5-.4 1-.9 1.5-1.5 1.1-1.4 2.3-3 3.5-5 1.2-2 2.3-3.7 3.1-5.3 0-.4.3-.6.8-.6.3 0 .5.2.5.7-.1.2-.3.7-.7 1.6-.4.8-.9 1.8-1.4 2.9-.6 1.1-1.3 2.2-2.1 3.4-.8 1.2-1.6 2.3-2.5 3.3s-1.8 1.8-2.7 2.4c-.9.6-1.8.8-2.7.7-.9-.1-1.5-.4-2-.7-.5-.4-.7-1-.7-1.9 0-.5.1-1.2.4-2 .2-.8.6-1.8.9-2.9.4-1.1.8-2.3 1.3-3.5.5-1.3 1-2.5 1.5-3.9.8-2.2 1.5-4 2.1-5.5.6-1.5 1-2.6 1.3-3.2-1.4 0-2.8.1-4.1.2-1.1.1-2.2.3-3.4.5-1.2.2-2.2.5-3 .8-.3.2-.5.2-.5.1-.1-.1-.1-.3-.1-.5s.1-.4.2-.6c.1-.2.2-.3.2-.3.7-.4 1.5-.7 2.5-.9 1-.2 2-.3 3.1-.4 1-.1 2.1-.1 3-.1 1 0 1.8 0 2.5-.1l.7-2.2c-.3-.1-.6-.2-.8-.5-.2-.3-.4-.6-.5-.9-.1-.3-.1-.7 0-1-.3-.6-.1-.9.2-1.2zm1.1 2.3c.3-1.2.4-1.8.2-1.7-.4 0-.7.2-.7.7 0 .5.1 1 .4 1.4l.1-.4z"/><path d="M175.1 25c.3-.4.6-.5.9-.5.3.1.5.3.6.8-.1.2-.3.8-.6 1.6-.3.9-.7 1.8-1.3 2.8-.6 1-1.2 1.9-2 2.8-.8.9-1.6 1.4-2.6 1.6-.2.1-.5 0-1 0-.4-.1-.8-.3-1.2-.6-.4.8-.9 1.6-1.4 2.5-.5.8-1.1 1.5-1.8 2.1-.7.6-1.4 1.1-2.1 1.4-.8.3-1.6.4-2.6.3-1.1-.1-2-.5-2.6-1.3-.6-.7-1-2-1-3.7-.1-1.6.2-3.2.7-4.9.5-1.7 1.2-3.2 2.1-4.6.9-1.4 2-2.5 3.3-3.4 1.3-.9 2.7-1.3 4.2-1.1 1.7.1 2.8.7 3.2 1.8.4 1.1.6 2.5.5 4.2-.1.6-.2 1.4-.4 2.3-.2.9-.5 2-1.1 3.1.1 0 .1 0 .2.1.7.5 1.3.6 2 .1s1.3-1.2 1.8-2.1c.6-.9 1.1-1.9 1.5-2.9.2-1 .5-1.8.7-2.4zm-14.8 10.1c-.1.5 0 1.1.3 1.6.2.5.7.8 1.4.8.9 0 1.8-.5 2.7-1.5.8-1 1.7-2.2 2.4-3.5-.5-.8-.7-1.6-.6-2.6.1-.9.4-1.8.9-2.5s1-1.2 1.4-1.5c.1-.7.1-1.4-.1-2.2-.2-.8-.5-1.1-1.1-1.1-.7 0-1.4.3-2.2 1-.8.7-1.6 1.6-2.3 2.8-.7 1.2-1.4 2.5-1.9 4-.6 1.5-.9 3.1-.9 4.7zm8.2-7.4c-.3.5-.6 1.4-.9 2.5l.1.7c.1-.5.2-1 .4-1.5s.3-1 .4-1.6v-.1z"/><path d="M188.2 24.9c.3-.9.6-1.3.9-1.1.3.2.3.8 0 1.9-.1.3-.2.8-.6 1.6-.3.8-.8 1.8-1.3 2.9-.5 1.1-1.1 2.2-1.8 3.4-.7 1.2-1.4 2.2-2.3 3.2-.8.9-1.7 1.6-2.5 2.1-.9.5-1.8.6-2.7.4-1.5-.3-2.2-1.3-2.2-2.8 0-1.1.2-2.4.5-3.8s.7-2.6 1.1-3.7l1.4-3c.1-.3.1-.5.1-.5s-.1.1-.3.2c-.3.3-.6.5-.9.8-.4.3-.7.5-1.2.7-.4.2-.8.3-1.2.3-.4 0-.8-.1-1.2-.4-.3-.3-.6-.6-.7-1.1-.1-.4-.2-.9-.2-1.4 0-.5.1-1 .2-1.4.1-.5.3-.9.5-1.2.3-.6.7-1 1.2-1.2.5-.2 1-.2 1.4-.1.4.1.8.3 1.1.7.3.3.4.7.4 1.2-.1.5-.2 1-.4 1.4-.2.4-.4.9-.6 1.3-.1.1-.1.2-.2.4-.1.1 0 .2.2 0l3.5-3.4c.4-.4 1-.7 1.6-.8.6-.1 1.2 0 1.6.2.4.3.8.8 1 1.4.2.6.1 1.2-.3 1.8-.4.6-1 1.6-1.7 2.9-.7 1.3-1.4 2.7-2 4-.6 1.4-1 2.6-1.3 3.7-.2 1.1-.1 1.7.4 1.8.4-.1.9-.4 1.6-1.1.7-.7 1.4-1.6 2.3-2.8.8-1.1 1.6-2.5 2.4-4 1-1.3 1.6-2.9 2.2-4.5z"/><path d="M.6 43V17.5s0-.4.1-.6c0-.2.1-.6.2-.8.1-.2.5-.8.6-1l.8-.8c.2-.2.9-.5 1.1-.6.2-.1.6-.2.8-.2h6.5c4.5 0 7.8.9 9.9 2.6 2.1 1.7 3.1 4.4 3.1 8s-1.1 6.2-3.2 7.9c-2.1 1.7-5.3 2.5-9.7 2.5H5.7v4.6s0 .4-.1.6c0 .2-.1.6-.2.8-.1.2-.5.8-.6 1l-.8.8c-.2.2-.9.5-1.1.6-.4 0-.7.1-.9.1H.6zm16.5-14.8c1-1.1 1.5-2.6 1.5-4.7s-.6-3.5-1.9-4.4c-1.3-.9-3.3-1.3-6-1.3h-5v11.9h5.8c2.7.1 4.6-.4 5.6-1.5zM54.6 39c-3 2.9-6.7 4.4-11.2 4.4-4.4 0-8.2-1.5-11.2-4.4-3-2.9-4.5-6.6-4.5-11s1.5-8.1 4.5-11c3-2.9 6.7-4.4 11.2-4.4 4.4 0 8.2 1.5 11.2 4.4 3 2.9 4.5 6.6 4.5 11s-1.5 8.1-4.5 11zm-3.7-18.6c-2-2.1-4.5-3.2-7.5-3.2s-5.4 1.1-7.5 3.2c-2 2.1-3 4.7-3 7.6 0 3 1 5.5 3 7.6 2 2.1 4.5 3.2 7.5 3.2s5.4-1.1 7.5-3.2c2-2.1 3-4.7 3-7.6 0-3-1-5.5-3-7.6zM65.5 43V17.5s0-.4.1-.6c0-.2.1-.6.2-.8.1-.2.5-.8.6-1l.8-.8c.2-.2.9-.5 1.1-.6.2-.1.6-.2.8-.2h6.5c4.5 0 7.8.9 9.9 2.6 2.1 1.7 3.1 4.4 3.1 8s-1.1 6.2-3.2 7.9c-2.1 1.7-5.3 2.5-9.7 2.5h-5.3v4.6s0 .4-.1.6-.1.6-.2.8c-.1.2-.5.8-.6 1l-.8.8c-.2.2-.9.5-1.1.6-.2 0-.6.1-.8.1h-1.3zM82 28.2c1-1.1 1.5-2.6 1.5-4.7s-.6-3.5-1.9-4.4c-1.3-.9-3.3-1.3-6-1.3h-5.1v11.9h5.8c2.8.1 4.7-.4 5.7-1.5z" fill="#d51a69"/><path d="M110 2.7c-.4-.8-1-1.4-1.8-1.9S106.4.1 105 0c-2.3-.1-4.7.5-7.2 1.7s-4.9 2.8-7.3 5c-5.8 5.2-9.7 11.7-9.6 11.7-1 1.7-2 3.4-2.8 5.2-.8 1.7-1.3 2.9-1.9 5.1 0 0 3.7.2 5.4-.9 1.4-4.9 5.4-10.1 6.8-12 1.7-2.8 3.6-5 5.6-7 2-2 3.9-3.6 5.8-4.8 1.9-1.2 3.7-1.8 5.3-1.8 1.6 0 2.6.7 3 2.1.4 1.4.5 3 .1 4.9-.3 1.4-.9 2.9-1.7 4.5-.8 1.6-1.7 3.1-2.8 4.4-1.1 1.3-2.2 2.4-3.4 3.3-1.2.9-2.3 1.3-3.3 1.3-.7 0-1.3-.5-1.7-1.4-.3-.8-.3-2.3.1-4.3.1-.3.1-.7.1-1-.1-.4-.2-.5-.5-.5s-.5.3-.8.9c-.2.6-.4 1-.5 1.2-.4 1.9-.4 3.5.1 5 .4 1.5 1.3 2.2 2.5 2.3 1.8.1 3.4-.4 5-1.5s3-2.4 4.2-4.1c1.2-1.7 2.3-3.5 3.1-5.4.8-1.9 1.4-3.7 1.7-5.4.2-1 .3-2 .3-3 0-1.2-.2-2-.6-2.8zm-1.8 21.7c-.3 0-.6.1-1.1.5-.4.3-.8.7-1 1.2-1.7 3.1-3.5 5.8-5.5 8.1s-4 4.3-6 5.8c-2 1.6-4 2.7-5.9 3.4-1.9.7-3.7.9-5.3.6-1.8-.3-2.9-1.3-3.5-2.9-.8-2.2-.5-4.8-.4-6-1.2.2-4.8.3-4.8.3V37c.1 2.2.7 4 1.8 5.7 1.1 1.6 3 2.7 5.6 3.2 2.1.4 4.2.2 6.5-.6 2.2-.8 4.5-2 6.7-3.6s4.4-3.7 6.4-6c2.1-2.4 3.9-5 5.5-7.8.7-1.2 1.1-2.1 1.1-2.5.3-.7.2-.9-.1-1z"/></svg>