<svg xmlns="http://www.w3.org/2000/svg" width="168" height="48" viewBox="0 0 168 48"><defs><style>.a{fill:#fff;opacity:0;}.b{fill:#d61964;}</style></defs><g transform="translate(28 4615)"><g transform="translate(-54 -288)"><rect class="a" width="168" height="48" transform="translate(26 -4327)"/><g transform="translate(-61.25 -4777.233)"><path d="M164.6,468.941a.916.916,0,0,1-.915.741h-2.933v11.4a.886.886,0,0,1-.931.93h-1.908a.886.886,0,0,1-.931-.93v-11.4h-1.8a.886.886,0,0,1-.93-.931v-1.246a.886.886,0,0,1,.93-.931h1.8v-2.98a4.958,4.958,0,0,1,1.577-4.069,6.052,6.052,0,0,1,3.974-1.293,10.518,10.518,0,0,1,2.444.379.876.876,0,0,1,.662,1.056l-.268,1.309a.871.871,0,0,1-.883.789,1.074,1.074,0,0,1-.3-.047,7.906,7.906,0,0,0-1.688-.237c-1.4,0-1.75.836-1.75,2.113v2.98h3.2a.85.85,0,0,1,.915,1.136Z" transform="translate(0 0)"/><path class="b" d="M222.356,492.9a.886.886,0,0,1,.93.931v14.855c0,4.321-2.9,6.955-7.159,6.955a14.067,14.067,0,0,1-3.942-.631.916.916,0,0,1-.631-.678l-.331-1.435c-.173-.757.11-1.183.725-1.183a1.777,1.777,0,0,1,.473.063,15.735,15.735,0,0,0,3.706.615,3.484,3.484,0,0,0,2.4-.9,3.6,3.6,0,0,0,.994-2.807v-.946a5.09,5.09,0,0,1-3.091,1.057c-4.053,0-6.214-2.145-6.214-6.2v-8.768a.886.886,0,0,1,.931-.931h1.908a.886.886,0,0,1,.931.931V502.6c0,1.83.426,2.949,2.444,2.949a4.339,4.339,0,0,0,3.091-1.341V493.833a.886.886,0,0,1,.931-.931Z" transform="translate(-42.497 -26.327)"/><path d="M281.906,468.468a2.541,2.541,0,1,1-2.523-2.239A2.417,2.417,0,0,1,281.906,468.468Zm-.647,18.688a.886.886,0,0,1-.931.93H278.42a.886.886,0,0,1-.93-.93V473.578a.886.886,0,0,1,.93-.931h1.908a.886.886,0,0,1,.931.931Z" transform="translate(-93.106 -6.072)"/></g></g></g></svg>